<?xml version="1.0" encoding="UTF-8"?>
<svg id="Layer_1" data-name="Layer 1" xmlns="http://www.w3.org/2000/svg" viewBox="0 0 159.64 159.26">
  <defs>
    <style>
      .cls-1 {
        fill: #7a7d83;
      }

      .cls-1, .cls-2, .cls-3, .cls-4, .cls-5, .cls-6, .cls-7, .cls-8, .cls-9, .cls-10, .cls-11, .cls-12, .cls-13, .cls-14, .cls-15, .cls-16, .cls-17, .cls-18, .cls-19 {
        stroke-width: 0px;
      }

      .cls-2 {
        fill: #6d6f74;
      }

      .cls-3 {
        fill: #e3eef9;
      }

      .cls-4 {
        fill: #f1f8fd;
      }

      .cls-5 {
        fill: #cde3f4;
      }

      .cls-6 {
        fill: #6e7075;
      }

      .cls-7 {
        fill: #787b80;
      }

      .cls-8 {
        fill: #38c2d3;
      }

      .cls-9 {
        fill: #e9f5fd;
      }

      .cls-10 {
        fill: #d1e4f6;
      }

      .cls-11 {
        fill: #d0e3f5;
      }

      .cls-12 {
        fill: #797b80;
      }

      .cls-13 {
        fill: #7b7d83;
      }

      .cls-14 {
        fill: #48c4d6;
      }

      .cls-15 {
        fill: #7b7e83;
      }

      .cls-16 {
        fill: #6c6f73;
      }

      .cls-17 {
        fill: #47c4d6;
      }

      .cls-18 {
        fill: #77797f;
      }

      .cls-19 {
        fill: #77797e;
      }
    </style>
  </defs>
  <g id="_606wHz" data-name="606wHz">
    <g>
      <path class="cls-3" d="M89.71,51.36c-4.6,1.29-8.57,3.9-12.76,6.03-1.19-.42-2.07-1.49-3.42-1.59-5.74-.14-11.47,0-17.19-.07-1.96-.02-3.96.11-5.57-1.37.4-.83,1.16-1.02,1.98-1.08,2.38-1.59,5.14-1.59,7.72-1.24,12.55,1.68,23.52-2.27,33.76-9.07,2.77-1.84,5.78-3.27,9.79-5.28-11.57.1-22.09-.1-32.61.15-3.63.08-5.73,3.14-8.57,4.76-3.12,1.42-5.45,4.36-9.11,4.76-11.24-1.61-21.84-4.88-30.95-11.98-.51-3.75,3.99-4.53,4.51-7.64-2.63-1.97-5.63-.66-8.43-1.01-2.68-.34-5.56.7-8.01-1.22-2.35-7.04-4.7-14.08-7.06-21.12-.84-1.38-.15-2.2,1.09-2.68,3.48-1.35,11.11.74,13.49,3.74,2.79,3.51,5.79,6.92,8.04,10.78,2.16,3.71,5.19,4.69,9.14,4.65,8.65-.09,17.3-.03,25.95-.03,21.29,0,42.58,0,63.88,0,3.83,0,7.64.15,11.28,1.51,1.64,1.03,3.71,1.36,4.97,3.02-1.92,2.37-4.72,2.89-7.43,3.66-1.18.34-2.98.3-2.85,2.12.1,1.52,1.6,2.01,2.87,2.39,3.83,1.13,7.54.32,11.24-.75.79-.23,1.61-.41,2.44-.47,2.54,1.84,5.25,3.5,7.57,5.59,2.31,2.08,4.93,4.49,3.99,8.01-.8,3-3.21,4.9-6.33,5.7-1.92.49-3.82,1.51-5.73,1.51-12.42,0-24.85.92-37.26-.47-3.12-.35-6.29-.25-9.43-.36-.71-3.67,2.52-5.48,3.71-8.07-4.4,3.12-9.41,5.39-14.69,7.09Z"/>
      <path class="cls-4" d="M61.72,42.39c3.63-4.15,7.72-6.47,13.71-6.16,10.41.55,20.87.15,32.02.15-16.79,12.19-33.99,20.32-54.72,16.92.55-2.28,3-3.02,4.01-4.92-.25-3.59,3.33-3.99,4.98-5.99Z"/>
      <path class="cls-4" d="M136.66,22.39c-34.23,0-68.46-.05-102.69.09-3.76.02-6.12-1.07-8.11-4.32-2.76-4.5-6.01-8.71-9.21-12.92C13.82,1.52,6.89,1.17,3.8,4.41c-1.8-2.15-.66-3.34,1.45-3.88,6.22-1.6,11.59.5,15.48,5.72,2.67,3.57,5.6,6.95,8.24,10.54,1.49,2.03,3.5,1.59,5.42,1.6,14.79.03,29.57,0,44.36,0,.46-.39.96-.71,1.5-.96,5.82-.89,11.65-.26,17.48-.04,1.04,1.38,2.41,1.06,3.92,1.1,9.43.29,18.94-1.2,28.29.97,2.37.55,4.94.9,6.71,2.92Z"/>
      <path class="cls-17" d="M75.67,54.48c1.48.51,1.04,1.86,1.28,2.92-6.98,3.5-13.17,8.72-21.27,9.78-2.29-.54-4.57-.57-6.86.02-1.15.02-2.3.14-3.44.06-3.48-.25-3.96-2.27-2.07-4.62,2.14-2.66,4.8-4.92,7.23-7.35,6.4-.93,12.84-.14,19.26-.42,1.96-.09,3.97.39,5.88-.39Z"/>
      <path class="cls-14" d="M10.85,25.53c5.29-.04,10.57-.11,15.86-.12,2.09,0,3.93.27,2.06,3.01-3.51,3.01-7.77,4.1-12.19,4.79-3.29,1-6.58,1.99-9.87,2.99-1.94-.55-3.88-.49-5.83-.03-2.2-2.03.26-2.72,1.2-3.54,2.83-2.47,5.83-4.74,8.77-7.09Z"/>
      <path class="cls-19" d="M147.88,32.36c-3.62,3.03-12.71,4.13-16.22,1.78-1.13-.76-2.55-1.86-2.45-3.39.1-1.62,1.41-2.64,3.07-2.7,3.35-.12,6.14-2.09,9.35-2.64.75,3.51,4.05,4.74,6.25,6.96Z"/>
      <path class="cls-14" d="M79.73,18.37l-.49.08s-.49-.06-.49-.06c.46-2.33-1.25-5.31,2.06-6.77,2.95.45,5.89.56,8.83-.06,3.62.4,5.16,3.43,7.27,5.74-3.88,1.3-7.88.23-11.81.59-1.79.16-3.65-.45-5.38.48Z"/>
      <path class="cls-11" d="M89.71,51.36c5.27-2.97,10.53-5.93,16.49-9.29-.99,4.46-4.24,6.86-5.51,10.27-3.74.61-7.26-1.34-10.98-.98Z"/>
      <path class="cls-5" d="M16.58,33.21c3.84-2.16,8.06-3.36,12.19-4.79-2,2.33-4,4.65-6,6.98-2.26-.17-3.75-2.54-6.19-2.19Z"/>
      <path class="cls-8" d="M75.67,54.48c-5.81,1.97-11.79.43-17.67.85-2.48.18-4.98-.02-7.47-.04.08-.3.16-.61.23-.91,8.3.03,16.61.07,24.91.1Z"/>
      <path class="cls-8" d="M79.73,18.37c5.61-2.18,11.48-.33,17.18-1.07.27.02.54.05.81.09-5.88,2.49-12,.66-18,.98Z"/>
      <path class="cls-10" d="M61.72,42.39c-1.66,2-3.32,3.99-4.98,5.99-1.1-.04-2.28.17-3.01-.99,2.48-1.96,4.8-4.18,8-5Z"/>
      <path class="cls-8" d="M89.64,11.56c-2.94,1.35-5.88,1.27-8.83.06,2.94-.02,5.89-.04,8.83-.06Z"/>
      <path class="cls-8" d="M48.81,67.2c2.28-1.29,4.57-1.28,6.86-.02-2.29,0-4.57,0-6.86.02Z"/>
      <path class="cls-8" d="M.89,36.16c1.95-1.2,3.89-1.23,5.83.03-1.94-.01-3.89-.02-5.83-.03Z"/>
      <path class="cls-18" d="M70.58,33.14c-1.52,1.37-3.2,2.62-5.02.7-1.51-1.59-1.43-3.79-.31-5.4,1.41-2.03,3.35-1.43,5.03.03,1.55,1.46,1.13,3.06.3,4.67Z"/>
      <path class="cls-18" d="M100.75,30.99c-.96,1.08-.22,3.97-3.19,3.68-2.26-.22-2.92-1.9-2.81-3.92.11-2.05.96-3.54,3.28-3.47,2.12.06,2.76,1.47,2.72,3.71Z"/>
      <path class="cls-12" d="M47.27,27.5c2.11.2,2.36,1.84,2.38,3.55.02,2.1-.83,3.62-3.16,3.55-2.03-.06-2.57-1.44-2.88-3.32-.52-3.07,2.02-2.83,3.66-3.77Z"/>
      <path class="cls-7" d="M59.46,33.28c-1.26,2.04-3.02,1.99-4.52.6-1.45-1.34-1.51-3.32-.58-5.02,1.05-1.91,2.65-2.28,4.47-.85.78,1.69.05,3.55.63,5.26Z"/>
      <path class="cls-13" d="M85.62,27.96c1.84-1.33,3.36-1.04,4.37,1.02.86,1.75.95,3.69-.56,4.99-1.48,1.28-3.29,1.47-4.49-.69.65-1.72-.11-3.62.68-5.32Z"/>
      <path class="cls-15" d="M106.6,27.95c1.87-1.37,3.29-.93,4.33,1.07.92,1.77.98,3.62-.54,4.93-1.5,1.29-3.26,1.48-4.45-.68.63-1.72-.11-3.62.67-5.32Z"/>
      <path class="cls-1" d="M121.42,33.28c-1.2,2.15-2.95,1.95-4.44.64-1.51-1.32-1.45-3.22-.57-4.95,1.01-1.99,2.52-2.36,4.36-1.01.77,1.7.04,3.6.66,5.32Z"/>
      <path class="cls-9" d="M70.58,33.14c-.1-1.56-.2-3.12-.3-4.67,2.29,1.22,1.43,3.15,1.1,4.95,0,.04-.3.07-.42.03-.14-.05-.25-.2-.37-.3Z"/>
      <path class="cls-2" d="M59.46,33.28c-1.3-1.62-.54-3.49-.63-5.26,1.61,1.59,1.11,3.42.63,5.26Z"/>
      <path class="cls-6" d="M121.42,33.28c-1.35-1.63-.55-3.53-.66-5.32,1.62,1.6,1.18,3.45.66,5.32Z"/>
      <path class="cls-2" d="M85.62,27.96c-.11,1.79.71,3.69-.68,5.32-.49-1.86-.92-3.72.68-5.32Z"/>
      <path class="cls-16" d="M106.6,27.95c-.11,1.79.71,3.69-.67,5.32-.48-1.86-.97-3.72.67-5.32Z"/>
    </g>
  </g>
</svg>