<?xml version="1.0" encoding="UTF-8"?>
<svg id="Isolation_Mode" data-name="Isolation Mode" xmlns="http://www.w3.org/2000/svg" viewBox="0 0 291.78 161.21">
  <defs>
    <style>
      .cls-1 {
        fill: #bfecfb;
      }

      .cls-1, .cls-2, .cls-3, .cls-4, .cls-5, .cls-6, .cls-7, .cls-8, .cls-9, .cls-10, .cls-11, .cls-12, .cls-13, .cls-14, .cls-15, .cls-16, .cls-17, .cls-18, .cls-19, .cls-20, .cls-21, .cls-22, .cls-23, .cls-24, .cls-25, .cls-26, .cls-27, .cls-28, .cls-29, .cls-30, .cls-31, .cls-32, .cls-33, .cls-34, .cls-35, .cls-36, .cls-37, .cls-38, .cls-39, .cls-40, .cls-41, .cls-42, .cls-43, .cls-44, .cls-45, .cls-46, .cls-47, .cls-48, .cls-49, .cls-50, .cls-51, .cls-52, .cls-53, .cls-54, .cls-55, .cls-56, .cls-57, .cls-58, .cls-59, .cls-60, .cls-61, .cls-62, .cls-63, .cls-64, .cls-65, .cls-66, .cls-67, .cls-68, .cls-69, .cls-70, .cls-71, .cls-72, .cls-73, .cls-74, .cls-75, .cls-76, .cls-77, .cls-78, .cls-79, .cls-80, .cls-81, .cls-82, .cls-83, .cls-84, .cls-85, .cls-86, .cls-87, .cls-88, .cls-89 {
        stroke-width: 0px;
      }

      .cls-2 {
        fill: #b2e5fa;
      }

      .cls-3 {
        fill: #72bde9;
      }

      .cls-4 {
        fill: #a7d8f3;
      }

      .cls-5 {
        fill: #c7effc;
      }

      .cls-6 {
        fill: #72bae9;
      }

      .cls-7 {
        fill: #b4d785;
      }

      .cls-8 {
        fill: #bfe0ef;
      }

      .cls-9 {
        fill: #d3effa;
      }

      .cls-10 {
        fill: #cfebf9;
      }

      .cls-11 {
        fill: #e4f6fc;
      }

      .cls-12 {
        fill: #d9f1fb;
      }

      .cls-13 {
        fill: #afdcf6;
      }

      .cls-14 {
        fill: #daf1fa;
      }

      .cls-15 {
        fill: #e9f8ee;
      }

      .cls-16 {
        fill: #8bcaec;
      }

      .cls-17 {
        fill: #96d259;
      }

      .cls-18 {
        fill: #a3cc44;
      }

      .cls-19 {
        fill: #bee3f7;
      }

      .cls-20 {
        fill: #378648;
      }

      .cls-21 {
        fill: #2994d2;
      }

      .cls-22 {
        fill: #2c9ad6;
      }

      .cls-23 {
        fill: #92c73f;
      }

      .cls-24 {
        fill: #97c178;
      }

      .cls-25 {
        fill: #b8e0f6;
      }

      .cls-26 {
        fill: #70bce9;
      }

      .cls-27 {
        fill: #e3f7fc;
      }

      .cls-28 {
        fill: #4baade;
      }

      .cls-29 {
        fill: #55a537;
      }

      .cls-30 {
        fill: #4c9c4a;
      }

      .cls-31 {
        fill: #d2f5fd;
      }

      .cls-32 {
        fill: #2e893a;
      }

      .cls-33 {
        fill: #a9d15a;
      }

      .cls-34 {
        fill: #48a33f;
      }

      .cls-35 {
        fill: #98d1f0;
      }

      .cls-36 {
        fill: #a7d67e;
      }

      .cls-37 {
        fill: #79b259;
      }

      .cls-38 {
        fill: #53aee1;
      }

      .cls-39 {
        fill: #70bd45;
      }

      .cls-40 {
        fill: #49a9dc;
      }

      .cls-41 {
        fill: #ecf9fb;
      }

      .cls-42 {
        fill: #6fb154;
      }

      .cls-43 {
        fill: #c2f0fc;
      }

      .cls-44 {
        fill: #6bba44;
      }

      .cls-45 {
        fill: #5cac41;
      }

      .cls-46 {
        fill: #70be44;
      }

      .cls-47 {
        fill: #ccebf7;
      }

      .cls-48 {
        fill: #5bad40;
      }

      .cls-49 {
        fill: #5cb3e4;
      }

      .cls-50 {
        fill: #b2dff6;
      }

      .cls-51 {
        fill: #a8daf1;
      }

      .cls-52 {
        fill: #c0e4f8;
      }

      .cls-53 {
        fill: #dcf5fc;
      }

      .cls-54 {
        fill: #62a257;
      }

      .cls-55 {
        fill: #258ccb;
      }

      .cls-56 {
        fill: #38902f;
      }

      .cls-57 {
        fill: #95ceed;
      }

      .cls-58 {
        fill: #bee7fa;
      }

      .cls-59 {
        fill: #9ed9f5;
      }

      .cls-60 {
        fill: #83c7ec;
      }

      .cls-61 {
        fill: #e0f4fa;
      }

      .cls-62 {
        fill: #addbf6;
      }

      .cls-63 {
        fill: #a0ca45;
      }

      .cls-64 {
        fill: #e5f8fc;
      }

      .cls-65 {
        fill: #bee4f8;
      }

      .cls-66 {
        fill: #abd9f6;
      }

      .cls-67 {
        fill: #aad261;
      }

      .cls-68 {
        fill: #c7e7f8;
      }

      .cls-69 {
        fill: #82c6ec;
      }

      .cls-70 {
        fill: #d5f4e9;
      }

      .cls-71 {
        fill: #53a3cd;
      }

      .cls-72 {
        fill: #3da3da;
      }

      .cls-73 {
        fill: #4ca13b;
      }

      .cls-74 {
        fill: #eff9fc;
      }

      .cls-75 {
        fill: #81c241;
      }

      .cls-76 {
        fill: #eef9fa;
      }

      .cls-77 {
        fill: #d5effa;
      }

      .cls-78 {
        fill: #61b247;
      }

      .cls-79 {
        fill: #97db63;
      }

      .cls-80 {
        fill: #dbeffb;
      }

      .cls-81 {
        fill: #96cb4e;
      }

      .cls-82 {
        fill: #3ba2da;
      }

      .cls-83 {
        fill: #c3e1ec;
      }

      .cls-84 {
        fill: #95c840;
      }

      .cls-85 {
        fill: #54a02e;
      }

      .cls-86 {
        fill: #83c6ee;
      }

      .cls-87 {
        fill: #8cc645;
      }

      .cls-88 {
        fill: #55b0e2;
      }

      .cls-89 {
        fill: #c3eaf8;
      }
    </style>
  </defs>
  <path class="cls-75" d="M291.47,97.88v8.95c-.96.83-1.85.41-2.74-.13-3.7-1.2-7.48-1.29-11.02.2-1.58.66-3.24,1.63-4.67,1.06-6.52-2.61-12.65.56-18.92,1.07-4.6.38-9.22.65-13.8,1.44,13.14-.06,26.28-1.7,39.43-.35,2.32.42,4.67.33,7.01.33,1.7-.01,3.36.12,4.7,1.35v19.89c-1.46,1.32-3.27,1.52-5.12,1.55-13.09.22-26.26,1.12-39.24.6-16.56-.67-33.1-.05-49.63-.27-55.72-.74-111.46-.24-167.2-.33-7.92-.01-15.76,1.7-23.73.78-2.12-.25-4.32.27-6.13-1.32v-1.99c2.44-.77,4.9-1.28,7.7-.59-2.68-1.25-5.24.88-7.7-.4v-11.93c2.24-1.71,4.98-1.78,7.58-2.27,3.55.1,7.05-.02,9.98-2.45,1.89-.95,3.83-1.62,5.99-1.06,1.2.36,2.23,1.06,3.28,1.71.7.47,1.5.81,2.32.65,4.71-.95,9.4-1.27,14.07.46-3.24-1.06-6.53-1.58-9.8-2.2-1.3-.25-2.74-1.12-.7-2.6,7.39-1.54,14.66-.17,21.94.8,5.19,4.81,11.52,2.48,17.38,3.12-2.59-1.59-5.24-1.15-8-.69-2.7.45-5.82,1.27-7.2-2.47,4.53-2.24,9.46-2.08,14.3-2.47,7.36.09,14.73-.29,22.08.22,5.26,1.3,10.52-.23,15.79-.13,12.03.23,24.07-.82,36.12-.04,2.71.18,5.04.75,7.37,2.37,4.45,3.1,9.58,1.28,14.44,1.28,5.33,0,10.24-2.53,15.56-2.58,13.12-.07,25.86-3.48,38.86-4.4,17.49-1.25,34.69-4.97,52.23-5.75,3.8-.17,7.54-1.04,11.26-1.87,2.1-.47,4.23-1.1,6.17.49Z"/>
  <path class="cls-78" d="M.43,159.54v-4.97c1.48-1.52,3.45-.74,5.02-1.05-1.61-.1-3.51.55-5.02-.94v-5.97c.65-.53,1.33-1.13,2.16-1.16,9.91-.33,19.83-1.48,29.73-.57,4.28.39,8.52,1.14,12.84,1.13,68.84-.02,137.68-.03,206.53,0,11.22,0,22.43,2.15,33.68.07,2.08-.38,4.33-.07,6.1,1.51v11.93c-1.32,1.22-2.97,1.35-4.65,1.38-1.16.02-2.32.03-3.48.02-59.9-.15-119.79.5-179.69.16-32.02-.18-64.05-.02-96.07-.18-2.45-.01-5.03.45-7.14-1.39Z"/>
  <path class="cls-55" d="M.43,9.38C.43,6.4-.73,2.25.76.76c1.5-1.49,5.65-.33,8.64-.33,92.03,0,184.06.05,276.09-.14,5.11-.01,7.07,1,6.01,6.12-.2.95-.03,1.98-.03,2.98-2.73,2.24-6,1.6-9.09,1.6-56.26.04-112.53.03-168.79.03-34.85,0-69.71.01-104.56-.02-2.94,0-6.04.54-8.6-1.61Z"/>
  <path class="cls-46" d="M291.47,147.61c-6.81-.35-13.49.69-20.22,1.53-4.6.57-8.97-1.63-13.66-1.61-34.71.14-69.41.08-104.12.08-37.2,0-74.4,0-111.6.02-2.83,0-5.67.09-8.33-1-4.26-1.75-8.45-.29-12.7-.09-6.79.31-13.61.08-20.42.09v-9.94c4.31-2.67,9.17-2.05,13.53-1.08,7.08,1.58,14.15,1.49,21.26,1.51,6.3.02,12.61.15,18.91-.04,5.89-.17,11.58.58,17.09,2.62,3.11,1.15,5.99,1.47,8.86-.88,2.62-2.15,5.97-1.68,9.1-1.69,36.16-.02,72.32,0,108.47-.02,9.75,0,19.43-1.51,29.29-.29,4.66.58,8.33,2.95,12.6,4,.58.1,1.13.29,1.67.53,1.61,1.06,3.48,1.12,5.25.9,8.28-1,16.59-1.12,24.74-3.87,6.42-2.17,13.54-2.28,20.26.3v8.95Z"/>
  <path class="cls-39" d="M291.47,138.66c-3.81,0-7.62,0-11.43,0-3.94,0-7.61.77-11.49,1.83-9.03,2.49-18.39,4.37-27.91,2.14.53-.51,1.06-1.02,1.67-1.44-.62-.06-1.1.46-1.71.44-1.34.7-3.33,1.77-4.16.65-4.63-6.25-11.61-3.02-17.36-4.45-5.95-1.48-12.12.83-18.23.83-38.14-.03-76.28,0-114.42-.02-2.65,0-5.18-.28-6.85,2.71-1.14,2.03-3.82,1.81-5.45,1.01-10.5-5.16-21.74-4.11-32.7-3.54-13.8.73-27.28-2.65-41-2.16v-3.98c97-2.58,194.03.24,291.04-.99v6.96Z"/>
  <path class="cls-21" d="M.43,9.38h291.04v5.97c-1.92,1.71-4.3,1.58-6.61,1.59-46.99.03-93.97-.14-140.96.06-44.96.19-89.91-.27-134.86-.06-2.93.01-6.04.56-8.6-1.58v-5.97Z"/>
  <path class="cls-22" d="M.43,15.35h291.04v4.97c-2.57,2.13-5.67,1.55-8.6,1.55-45.79.04-91.58.03-137.37.01-4.82,0-9.61.11-14.37.99-2.62.48-5.12.4-7.8-.48-3.43-1.12-6.58,1.83-10.09,1.57-.57.2-1.15.31-1.75.35-4.39-1.29-8.82-1.84-13.35-.72-12.18-.74-24.37-.69-36.56-.71-17.85-.04-35.7,0-53.55-.03-2.61,0-5.34.38-7.58-1.53v-5.97Z"/>
  <path class="cls-35" d="M.43,68.05v-9.94c1.18-1.1,2.65-1.44,4.16-1.3,4.8.43,9.72-.8,14.34-.01,8.59,1.46,16.83-.07,25.17-1.26,4.17.07,8.42.98,12.4-1.1,14.66.82,29.36.18,44.02,1.12,5.14.33,10.17-1.2,15.33-.89,4.12.24,8.26-.03,12.37.64,3.56.58,6.9-.41,9.98-2.21,1.86-1.09,3.62-2.4,5.97-1.67.95.26.97,1.84,1.33,1.79,5.95-.85,11.93,3.48,17.82-.05,1.81-1.09,3.53-.23,5.28.08,1.78.32,3.68,1.96,5.22,1.17,7.03-3.6,14.54-.25,21.72-1.88,3.81-.86,7.73.04,10.39,3.57-4.07,2.61-8.58,3.29-13.22,2.44-3.23-.59-6.23-.25-9.19.93,1.29,1.26,5.59-.5,4.02,3.84-2.96,3.24-6.82,3.85-10.9,3.68-19.22-.77-38.44-.6-57.66-.1-3.66.09-7.27-.59-10.92-.45-.83.02-1.66-.03-2.48-.2-1.98-.41-3.69-1.4-5.21-2.7-1.73-1.48-3.62-2.23-5.92-1.75-1.14.24-2.37.33-3.4-.24-6.92-3.86-11.84-.61-16.29,4.46-9.63,3.14-19.55,2.82-29.42,2.1-4.06-.3-8.27,1.26-12.18-.83-2.14-.91-4.26-1.83-6.66-.73-.91.42-2.08.62-2.9.07-5.83-3.92-11.07-1.15-16.35,1.3-2.26.76-4.52,1.95-6.83.12Z"/>
  <path class="cls-14" d="M.43,88.94v-.99c2.09-1.81,4.65-1.52,7.11-1.52,19.71-.01,39.44-.44,59.13.38,7.04.29,14.05,2.6,21.16.99,5.07-1.14,10.17-1.11,15.28-1.49,7.17-.54,14.11,0,20.93,2.2,11.68-.45,23.29,1.75,34.97.97,9.33-1.33,18.71-1.78,28.13-1.25,2.05.11,3.36,1.2,4.23,2.94,2.26,3.22,6.11,1.32,8.1,2.75-1.65-.01-3.96-.56-5.96-2.11-1.01-3.44.84-5.13,3.79-4.38,10.57,2.68,21.44-.21,32.08,2.22,4.34.99,9.21-.11,13.83-.5,14.69-1.24,29.4-.66,44.11-.63,1.52,0,2.96.36,4.14,1.41v1.99c-1.77,1.62-3.99,1.33-6.11,1.38-15.16.38-30.14,2.7-45.17,4.46-4.46.52-8.88.47-13.32.55-4.57-1.23-8.89-.36-13.07,1.6-1.06.25-2.13.32-3.21.37-3.5.49-6.97,1.5-10.53.51-5.4-2.53-10.81-3.45-16.58-.9-2.37,1.05-5.12,1.09-7.73.31-5.93-2.18-12-1.56-18.06-.86-1.52.18-2.95.24-4.38-.28-2.94-1.24-6.01-.76-9.05-.68-3.34.32-6.55,1.43-9.91,1.64-2.81-.24-5.38-1.36-8.02-2.22-.91-.36-1.78-.8-2.6-1.32-.83-.54-1.5-1.27-2.28-1.87-4.2-3.19-6.3-2.98-9.94.96-.56.61-1.15,1.17-1.86,1.62-3.56,1.47-7.13,1.97-11.05,1.35-3.87-.62-7.89-.46-11.82,0-4.2.5-8.15-.71-12.18-1.45-3.96-.62-8.42,1.24-11.8-2.33-.92-1.91-2.68-2.23-4.53-2.54-3.78-.64-7.58-.82-11.41-.82-13.77,0-27.55.3-41.29-.99-1.83-.17-3.67-.15-5.14-1.48Z"/>
  <path class="cls-13" d="M291.47,66.06v10.94c-2.1,1.81-4.67,1.48-7.13,1.48-15.27.03-30.55.2-45.81-.06-8.34-.14-16.53.92-24.74,1.99-3.9.51-7.87-1.85-11.65.46-3.91-.64-7.96.56-11.84-.77-2.97-1.82-6.34-2.24-9.54-1.54-4.37.96-8.48.33-12.66-.69-1.73-.58-3.46-1.32-5.33-1.03-12.93,2-25.8-.91-38.72-.5-3.44.11-7.48.08-9.19-4.23,1.52-1.69,3.59-1.47,5.54-1.51,3.47-.07,6.98-.33,10.4.06,4.31.49,8.01-1.11,11.84-2.45.52.03,1.04.17,1.52.37,2.9,1.55,5.74,2.05,8.41-.52.56-.36,1.25-.84,1.82-.55,8.21,4.15,16.74,1.05,25.12,1.2,2.23,3.33,4.74,3.27,8.84,2.78,6.03-.72,12.52.06,18.65,1.76,2.22.62,4.49,1.29,7.15.16-1.45-2.05-6.02-2.27-3.93-6.24,2.14-1.62,4.67-1.57,7.14-1.55,6.78.04,13.59-.41,20.34.29,3.3.34,5.93-2.19,9.17-1.61,2.01,1.13,4.06,1.35,6.46,1.42,12.71.35,25.44-1.48,38.13.33Z"/>
  <path class="cls-68" d="M124.03,89.93c-2.65.09-5.24.22-7.33-2.02-.91-.98-2.36-.91-3.75-.79-12.14.99-24.49,3.73-36.4,2.44-25.4-2.74-50.76-.75-76.11-1.61v-8.95c1.04-.91,2.28-1.42,3.63-1.35,7.53.39,15.08.3,22.62.67,12.47.54,24.97-.16,37.41,1.25,7.62.04,15.26-.49,22.85.77,3.66.61,7.28-.97,10.89-.7,13.76,1.04,27.46-.66,41.19-.69,9.28-.02,18.49.51,27.39,3.43,7.25-.84,14.51-1.61,21.82-.86,8.05.03,16.1.06,24.16-.18.9.41,1.45,1.1,1.57,2.09-3.13,3.52-7.3,4.04-11.65,4.03-10.33-.04-20.66.22-31,.14-6.78-.05-13.43-1.37-20.17-1.25-5.02.19-9.94.48-14.97-1.14-3.73-1.2-7.75-.05-11.09,2.39-1.73.16-.47,1.66-1.05,2.34Z"/>
  <path class="cls-82" d="M112,23.16c4.8-.25,8.82-3.63,14.54-1.44,3.84,1.47,9.18-1.43,14.02-1.43,50.3.05,100.6.03,150.9.03v6.96c-1.92,1.7-4.3,1.58-6.61,1.58-44.81.03-89.61.14-134.42-.11-6.91-.04-13.84-1.18-20.8-1.33-3.5-2.53-7.44-3.07-11.66-2.79-2.08.14-4.35.45-5.98-1.48Z"/>
  <path class="cls-3" d="M.43,48.16v-8.95c2.59-2.11,5.72-1.69,8.61-1.43,10.59.96,21.14.66,31.73.02,7.44-.45,14.92-.15,22.38-.06,3.58.04,6.92-.51,9.9-2.59.32-.1.85-.18.89-.04,2.03,6.81,6.94,4.9,11.58,3.82,10.14,1.2,20.4.55,30.5,2.18,2.06.35,3.5,2.22,5.74,2.3-.6-.77-2.6-.64-1.57-2.4,3.33-1.86,6.77-1.44,10.24-.55,1.2,6.2,4.8,4.1,8.46,2.55,3.02-1.28,8.93.46,10.87,2.92.6.77.39,1.52-.21,2.22-1.65,1.46-3.69,1.63-5.64,1.26-5.8-1.09-11.54-.52-17.33.17-13.88,1.66-27.78-.47-41.68.06-7.12.27-14.22.12-21.36.78-10.06.94-20.14-1.04-30.23-.83-5.56-3.68-11.21-2.48-16.87-.24-.79.12-1.59.16-2.39.21-4.59-.02-9.28.95-13.62-1.4Z"/>
  <path class="cls-69" d="M32.24,48.21c12.13-.93,24.16,1.16,36.41.34,15.42-1.03,31.06-1.4,46.54.6,3.23.42,6.2-.79,9.33-1.01,6.89-.49,13.75-1.82,20.65-.02,1.62.42,3.29-.07,4.77-.96,1.21-1.51,2.69-2.17,4.6-1.5.44.28.66.69.66,1.21-.23,1.01-.9,1.72-1.64,2.38-2.5,1.97-5.25,3.28-8.55,2.94-.99.03-2.36-.36-2.91.15-6.09,5.57-13.26,4.11-20.53,3.93-11.4-.28-22.87,1.12-34.24.55-8.36-.43-16.64-.56-24.97-.08-2.1.12-3.82-2.02-6.13-1.59-3.58-.47-7.17-.38-10.78-.33-12.96-1.02-25.93-.53-38.9-.23-2.13.05-4.33.11-6.09-1.46v-4.97c4.65,0,9.3,0,13.95,0,5.43,1.83,10.98.14,16.46.56.5-.08.96-.25,1.39-.52Z"/>
  <path class="cls-26" d="M291.47,40.21v7.96c-1.99,1.74-4.45,2.57-6.92,2.14-12.04-2.06-24.12-.19-36.18-.54-11.26-.32-22.53-.06-33.8-.07-2.67,0-5.29-.26-7.79-1.26-1.66-.52-2.95-1.84-4.71-2.14-2.52-.86-5.3-.34-7.74-1.31-1.85-.74-4.8-1.24-2.81-4.54,8.05-2.77,16.45-1.37,24.63-1.59,22.55-.59,45.13-.22,67.7-.19,2.62,0,5.36-.38,7.61,1.54Z"/>
  <path class="cls-49" d="M291.47,40.21c-33.54.17-67.09-.59-100.62.98-4.92-.82-9.67.17-14.41,1.34-4.55.14-8.98-.97-13.65-.47-3.18.34-6.94-1.14-7.74-5.47,3.6-2.79,7.97-3.51,12.19-3.4,38.88.95,77.76.29,116.64.52,2.61.02,5.35-.39,7.6,1.53v4.97Z"/>
  <path class="cls-40" d="M129,26.29c54.15,1.94,108.31.59,162.47.99v3.98c-1.92,1.7-4.3,1.56-6.6,1.56-38.76-.02-77.51.12-116.27-.03-4.97-.02-9.94-.09-14.9.28-3.51.26-6.94.01-10.28-1.15-3.59-1.61-6.98-3.76-11.23-3.44-1.32.1-3.14,0-3.19-2.19Z"/>
  <path class="cls-36" d="M133.85,98.94c3.39-.66,6.78-1.31,10.18-1.97-.27,3.01-2.32,2.29-3.81,2.31,4.43.83,9.25-1.65,14.05-.23,7.2.55,14.39.98,21.58-.12,2.97.95,6.11.51,8.63-.7,5.63-2.69,10.5-1.35,15.4,1.51-.12,2.76-2.63,2.19-4.17,2.98-12.98,1.34-25.97,1.92-39.01.73-2.67-.24-5.16,1.02-7.75,1.56-20.49.08-40.98.33-61.47.15-10.4-.09-20.8.25-31.2-.31-5.91-1.33-11.89-.29-17.83-.4-7.12-.12-14.24-.07-21.36-.17-.91.1-1.82.14-2.74.05-2.65-.32-5.24.19-7.83.62-2.14.36-4.28.46-6.09-1.11v-2.98c2.08-1.81,4.63-1.53,7.09-1.54,9.59-.04,19.19-.31,28.77.09,5.71.24,11.03-2.2,16.7-1.66,1.91.65,3.88.71,5.88.65,15.52-.46,31.03.75,46.57.53,8.04-.11,16.18.49,24.28.39,1.33-.57,2.83.51,4.14-.39Z"/>
  <path class="cls-38" d="M142.96,30.27c4.73,2.16,9.69,1.01,14.58,1.01,39-.02,78-.01,117-.01,5.65,0,11.29,0,16.94,0v3.98c-32.3,0-64.61.2-96.9-.13-9.05-.09-18.11.76-27.23-.53-3.93-.56-8.26,1.69-12.41,2.66-.37.37-.82.58-1.35.64-3.64-.27-6.92-1.64-10.09-3.34-1.25-1.29-1.81-2.67-.52-4.27Z"/>
  <path class="cls-72" d="M.43,21.32c22.52,0,45.04-.12,67.55.05,10.39.08,20.82-.69,31.16.96.34,2.66-1.66,3.68-3.42,4.87-3.32,1.59-6.9,1.36-10.43,1.5-1.47.11-2.89.63-4.38.41-24.14-.56-48.27-.07-72.41-.26-2.77-.02-5.68.45-8.07-1.57v-5.97Z"/>
  <path class="cls-84" d="M291.47,97.88c-7.81,1.09-15.5,2.83-23.42,3.49-5.56.46-11.17.29-16.72,1.41-19.66,3.95-39.88,3.85-59.57,7.79-2.88.58-5.95.18-8.93.24-.85-.72-1.99-.76-2.82-.46-9.63,3.57-18.8-.09-28.06-1.8-3.07-.57-6.74.98-9.18-2.22,2.41-3,6.55-.38,9.15-2.8,2.5-.68,4.92-.03,7.36.37,6.41.81,12.75,2.14,19.12,2.98,7.19.95,14.53-.64,21.69-1.87,5.19-.89,10.6-.86,15.54-3.02,5.02-2.36,10.75-.96,15.85-2.94.53-.19,1.07-.31,1.62-.39,10.54-.17,20.87-2.04,31.27-3.56,6.98-1.02,14.09-1.15,21.11-2.06,2.04-.03,4.16-.58,5.98.87v3.98Z"/>
  <path class="cls-10" d="M149.94,84.96c11.78,1.44,23.73,1.67,35.45,1.44,9.31-.19,19.49,2.15,28.34-3.42.98-.97,2.18-1.02,3.44-.84,9.15,3.21,18.56,2.73,28.06,2.45,13.37-.38,26.76-.1,40.13-.09,2.15,0,4.33-.11,6.1,1.46v3.98c-13.28,0-26.57-.19-39.84.08-6.88.14-13.77.87-20.6,1.76-3.22.42-5.26-2.35-8.49-1.94-5.71.72-11.5-.21-17.3.56-2.7.36-5.63-1.49-8.52-1.89-2.86-.4-3.75.89-1.93,3.42-.77,2.61-2.45,1.49-3.99.98-.56-2.98-2.19-3.05-5.15-3.36-5.94-.61-11.69.64-17.52.37-2.82-.13-5.55.2-8.25,1-.6-.69-1.41-1.13-2.1-1.71-1.5-1.38-3.38-1.75-5.31-2.13-1.13-.23-2.79-.11-2.54-2.1Z"/>
  <path class="cls-88" d="M74.31,35.32c-1.74,3.02-4.47,3.94-7.8,3.92-8.11-.07-16.22-.15-24.32.02-6.69.13-13.37.91-20.04.85-7.24-.07-14.44-1.35-21.71-.89v-6.96c1.61-1.45,3.61-1.53,5.6-1.53,21.32,0,42.65-.16,63.97.09,2.46.03,4.99-.07,7.25,1.23.52.34.91.79,1.19,1.34-.52,2.46-2.34,2.17-4.13,1.94Z"/>
  <path class="cls-57" d="M187.82,62.07c-1.95-2.1-5.36.16-7.44-2.86,8.17-4.15,17.3-.11,25.42-3.11,2.07-1.34,4.37-2.24,6.6-3.32.56.12,1.03.37,1.44.77.45.52.98.94,1.67.96,9.93.25,19.95.84,29.78-.13,8.68-.86,17.15,1.13,25.71.3,1.74.06,3.48-.03,5.22-.12,5.27-1.26,10.43-1.37,15.27,1.57v8.95c-1.54,1.02-3.05,1.15-4.51-.16-5.76-2.73-10.65-7.33-18.26-5.18-4.3,1.22-8.71,2.34-13.07,3.53-.8,0-1.59-.1-2.37-.29-9.34-1.27-18.69-2.14-28.11-1.07-1.49.17-3.01.31-4.43-.11-8.48-2.48-17.03-.68-25.55-.55-1.12.02-1.6,1.08-2.5,1.46-1.73.67-3.4.83-4.86-.63Z"/>
  <path class="cls-28" d="M78.12,33.24c-3.66-1.11-7.44-.96-11.19-.96-22.17-.04-44.34-.02-66.51-.02v-4.97c25.08,0,50.15,0,75.23,0,2.32,0,4.67-.18,6.77,1.12.14.45.13.89-.02,1.33-1.18,1.47-1.47,4.02-4.28,3.5Z"/>
  <path class="cls-80" d="M.43,88.94c17.49.97,34.99,1.14,52.51,1.01,2.97-.02,5.76,1.22,8.81,1.05,3.92-.22,2.93,1.86,1.47,3.9-.34,2.69-2.55,2.24-4.2,2.24-9.56.01-19.09.4-28.64,1.02-9.2.59-18.46-1.18-27.71-.31-.83.08-1.58-.44-2.24-.95v-7.96Z"/>
  <path class="cls-19" d="M216.72,82.97c-1,0-1.99,0-2.99,0-.33-.33-.67-.66-1-1-2.87-.7-5.79-.31-8.68-.32-1.39,0-3.1.67-3.27-1.67,3.39-.96,6.36-2.39,10.42-.8,2.21.87,6.37-.16,9.18-.92,7.13-1.92,14.19-1.13,21.26-1.21,16.61-.2,33.22-.06,49.83-.06v3.98c-.91.78-1.96,1.28-3.16,1.28-10.08.02-20.08,1.81-30.26.77-5.01-.51-10.23-.24-15.33.15-6.76.52-13.48-1.48-20.22-.14-1.92-.14-3.85-.06-5.78-.07Z"/>
  <path class="cls-60" d="M212.73,53.14c-.33,0-.65,0-.98,0-2.51-1.47-6.72-1.24-6.01-5.95,11.99,2.04,24.08.88,36.11.88,10.71,0,21.47,1.14,32.16-.72,1.36-.24,2.88.5,4.33.79,4.38.87,8.75,1.06,13.14.04v3.98c-3.06.96-6.17.04-9.26.25-2.68.19-4.84.88-5.69,3.71-1.66,0-3.32,0-4.98,0-1.62-2.75-4.2-3.44-7.18-3.54-3.51-.12-6.91.63-10.36.94-12.5,1.13-25.05-.56-37.55.63-1.35.13-2.65-.06-3.72-1.01Z"/>
  <path class="cls-15" d="M.43,96.89c8.11-1.17,16.2-.48,24.34-.21,9.64.32,19.33-.88,29-1.5,3.15-.2,6.38,2.22,9.46-.28,3.58,1.16,7.32.6,10.97,1.03-.82,2.83-3.1,3.06-5.46,2.93-5.17-.29-10.33-.7-15.5,0-17.49,3.64-35.2,1.41-52.8,2.03v-3.98Z"/>
  <path class="cls-16" d="M.43,53.14c7-.45,14,0,21.06-.59,8.12-.68,16.62-.22,24.8,1.66.29,1.65-.93,1.72-2.02,1.91-5.53,2.19-11.52,3.57-17.19,2.75-8.93-1.28-17.79,0-26.65-.76v-4.97Z"/>
  <path class="cls-68" d="M216.72,82.97c1.4-1.66,3.3-.75,4.98-.99,8.33.22,16.65.68,25,.52,13.34-.25,26.69.29,40.03-.49,1.63-.1,3.34-.22,4.74.97v2.98c-12.92,0-25.83-.14-38.74.05-8.66.12-17.31.1-25.98.65-3.25.21-6.68-2.37-10.03-3.68Z"/>
  <path class="cls-50" d="M26.35,79.97c-1.27-.32-2.69-1.19-3.78-.88-7.42,2.08-14.77-1.03-22.15-.1,0-3.65,0-7.29,0-10.94,2.32-.34,4.63-.67,6.95-1.01,4.15,3.19,8.53,4.5,13.63,2.13,3.24-1.51,3.77,1.35,4.72,3.36-.13,2.5-1.95,3.48-3.99,4.35,2.01.14,4.18-1.67,5.88.64.13,1.1-.65,1.74-1.27,2.45Z"/>
  <path class="cls-7" d="M291.47,93.91c-1.99.01-3.98.02-5.96.03-5.22.79-10.52.47-15.74,1.2-9.93,1.38-19.9,2.41-29.8,4-2.77.45-5.63-.49-8.3.75h0c-2.61.82-5.23,1.33-7.85.06-.92-1.9,1.12-2,1.8-2.93,16.64-.21,33.02-3.15,49.54-4.66,5.4-.49,10.87-.31,16.31-.44v1.99Z"/>
  <path class="cls-47" d="M253.56,62.02c.68.04,1.36.08,2.04.12.54.92,1.26,1.35,2.42,1.34,5.61-.05,11.21-.08,16.78-.94,4.31-.67,8.43.77,12.61,1.51,1.06,1.49,2.65.9,4.06,1.03v.99c-5.56,1.38-11.25.09-16.88.89-7.77,1.1-15.67-1.4-23.48.65-1.77.47-3.19-.46-3.47-2.5,1.71-1.53,3.36-3.17,5.92-3.09Z"/>
  <path class="cls-52" d="M291.47,82.97c-15.02,0-30.06-.25-45.07.11-6.7.16-13.37-.12-20.06-.14-1.58,0-3.35.55-4.64-.97,23.25-1.03,46.53.71,69.77-.99v1.99Z"/>
  <path class="cls-44" d="M18.41,113.83c-2.55,3.72-6.41,2.96-10.06,2.9-1.1-1.23-2.32-.47-3.5-.18-1.89.45-3.42,0-4.42-1.76v-6.96c2.6-.92,5.21-1.76,8.03-1.28,1.71,1.81-.12,3.53-.26,5.41,2.8-.65,5.39-1.46,7.88-2.61,4.44-.4,3.41,2.03,2.31,4.48Z"/>
  <path class="cls-86" d="M276.52,56.11c-.97-2.78.16-4.75,2.91-4.82,4.01-.1,8.16-1.03,12.05.86v3.98c-4.98.25-9.97-2.59-14.95,0Z"/>
  <path class="cls-81" d="M8.45,106.88c-2.67.3-5.1,2.69-8.01.95v-3.98c4.66-.3,9.31-.6,13.97-.91-.04,2.26-2.55,2.27-3.44,3.76-.8.56-1.62.94-2.51.18Z"/>
  <path class="cls-34" d="M289.45,105.85c.45.79,1.2.95,2.02.98v1.99c-1.26,1.59-3.5,1.53-4.92,2.87-2.37-.17-4.88.9-7.05-.87-.1-.12-.25-.23-.3-.37-.41-1.17.44-2.36,1.17-2.12,3.66,1.19,4.87-6.23,9.08-2.47Z"/>
  <path class="cls-17" d="M.43,129.71c3.71-.53,7.43-1.5,12.32.18-4.8,1.4-8.6.55-12.32.82v-.99Z"/>
  <path class="cls-85" d="M.43,114.79c1.78,1.01,3.67,1.36,5.62.63,1.41-.53,2.2-.27,2.3,1.32-2.68.05-5.16,1.56-7.92,1.04v-2.98Z"/>
  <path class="cls-46" d="M.43,152.58c2.37.22,4.8-.48,7.56.6-2.44,2.31-5.17,1-7.56,1.39v-1.99Z"/>
  <path class="cls-32" d="M286.55,111.69c.57-2.77,2.79-2.74,4.92-2.87v2.98c-1.64-.04-3.28-.08-4.92-.12Z"/>
  <path class="cls-63" d="M151.94,103.88c-2.52,2.82-5.89,1.73-8.98,1.96-1.74,1.72-3.98,1.53-6.1,1.42-11.58-.56-23.15,1.25-34.72.16-3.01-.28-5.34,1.6-8.02,2.39-7.64,0-15.27-.01-22.91-.02-4.43-1.41-8.9-.18-13.25.24-5.35.52-10.57-.46-15.85-.29-1.3.04-2.75-.06-2.95-1.9.82-.94,1.96-1.46,3.1-1.34,8.58.88,17.26-.44,25.81,1-5.41-1.03-10.89-.57-16.35-.68-1.33-.03-2.67.1-3.97-.2-1.02-.24-1.88-.81-1.71-2.03.14-.99.99-1.25,1.86-1.21,2.79.15,5.62-.49,8.37.42,4.1-1.03,8.19.1,12.29.07,17.54-.13,35.08-.05,52.62-.05,9.58,0,19.16-.01,28.74-.02.69-.53,1.37-.54,2.02.06Z"/>
  <path class="cls-23" d="M94.12,109.81c1.67-3.13,4.34-4.76,7.78-3.91,5.78,1.43,11.45.01,17.17-.04,7.96-.08,15.92-.02,23.88-.02,3.09,2.22,6.73.9,10.07,1.34,7,.92,13.53,4.59,20.82,3.58,3.01-.41,6-2.14,8.99.04-8.59,1.23-17.03,3.7-25.85,3.01-2.24-.18-4.75.56-5.62-2.65-.15-.56-1.33-1.26-1.96-1.19-5.75.62-11.41-1.74-17.17-.42-1.11.25-2.3.23-3.45.26-10.29.23-20.63-.93-30.87.97-1.37.25-2.59-.37-3.78-.97Z"/>
  <path class="cls-48" d="M289.45,105.85c-.64-.13-1.72-.56-1.86-.36-1.97,2.91-5.55,3.33-8.09,5.33-1.49,1.28-3.21.49-4.74.33-10.98-1.1-21.88.81-32.82.65-1.88-.03-3.91.57-6-.93,3.72-3.27,8.31-2.01,12.25-2.72,5.48-.98,11.24-.28,16.49-2.82,1.26-.61,2.51-.47,3.82.08,3.1,1.31,6.43,3.93,8.85-1.01,3.93,1.31,8.44-2.2,12.08,1.45Z"/>
  <path class="cls-45" d="M18.41,113.83c-.7-.18-2.14-.35-1.01-1.28,2.74-2.25.89-2.4-1.01-2.73-1.26-.21-2.54-.42-1.97-2.24,2.09-1.19,4.44-1.57,6.73-2.14,2.24,1.02,4.39,2.29,6.88,2.68,1.43.9,2.73,2.02,4.3,2.7,4.02.54,7.81,3.03,12.13,1.26,1.27-.52,2.25.44,2.57,1.65.31,1.15-.46,2.18-1.54,1.92-6.31-1.5-12.78.52-19.07-.95.59-.62,1.33-.81,2.28-.73-1.28-1.29-2.23-3.26-4.32-1.19l-5.97,1.05Z"/>
  <path class="cls-87" d="M32.33,110.82c-2.44,1.62-3.19-.26-4.04-1.94,3.46-2.49,7.07-3.47,11-1.04,1.63,1.68,3.73.92,5.61.94,7.23.09,14.45.01,21.68.06,1.58.01,3.33-.52,4.63.95-4.75.04-9.46.32-13.97,2.01-.3.33-.61.34-.93.04-8-.19-15.95-1.65-23.99-1.03Z"/>
  <path class="cls-29" d="M56.32,111.85c.31,0,.62-.02.93-.04,5.37,1.79,10.83-2.15,16.26.28.85.38,2.06.2,2.22,1.35.21,1.48-1.19,1.13-2.03,1.45-5.39,2.11-10.67-.76-16.04-.34-1.47.11-1.34-1.56-1.34-2.7Z"/>
  <path class="cls-56" d="M24.38,112.78c-.17-.87-1.36-1.78-.11-2.6.88-.58,1.99-.44,2.82.19,1.43,1.07,1.81,3.02,4.77,4.34-2.83,0-4.14,0-5.45,0-.68-.64-1.36-1.28-2.04-1.92Z"/>
  <path class="cls-75" d="M240.61,141.64c.37-.52.67-1.1,1.12-1.54.65-.63,1.31-1.58,2.41-.84.35.24.66.76.72,1.19.19,1.47-1.2,1.16-1.94,1.52-.7.34-1.51.45-2.28.66,0-.33-.02-.66-.04-.99Z"/>
  <path class="cls-79" d="M247.47,141.25c2.81-1.7,5.65-3.03,9.64,0h-9.64Z"/>
  <path class="cls-76" d="M96.02,25.99c1.04-1.22,2.09-2.44,3.13-3.66,4.14-1.94,8.03-1.15,11.79,1.06,3,.86,5.93,1.13,9.13.56,5.29-.94,6.7.16,8.87,5.34-1.42,4.44-4.96,4.35-8.41,3.52-2.72-.65-5.11-.83-7.99-.36-5.81.95-11.81-.02-17.72.54-1.23.11-2.29-.55-2.75-1.73-.47-1.18.07-2.17.79-3.17.82-1.14,2.48-.89,3.17-2.12Z"/>
  <path class="cls-71" d="M128.05,29.19c-1.12-4.09-4.31-6.02-7.8-4.49-3.81,1.67-6.4.42-9.31-1.3.36-.08.71-.16,1.07-.24,3.45.04,6.91.28,10.34.08,2.89-.17,5.13.53,6.66,3.05,4.52,1.79,9.93.46,13.95,3.98-.12,1.38.21,2.64.99,3.78-1.42,1.52-2.71.87-3.74-.4-.85-1.05-1.66-2.04-3.04-2.38-2.92-1.25-6.48.36-9.12-2.07Z"/>
  <path class="cls-11" d="M25.34,73.02c-1.69-.27-1.17-5.51-5.2-1.57-2.45,2.4-7.17-.73-10.96-.8-1.78-.03-1.73-2.11-1.81-3.6,5.17-4.26,9.94-4.9,15.44-1.93,1.25.68,2.4,1.22,3.59.22,2.3-1.94,4.18-1.01,6.01.69,3.22,1.86,6.41,2.28,10.29,1.71,6.16-.9,12.11.86,17.24,4.69-.37,3.61-3.12,4.67-5.98,4.71-8.38.12-16.73-.85-25.12-.97-1.77-.03-3.75-.54-3.51-3.14Z"/>
  <path class="cls-62" d="M59.26,72.02c-3.89-.75-7.76-1.39-11.19-3.76-1.2-.83-3.21-.42-4.76.33-4.34,2.11-7.83.7-10.9-2.56,14.3,1.37,28.58,1.8,42.78-.96,1.66-.85,3.23.03,4.82.29,2.63.43,5.35.92,7.68-.76,2.38-1.71,3.95-.72,5.49,1.09,1.13,1.18,2.72.98,4.12,1.38,1.79.51,2.52,1.48,1.32,3.23-1.04,1.18-2.23,2.17-3.62,2.91-11.51,3.48-23.01,5.31-34.47-.2-.45-.31-.87-.64-1.28-1Z"/>
  <path class="cls-4" d="M187.82,62.07c1.66,0,3.31-.02,4.97-.02,2.79-.97,5.33-.93,7.19,1.79-1.67,2.09-3.89,1.39-5.98,1.12-2.17-.29-4.3-.72-6.11,1.01-1.99,2.78-4.48,4.29-8.01,3.11-7.82,1.37-15.63,3.81-23.52.25-1.07-.48-2.16-1.89-3.44-.27-.37.32-.8.48-1.29.48-2.78-.53-5.57-1.06-8.43-.99-9.73,3.94-19.9.64-29.8,1.82-2.06-.36-3.63-1.7-5.37-2.68-.77-.7-1.44-1.43-.97-2.59,21.64,0,43.28-.15,64.92.09,5.61.06,11.16,1.09,15.83-3.1Z"/>
  <path class="cls-58" d="M205.74,47.18c.11,3.89,5.4,2.57,6.01,5.95-.51,3.94-3.59,2.75-5.96,2.97-4.06-1.25-7.74-3.51-12.53-2.16-3.23.91-7.1,1.99-10.41-.62-.11-.09-.36-.14-.48-.08-5.78,2.99-11.59,3.28-17.47.28-7.13,6.49-15-2.06-22.13,2.11-.64-3.05,1.87-2.18,2.22-3.44,2.34-1.95,5.91-1.41,7.97-3.92,2.47,2.56,5.4,2.02,8.63,2.41,6.37.77,12.4-1.86,18.62-.45,6.56,1.49,13.18.26,19.76-.08,1.98-.1,3.46-1.3,2.37-3.73-.07-.5.09-.92.44-1.28,1.43.04,2.34.81,2.95,2.04Z"/>
  <path class="cls-27" d="M92.13,67.07c-.76-.88-1.15-3.34-2.45-2.23-4.92,4.2-9.64,1.98-14.48.24,1.22-5.14,9.41-8.56,14.2-5.68,1.99,1.2,3.56,1.92,5.9.93,1.98-.84,3.91-.03,5.31,1.68,1.19,1.45,2.78,2.31,4.44,3.09.26,2.16-1.32,2.45-2.79,2.42-3.38-.08-6.79.51-10.13-.45Z"/>
  <path class="cls-65" d="M92.13,67.07c4.41-.01,8.82.03,12.92-1.97.67,0,1.35-.01,2.02-.02.34.66.67,1.32,1.01,1.98.84,1.17.9,2.3-.13,3.4-3.37,1.4-6.69,1.81-9.87-.49.74-1.54.11-1.93-1.42-1.96-1.54-.02-3.29.6-4.53-.95Z"/>
  <path class="cls-1" d="M44.27,56.12c.67-.64,1.35-1.28,2.02-1.92,3.44-1.11,6.87-2.13,9.91.95-3.7,3.72-7.84,2.09-11.93.96Z"/>
  <path class="cls-42" d="M53.24,98.84c3.93-2,7.93-2.42,12.24-1.11,3.1.95,6.12.26,8.72-1.8,8.98,2.36,18.24.23,27.31,1.7,2.8.45,5.87-.29,8.56-1.68,5.67-4.08,8.15-4.13,12.2-.26-3.23,1.7-6.35,3.73-9.79,3.69,1.3.41,2.92-.4,4.6-.75,4.7.25,9.62-1.64,14.03,1.41-5.69,1.6-11.51.77-17.25.68-7.75-.13-15.43-.77-23.24-.11-6.7.56-13.53-.43-20.3-.63-4.14-.12-8.3.02-12.44-.07-1.59-.03-3.38.5-4.64-1.07Z"/>
  <path class="cls-67" d="M151.94,103.88c-.67-.02-1.35-.04-2.02-.06,2.95-1.72,6.02-1.53,9.37-1.39,10.21.43,20.47,1,30.63-.67,2.03-.33,3.91.14,5.86.1,2.99-.87,6.06-1.03,9.15-.99,2.18.03,4.26-.18,5.83-1.95,1.02.04,2.04.08,3.05.12,3.31.31,6.55-3.09,9.9-.16,2.45,1.98,5.33.5,7.96,1-4.57,3.09-10.21.77-14.95,2.97-4.55.48-9.1,1.2-13.56,2.09-14.32,2.84-28.53-.34-42.78-.22-.5,0-.98.02-1.46.13-2.32-.32-4.65-.64-6.97-.97Z"/>
  <path class="cls-8" d="M158.9,88.93c.8.43.98,1.16.98,1.98-11.98.75-23.89-1.43-35.86-.98-.09-.66-1.11-1.33,0-1.99,3.89-2.67,8.38-1.82,12.47-1.41,7.47.75,15.14-.21,22.4,2.41Z"/>
  <path class="cls-80" d="M81,93.48c2.3-1.62,4.49-2.11,7.36-1.82,5.57.56,11.23.2,16.86.28,1.24.02,3.17-.27,3.03,1.53-.15,1.8-1.83,1.18-3.17.98-5.33-.78-10.59-1.07-15.79,1.15-3.02,1.29-5.23-2.23-8.28-2.13Z"/>
  <path class="cls-37" d="M175.85,98.93c.4,1.05.51,1.95-1.07,1.87-6.95-.39-13.98.92-20.87-.95-.57-.66-.61-1.32.02-1.98,3.51,1.03,7.11-.13,10.5-.38,4.11-.3,7.68.44,11.42,1.45Z"/>
  <path class="cls-54" d="M153.93,97.86c0,.66-.01,1.32-.02,1.98-4.98-.11-10.01,1.77-15.09-.47,1.81-.82,4.21-.19,5.2-2.4,3.33-.02,6.72-.64,9.91.9Z"/>
  <path class="cls-20" d="M131.1,100.04c-4.99-.08-9.99-.15-14.98-.23,2.29-4.48,6.17-3.63,10-2.97,2.57.7,5.15,1.4,7.72,2.1-.59,1.16-1.76.9-2.74,1.1Z"/>
  <path class="cls-70" d="M122.24,95.69c-4.11-2.32-8.16-1.57-12.18.25,4.59-6.77,8.2-6.83,13.98-.21-.62.74-1.21.81-1.79-.04Z"/>
  <path class="cls-7" d="M210.76,98.93c.17,2.41-1.18,3-3.32,2.96-3.88-.08-7.77-.02-11.66-.02.89-1.62,3.27-.37,4.1-2.12,3.7.7,7.26-.38,10.88-.82Z"/>
  <path class="cls-83" d="M190.8,92.9c1.38-.12,2.94.47,3.99-.98,3.25,1.58,7.04.32,11.38,1.96-3.21,1.47-5.68,1.23-7.92.83-2.46-.44-4.73-.96-7.27-.21-1,.29-.94-.92-.18-1.6Z"/>
  <path class="cls-24" d="M223.71,98.89c-3.32-1.13-6.57,2.13-9.9.16,3.6-2.65,7.49-3.56,11.81-2.03.02,1.29-.72,1.81-1.91,1.87Z"/>
  <path class="cls-30" d="M122.24,95.69c.6.01,1.19.03,1.79.04.7.37,1.39.73,2.09,1.1-3.62.05-7.13.42-10,2.97-1.61,0-3.22,0-4.82,0,4.01-.48,6.46-5.12,10.94-4.11Z"/>
  <path class="cls-25" d="M108.09,69.99c0-.98,0-1.96-.01-2.93,2.19-.65,3.08,1.91,4.98,1.99,1.01.76,2.14,1.45,2,2.98,2.11,2.11,4.9,3.02,7.63,2.89,11.54-.52,22.98,1.5,34.51,1.11,3.92-.14,8.08-2.79,11.68.98,1.09,2.23,3.21,1.18,4.87,1.44,1.91.3,3.48.52,1.99,2.96-2.64,1.25-5.53.45-8.3.9-2.35.38.55,1.51-.56,1.64-6.86-1.41-13.57-3.08-20.74-3.34-8.79-.32-17.56-.48-26.17.79-4.45.66-8.51-.1-12.72-.45-6.82-.57-13.59,1.72-20.25.84-7.62-1-15.2-.52-22.79-.82-1.96-2.95-6.36-.25-8.19-3.5,1.61-1.65,4.14-2.59,4.21-5.43,4.97.75,9.33,3.95,14.78,3.06,6.7-1.09,13.71-.11,20.13-3.06,4.01.65,8.06.54,12.09.63,2.97.07,2.39-1.21.85-2.68Z"/>
  <path class="cls-35" d="M199.79,63.99c-2.34-.65-4.67-1.3-7.01-1.94.12-1.27-.19-2.88,1.89-2.76,9.34.55,18.65-.68,28.12,1.19,5.09,1.01,11.13-.45,16.73-.3,4.71.13,9.46.48,14.04,1.84-1.94,1.1-3.16,3.55-5.92,3.08-9.67,4.17-19.82,1.16-29.72,1.89-2.78.21-5.55.21-8.22,1.1-.55.58-1.24.88-2.03.99-3.65-.12-6.14-2.04-7.88-5.1Z"/>
  <path class="cls-9" d="M207.72,68.11c.66,0,1.33,0,1.99-.01,1.52,2.95,4.45,3.62,7.6,4.41-1.98,2.71-4.33,3.65-7.33,2.7-6.63-2.08-13.61-1.75-20.36-2.99-.88-.16-1.96.11-2.81.49-4.87,2.13-5.89,1.63-6.92-3.64,2.24-1.44,5.98-.37,6.88-4.07,6.22,6.16,13.48,5.38,20.95,3.11Z"/>
  <path class="cls-66" d="M115.06,72.03c-.67-.99-1.33-1.99-2-2.98,10.29-1.06,20.69,1.4,30.93-.99.27.35.26.68-.09.98-9.19,5.07-19.2,2.32-28.85,2.99Z"/>
  <path class="cls-52" d="M200.77,79.99c3.89,1.26,8.31-.71,11.96,1.99-8.25,1.81-16.61.69-24.92.99-.37-1.9,1.4-2,2.34-2.8.21-.06.43-.12.65-.18,3.32-.56,6.65-1.56,9.97,0Z"/>
  <path class="cls-5" d="M175.88,80.96c-.65-2.86-2.49-1.83-4.27-1.38-2.1.53-3.93.5-2.73-2.57,4.98,1.25,9.95.35,14.94.05,2.65-.16,5.66-.4,6.98,2.93,0,0,0,0,0,0-4.9,1.42-9.87,1.89-14.93.98Z"/>
  <path class="cls-31" d="M143.91,69.04c.04-.32.06-.65.08-.98,2.9-1.61,5.43-.25,7.98.97-2.32,3.11-5.28,1.13-8.01,1-.02-.33-.04-.66-.05-1Z"/>
  <path class="cls-25" d="M143.96,70.04c2.66-.43,5.55,1.03,8.01-1,.32,0,.64.01.96.02-2.62,3.68-5.83,1.99-8.97.99Z"/>
  <path class="cls-14" d="M158.9,88.93c-11.65.44-23.22-1.76-34.87-.99,1.7-3.17,7.67-5.94,11.64-4.44,4.75,1.79,9.38,2.22,14.27,1.46,2.68,2.02,7.12.07,8.96,3.97Z"/>
  <path class="cls-51" d="M56.25,77c1.45,1.65,3.39.94,5.12.96,2.17.02,2.99.98,2.84,3.01-11.46-1.17-22.98-.78-34.46-1.27-1.13-.05-2.26.17-3.39.27.02-.82.2-1.55.99-1.98,3.27-2.97,7.23-1.19,10.85-1.41,6.01-.36,12.05-.32,18.05.42Z"/>
  <path class="cls-13" d="M175.88,80.96c4.89-1.66,9.94-.87,14.93-.98.18,2.18-2.3,1.68-3,2.98-7.03-.86-13.99-.24-20.92.98.08-.7-2.52-1.2-.02-2.16,2.98-1.15,6-.63,9.01-.82Z"/>
  <path class="cls-6" d="M153.74,37.35c.39-.04.79-.08,1.18-.12,6.59,5.53,14.78,2.51,22.1,4.09-.43,3.04-2.71,3.11-4.85,2.64-3.24-.7-5.88.06-8.23,2.27-2.97,1.46-5.94,2-8.9,0-1.7.3-3.41.6-5.11.9-4.21-2.32-8.12-5.79-13.3-1.56-1.74,1.42-4.44.63-6.81.34.15-1.71,1.62-3,1.18-4.74,3.22-2.25,6.94-2.23,10.63-2.35,1.77-.06,3.56.04,5.27-.53,1.92-.33,3.87-.51,5.71.33,2.07.95.19-1.37,1.13-1.3Z"/>
  <path class="cls-59" d="M147.95,39.19c-5.53,1.69-11.35.94-16.95,2.01-3.65.56-7.5-1.14-11.02.97-.97.82-1.95.65-2.93.04-10.64-.68-21.28-1.36-31.92-2.03-1.02-1.52-.19-2.54.95-3.47,2.06-1.02,4.17-.64,6.32-.28,4.11.7,8.25.73,12.35,0,3.43-.62,6.72-1.6,9.68,1.5,1.29,1.35,3.02.2,4.63-.32,3.48-1.13,6.79-2.92,10.82-.62,2.04,1.17,5.08.64,7.77.37,3.48-.35,7.4-1.65,10.29,1.83Z"/>
  <path class="cls-2" d="M86.17,37.24c-.34.98-.69,1.96-1.03,2.94-1.12.24-2.29.36-3.36.75-6.02,2.19-7.71.94-7.47-5.61,1.12-.77,2.31-1.35,3.71-1.33,1.29.9,2.25,2.39,4.28,1.78,1.51-.46,2.94,0,3.86,1.47Z"/>
  <path class="cls-43" d="M32.24,48.21c.03.3.06.59.08.89-4.95,1.15-9.96.32-14.94.46-.73.02-1.05-.61-.92-1.36,5.26-1.95,10.52-4.76,15.78,0Z"/>
  <path class="cls-16" d="M16.46,48.2c5.19,2.07,10.57.58,15.86.9-5.59,2.09-11.32.93-17,.65-.34-.02-.62-1.03-.93-1.58.69.01,1.38.02,2.07.04Z"/>
  <path class="cls-6" d="M117.05,42.21c.98-.01,1.95-.03,2.93-.04,1.82.24,3.8-.46,6.03.95-3.66,2.23-6.4,1.53-8.96-.91Z"/>
  <path class="cls-12" d="M202.8,46.15c2.98,2.29,2.73,4.5-.97,4.88-7.88.81-15.86,2.55-23.72-.26-1.37-.49-2.43-.5-3.7.3-3.07,1.92-6.2,3.09-9.47.18-1.51-1.34-2.73.18-3.99.77-4.19,1.98-6.95.96-7.99-3.74.64-.38,1.27-.76,1.91-1.15.25.08.5.15.76.23,3.77.59,7.59.64,11.31-.02,4.1-.73,8.19-1.31,12.28-.5,7.94,1.57,15.75.49,23.58-.69Z"/>
  <path class="cls-12" d="M155.05,46.26c2.97-.24,6.07.74,8.87-.96.63,1.38.08,2.33-1.31,2.43-2.53.17-5.15,1.2-7.59-.46,0,0-.14-.14-.14-.14.05-.29.1-.58.17-.87Z"/>
  <path class="cls-41" d="M155.02,47.26c2.87-1.08,6.67,2.02,8.9-1.97,1.8-3.5,4.75-3.9,7.98-2.59,2.25.92,3.8.51,5.12-1.38,4.6-1.21,9.18-3.84,13.82-.14,1.35,2.9,4.07,2.97,6.68,3.13,1.79.11,3.63-.25,5.26.82,0,.34,0,.68,0,1.01-4.96,3.3-10.8,3.84-16.11,2.78-9.25-1.85-18.24.1-27.33.13-1.6,0-3.86,1.1-4.33-1.8Z"/>
  <path class="cls-33" d="M39.29,107.84c-3.75-.55-7.32.87-11,1.04-2.75,0-5.53.05-6.95-3.02-1.91-.58-4.93.72-5.02-2.94,11.93-.02,23.85-.05,35.78-.04,1.44,0,3.02-.41,4.18.94-3.08.28-6.24-.45-9.33,1,7.2,2.1,14.97-.37,23.43,3.02h-31.09Z"/>
  <path class="cls-44" d="M16.32,102.92c.8,2.47,3.79,1.21,5.02,2.94-1.99,1.81-4.36,2.26-6.95,1.96-1.57-.16-2.89-.81-3.96-1.97.49-2.1,2.89-1.61,3.97-2.91.64,0,1.28-.02,1.92-.02Z"/>
  <path class="cls-89" d="M86.17,37.24c-1.31.16-2.52-1.38-3.79-.47-3.89,2.77-3.98-.17-4.35-2.78.04-.25.07-.51.1-.76,2.21-.38,1.92-3.4,4.08-3.83.77,3.39,2.8,4.29,6.29,4.28,6.59-.02,13.18.69,19.74-.35,4.2-.29,8.07-.95,12.66.24,4.28,1.1,9.52.46,14.38,1.29,3.55.61,1.42-3.33,2.73-4.74,3.08-.35,2.31,5.11,5.94,3.92,3.26,1.1,6.53,2.2,9.79,3.3.41.84.81,1.67,1.36,2.78-2.48-.51-4.76-1.24-7.14-.94-5.52-1.99-11.17.19-16.75-.5-3.04-.38-5.76-2.95-9.31-.81-.9.54-2.01,1.29-3.11,1.74-2.05.84-4.99,1.44-5.88-.56-1.45-3.29-3.67-2.31-5.57-1.75-7.11,2.11-14.13.06-21.18-.08Z"/>
  <path class="cls-53" d="M138.01,30.12c.71,1.98,2.12,4.24-.05,5.88-2.58,1.94-5.43-.32-7.93-.8-1.84-.35-3.09-.85-5.14-.25-2.42.7-5.62,1.89-7.62-1.3-.84-1.35-1.82-1.17-2.93-.51-1.63.96-3.4,1.23-5.26,1.1-6.62.04-13.27.69-19.8-.95-1.99-1.04-2.13-3.73-4.21-4.72-.23-.41-.2-.8.1-1.17,3.65-.2,7.36.01,10.86-1.41-.78.81-1.65,1.55-2.33,2.44-.59.76-1.3,1.68-.81,2.68.64,1.29,1.82,1.13,3.01.77,4.65-1.44,9.41.24,14.14-.48,2.02-.31,4.08.84,5.3-2.01.69-1.6,1.22.08,1.89.65,3.67,3.2,7.85,2.83,10.82-.84,3.28.78,6.76-.64,9.96.93Z"/>
  <path class="cls-77" d="M88.14,32.25c6.88,1.72,14.05.29,20.93,1.98-6.5,2.05-13.15.64-19.73.87-.79.03-1.72-.71-2.38-.49-5.66,1.9-5.08-1.74-4.76-5.2.07-.33.15-.67.22-1.01.91-.33,1.82-.67,2.74-1.01,0,.3,0,.6,0,.9-.18,2.2,1.82,2.77,2.99,3.96Z"/>
  <path class="cls-18" d="M158.91,104.85c8.31-1.91,16.71-1.42,24.98-.22,2.62.38,4.91.84,7.62.37,7.78-1.36,15.8-.99,23.53-2.94.46-.12,1.11.51,1.68.79-6,3.08-12.74,2.62-19.12,3.9-4.95,1-10.06,1.19-15.06,1.99-3.81.61-7.09-1.1-10.58-1.88-4.3-.96-8.83-.46-13.04-2.01Z"/>
  <path class="cls-67" d="M231.68,99.88c4.63-.93,9.22-2.47,13.88-2.68,13.36-.61,26.45-4.45,39.95-3.26-2.89,2.17-6.46,1.26-9.52,1.42-14.86.76-29.33,5.27-44.32,4.53Z"/>
  <path class="cls-68" d="M221.02,87.8c-4.15,1.59-8.35,1.17-12.56.24,4.15-1.47,8.35-1.13,12.56-.24Z"/>
  <path class="cls-86" d="M212.73,53.14c10.46-.31,20.84-1.4,31.42-.31,7.22.75,14.68-1.83,22.14-1.65,3.04.08,6.27.36,5.25,4.93-7.1.05-14.31-1.19-21.23-.66-11.1.86-22.15.21-33.21.65-2.12.08-4.61.5-4.37-2.97Z"/>
  <path class="cls-64" d="M287.41,64.04c-1.73.16-3.24,1.32-5.23.47-5.52-2.35-11.13.11-16.67.29-2.86.1-5.71-.84-8.67.01-1.6.46-2.02-1.2-1.23-2.69,4.48-3.77,10.54-2.13,15.46-4.52,2.69-1.31,14.99,3.75,16.35,6.43Z"/>
  <path class="cls-68" d="M56.25,77c-9.64.33-19.27.66-28.91.99-3.02-1.31-6.28,1.27-9.7-.84,2.51-1.77,6.15-1.22,7.7-4.13,2.31,3.87,6.97,2.75,9.36,2.25,6.16-1.29,11.78,1.51,17.69.77,2.96-.37,6.06-.14,6.87-4.03.33,0,.65,0,.98.02.9,3.44.62,5.93-3.98,4.97Z"/>
  <path class="cls-73" d="M10.43,105.86c1.72-.14,3.2.2,3.96,1.97.67.67,1.33,1.33,2,2-2.62,3.18-6.68,2.39-10.07,4.1-.47-3.05,2.81-4.42,2.13-7.04.66-.34,1.32-.68,1.98-1.02Z"/>
  <path class="cls-61" d="M108.09,69.99c1.38.39,3.84-.84,3.71,1.88-.11,2.19-2.23,2.35-3.84,2.07-4.26-.74-8.95,1.37-12.82-1.9,1.01-.65,1.41-2.16,2.94-2.06,3.34,0,6.67.01,10.01.02Z"/>
  <path class="cls-74" d="M207.72,68.11c-5.84,4.9-19.11,4.12-20.95-3.1,1.6-2.64,4.16-2.34,6.41-1.6,2.24.74,4.39.74,6.62.59,2.9.88,4.47,4.3,7.92,4.12Z"/>
  <path class="cls-76" d="M88.14,32.25c-1.5-.12-3.2.46-4.14-1.42-.7-1.4.06-2.02,1.16-2.54,2.05.53,4.78.55,2.99,3.96Z"/>
</svg>