<?xml version="1.0" encoding="UTF-8"?>
<svg id="Layer_1" data-name="Layer 1" xmlns="http://www.w3.org/2000/svg" viewBox="5 0 226 223">
  <defs>
    <style>
      .cls-1 {
        fill: #9bba50;
      }

      .cls-1, .cls-2, .cls-3, .cls-4, .cls-5, .cls-6, .cls-7, .cls-8, .cls-9, .cls-10, .cls-11, .cls-12, .cls-13, .cls-14, .cls-15, .cls-16, .cls-17, .cls-18, .cls-19, .cls-20, .cls-21, .cls-22, .cls-23, .cls-24, .cls-25, .cls-26, .cls-27, .cls-28, .cls-29, .cls-30, .cls-31, .cls-32, .cls-33, .cls-34, .cls-35, .cls-36, .cls-37, .cls-38, .cls-39, .cls-40, .cls-41, .cls-42, .cls-43, .cls-44, .cls-45, .cls-46, .cls-47, .cls-48, .cls-49, .cls-50, .cls-51, .cls-52, .cls-53, .cls-54, .cls-55, .cls-56, .cls-57, .cls-58, .cls-59, .cls-60, .cls-61, .cls-62, .cls-63, .cls-64, .cls-65, .cls-66, .cls-67, .cls-68, .cls-69, .cls-70, .cls-71, .cls-72, .cls-73, .cls-74, .cls-75, .cls-76, .cls-77, .cls-78, .cls-79, .cls-80, .cls-81, .cls-82, .cls-83, .cls-84, .cls-85, .cls-86, .cls-87, .cls-88, .cls-89, .cls-90, .cls-91, .cls-92, .cls-93, .cls-94, .cls-95, .cls-96, .cls-97, .cls-98, .cls-99, .cls-100, .cls-101, .cls-102, .cls-103, .cls-104, .cls-105 {
        stroke-width: 0px;
      }

      .cls-2 {
        fill: #b1cc60;
      }

      .cls-3 {
        fill: #5cafe0;
      }

      .cls-4 {
        fill: #abe8fe;
      }

      .cls-5 {
        fill: #8bb04c;
      }

      .cls-6 {
        fill: #80ab45;
      }

      .cls-7 {
        fill: #eaf5fb;
      }

      .cls-8 {
        fill: #bbccdf;
      }

      .cls-9 {
        fill: #b1e9f9;
      }

      .cls-10 {
        fill: #b8e3ee;
      }

      .cls-11 {
        fill: #bbd367;
      }

      .cls-12 {
        fill: #b7cde0;
      }

      .cls-13 {
        fill: #ecf8fc;
      }

      .cls-14 {
        fill: #c4e3cd;
      }

      .cls-15 {
        fill: #79bfe6;
      }

      .cls-16 {
        fill: #5d7236;
      }

      .cls-17 {
        fill: #a2d1b1;
      }

      .cls-18 {
        fill: #72b0d9;
      }

      .cls-19 {
        fill: #a0c497;
      }

      .cls-20 {
        fill: #4b732d;
      }

      .cls-21 {
        fill: #5a8347;
      }

      .cls-22 {
        fill: #9ec56d;
      }

      .cls-23 {
        fill: #689440;
      }

      .cls-24 {
        fill: #84b488;
      }

      .cls-25 {
        fill: #b5d06b;
      }

      .cls-26 {
        fill: #537e3a;
      }

      .cls-27 {
        fill: #bdda71;
      }

      .cls-28 {
        fill: #ccd5e4;
      }

      .cls-29 {
        fill: #76afcd;
      }

      .cls-30 {
        fill: #c5e7e9;
      }

      .cls-31 {
        fill: #bbcddd;
      }

      .cls-32 {
        fill: #56823c;
      }

      .cls-33 {
        fill: #dde5f1;
      }

      .cls-34 {
        fill: #a9d6bb;
      }

      .cls-35 {
        fill: #d6e3ef;
      }

      .cls-36 {
        fill: #8eccef;
      }

      .cls-37 {
        fill: #a2c25b;
      }

      .cls-38 {
        fill: #799b44;
      }

      .cls-39 {
        fill: #c6db66;
      }

      .cls-40 {
        fill: #d5e9f8;
      }

      .cls-41 {
        fill: #cdd4e5;
      }

      .cls-42 {
        fill: #a8c161;
      }

      .cls-43 {
        fill: #b1d575;
      }

      .cls-44 {
        fill: #72bbe5;
      }

      .cls-45 {
        fill: #e3f1f8;
      }

      .cls-46 {
        fill: #6a8a51;
      }

      .cls-47 {
        fill: #cfe286;
      }

      .cls-48 {
        fill: #cbde70;
      }

      .cls-49 {
        fill: #6db7e4;
      }

      .cls-50 {
        fill: #8ab24b;
      }

      .cls-51 {
        fill: #90d0a9;
      }

      .cls-52 {
        fill: #8db652;
      }

      .cls-53 {
        fill: #9ac9a8;
      }

      .cls-54 {
        fill: #ced5e5;
      }

      .cls-55 {
        fill: #a0cb99;
      }

      .cls-56 {
        fill: #95ba56;
      }

      .cls-57 {
        fill: #d7ece2;
      }

      .cls-58 {
        fill: #8fb25b;
      }

      .cls-59 {
        fill: #b5e9fb;
      }

      .cls-60 {
        fill: #648c68;
      }

      .cls-61 {
        fill: #c1d96a;
      }

      .cls-62 {
        fill: #4a7332;
      }

      .cls-63 {
        fill: #a1d9f1;
      }

      .cls-64 {
        fill: #caddee;
      }

      .cls-65 {
        fill: #a5c55c;
      }

      .cls-66 {
        fill: #98d2ed;
      }

      .cls-67 {
        fill: #94d0b4;
      }

      .cls-68 {
        fill: #94b953;
      }

      .cls-69 {
        fill: #457130;
      }

      .cls-70 {
        fill: #b4d1eb;
      }

      .cls-71 {
        fill: #85ae48;
      }

      .cls-72 {
        fill: #b4cf63;
      }

      .cls-73 {
        fill: #aac963;
      }

      .cls-74 {
        fill: #9bba53;
      }

      .cls-75 {
        fill: #d8dfe9;
      }

      .cls-76 {
        fill: #a7ddf0;
      }

      .cls-77 {
        fill: #cdeae5;
      }

      .cls-78 {
        fill: #5a7f4d;
      }

      .cls-79 {
        fill: #7ca747;
      }

      .cls-80 {
        fill: #95d0b2;
      }

      .cls-81 {
        fill: #577c35;
      }

      .cls-82 {
        fill: #c3e07d;
      }

      .cls-83 {
        fill: #a6c55e;
      }

      .cls-84 {
        fill: #9cd4ba;
      }

      .cls-85 {
        fill: #bddf8e;
      }

      .cls-86 {
        fill: #abcfdd;
      }

      .cls-87 {
        fill: #e0e7f0;
      }

      .cls-88 {
        fill: #c3d971;
      }

      .cls-89 {
        fill: #addff1;
      }

      .cls-90 {
        fill: #79c1e6;
      }

      .cls-91 {
        fill: #a9c65c;
      }

      .cls-92 {
        fill: #d6e473;
      }

      .cls-93 {
        fill: #97b759;
      }

      .cls-94 {
        fill: #d4e3f1;
      }

      .cls-95 {
        fill: #c5cfde;
      }

      .cls-96 {
        fill: #85c6e9;
      }

      .cls-97 {
        fill: #d9effc;
      }

      .cls-98 {
        fill: #dde8f1;
      }

      .cls-99 {
        fill: #e2f1fd;
      }

      .cls-100 {
        fill: #c6e2ad;
      }

      .cls-101 {
        fill: #c3e6ea;
      }

      .cls-102 {
        fill: #aaca60;
      }

      .cls-103 {
        fill: #a1c25a;
      }

      .cls-104 {
        fill: #b3d066;
      }

      .cls-105 {
        fill: #6a9558;
      }
    </style>
  </defs>
  <g id="vcGzal">
    <g>
      <path class="cls-3" d="M.24,29.04C.24,20.21.33,11.38.17,2.56.14.41.59,0,2.74,0c73.57.07,147.13.07,220.7,0,2.14,0,2.59.41,2.56,2.56-.14,10.49-.07,20.98-.07,31.47-1.69,1.03-3.51.73-5.33.5-.99-.13-2.11-.68-2.94-.3-10.18,4.57-20.47-.63-30.77.41-10.18,1.02-20.54.06-30.82.27-10.41.21-20.83-.75-31.25,1.1-3.82.68-8.77,1.21-11.03-4.23-.81-1.95-3.27-1.04-4.99-1.37-1.1-.08-2.12-.47-3.15-.82-3.26-1.52-6.56-.84-9.86-.16-3.05.19-5.67-1.51-8.62-1.94-5.41-.78-9.94,1.27-14.43,3.74-8.54-3.72-17.35-1.26-26.08-1.56-13.07-.44-25.93,2.68-38.95,1.25-2.6-.29-5.36.21-7.49-1.88Z"/>
      <path class="cls-57" d="M.24,164.92v-23.98c4.85-4.46,10.74-3.56,16.44-2.92,2.27.26,4.51.93,6.86.94,41.34.19,82.67,1.69,124.01.98,18.25-.31,36.48-1.78,54.74-.6,1.83.12,3.74.04,5.36.9,3.61,1.91,7.27,1.86,11.13,1.05,2.39-.5,4.93-1.2,7.16.65v11.99c-3.47,2.72-7.44,1.75-11.31,1.57-.72-2.51-1.3-.36-1.94.07-1.7,1.02-3.45.98-5.22.27-.84.05-1.53-3.79-2.57-.07-.21.74-1.13,1.08-1.91,1.38-12.67,1.67-25.31,3.54-38.05,4.51-7.37.56-14.17,3.64-21.42,4.66-3.69.23-6.96,2.07-10.52,2.76-1.81.35-3.61.49-5.41-.05-7.23-1.4-14.52-1.35-21.68.05-12.9,2.52-25.65,1.05-38.56-.11-9.52-.86-18.99-2.42-28.58-2.49-3.52.31-6.76-1.01-10.12-1.7-4.99-1.03-10.1-1.1-15.18-1.1-1.2-.57-2.32-.03-3.46.31-1.05.16-2.03,0-2.93-.56-1.33-1.18-1.59-2.64-1.16-4.3-.41,1.7.18,3.71-1.32,5.14-1.33,1.06-2.75,1.49-4.36.65Z"/>
      <path class="cls-44" d="M108.07,29.05c2.95-1.22,5.84.16,8.79.1-1.46,4.52-1.33,3.94,3.36,5.04,5.63,1.31,10.58-1.48,16.06-1.34,18.42.47,36.86.26,55.29.13,4.88-.03,9.75-1.43,14.34,1.74,1.67,1.15,4.04.16,5.72-.81,4.87-2.81,9.56-1.48,14.32.12v4c-2.21,1.87-5.4,2.05-7.39,4.3-1.81,2.15-4.1,3.31-6.9,3.45-3.69.18-6.55,3.23-10.36,3.02-.8.33-1.6.66-2.45.83-1.13.33-2.53.04-3.39.7-6.27,4.84-13.57,3.58-20.62,3.62-13.95.09-27.9-.14-41.85.06-35.16.5-70.32-.36-105.47-.05-3.74.03-7.32.26-10.22,2.99-1.55,1.28-3.26.99-4.99.53-2.6-.67-5.2-.74-7.83-.01-1.43.39-2.93.72-4.23-.45v-12.99c1.83-1.85,4.21-1.8,6.53-1.8,17.62-.03,35.24-.06,52.87,0,5.89.02,11.67,2.23,17.72.49,1.54-.44,2.11-1.07,2.8-2.09,2.94-1.72,5.75-1.96,8.29.74-.13.64.14-.16.12.48-.02.76-.71,1.16-.77,1.84.25-.64.75-1.06,1.28-1.46,5.95-.02,11.88.65,17.84.48,3.83,1.19,7.72.99,11.62.59.64-.34,1.44-.5,1.63-1.37-3.12-2.03-6.59-3.22-9.96-4.63-1.83-.76-3.56-1.57-4.56-3.41-.42-1.31-.37-2.61.15-3.89.55-.81,1.6-.42,2.27-.95Z"/>
      <path class="cls-96" d="M225.93,62.01v10.99c-.24.23-.54.57-.8.53-7.28-1.24-13,1.76-18.07,6.59-3.53.44-7.06.9-10.55,1.72-.51.03-1.01-.03-1.51-.14-6.76.63-13.52.05-20.27-.04-5.55-.07-10.55-2.07-15.2-5.01-1.56-3.86-5.68-3.91-8.59-5.77-8.06-2.38-15.38-.84-22.76,3.1-4.69,2.51-10.13,3.78-15.69,3.47-3.39-.15-6.64.9-9.74,1.83-12.59,3.77-25.32,2.76-38.08,1.82-2.99-.22-5.97-.27-8.96-.27-5.61,0-11.24.87-16.83-.36-7.61,0-13.32-3.51-17.19-9.87-1.5-2.47-3.3-4.15-6.06-4.65-3.81-.69-7.27-3.32-11.49-1.95-.9.29-1.92-.37-2.4-1.41,1.39-4.61,3.01-5.44,9.58-4.93,3.54,1.38,7.24,2.41,10.68,4.01,2.01.93,3.79,1.04,5.71.2,3.47-1.51,7.13-1.5,10.79-1.33,22.42,1.04,44.84.82,67.27.09,10.21-.33,20.48-.27,30.63,1.54,3.77.67,7.68-.52,11.38-.31,9.62.56,19.09-1.67,28.68-.91,6.64.53,13.29.23,19.94.27,8.44.06,16.87,1.01,25.3-.29,1.52-.23,2.99-.02,4.21,1.07Z"/>
      <path class="cls-10" d="M225.93,111.97v5.99c-1.31,1.2-2.9,1.42-4.56,1.19-4.57-.62-9.09-.1-13.61.48-10.88,1.05-21.81,1.01-32.71,1.62-3.66-.77-6.76,1.29-10.1,2.07-10.6,2.48-21.46,2-32.18,2.4-16.74.64-33.53.38-50.3.09-10.86-.19-21.76-.37-32.49-2.46-4.33-1.21-8.86-1.81-12.88-4.03-1.94-1.01-3.94-1.59-6.18-1.44-7.67.52-15.15-.83-22.58-2.48-2.28-.51-5.17-.5-5.4-3.95,1.24-1.91,3.2-1.63,4.96-1.41,8.41,1.05,16.88.29,25.32.69,11.58.55,23.22-.94,34.87-.81,19.46.22,38.93.22,58.4-.01,9.33-.11,18.59.87,27.89,1.06,5.32.11,10.64.21,15.83-1.39,1.75-.54,3.7-.79,5.44-.3,7.88,2.2,15.8,1.42,23.76.75,7.64-.64,15.26.67,22.9.49,1.38-.03,2.6.49,3.62,1.44Z"/>
      <path class="cls-77" d="M225.93,141.94c-2.92.58-5.81,1.34-8.76,1.69-3.4.41-6.56.62-9.96-1.52-3.41-2.15-7.96-1.19-11.98-1.1-39.84.89-79.68,1.49-119.52.76-18.24-.34-36.52-.08-54.7-1.17-7.05-.42-13.86-1.1-20.78.34v-7.99c4.68-3.34,10.03-2.06,14.99-1.61,7.49.69,14.96.4,22.42.77,5.73.28,10.7-1.6,15.58-4.17.51-.38,1.07-.61,1.7-.71,1.03-.08,2.1.06,2.87.65,5.71,4.38,12.33,4.18,19.04,4.14,23.3-.12,46.61-.41,69.9.06,23.26.47,46.43-1.74,69.66-1.63,3.18.02,6.49-2.36,9.53.49v10.99Z"/>
      <path class="cls-63" d="M.24,100.98v-5c1.26-1.27,2.9-1.88,4.54-1.53,5,1.07,9.24-.12,13.48-3,4.41-2.99,9.22-1.39,13.81.23,2.71,1.16,5.45,1.03,8.19.12,6.13-.27,11.5-3.81,17.65-4.04,1.44-.06,2.85-.83,4.34-.17,2.41,2.1,5.26,2.44,8.34,2.51,22.73.46,45.42-1.12,68.13-1.19,9.22-.03,18.49,1.91,27.75.94,4.15-.43,7.87.05,11.59,1.63.62.26,1.17.62,1.66,1.05,1.22,1.81-.31,2.39-1.47,2.79-2.93,1.02-5.83,2.27-9.06,1.96-.16-.02-.4-.15-.47-.09-.53.47.27.25.29.47.66.37,1.16.88,1.63,1.44,2.01,3.84,1.46,5.3-2.06,4.97-20.98-1.95-42-1.12-63.01-1.13-5.3,0-10.54-1.57-15.84-.47-1.31.28-2.57.14-3.81-.44-1.51-.72-2.74-1.75-3.72-3.1.64,1.87-.21,2.9-1.95,3.45-2.12.63-4.29.68-6.44.54-21.71-1.38-43.41.75-65.12.02-2.95-.1-6.05.37-8.48-1.98Z"/>
      <path class="cls-30" d="M225.93,130.95c-15.17,1.69-30.45,1.35-45.65,2.22-32.15,1.83-64.28.04-96.41.74-10.29.22-20.95,1.71-29.72-5.94-1.51-2.12-5.48-2.21-4.97-6.01,3.84-.25,7.55.61,11.32,1.19,6.3.96,12.74.45,19.1.63,18.59.53,37.23.88,55.79-.06,12.1-.61,24.62.83,36.29-4.13,1.23-.52,2.26-.14,3.32.38-.15,4.65-4.95,2.9-6.89,5.04.53,1.86,2.06,1.4,3.27,1.34,7.27-.38,14.47-1.35,21.63-2.72,3.44-.76,6.55.77,9.73,1.53,5.67,1.36,11.34,2.28,17.19,2,2.17-.1,4.33.13,6.01,1.81v2Z"/>
      <path class="cls-15" d="M16.22,57.01c.56-4.48,3.99-4.94,7.38-4.95,24.61-.07,49.23-.6,73.81.14,20.16.61,40.26-.87,60.4-.23,9.63.3,19.28.05,28.93.06,2.19,0,4.03-.07,5.43-2.48,1.77-3.04,5.18-.94,7.79-1.53,4.06.18,8.07-.21,12.01-1.25,1.41-.24,2.81-.23,4.22,0,3.08,1.47,6.92-.28,9.75,2.26v6.99c-2.35,2.24-5.21,1.92-8.01,1.46-3.66-.6-7.26-.63-10.86.39-1.93.55-3.94.8-5.93.39-3.9-.81-7.51-.27-11.11,1.47-3.56,1.72-7.5,1.3-11.3,1.22-19.08-.39-38.17-.11-57.26-.24-24.23-.17-48.48.27-72.72.25-8.13,0-16.24-.52-24.38-.13-2.98.14-6.91.58-8.14-3.8Z"/>
      <path class="cls-89" d="M225.93,111.97c-7.57,1.41-15.14-.21-22.71-.07-9.36.17-18.6.8-28.13-.38-8.16-1.01-16.94,2.04-25.59,1.45-32.53-2.24-65.11-1.14-97.63-.62-12.67.2-25.4-1.16-38.08.48-3.44.45-6.9-1.98-10.55-.85-1,.86-2,.79-3,0v-5.99c2.12-2.1,4.85-1.93,7.5-1.94,9.64-.05,19.29-.39,28.91.07,15.34.72,30.61-.27,45.92-.61,13.89-.3,27.81.71,41.72.52,13.61-.19,27.25-.5,40.83-.2,11.38.25,22.71-2.06,34.15,0,5.44.98,11.24.48,16.88-.33,3.48-.5,7.01-.2,9.79,2.51v5.99Z"/>
      <path class="cls-49" d="M80.12,41.1c.61,1.28,3.74,1.47,2.01,3.63-1.24,1.55-3.18,1.71-4.7-.16-.53-.65-1.35-1.49-1.99-.58-2.24,3.25-5.1,1.61-7.66.99-5.41-1.32-10.86-.92-16.31-.94-17.08-.04-34.16-.02-51.24-.02v-14.99c7.64,0,15.28.05,22.92-.02,3.76-.04,7.6.67,11.11-1.68.95-.63,2.65-.52,3.9-.25,8.85,1.89,17.53-.2,26.27-.93,1.67-.14,2.9.5,3.96,1.65,1.28,1.4,2.72,2.45,4.75,2.24.69.27,1.26.64,1.3,1.48-1.28,2.26-3.62,3.11-5.7,4.32-.13.08-.38,0-.47.1-.4.43.21.14.26.29,1.27.5,2.34,1.24,3.36,2.06,1.61,1.82,3.81,1.08,5.78,1.33,1,.2,1.91.53,2.45,1.47Z"/>
      <path class="cls-76" d="M225.93,105.97c-6.57-1.5-13.14.19-19.71-.02-8.11-.26-16.24-1.22-24.32-.88-27.14,1.14-54.32,1.57-81.43.53-12.18-.46-24.34,1.98-36.46-.36-.81-.16-1.79.67-2.72.95-3.4,1.03-6.68,3.02-10.3.17-.97-.76-2.89-.38-4.38-.38-15.46-.02-30.92-.01-46.37-.01v-5c27.3.38,54.59-.87,81.89,0,2.38-1.95,3.79,1.83,5.98,1.01.99-2.02,2.84-2.18,4.7-1.97,18.7,2.11,37.46.33,56.18,1.02,7.33.27,14.63,1.12,22,1.71.41-1.87-1.66-2.36-1.98-3.75,5.12-.88,10.31-2.19,15.45-1.19,5.14,1,10.22.88,15.29.37,2.58-.26,5.19-.21,7.29.71,5.12,2.23,9.95.42,14.89-.15,1.37-.47,2.73-.79,4,.24v6.99Z"/>
      <path class="cls-90" d="M16.22,57.01c2.21,1.77,4.8,2.01,7.5,2.01,53.64-.01,107.28-.01,160.93,0,2.21,0,4.51.02,6.1-1.6,3.04-3.1,6.51-1.57,9.87-1.28.95.08,2.11,1.01,2.77.69,7.43-3.57,15.05-.55,22.56-.82v5.99c-5.14,1.89-10.84-.1-16.02,2.52-1.68.85-3.91-1.61-6.42-1.64-10.24-.11-20.47.49-30.76-.46-4.29-.4-9.61-.69-13.96,2.03-1.37.86-2.48-.03-3.66-.68-2.33-1.28-4.94-1.2-7.26-.4-4.14,1.43-8.27.26-12.31.61-6.69.58-12.82-1.87-19.69-1.52-24.28,1.26-48.66.84-72.99.28-6.22-.14-12.14-1.08-17.76,2.27-.69.41-1.89,1.01-2.24.26-2.37-5.02-8.6-2.67-11.64-6.28-.75-1.36.05-2.2,1-2.99l3.99,1Z"/>
      <path class="cls-30" d="M.24,111.97c1,0,2,0,3,0,6.51,2.12,13.15,3.6,19.99,3.97,5.05.28,10.26-.77,14.97,1.99-1.07,2.05-4.17,1.99-4.88,5.02,5.33-.37,9.54,4.72,15.45,1.85,2.59-1.26,3.26,3.1,5.4,4.15-3.66,2.37-7.17,4.84-11.86,5.04-14.05.61-28.03-1.44-42.07-1.05v-20.98Z"/>
      <path class="cls-26" d="M225.93,188.9v9.99c-3.46,2.38-7.08,2.8-10.88.89-1.4-2.29-3.24-3.55-6.11-2.84-1.29.32-2.78.32-3.8-.62-3.71-3.38-8.28-2.36-12.6-2.63-3.48-.36-4.52,3.55-7.39,4.26-3.27.03-6.03.89-7.77,4.02-.83,1.5-2.42,2.2-4.13,2.3-1.65.09-2.76.83-3.43,2.31-1.3,2.19-3.66,2.09-5.72,2.66-3.85.27-7.7.87-11.57.32-3.2-1.91-1.21-3.97-.18-6.01,2.98-3.15,7.92-2.08,10.96-5.08,2.35-3.26,4.06-7.49,9.63-4.61,1.06.55,2.57-2.22,4.13-3.13,1.79-3.29,4.52-5.68,7.43-7.92,5.26-5.29,7.69-5.57,13.64-1.27,1.47,1.06,2.91,1.44,4.63,1.22,2.18-.28,4.31-.1,6.28,1,1.84,1.37,4.1,2.38,4.37,5.11-.31-2.92,1.54-4.05,3.92-4.59,4.16-.95,6.44,1.77,8.6,4.63Z"/>
      <path class="cls-71" d="M.24,214.88v-9.99c1.79-2.14,4.26-2.94,6.83-3.7,10.36-3.06,20.89-4.35,31.69-3.82,3.25.16,6.61.57,9.75-.86,3.74-1.43,7.58-1.67,11.6-1.71,6.32-.06,12.64-.87,18.77-2.67.39-.39.84-.69,1.34-.91,1.11-.33,2.15-.26,3.05.55-.8,4.96-2.78,6.32-9.19,5.34-1.81-.28-1.91.2-2.08,1.45-4.91,3.82-10.26,5.73-16.62,4.57-8.17-1.49-16.35.78-25.59-.02,2.82.63,4.64-.42,6.39.47.56.65.66,1.38.41,2.17-2.02,2.37-4.82,1.71-7.38,1.8-5.9.2-11.89-.54-18.13,1.84,5.7,1.54,10.92,3.11,16.04,4.98,1.52,2.41-.21,3.76-1.98,3.9-8.51.64-17.15,1.67-24.9-3.4Z"/>
      <path class="cls-95" d="M225.93,98.98l-3.01,1c-5.67-.38-11.35.96-17.06-.85-4.1-1.3-8.55.09-12.84-.14-2.3-.13-4.68.21-6.67-1.37-.55-4.5,3.5-5.18,6.02-5.87,2.48-.67,3.97-1.71,5.22-3.64.99-.87,2.13-1.38,3.44-1.5,5,.2,9.52-.35,13.42-4.35,2.17-2.22,5.45-3.75,9.03-3.21,1.11.27,1.7,1.2,2.44,1.94v17.98Z"/>
      <path class="cls-56" d="M.24,214.88c7.19,1.49,14.43,2.57,21.78,2.47,1.96-.02,4.46.52,5.15-2.43,1.75-1.29,3.8-1.13,5.73-.92,11.5,1.26,23.01,1.23,34.52.33,1.92.55,3.95.81,5.59,2.11-.36,4.99-4.66,4.41-7.76,5.31-1.96.57-4.24-.3-6.09,1.13-17.98,0-35.95-.17-53.93.12-4.24.07-5.85-.88-5.02-5.12.19-.96.03-1.99.03-2.99Z"/>
      <path class="cls-28" d="M.24,90.98v-19.98c1.9-2.53,4.5-2.77,7.33-2.26,3.55.7,6.03,3.13,8.57,5.43,1.31.51,2.77.3,4.07.84.63.2,1.22.48,1.75.86,2.28,1.62,4.3,3.61,2.43,6.49-1.98,3.04-4.62,2.47-7.09.28,1.54,1.94,3.97,3.68,1.48,6.55-5.85,4.09-11.99,5.18-18.55,1.79Z"/>
      <path class="cls-6" d="M225.93,209.88v12.99h-25.96c-1.2-3.35,1.63-3.14,3.26-3.21,2.35-.1,4.54-.55,5.98-1.15-8.49,1.92-17.98,2.33-27.21,4.36h-13.98c.21-3.41,3.14-3.32,5.34-4.04,1.72-.56,3.55-.72,5.36-.73,8.42-1.55,16.72-3.68,25.01-5.77,7.32-1.84,14.53-4.06,22.2-2.45Z"/>
      <path class="cls-37" d="M149.04,222.87h-72.9c0-4.52,3.61-4.24,6.51-4.9,1.83.33,3.58-.16,5.3-.68,2.87-.88,5.59-1.11,7.39,1.86,1.1,1.82,2.26.4,3.42.35,5.5-1.29,10.81-3.51,16.62-3.08,11.69,1.69,23.31,3.04,34.73-1.78,3.64-1.54,7.75-1.82,11.71-2.13,2.1-.17,4.52-.16,4.65,3.02-.2.44-.43,1-.88,1.12-6.08,1.6-11.92,4.2-17.95,4.62-.97-.45-.55.67-.33.04.06-.18.2-.13.48-.06.9.2,1.48.61,1.27,1.65Z"/>
      <path class="cls-101" d="M225.93,128.95c-10.05.37-19.99.04-29.52-3.82-1.29-.52-2.95-.14-4.43-.18-.87-.85-.92-1.83-.49-2.9,3.26-2.97,7.31-1.03,10.94-1.75,2.02-.4,4.46.33,5.51-2.33,6-1.67,11.99-.97,17.99-.01v10.99Z"/>
      <path class="cls-103" d="M208.95,184.91c-2.18-.66-4.27-1.46-6.64-.25-1.48.75-3.17.55-4.58-.71-6.01-5.39-7.04-5.35-12.62.36-1.39-2.22-2.02-4.54-.96-7.09,1.25-1.94,3.45-2.4,5.29-3.45,1.11-.49,2.25-.77,3.46-.37,8.7,2.42,17.6,2.22,26.5,2.09,2.28-.03,4.68-.55,6.53,1.42v5.99c-5.49,2.14-11.16,2.73-16.98,2.01Z"/>
      <path class="cls-13" d="M20.2,76.01c-1.66-.01-3.31-.02-4.97-.03-.25-.24-.35-.53-.45-.83-.63-1.88,3.47-3.35.44-5.45-2.46-1.7-4.72-.64-7.01.35-2.73-.32-5.36.24-7.97.95v-6.99c.55-.6,1.15-1.08,2.04-.86,5.31-2.23,10.15.51,15.16,1.47,2.44.47,4.48,1.85,5.34,4.08,2.74,7.14,8.53,9.46,15.38,10.32,3.38.5,6.71,1.28,9.3,3.63,2.58,2.33,6.57.7,8.91,3.44-.05.5-.13,1.22-.56,1.29-4.96.9-9.44,3.85-14.68,3.52-.56-.3-1.31-.59-1.27-1.31.3-5.08-3.11-5.73-6.94-5.91-3.97-3-7.33-7.01-12.72-7.66Z"/>
      <path class="cls-79" d="M165.01,207.87c.93-1.43,3.49.33,3.95-2.01.3-.83,1-1.7,1.7-1.58,4.81.82,8.68-2.55,13.22-2.85,3.23.13,6.07-1.6,9.2-1.93,2.22-.24,4.5-.61,4.69,2.68,4.19,2.34,10.83,1.4,13.25-2.1,1.1-1.59,2.03-2.54,3.9-1.3,3.66,1.43,7.35-.37,11.02.11v5c-3.65,3.98-8.67,2.77-13.18,3.49-5.14.17-10.37.6-15.23,1.86-8.89,2.31-17.81.49-26.66,1.36-2.25.22-4.73-.04-5.85-2.73Z"/>
      <path class="cls-78" d="M203.77,155.85c.58-1.25,1.17-2.5,1.75-3.75.88.65,1.35,1.63,1.56,2.76,1.16,1.16,1.59,2.78,2.58,4.43,1.15-1.69,1.56-3.53,3.14-4.47.26-.44.53-.88.79-1.32l.55,1.27c2.91,2.13,2.14,5.64,3.14,8.49.98,2.8,2.09,3.24,3.81.67,1.65-2.48,3.22-4.17,4.85-.01v5.99c-.63.54-1.27,1.27-2.09,1.3-6.79.25-13.41,2.23-20.25,1.98-3.3-1.26-3.43-3.97-3.14-6.87,1.46-3.37,1.82-7.1,3.32-10.47Z"/>
      <path class="cls-7" d="M200.93,87.94c-.98.36-1.97.71-2.95,1.07-3.77,2.02-8.24,1.95-12.02,4.04-1.36.76-2.53-.06-2.94-1.64-.29-2.25.68-4.17,2.61-4.86,3.76-1.35,6.65-4.18,10.35-5.54.34-.06.68-.12,1.02-.17,2.96-1.11,6.38.23,9.17-1.75,3.13-2.25,5.34-5.67,9.53-6.63,3.56-.81,6.86-.22,10.23.53v7.99c-.67-.33-1.34-.66-2.01-.99-3.61-4.03-7-4.71-9.73-.53-3.35,5.13-8.06,6.91-13.27,8.47Z"/>
      <path class="cls-73" d="M202.85,171.87c7.7-.62,15.27-2.75,23.09-1.96v6.99c-6.02.52-12.08.23-18.11.5-4.92.22-9.95-1.85-15.14-1.4-.81.07.18-1.29.33-1.99.33-1.95,2.06-2.26,3.44-2.99.82-.36,1.68-.63,2.58-.68,1.66-.48,2.04,2.27,3.82,1.53Z"/>
      <path class="cls-68" d="M212.9,205.94c4.34-.68,8.69-1.37,13.03-2.05v5.99c-10.65,1.45-21.14,3.8-31.65,6-5.16,1.08-9.95,3.6-15.3,3.93.11-2.92,2.65-4.03,4.31-5.8,8.44-1.74,16.87-3.56,25.12-6.07,1.57-.48,3.28-.67,4.48-2Z"/>
      <path class="cls-23" d="M49.18,197.87c-4.45,2.06-9.18,1.13-13.72.92-11.41-.54-22.11,2.37-32.78,5.76-.77.25-1.63.23-2.45.34,0-3.33,0-6.66,0-9.99,1.59-1.31,3.01-3.08,5.46-1.92,1.63,2.71,4.05,3.49,7.07,3.01,2.73-.44,5.46-.89,8.25-.59,4.45-.54,8.89-.13,13.34-.05,3.42-.62,6.88-.57,10.3-.25,1.85.17,4.11.07,4.52,2.77Z"/>
      <path class="cls-91" d="M.24,181.91v-7.99c.78-.83,1.59-1.62,2.87-1.48,1.44.41,2.89.79,4.4.87.44.09.83.28,1.19.54.8.78,1.24,1.8,1.88,2.68,2.52,1.98,5.38.88,8.12.93,2.89.06,6.1-.77,7.97,2.56-1.1,4.93-2.88,6.62-7.53,6.77-2.13.07-4.29.54-6.42-.08-3.8-2.52-8.96-1.51-12.47-4.8Z"/>
      <path class="cls-12" d="M.24,90.98c6.53.21,13.05.37,19-3.02,1.31-1.25,2.87-1.71,4.65-1.47,4.4.12,8.16,1.49,10.59,5.45-.22,1.52-1,1.83-2.28,1.05-4.27-.57-9.17-3.82-12.68-.37-5.98,5.87-12.72,3.23-19.28,3.36v-5Z"/>
      <path class="cls-67" d="M225.93,163.92c-1.01-.42-2.05-3.85-3.01.06-.59,2.38-1.61,4.13-4.61,3.85-3.19-.3-1.94-2.76-2.55-4.41-1.04-2.81-1.05-5.77-1.63-8.64,3.85-1.44,7.87-.46,11.8-.84v9.99Z"/>
      <path class="cls-37" d="M183.02,214.92c-.13,2.63-2.56,3.37-4.04,4.9-3.89.18-7.77.41-10.98,3.06h-15.98c-.76-.62-1.82-1.32-.52-2.23,1.2-.85,2.61-1.46,4.09-1.7,8.43-1.41,16.53-4.52,25.16-4.93.89-.02,1.68.2,2.27.91Z"/>
      <path class="cls-25" d="M.24,181.91c3.93.72,7.86,1.37,11.77,2.2.72.15.42,1.04.18,1.64-.88,3.8-3.19,6.18-7.02,7.04-1.1,1.97-2.93,2.24-4.93,2.12v-12.99Z"/>
      <path class="cls-52" d="M181.99,222.87c3.42-3,8.06-3.06,11.99-3.64,6.48-.97,13.01-1.55,19.39-3.2.56-.14,1.23.16,2.01.75-3.4,2.22-6.78,4.42-11.06,4.34-1.77-.03-3.73-.92-4.35,1.76h-17.98Z"/>
      <path class="cls-5" d="M83.12,218.87c-2.35,1.29-5.76.73-6.99,4h-16.98c2.38-3.47,6.86-1.32,9.77-3.68,1.18-.95,3.12-.94,4.23-2.3,4.2-3.12,11.31-3.21,15.38-.2-1.18,2.27-3.13,2.62-5.41,2.18Z"/>
      <path class="cls-64" d="M216.01,48.12c-1.38.02-2.77.04-4.15.06-3.12.71-6.28.21-9.42.29-.88.02-1.66-.23-1.34-1.43,5.72-1.69,11.9-2.08,16.79-6.07,1.65.81,3.08.59,4.51-.64,1-.86,2.24-1.49,3.52-.32v4c-1.78,1.53-3.27,3.42-5.47,4.46-1.49-.07-3.02.36-4.45-.36Z"/>
      <path class="cls-27" d="M181.02,214.89c-8.36,1.68-16.74,3.25-25.05,5.16-1.38.32-4.54-.68-3.94,2.83h-3c-.94-1.49-2.88-.42-4.29-1.83,7.36-1.36,13.86-4.99,21.25-5.19,3.45-3.69,7.98-3.48,12.43-3.32,1.26.04,2.67.55,2.6,2.36Z"/>
      <path class="cls-43" d="M208.95,184.91c5.66-.67,11.32-1.34,16.98-2.01v5.99c-1.76.14-2.56-1.3-3.67-2.23-2.02-1.68-4.27-1.76-6.47-.52-3.35,1.89-3.31,1.96-6.84-1.23Z"/>
      <path class="cls-15" d="M2.28,63.14c-.68.29-1.36.58-2.04.86,0-2.33,0-4.66,0-6.99,3.96-.76,7.76-3.48,11.98-1-.33,1-.66,1.99-1,2.99-3.52.22-7.68-.95-8.94,4.14Z"/>
      <path class="cls-17" d="M3.11,172.85c-.96.35-1.92.71-2.87,1.06,0-3,0-5.99,0-8.99,1.3-.35,2.6-.7,3.91-1.05,1.88,3.25,2.1,6.31-1.03,8.98Z"/>
      <path class="cls-99" d="M225.93,40.03c-1.61.03-2.75.98-3.6,2.15-2.63,3.64-3.79,2.28-4.43-1.19,1.92-3.04,4.88-3.27,8.03-2.95v2Z"/>
      <path class="cls-86" d="M220.91,47.98c.37-2.98,2.01-4.34,5.03-3.96v4c-1.68.75-3.36.8-5.03-.04Z"/>
      <path class="cls-90" d="M220.91,47.98c1.68.01,3.35.03,5.03.04v1c-3.3-.39-6.75.91-9.92-.9,1.63-.05,3.26-.1,4.89-.14Z"/>
      <path class="cls-18" d="M74.29,31.09c-.38-.35-.76-.7-1.15-1.05,5.08-5.61,11.42-4.39,17.72-3.22,1.76.33,3.49.8,5.24,1.21-.12,2.7-2.44,2.07-3.98,2.64-4.91.19-9.93-.88-14.69,1.39-1,.48-2.29,0-3.14-.98Z"/>
      <path class="cls-59" d="M43.32,18.12c5.6-.67,11.05,1.24,16.62.99-.61,3.67-4.12,1.46-5.84,2.89-2.32,1.66-4.21.57-6.04-.93-.98-.87-2.18-.44-3.29-.54-1.63-.14-2.58-.64-1.45-2.42Z"/>
      <path class="cls-4" d="M25.22,11.63c5.55-3.05,9.38.73,13.58,1.44-4.53,2.11-8.51-.49-13.58-1.44Z"/>
      <path class="cls-49" d="M54.1,22c1.55-1.77,4.44-.84,5.84-2.89,2.54.86,5.08,1.73,7.62,2.59-.06.34-.11.69-.17,1.03-4.43-.24-8.86-.49-13.29-.73Z"/>
      <path class="cls-9" d="M92.11,29.22c1.36-.31,2.93.09,4-1.19,3.29-1.27,6.56-1.31,9.82.11-1.37,4.1-5.52,1.46-7.84,3.26-1.26.24-2.51.62-3.83.44-1.34-.36-2.37-.98-2.15-2.63Z"/>
      <path class="cls-36" d="M97.08,30.12c2.75-1.54,6.14-.23,8.84-1.97.71.3,1.43.6,2.14.9-.67.34-1.33.69-2,1.03-3.82,3.32-6.2,3.33-8.99.03Z"/>
      <path class="cls-49" d="M43.32,18.12c.22,3.16,3.81.93,4.74,2.96-1.6,0-3.2.01-4.8-.03-1.1-.03-2.6.13-2.71-1.3-.14-1.93,1.54-1.58,2.77-1.63Z"/>
      <path class="cls-84" d="M203.77,155.85c.66,3.6-.21,6.91-1.92,10.06-1.89,1.4-3.17-.03-4.56-.98-.56-.56-1.1-1.21-.99-2,.21-1.57-.59-.24-.88-.34-1.01.26-1.96-.06-2.93-.21-3.89-.59-5.33.63-5.75,4.63-.19,1.84.95,4.05-1.34,5.37-1.73.49-3.14-1.59-4.94-.61-.42.16-.85.27-1.28.36-2.54.13-3.82,3.44-6.72,2.69-8.98.48-18.07-.93-26.9,1.73-1.91.57-3.74,1.3-5.47,2.31-1.26.42-2.54.42-3.82.15-1.71-.5-3.25-1.5-5.2-1.27-1.6.19-3.01-.53-3.46-2.16-.53-1.94.79-3.05,2.28-3.92,4.26-2.48,9.09-3.81,13.17-6.65,10.38-3.18,20.85-5.76,31.81-6.09,9.69-.29,19.14-3.17,28.9-3.08Z"/>
      <path class="cls-14" d="M38.13,165c14.33.84,28.65,1.83,42.9,3.67,7.78,1,15.52-.1,23.21-1.29,7.98-1.23,15.94-2.23,23.81.6-.79,3.79-4.23,3.57-6.87,4.42-8.26,2.65-16.68,4.78-24.91,7.55-7.23,1.54-14.27-1.22-21.47-.97-1.94.07-3.83-1.36-4.91-3.04-2.19-3.43-5.41-4.61-9.17-4.92-1.53-.1-2.86.71-4.32.96-5.81.44-10.92-1.97-16.08-4.08-1.2-.49-2.39-1.23-2.2-2.89Z"/>
      <path class="cls-80" d="M38.13,165c5.94,3.05,12.15,5.24,18.84,5.87.9,1.7.16,2.9-1.18,3.92-2.3,1.17-4.83,1.26-7.24.91-6.03-.86-12.15-.46-18.14-1.5-.45-.17-1.07-.29-1.26-.68-1.45-3.01-2.39-.64-3.46.31-3.69,1.45-7.51.78-11.29.73-1.58-.31-2.2-1.47-2.54-2.87-.03-2.95-1.49-5.99.49-8.84,6.09-2.02,12.05-.28,18.02.68,2.6.42,5.17.98,7.75,1.47Z"/>
      <path class="cls-34" d="M96.05,178.88c4.17-4.63,10.66-2.23,15.48-5.18,5.04-3.09,11.52-2.32,16.53-5.72,5.28.41,9.8-2.98,15.01-2.97-1.92,4.78-7.16,4.66-10.6,7.18-1.34.98-4.26.49-3.87,2.97.41,2.53,2.64.79,4.08.92,1.35.13,2.5.75,3.38,1.81-2.73,2.33-6.61,1.3-9.47,3.27-4.75.18-9.48.64-14.23.8-3.97.34-7.94.6-11.92.35-2.17-.14-4.47-.32-4.38-3.43Z"/>
      <path class="cls-46" d="M3.11,172.85c1.35-2.88.55-6,1.03-8.98.45-1.71.9-3.42,1.52-5.78.74,1.97,1.25,3.33,1.76,4.69,2.1,3.58,2.96,7.26.82,11.15-1.9.54-4.08,2.4-5.14-1.08Z"/>
      <path class="cls-53" d="M212.79,154.82c-.18.63-.35,1.27-.54,1.9-.59,2.03.42,5.72-2.55,5.42-2.21-.22-2.66-3.75-2.64-6.3,0-.33,0-.66,0-.99,1.9-.01,3.81-.03,5.71-.04Z"/>
      <path class="cls-60" d="M12.35,162.84c.32,2.68.64,5.35.95,8.03-1.3,1.11-2.59,2.28-4.4.9.34-2.91-1-6.1,1.46-8.65.64-.3,1.14-1.48,1.99-.28Z"/>
      <path class="cls-19" d="M10.36,163.12c-.28,2.91-.57,5.82-.85,8.73.32,1.16.41,2.16-1.29,2.04,0,0,.03.04.03.04-.27-3.72-.55-7.43-.82-11.15.98.11,1.95.23,2.93.34Z"/>
      <path class="cls-8" d="M71.14,39.14c-.99-.7-1.97-1.41-2.96-2.11,3.56-5.17,9.77-4.8,14.8-6.77,2.48-.97,5.79.16,6.37,3.8.26,1.65,1.02,1.71,2.32,1.67,3.45-.1,6.88.15,10.35,0,7.48-.32,13.86,3.22,19.92,7.26-.62.34-1.24.68-1.86,1.03-4.32.82-8.64.77-12.97.04-6.38.69-12.71.41-18.97-1.08h.03c-1.94-3.76-5.36-1.27-8.04-1.88-.97-.04-1.94-.08-2.92-.13-1.75-1.51-4.32-.29-6.07-1.83Z"/>
      <path class="cls-40" d="M121.94,42.99c-3.87.03-6.54-2.96-9.98-3.97-4.35-1.28-8.43-2.07-13.38-1.24-3.58.61-8.59.53-12.63-1.13-.83-2.19,3.81-1.21,1.96-3.45-1.5-1.83-4.17-3.01-6.22-1.63-4.18,2.82-9.62,2.19-13.51,5.46-1.4-.32-2.85-.51-4.5-2.12,4.86,1.18,7.18-2.61,10.6-3.82,5.87-1.3,11.69-3.06,17.82-1.87.72.61,1.43,1.22,2.15,1.82,1.92,1.5,4.07,1.67,6.41,1.31,1.82-.28,3.83-1.17,5.29.9,4.23,2.91,8.92,4.78,13.8,6.29,1.31.41,4.94.14,2.19,3.45Z"/>
      <path class="cls-29" d="M105.95,33.25c-2.95-.61-5.75.55-8.62.77-2.39.18-3.31-.67-3.07-2.97.94-.31,1.88-.62,2.82-.93,3,2.04,5.99.45,8.99-.03.71,1.08.51,2.13-.12,3.17Z"/>
      <path class="cls-49" d="M88.14,42.98c.39,1.41,1.99,3.1-.66,3.88-1.14.34-2.66-.1-2.74-1.33-.15-2.21,1.96-2.11,3.43-2.54,0,0-.03,0-.03,0Z"/>
      <path class="cls-15" d="M107.11,44.06c4.32-.01,8.64-.03,12.97-.04-4.32,1.65-8.64,1.58-12.97.04Z"/>
      <path class="cls-90" d="M201.11,47.05c3.4,2.17,7.2.48,10.75,1.13-3.99,1.24-7.96,1.49-11.91-.17.38-.32.77-.64,1.15-.96Z"/>
      <path class="cls-66" d="M195.98,81.02c-2.08,2.92-4.21,5.66-8.23,6.07-2.12.21-3.4,1.71-3.84,3.83-.81,1.62-.02,5.37-3.89,2.93-4.41-.71-8.33-2.62-13.3-2.18-8.3.74-16.77-.11-25.2-.89-8.72-.8-17.89-.63-26.72.41-7.81.92-15.55.6-23.32.76-7.63.16-15.28-.16-22.91.12-3.56.13-6.1-.66-7.47-4.09-1.8-.3-3.88.16-5-1.91-4.6-.03-9.11.2-12.27-4.45-1-1.47-3.72-1.77-5.65-2.6,9.78,1.33,19.57-.29,29.44.53,11.24.94,22.77,1.97,34.03-1.95,3.45-1.2,7.52-2.49,11.55-1.5.63,1.05-1.65,2.13.06,3.17,7.58-.45,15.21,1.59,22.7-.71,6.38-4.24,13.92-3.32,20.94-4.72,1.09-.22,2.29.28,3.14,1.2,3.61,2.71,8.04,4.65,12.14,4.68,6.77.04,13.66,2.09,20.43-.3,1.31-.46,2.5.53,3.38,1.6Z"/>
      <path class="cls-97" d="M111.16,79.99q-1.8-1.68,2.02-3.89c5.94-.86,11.45-2.24,17.06-5.11,6.5-3.34,14.35-5.03,21.81-1,.84.64,1.76,1.25.86,2.49-1.69,1.14-3.85,2.13-5.54,1.49-5.57-2.1-10.26.37-15.13,2.18-6.84,2.27-13.9,3.37-21.07,3.85Z"/>
      <path class="cls-70" d="M153.02,72.04c-.32-.69-.65-1.37-.97-2.06,2.66,1.69,6.66,1.24,7.98,5.05-8.01,1.56-16.53.62-23.96,4.96-.75-1.71.38-2.82,1.28-4,1.84-1.59,4.13-2.27,6.39-1.88,3.49.62,6.4-.46,9.29-2.08Z"/>
      <path class="cls-66" d="M206.17,79.09c-2.47,3.68-6.16.93-9.18,1.75,2.83-1.79,5.96-2.02,9.18-1.75Z"/>
      <path class="cls-45" d="M207.94,117.97c2.79,3.67-.5,3.76-2.55,3.88-4.46.26-8.94.11-13.41.12-2.08,2.79-5.18,3.3-8.3,3.43-4.58.19-9.13.3-13.68,1.15-1.43.27-4.72,1.38-3.98-2.59,2.73-1.93,6.77-.92,8.98-4.01,1.8-1.08,3.78-1.07,5.77-1,9.08.31,18.13-.26,27.17-.99Z"/>
      <path class="cls-98" d="M54.17,128.95c-1.16-.04-2.35,0-2.92-1.34-1.04-2.42-2.3-1.9-4.24-.75-2.45,1.45-4.78,1.9-7.39-.91-2.32-2.5-6.85.03-9.97-2.9,2.71-1.95,4.15-5.78,8.55-5.11,3.07,2.97,7.97.93,10.99,4.02.82,1.47,1.86,2.99,3.64,2.89,3.74-.2,1.77,1.72,1.33,3.12,0,.33,0,.66,0,.99Z"/>
      <path class="cls-94" d="M180.02,93.85c2.63.79,2.73-1.77,3.89-2.93.21,1.32.82,1.67,1.94.79,3.61-2.84,7.83-2.95,12.13-2.69-.82,2.41.16,6.62-5.18,3.88-1.46-.75-3.78,3.43-6.8,3.11-3.31,4.25-8.19,1.95-12.3,2.78-1.71.34-3.86-.02-5.7-.76l-2.83-.17c-.03-.27-.07-.53-.1-.8,4.98-1.07,9.96-2.14,14.94-3.21Z"/>
      <path class="cls-89" d="M168.01,98.03c6.02-.49,12.28,1.17,17.99-2.02,2.51,1.98,5.47,2,8.46,1.97,9.54-.09,19.03.6,28.47,2-5.2.91-10.27,2.73-15.69.44-2.48-1.05-5.41-.67-8.23-.65-10,.08-20-.47-30-.79-.33-.32-.67-.64-1-.96Z"/>
      <path class="cls-35" d="M56.09,86.07c1.83.22,3.6.58,5.01,1.91-6.92,1.87-13.58,4.86-20.91,5-1.56.98-2.5.15-3.3-1.12.35-2,1.25-3.04,3.37-1.89,5.28-1.3,10.56-2.6,15.83-3.9Z"/>
      <path class="cls-66" d="M88.11,101.98c-2.35,1.8-3.87-1.37-5.98-1.01-.59-.95-1.17-1.91-2.04-3.33,3.61.52,5.48,3.06,8.02,4.33Z"/>
      <path class="cls-76" d="M58.22,94.77c1.8-.73,3.58-1.25,5.73.22-2.33,1.49-4.05,1.04-5.73-.22Z"/>
      <path class="cls-76" d="M37.19,91.98c1,.33,2,.67,3,1-2.66,1.53-5.32,1.51-7.98.01.66-.34,1.32-.67,1.98-1.01,1-.89,2-.84,3.01-.01Z"/>
      <path class="cls-77" d="M166.02,123.96c.36,2.06,1.92,2.45,3.3,1.61,4.47-2.72,9.28-1.79,13.89-1.23,3.47.42,5.63-2.52,8.78-2.37,0,.99,0,1.99,0,2.98-8.61,1.62-17.15,4.51-26.03,1.93-2.56-.74-2.44-2,.07-2.92Z"/>
      <path class="cls-15" d="M71.14,39.14c2.22-.04,4.61-.66,6.07,1.83-2.07-.44-4.84,1.42-6.07-1.83Z"/>
      <path class="cls-104" d="M68.15,215.88c-7.89,1.3-15.87,1.35-23.79.88-5.73-.34-11.56-.3-17.18-1.84-7.29.55-13.17-4.3-20.23-4.95,9.29-5.88,19.45-3.61,29.25-4.07,5.85-.95,11.21,2.03,17,2.1,2.56.03,4.84.41,6.92-1.34,1.45-.83,3.05-1.64,4.66-1.48,12.87,1.24,25.57-.77,38.32-1.78.49-.04.98.1,1.48.16,9.35,1.39,18.72,1.39,28.04.08,5.91-.83,11.84-.58,17.76-.98.99-.07,1.93.41,2.61,1.22.87,1.75-2.26,2.94-.67,4.79-.28.54-.69.94-1.23,1.21-7.52.81-15.08-.58-22.64.75-5.82,1.03-11.75,1.55-17.69,1.87-4.17.22-7.73,3.89-12.31,2.68-10.12-.71-20.22-.78-30.29.69Z"/>
      <path class="cls-102" d="M181.02,214.89c-5.19-2.48-10.02.59-15.02.96-1.01-3.15-3.48-2.02-5.4-1.6-5.38,1.17-10.78,2.35-16.02,4-9.93,3.13-19.69.92-29.5-.38.49-3.38,3.37-3.16,5.65-3.62,10.35-2.06,20.69-4.14,31.19-5.33,0,0,.39-.25.39-.25,4.18-1.11,8.47-.56,12.7-.8.61.26,1.24.78,1.82.73,8.81-.79,17.67,1.34,26.46-.56,6.45-1.4,12.98-2.24,19.61-2.1-.65,4.03-4.21,3.71-6.9,4.38-7.58,1.89-14.95,4.94-22.98,4.6-.67,0-1.34-.02-2-.03Z"/>
      <path class="cls-74" d="M152.98,203.89c-14.51,1.55-29.05,2.32-43.64,2-1.77-.04-3.7.54-5.21-.97,4.18-3.11,9.23-2.09,13.88-2.72,5.9-.79,11.85-1.26,17.69-2.5,6-1.21,11.98-2.5,17.87-4.2,1.91-.55,3.94-.41,5.91.02,2.58.54,3.97,2.61,5.56,4.41-3.67,2.4-8.06,2.58-12.06,3.96Z"/>
      <path class="cls-62" d="M214.91,198.78c-.92.2-2.68.13-2.4,1.13,1.27,4.47-2.15,4.04-4.48,4.42-3.58.58-7.21.95-10.83,1.11-1.51.07-2.57-.85-1.2-2.54,2.9-1.87,2.86-3.48-.22-5.21-1.83-1.03-4.42-1.71-3.78-4.79,1.63-1.15,3.1-2.41,5.24-.59,1.62,1.37,4.48-.86,5.09-.15,3.26,3.83,7.38,2.96,11.47,3.15,1.44.07,1.05,2.17,1.11,3.46Z"/>
      <path class="cls-16" d="M192,192.91c.88,2.04,2.82,2.59,4.6,3.51,1.54.8,3.76,1.64,3.6,3.74-.16,2.21-2.48,2.28-4.2,2.75.89-1.76.94-2.6-1.58-2.13-3.48.65-6.76,2.33-10.42,2.04-.46-.65.72-1.14.35-1.49-2.61-2.49-2.64-2.46.63-4.42,1.5-.78,2.41-2,3.12-3.54.94-2.04,2.43-1.73,3.9-.45Z"/>
      <path class="cls-93" d="M184.99,177.9c-.36,2.14,1.65,4.24.13,6.41-2.87,2-5,4.71-7.11,7.43-.52-.68-1.03-1.37-1.65-1.97-1.28-2.79-3.2-3.96-6.27-2.7-1.35.55-2.8.98-4.27.27-.83-.59-1.3-1.36-1.17-2.42,1.11-2.43,3.6-2.48,5.66-3.21,2.58-.92,5.27-1.54,7.54-3.19,2.05-.25,3.91-1.08,5.75-1.94.79.09,1.12.68,1.4,1.32Z"/>
      <path class="cls-20" d="M184.98,196.9c-.57,1.4-4.17,3.09.38,3.99-.45.64-.91,1.28-1.36,1.92-4.79,2.13-9.91,2.61-15.04,3.05-1.09-2.69,1.37-2.81,2.56-2.77,3.17.12,4.83-1.38,6.05-4.05,1.59-3.47,4.75-2.07,7.41-2.15Z"/>
      <path class="cls-22" d="M177.98,188.9c1.42.93.46,1.89.03,2.84-2.47,1.38-3.61,5-8.11,2.67-2.71-1.4-4.18,2.72-4.86,5.51-2.62.53-3.24-2.23-5.03-3.05.86-3.58,5.22-2.22,6.78-4.81,3.63-1.39,7.49-1.98,11.19-3.16Z"/>
      <path class="cls-48" d="M166.92,192.98c-1.03,3.55-4.85,2.16-6.91,3.9-6.58-.89-12.3,2.87-18.62,3.42-1.78.16-3.55.42-5.33.63-6.9-1.25-13.83.22-20.76-.23-4.11-.27-7.88-.79-10.88-3.89-2.47-2.56-5.77-2.07-8.87-2.32-4.42.28-8.89.84-12.6-2.47-.93-.01-1.87-.02-2.8-.04-3.25.76-6.48.32-9.71-.15-4.17-.67-8.96,1.19-12.29-2.96-.63-1.3-.17-2.67,1.1-2.59,4.16.27,5.85-2.69,7.82-5.4,4.44-1.19,8.9-.68,13.29.1,1.82.32,3.62.35,5.43.52,1.53.03,2.84.63,4.07,1.47,5.19,2.81,11.09,2.72,16.64,3.82,11.31,2.25,22.81,3.43,34.32,4.42,5.44.32,10.85.3,16.28-.08,3.36-.23,6.97-1.05,9.79,1.85Z"/>
      <path class="cls-61" d="M96.08,192.92c4.26-.34,8.19-.16,10.94,4.04,1.22,1.87,3.72,2.19,5.93,1.91,5.5-.72,11.02,1.24,16.63-.57,1.74-.56,5.07-.12,6.48,2.63-10.42,3.16-21.18,3.5-31.93,3.99-9.67.93-19.35,1.84-29.02,2.78-1.99.19-4.05.61-5.87-.36-3.23-1.74-6.11.08-9.13.58-5,2.12-9.7-.57-14.49-1.16-2.82-.35-.8-2.05-.05-2.65-2.87,1.29-6.11,2.51-9.42-.16h-8.42c9.92-1.24,19.7-4.58,29.8-2.15,5.64,1.36,9.51-3.35,14.55-3.92,5.69-1.15,11.51-.96,17.25-1.67,2.77-.34,5.07-1,6.74-3.28Z"/>
      <path class="cls-81" d="M58.19,187.87c3.76,3.71,8.58,1.01,12.77,2.11,1.17,1.59,2.79,1.99,4.68,1.95,1.56-.03,3.29-.43,4.48,1.14-.33.52-.73,1.54-1,1.5-7.24-.92-13.99,3.59-21.35,1.78-2.92-.72-5.71,1.09-8.59,1.52-4.89-2.08-10.03-.39-15.02-1.01-.82-.52-1.57-1.08-1.52-2.2-.05-7.08,3.63-9.94,11.62-9.04.46.09.91.22,1.34.39,2.55,1.45,5.37.51,8.04.85,1.55.2,3.25-.37,4.54,1.01Z"/>
      <path class="cls-2" d="M96.08,192.92c.61,3.9-1,5.24-4.94,5.04-6.34-.32-12.7,1.85-19.05-.1-2.14-2.76.54-1.87,1.55-1.93,3.6-.2,7.73.99,9.32-3.94,4.38.18,8.69,1.41,13.12.92Z"/>
      <path class="cls-1" d="M36.17,203.94c3.57.11,7.14.22,10.71.33-.48.33-.96.65-1.78,1.21,5.19.84,10.1,1.64,15.02,2.44-.24,1.72-1.5,2.15-2.89,1.93-7.05-1.1-14.4-.63-21.04-3.94,0-.65-.02-1.31-.02-1.96Z"/>
      <path class="cls-2" d="M80.12,193.07c-3.13-.82-7.3,1.48-9.16-3.09,2.83,1.76,6.46-.19,9.2,1.99-.01.37-.03.73-.04,1.1Z"/>
      <path class="cls-75" d="M200.93,87.94c.1-.31.14-.85.31-.9,6.02-1.69,9.74-6.34,13.81-10.58,2.11-2.2,4.94-1.8,7.42-1.15,2.34.62,1.23,3.01,1.46,4.68-4.58.91-8.92,2.35-11.71,6.43-1.58,2.31-3.83,1.4-5.85,1.54-1.8.13-3.62,0-5.44-.03Z"/>
      <path class="cls-65" d="M68.15,215.88c6.53-3.29,13.7-3.37,20.52-2.54,3.18.39,6.49-1.85,9.43.53-.13,1.51-1.05,2.39-2.33,3-2.54.15-5.09,1.06-7.63.01-4.99-.13-9.99-1.49-14.98.01-1.75.06-3.46-.09-5.01-1.02Z"/>
      <path class="cls-33" d="M24.18,87.95c-1.65,0-3.29,0-4.94,0-.54-3.65-3.73-4.5-7.23-6.05,2.53-.87,4.24-2.23,6.02-.49,1.71,1.68,3.5,3.04,5.3.63,2.14-2.87-.76-3.93-2.45-5.32-.25-.21-.46-.47-.68-.71,5.56-1.13,9.51.99,12.99,6.98.7,3.02-1.11,3.89-3.53,3.75-2-.11-3.94-.54-5.48,1.2Z"/>
      <path class="cls-87" d="M8.21,70.05c-.26-2.12.08-3.66,2.8-3.04,1.42.32,2.91.43,4.27.91,4.36,1.54,4.65,3.21,1.14,6.04-.69.56-1.07,1.18-1.18,2.03-1.85-2.56-4.1-4.65-7.03-5.93Z"/>
      <path class="cls-39" d="M96.04,215.87c.68-.67,1.37-1.34,2.05-2,5.72,1.24,10.32-2.75,15.85-3.31,12.66-1.27,25.2-3.48,37.97-1.63-6.67,2.49-13.64,3.66-20.58,5.1-5.44,1.13-11.22.99-16.26,3.84-5.91-.45-11.22,2.44-16.95,3.03-.56.47-1.37.67-1.74.11-1-1.5.43-2.12,1.36-2.49,3.65-1.46,7.54-2.1,11.29-3.25-8.2,2.46-9.22,2.51-12.99.61Z"/>
      <path class="cls-104" d="M96.04,215.87c5.9.25,11.53-1.83,17.44-2.03-4.83,3.27-10.34,4.63-15.84,6.04-.15.04-.38.11-.4.21-.19.77.46.68.88.81-1.71.89-3.24,2.51-3.97-1.24-.45-2.32-3.05-1.69-5.06-1.3-1.95.38-3.8,2.55-5.97.51,1.77-.41,3.57-.74,5.01-1.99,2.64-.34,5.28-.68,7.91-1.01Z"/>
      <path class="cls-38" d="M183.92,176.88c-1.34,2.49-2.85,4.47-5.87,1.99-1.39-.09-2.21-.89-2.7-2.13-.3-2.87,1.85-4.2,3.63-5.77l1.03-.05c1.67.24,3.12,1.5,4.94,1.02,1.56-1.36.09-2.79.04-4.17-.21-6.21,3.24-8.74,8.94-6.42.6.24,1.28.28,1.92.41,1.55,3.32,2.03,6.78,1.29,10.39-1.38.62-2.76,1.25-4.13,1.88-1.06.35-2.12.69-3.18,1.03-2.15,0-4.11.62-5.9,1.83Z"/>
      <path class="cls-82" d="M183.92,176.88c1.01-3.71,3.41-2.92,5.9-1.83-1.33,1.42-3.69,1.1-4.83,2.85-.36-.34-.71-.68-1.07-1.02Z"/>
      <path class="cls-54" d="M24.18,87.95c.48-3.18,2.82-3.42,5.08-2.69,2.47.79,3.17-.58,3.94-2.27,2.85-1.45,5.12-.63,7.31,1.54,2.07,2.06.98,3.68-.25,5.43-1.43.05-2.46.69-3.07,2-1,0-2,0-3.01.01-3.42-1.14-5.95-4.48-10-4.04Z"/>
      <path class="cls-55" d="M197.95,163.96c1.36.53,2.26,1.99,3.91,1.95-.22,2.08-.52,4.18,1,5.97-1.85,2.01-2.41-.68-3.62-.99-2.6-1.9-2.83-4.25-1.28-6.92Z"/>
      <path class="cls-21" d="M197.95,163.96c.43,2.31.85,4.61,1.28,6.92-.42.87-1.24,1.09-2.09,1.26-2.08-3.26-1.03-6.9-1.29-10.39,1.94-.45.87,1.98,2.1,2.21Z"/>
      <path class="cls-32" d="M44.25,186.87c-2.72-.13-5.35-.81-7.79,1.58-1.53,1.51-3.67,2.18-1.75,4.8.08.11-1.01,1.09-1.55,1.67-.43.29-1.14.53-1.38.24-4.82-5.85-7.93-.42-11.54,1.7-3.25.36-6.5.63-9.73,1.09-4.07.57-5.84-1.09-5.34-5.17,2.34-2.35,4.68-4.69,7.02-7.04,5.05-1.06,11.41,1.14,14.16-5.68,2.32-4.36,5.73-3.94,9.45-2.17,1.78,2.27,3.68,4.38,6.33,5.73,1.26.64,2.65,1.37,2.12,3.25Z"/>
      <path class="cls-69" d="M20.24,196.86c1.21-3.52,4.82-5.1,6.67-8.2.64-1.07,1.93.53,2.22,1.65.58,2.25,1.89,3.77,4.03,4.62.33.65.67,1.29,1,1.94-4.64,0-9.28,0-13.92,0Z"/>
      <path class="cls-92" d="M35.91,179.08c-3.37-1.45-6.55-1.03-9.56.99-4.94-2.73-10.31.3-15.35-1.17-1.07-.31-3.06.27-1.71-2.03,1.16-1.76,3.85-1.25,4.85-3.25,3.91-1.42,7.98-.28,11.95-.7,1.04-.26,2.08-.86,3.13-.01,8.97.3,17.94.59,26.92.89,1.53-.08,2.96.52,4.45.66.89.06,1.78.1,2.63.39,2.02,1.33,4.32.46,6.47.84,3.78,3.94,8.94,2.17,13.42,3.25,1.56.9,3.56,1.46,3.03,3.96-6.66-.48-13.29-1.46-20-.96-2.77,2.66-6.13,1.74-9.32,1.43-5.21-.51-10.4-1.39-15.66-.72-2.41-.21-3.83-1.89-5.25-3.56Z"/>
      <path class="cls-46" d="M14.13,173.61c.93,4.89-2.87,2.7-4.85,3.25-.61-.9-1.23-1.8-1.06-2.98.43-.68.86-1.36,1.29-2.04,1.16-.76,2.44-1.01,3.8-.98.16.95-.05,2.01.83,2.74Z"/>
      <path class="cls-51" d="M140.06,177.85c.3-.39.55-1.06.91-1.14,6.91-1.34,13.36-5.79,20.9-3.07,1.91.69,3.89.17,5.84-.42,1.85-.56,3.86-1.16,5.42.78.96,2.38-.55,3.38-2.36,4.21-3.62.84-7.26.73-10.91.25-5.42.13-10.86-.63-16.25.54-1.35.29-2.63.02-3.56-1.15Z"/>
      <path class="cls-85" d="M140.06,177.85c6.59-.94,13.21-1.25,19.86-.77,1.05,2.42-.88,3.11-2.38,3.26-9.67.96-19.34,2.68-29.1.78-.6-.28-1.08-.7-1.44-1.25,2.56-2.73,5.95-1.69,9.05-1.97,1.34-.01,2.67-.03,4.01-.04Z"/>
      <path class="cls-105" d="M171.01,176.93c1.14-.67,2.04-1.5,2.13-2.94,1.4-.11,2.33-.82,2.84-2.15.6-1.56,1.67-1.72,3.01-.88.04,2.5-3.11,3.42-2.95,5.98-1.68,2.2-3.36,3.4-5.02-.02Z"/>
      <path class="cls-105" d="M184.95,171.94c-2.08,1.77-3.65,1.04-4.94-1.02,2.91-5.82,3.2,1.14,4.94,1.02Z"/>
      <path class="cls-100" d="M83.13,179.97c-4.56-2.02-10.49.8-14.24-4.06-1.94-1.83-3.87-1.22-5.8.01-.93-.03-1.85-.06-2.78-.1-1.09-2.17-1.42-4.39-.39-6.69,4.6.74,9.04,1.55,11.51,6.37.81,1.58,2.9,2.52,4.71,2.28,6.73-.91,13.21,2.12,19.92,1.1,3.95,3.81,8.73,1.48,13.15,1.74.95.06,1.93-.41,2.89-.64-.17,3.35-2.66,3.31-5.02,3.4-8.19.3-16.15-1.04-23.95-3.43Z"/>
      <path class="cls-58" d="M59.91,169.13c1.26,2.16,1.68,4.38.39,6.69-1.89.35-3.35-.17-4.17-2.03.28-.98.56-1.95.84-2.92.58-1.26,1.59-1.78,2.94-1.73Z"/>
      <path class="cls-24" d="M29.22,172.9c-1.04.52-2.08,1.31-3.13.01.38-2.04-.33-4.2.87-6.6,1.9,2,1.35,4.58,2.26,6.58Z"/>
      <path class="cls-47" d="M83.13,179.97c8.09-1.44,15.69,3.03,23.77,1.96,1.93-.25,4.03.24,5.21-1.94,4.97-.04,9.94-.08,14.91-.12.35.03.71.05,1.06.08.2.49.15,1.04-.25,1.29-2.44,1.5-5.72,2.1-6,5.84-4.46,1.58-8.91.41-13.25-.29-6.46-1.04-13.04-1.24-19.41-2.86-1-.34-2.01-.68-3.01-1.02-1-.98-2.01-1.95-3.01-2.93Z"/>
      <path class="cls-31" d="M138.04,76.96c-.66,1.01-1.31,2.02-1.97,3.04-2.96,1.63-5.9,2.04-9.36,1.24-5.07-1.18-10.49.86-15.55-1.25.42-.5.81-1.41,1.26-1.44,6.68-.45,13.04-2.67,19.63-3.56,1.99.66,4.42,0,5.98,1.96Z"/>
      <path class="cls-41" d="M138.04,76.96c-2.18-.08-4.64.68-5.98-1.96,4.75-2.68,9.3-5.69,15.18-2.38,1.38.78,3.83-.34,5.79-.58-2,3.16-4.98,4.13-8.48,3.6-2.38-.36-4.5.06-6.5,1.32Z"/>
      <path class="cls-88" d="M123.07,185.9c-1-1.38-2.72-.75-4.42-1.4,2.5-3.4,6.7-2.51,9.42-4.55,9.47.34,18.89-.48,28.32-1.05,1.44-.09,3.14.31,3.54-1.81,3.69-.05,7.39-.1,11.09-.15,1.66,1.81,3.34.73,5.02.02.67.64,1.35,1.27,2.02,1.91.91,1.98-.66,2.07-1.86,2.46-3.71,1.2-7.41,2.41-11.12,3.61-.76,2.22-2.31,3.26-4.61,2.76-9.53-2.05-18.93-1.61-28.44.51-2.89.65-6.96,2.14-8.95-2.31Z"/>
      <path class="cls-72" d="M123.07,185.9c3.26,1.95,7.18,1.79,10.06.54,5.77-2.49,11.81-1.22,17.64-2.2,2.22-.38,6.25.06,8.59,1.45,2.69,1.6,3.92.16,5.71-.76.31.65.62,1.3.93,1.95-4.6,4.72-10.79,4.29-16.57,4.94-3.09.35-6.23.21-9.27,1.02-8.99-.79-17.96-1.63-26.89-3.03-7.28-1.13-14.31-3.58-21.71-3.94-1.32-.07-2.21-.56-2.41-1.96,11.39-.84,22.55,2.44,33.92,1.98Z"/>
      <path class="cls-50" d="M140.15,192.84c6.72-2.87,14.26-2.12,21.05-4.74,1.53-.59,3.19-.82,4.79-1.21.32-.05.69-.01.96-.16,4.25-2.17,8.32-3.52,11.01,2.17-2.79,3.8-7.13,3.37-11.06,4.07-8.92-.04-17.84-.09-26.76-.13Z"/>
      <path class="cls-11" d="M40.17,181.89c4.78-2.06,9.82-1.17,14.62-.64,3.8.42,7.57.51,11.35.69,1.08,4.01-.41,6.04-4.33,5.64-1.27-.13-2.5-1.06-3.62.29-4.4.34-8.9,2.22-13.06-.88.41-3.71-3.32-3.39-4.95-5.1Z"/>
      <path class="cls-83" d="M40.17,181.89c.66,0,1.32-.07,1.96.03,1.86.28,4.33-.98,5.46.99,1.22,2.12-2.82,1.95-2.47,4.08-.29-.08-.58-.12-.88-.12-2.47-1.76-4.93-3.54-7.43-5.26-.97-.67-1.19-1.48-.9-2.54,1.93.16,2.92,1.74,4.26,2.81Z"/>
      <path class="cls-42" d="M63.08,175.92c1.14-1.2.5-4.13,3.2-3.71,1.83.28,2.69,1.79,2.61,3.7-1.93,2.95-3.86,2.16-5.8.01Z"/>
    </g>
  </g>
</svg>