<?xml version="1.0" encoding="UTF-8"?>
<svg id="Layer_1" data-name="Layer 1" xmlns="http://www.w3.org/2000/svg" xmlns:xlink="http://www.w3.org/1999/xlink" viewBox="0 0 496 102">
  <defs>
    <style>
      .cls-1 {
        fill: #f2fafc;
      }

      .cls-1, .cls-2, .cls-3, .cls-4, .cls-5, .cls-6, .cls-7, .cls-8, .cls-9, .cls-10, .cls-11, .cls-12, .cls-13, .cls-14, .cls-15, .cls-16, .cls-17, .cls-18, .cls-19, .cls-20, .cls-21, .cls-22, .cls-23, .cls-24, .cls-25, .cls-26, .cls-27, .cls-28 {
        stroke-width: 0px;
      }

      .cls-2 {
        fill: #c7e7f7;
      }

      .cls-3 {
        fill: #dcf0f9;
      }

      .cls-4 {
        fill: url(#linear-gradient);
      }

      .cls-5 {
        fill: #dcf1fa;
      }

      .cls-6 {
        fill: #f1f8fc;
      }

      .cls-7 {
        fill: #c5e8f5;
      }

      .cls-8 {
        fill: #f2fafd;
      }

      .cls-9 {
        fill: #dff1fb;
      }

      .cls-10 {
        fill: #f0f9fc;
      }

      .cls-11 {
        fill: #d2edf8;
      }

      .cls-12 {
        fill: #d3edf8;
      }

      .cls-13 {
        fill: #f3fafd;
      }

      .cls-14 {
        fill: #e5f4fb;
      }

      .cls-15 {
        fill: #e9f6fa;
      }

      .cls-16 {
        fill: #d8eff8;
      }

      .cls-17 {
        fill: #d3ecf6;
      }

      .cls-18 {
        fill: #c2e7f6;
      }

      .cls-19 {
        fill: #fdfefe;
      }

      .cls-20 {
        fill: #f7fbfd;
      }

      .cls-21 {
        fill: #f8fcfe;
      }

      .cls-22 {
        fill: #e1f2f9;
      }

      .cls-23 {
        fill: #d6eef8;
      }

      .cls-24 {
        fill: #e4f3fa;
      }

      .cls-25 {
        fill: #e7f4fb;
      }

      .cls-26 {
        fill: #eaf6fb;
      }

      .cls-27 {
        fill: #f7fcfe;
      }

      .cls-28 {
        fill: #ddf1f8;
      }
    </style>
    <linearGradient id="linear-gradient" x1="248" y1="80.82" x2="248" y2="0" gradientUnits="userSpaceOnUse">
      <stop offset="0" stop-color="#fff"/>
      <stop offset="0" stop-color="#a0a2a5"/>
      <stop offset="0" stop-color="#ffd93e"/>
      <stop offset=".9" stop-color="#f15f5e"/>
    </linearGradient>
  </defs>
  <g id="QMnkB2">
    <g id="sACAt7">
      <g>
        <path class="cls-4" d="M.23,68.96C.23,47.52.33,26.08.14,4.65.11,1,.8,0,4.67,0c110.14.13,220.28.1,330.43.1C387.34.1,439.58.15,491.82,0c3.52-.01,4.07.83,4.04,4.14-.19,19.61-.09,39.22-.09,58.83-1.05,1.15-2.44,1.7-3.9,1.94-5.65.95-9.96,4.06-13.64,8.24-2.65,3.93-6.59,4.6-10.91,4.35-5.86-1.04-11.84-.53-17.71-1.39-5.56-2.06-10.18-6.49-16.54-6.53-4.9-.2-9.74-1.3-14.68-1-6.71-.67-12.71,1.65-18.61,4.41-1.94.47-3.74,1.35-5.27,2.58-3.23,2.6-6.24,2.46-9.21-.34-1.77-1.18-3.23-2.86-5.45-3.31-3.15-1.48-6.37-2.7-9.93-2.5-3.4.19-5.84-1.89-8.51-3.46-10.77-8.49-27.39-6.97-34.78,1.02-2.47,2.59-5.41,3.28-8.96,2.76-5.46-.8-10.81-.13-15.84,2.34-3.45,1.94-6.93,3.64-10.75.85-7.61-3.78-15.15-3.53-22.64.37-3.65,2.53-7.36,1.74-11.61,1.48-8.79-.55-16.99-2.58-25.34-5.01-4.58-1.33-9.49-.17-13.88,2.4-2.58,1.51-5.44,2.57-8.52,1.15-3.29-2.54-6.14-5.74-10.32-6.98-7.41-2.12-14.73-2.46-21.89.95-2.5,1.19-4.81.52-7.19-.46-7-2.86-13.92-2.72-20.69.78-2.97,1-5.05,3.07-6.88,5.51-1.2,1.59-2.61,3.03-4.55,3.79-4.23.64-8.46,1.3-12.32,3.34-.58.3-1.33.7-1.88.49-6.26-2.4-13.4-.99-19.4-4.48-2.72-2.89-5.95-4.95-9.89-5.79-6.2-.17-11.71-1.34-16.95-5.58-8.18-6.62-23.37-6.36-32.18,2.09-2.67,2.59-5.71,3.43-9.49,2.83-6.35-1.02-12.51-.26-18.05,3.45-2.57,1.72-5.3,1.92-7.9.18-2.9-1.94-6.63-2.13-9.29-4.52Z"/>
        <path class="cls-18" d="M495.77,96.9c.89,4.2-.75,5.11-4.99,5.1-161.85-.13-323.71-.13-485.56,0-4.24,0-5.87-.9-4.99-5.1,2.35-2.15,5.29-1.69,8.08-1.73,15.46-.22,30.92.39,47-.11-2.3-1.79-4.15-.71-5.93-.52-4.01.42-6.75-1.21-7.14-4.43-.47-3.86,2.31-4.9,5.2-5.36,5.78-.91,11.63-1.09,17.36.23,4.37,1,5.4,2.72,3.79,6.72-1.54,3.82.41,3.85,3.16,3.74,17.8-.66,35.61-.47,53.41-.22,32.4.45,64.8,0,97.2.15,31.55.14,63.1-.12,94.65-.1,21.62.01,43.24.26,64.87-.13,1.48-.03,2.99.2,4.63-.33-1.12-1.55-2.88-1.01-4.24-1.48-1.67-.57-3.13-1.26-3.26-3.27-.14-2.13.98-3.83,2.9-4.1,9.19-1.33,18.42-3.17,27.67-.45,1.76.52,3.57,1.36,3.74,3.53.18,2.28-1.3,3.63-3.18,4.62-.88.46-1.89.62-3.32,1.44,8.18.27,15.83.3,23.46.24,19.96-.15,39.91-.34,59.87.03,2.01.04,4.03-.09,5.6,1.5Z"/>
        <path class="cls-11" d="M495.77,96.9c-27.11.26-54.23-.5-81.34.38-3.47.11-6.96-.25-10.45-.41-1.02-.05-2.24-.21-2.34-1.37-.11-1.22,1.13-1.47,2.1-1.69,1.77-.41,3.57-.7,5.33-1.16,1.71-.45,3.24-1.49,3.3-3.31.06-1.92-1.87-2.01-3.27-2.38-5.72-1.5-11.51-1.5-17.27-.45-2.67.49-5.3.31-7.94.41-1.98.08-3.84.39-3.84,2.85,0,2.57,2.11,2.14,3.68,2.1,2.61-.06,5,.41,6.85,2.35,1.24,1.3,1.21,2.41-.88,2.61-1.32.13-2.66.06-3.99.06-48.04,0-96.08,0-144.12,0-29.71,0-59.42,0-89.13,0-25.2,0-50.4.08-75.6-.1-3.28-.02-6.37,1.4-9.81.37-3.33-1-3.2-2.05-1.31-4.35,4.09-5,3.9-5.84-2.55-6.59-5.4-.63-10.93-.91-16.36.34-1.93.45-4.36.59-3.33,3.59.91,2.67,2.57,4.34,5.67,2.76,2.35-1.2,4.77-1.46,7.2-.35,1.48.67,3.57,1.42,3.15,3.3-.41,1.83-2.56,1-3.93,1.01-18.45.05-36.9.04-55.35.04v-4.99c1.88-1.79,4.26-1.71,6.58-1.68,9.31.11,18.63-.38,27.93.32,1.11.08,2.44.58,3.25-.57.87-1.22-.23-2.18-.81-3.11-1.24-2.01-2.66-4.04-1.1-6.42,1.64-2.52,4.27-2.98,7.05-2.81,13.79.87,27.57,1.13,41.34-.29,1.66-.17,3.37-.23,4.97.16,5.31,1.28,10.2.42,14.72-2.61,1.99,1.77,4.32,2.24,6.93,2.05,3.36-.25,6.68.05,9.55,2.04,1.47,1.01,2.63.81,4.08-.09,4.08-2.52,8.58-3.4,13.34-2.99,2.23.95,4.16,2.52,6.63,3.02,1.57.32,3.5.85,3.72,2.7.29,2.46-2.16,2.41-3.67,3.17-.47.19-.96.32-1.45.42-3.55.2-5.79,2.55-8.02,4.92-.74,3.68,2.04,3.03,4.04,3.27,5.83.7,11.55-.82,17.37-.89,21.47-.27,42.94.41,64.41-.35,5.16-.18,10.15,1.94,15.35,1.26,16.74-2.19,33.55-.49,50.32-.89,8.75.48,17.51-.06,26.24-.4,3.33-.13,6.54.27,9.8.29,16.07.08,32.13.05,48.2.02,2.19,0,4.57.14,4.24-3.22-1.22-6.41.08-7.93,6.31-8.82,10.02-1.44,20.03-1.27,30.06-.47,3.16.25,6.26-1.04,9.37-.41,2.33.47,5.93.15,4.41,4.54-.39.44-.87.79-1.4,1.04-.62.22-1.28.34-1.89.61-1.75.78-3.6,2.06-3.42,3.88.23,2.33,2.83,1.84,4.5,2.13,3.59.63,7.26.02,10.82.11,15.73.43,31.48-1.83,47.18.44,2.96.43,5.98.12,8.97.14,2.01.02,4.02-.08,5.6,1.5v2.99Z"/>
        <path class="cls-14" d="M104.17,74.9c-.66,4.28-4.24,5.1-7.34,4.91-16.58-1.01-33.13.84-49.7.15-2.33-.1-4.44-1.45-6.86-.88-4.03.95-4.84,3.19-2.16,6.24.66.75,1.41,1.41,2.06,2.17,1.08,1.26,1.35,2.68.45,4.13-.82,1.32-2.22,1.43-3.56,1.21-12.24-1.98-24.56-.4-36.83-.91v-22.95c3.57-.12,6.77.97,9.64,3.01,2.41,1.7,4.49,1.91,7.05-.1,5.59-4.36,12.35-4.86,18.87-3.57,3.71.73,5.95-.3,8.34-2.43.63,4.73,3.6,5.59,7.92,5.49,11.41-.26,22.84-.03,34.26-.13,3.08-.03,6.38.4,8.83-2.27,3.16,1.76,7.17,2.22,9.02,5.95Z"/>
        <path class="cls-15" d="M423.84,83.93c.33,0,.66,0,.99,0,2.98-1.71,6-2.64,9.15-.39.89,2.91,3.26,3.06,5.62,2.76,9.07-1.16,18.13-1.36,27.21-.11,4.2.58,6.39-1.47,7.05-5.47,5.11,2.31,10.49,1.85,15.87,1.64,2.13-.08,4.33-.08,6.04,1.58v6.99c-4.61,2.91-9.79,1.79-14.52,1.26-11.43-1.28-22.82-.6-34.23-.45-7.1.09-14.2.99-21.3.1-2.27-.29-5.1-.29-5.83-2.94-.8-2.92,2.15-3.65,3.95-4.94Z"/>
        <path class="cls-3" d="M423.84,83.93c-.49.66-.98,1.32-1.49,1.97-.69.88-2.18,1.54-1.75,2.78.52,1.51,2.2,1.02,3.46,1.27,13.51,2.68,26.99-.73,40.52-.21,10.39.4,20.75,1.89,31.18,1.18v2.99c-12.44.38-24.84-2-37.26-.91-9.52.83-19.09-.71-28.57.89-4.02.68-7.86-.92-11.84-1.08-2.77-.11-2.88-2.56-1.76-3.95,1.88-2.33,3.68-5.34,7.5-4.93Z"/>
        <path class="cls-15" d="M477.75,71.9c4.35-6.3,10.77-8.46,18.02-8.93v14.97c-4.82,1.64-9.83.95-14.66.56-3.31-.27-5.13-2.92-3.36-6.6Z"/>
        <path class="cls-3" d="M477.75,71.9c.26,4.28,1.9,6.26,6.72,5.24,3.68-.78,7.6-.49,11.3.8v5.99c-5.12.32-10.26-.59-15.37.81-3.15.87-4.22-2.83-6.61-3.81-3.41.05-5.78-1.15-6-4.94,4.19.74,7.37-.96,9.96-4.09Z"/>
        <path class="cls-21" d="M149,37c.87-7.44,5.74-12.41,11.14-16.65,2.77-2.18,6.59-1.73,9.94.14,4.03,2.24,8.03,2.26,12.28.09,5.66-2.89,9.65-1.97,13.54,2.92,1.69,2.13,3.43,3.72,6.05,4.81,3.59,1.5,5.77,4.41,5.03,8.7-4.54,5.99-11.51,6.15-17.64,5.69-10.14-.77-20.16-1.3-30.28-.08-5.78.7-8.44-1.05-10.06-5.62Z"/>
        <path class="cls-8" d="M148.05,66.89c6.62-5.08,13.92-4.42,21.08-1.89,3.24,1.15,5.66,1.72,9.08.12,7.08-3.3,14.52-2.25,21.8-.03.83,2.08,2.83,3.13,4.18,4.74,2.38,2.83,1.6,4.86-2.08,5.41-4.05.6-8.2-.25-12.26.51-.23,1.82,1.2,2.32,2.07,3.2,1.78,2.08,3.46,4.2,3.78,7.06-1.12,3.63-4.02,3.43-6.87,3.09-9.86-1.15-19.72-1.22-29.58.03-2.46.31-5.05.65-7.32-.47-2.03-1-4.58-2.3-1.61-5.07,3.7-3.03,7.11-6.46,11.78-8.67-1.85-1.26-3.51-.56-5.12-.15-1.12.28-2.17.87-3.31,1.07-3.17.57-6.54,1.09-8.44-2.28-1.74-3.1,1.23-4.72,2.82-6.7Z"/>
        <path class="cls-22" d="M195.05,84.93c-2.29-.9-2.18-3.71-3.99-5-.6-2.53.85-3.64,2.99-4.22,1.29-.35,2.64-.38,3.93-.23,4.23.5,8.06-.13,11.04-3.49,3.35,1.83,6.06-.2,8.81-1.57,7.69-3.82,15.32-3.89,22.67.61,2.92,1.79,5.81,2.4,8.99,1.55,2.14-.57,4.37-1.18,6.32-.13,4.24,2.28,8.22,2.53,12.18-.46,1.75,2.32,3.95,3.11,6.9,2.7,3.58-.5,7.25-.45,10.85.06,2.76.39,4.88-.19,6.22-2.76,3.34,2.65,6.1.23,8.99-1.03.58,2.52,1.66,3.84,4.75,3.63,11.13-.76,22.29.16,33.44-.26,10.29-.38,20.59-.42,30.89.09,3.91.19,8.15.54,10.85-3.45,2.35-.11,3.18,2.26,4.99,3.03.89,1.49,2.59,2.8,1.37,4.83-1.13,1.88-3.12,1.6-4.88,1.56-4.69-.1-9.41-1.94-14.06.26-.46.19-.93.45-1.42.44-7.35-.22-14.62-1.03-21.74,2.45-2.63,1.29-6.16-.84-8.84-2.49-2.63-1.61-4.84-1.7-7.88-.75-4.48,1.4-9.1,2.84-13.94,2.8-3.51-2.72-7.77-3.23-11.83-2.94-7.48.53-14.97.45-22.38.08-14.34-.71-28.6.43-42.88.5-12.99.06-26.01.95-39.25-.35.41,1.81,2.37,2.03,2.12,3.6-1.4,2.22-3.17,2.37-5.22.94Z"/>
        <path class="cls-12" d="M475.74,40.06c4.16,2.09,6.16,6.9,5.02,12.01-1.01,4.53-4.12,5.81-8.41,5.96-10.79.38-21.64-.17-32.36,1.66-.76.13-1.63-.11-2.41-.31-4.12-1.05-8.11-2.08-12.56-1.55-4.46.53-8.57-3.69-9.05-8.13-.46-4.3,2.19-7.65,6.85-8.68,2.7,2.48,5.91,3.78,9.51,3.2,10.65-1.7,21.35-.32,32.02-.74,4.2-.17,8.21-.16,11.38-3.41Z"/>
        <path class="cls-19" d="M72.16,32.05c-5.54-2.68-6.61-7.36-2.68-11.78.22-.25.58-.44.67-.72,2.39-6.94,7.19-9.61,14.43-8.58,2.11.3,3.28-2.06,4.88-3.16,3.64-2.5,7.27-2.58,10.58-.03,2.11,1.63,3.62,1.96,6.18.99,6.13-2.31,10.67-.8,14.96,4.27,1.14,3.76-.59,6.07-3.95,7.36-12.66,4.85-25.74,8.36-38.79,11.93-1.97.54-4.23.69-6.29-.27Z"/>
        <path class="cls-6" d="M351.9,42.01c-2.23-6.74-1.46-8.64,4.9-10.92,1.43-.51,2.13-1.37,2.88-2.47,1.24-1.84,2.87-3.4,5.16-3.49,2.24-.09,3.67-1.21,5.13-2.65,3.47-3.43,7.47-4.42,11.6-1.45,2.34,1.67,4.34,1.54,6.88.77,5.03-1.53,9.62-.54,12.78,3.95,2.21,3.13,7.1,2.38,8.61,6.3.12,3.13-2.29,3.85-4.53,4.33-15.74,3.4-31.74,5.15-47.71,7.06-1.99.24-3.95-.37-5.71-1.41Z"/>
        <path class="cls-10" d="M475.74,40.06c-.43,4.52-3.27,5.05-7.22,5.06-7.08.02-14.38.77-21.22.24-6-.46-11.62,1.01-17.39.56-3.07-.24-7.08.1-7.08-4.9,0,0,0,0,0,0,1.46-.94,3.12-.55,4.64-.43,2.04.16,2.81-.95,3.39-2.52,1.84-2.39,4-4.33,6.99-5.18,1.99-.57,3.25-1.92,4.51-3.59,4.57-6.05,9.03-6.51,15.31-2.4,6.25,4.09,13.27,7.1,18.08,13.16Z"/>
        <path class="cls-3" d="M367.89,79.93c2.64-3.99,6.53-1.38,9.83-1.77,1.23-.15,2.55.6,3.85.74,5.66.64,5.69.59,4.3-4.91,2.67,2.81,5.34,3.01,8.22.21,1.28-1.25,2.89-2.13,4.78-2.23,1.75,2.52,4.16,3.26,7.22,3.38,9.11.37,18.22-.41,27.33.09,2.74.15,5.42.28,6.2,3.67-.59,3.2-2.41,4.95-5.79,4.81-3,0-6,0-8.99,0,.94-3.16-1.9-3.16-3.18-2.86-7.72,1.86-15.4-.63-23.18.2-5.6.6-11.42-.33-17.2.57-5.39.85-6.15,1.65-4.38,7.07.9,3.28-.91,4.18-3.69,4.11-12.92-.31-25.83.77-38.74.25-7.1-.29-14.19-.84-21.31-.43-2.13.12-4.41.39-5.69-2.02-.81-2.47.15-4.14,2.36-5.25.59-.11,1.15,0,1.66.3,2.41,2.72,5.34,3.19,8.95,2.87,12.23-1.08,24.51-.28,36.77-.48,2.82-.05,5.64.1,8.45-.04,2.05-.11,4.85.94,5.87-1.31.8-1.76-1.84-2.82-2.84-4.28-.57-.83-1.16-1.63-.77-2.71Z"/>
        <path class="cls-20" d="M95.15,68.95c.13,3.19-2.05,3.94-4.54,3.95-14.91.06-29.83.02-44.74.05-2.8,0-3.5-1.25-2.62-3.76.38-1.08.6-2.22.89-3.33,8-9.41,29.16-9.22,37.41.5,2.94,3.46,8.87,2.52,13.6,2.59Z"/>
        <path class="cls-26" d="M380.88,70.97c1.87,4.64-1.92,4.71-4.43,4.85-5.75.32-11.57.47-17.31,0-9.56-.79-19.05.63-28.58.25-6.9-.28-13.81-.13-20.72-.11-1.81,0-3.7-.07-5.41.41-1.98.56-3.78.54-4.94-1.08-1.31-1.81.94-2.88,1.47-4.33,5.29-3.48,11.33-3.74,17.13-2.74,3.47.6,5.58-.31,7.81-2.35,2.01,3.93,5.39,4.5,9.48,4.54,7.12.06,14.21-.91,21.31-.44,3.87.26,3.18-3.75,5.25-5.09,5.41,4.85,13.48,1.42,18.95,6.09Z"/>
        <path class="cls-11" d="M351.9,42.01c12.27-.28,24.27-2.83,36.4-4.34,5.24-.65,10.4-1.85,15.63-2.6,2.4-.35,4.58-.77,5.91-3.04,3.23,3.13,2.33,6.11-.89,8.27-5.1,3.43-9.85,8.13-16.97,6.37-1.75-.43-3.13.89-4.68,1.38-4.73,1.5-9.37,3.52-14.22.27-.97-.65-2.22-.03-3.37.2-3.8.77-7.22.59-10.28-2.59-1.92-1.99-6-.64-7.54-3.92Z"/>
        <path class="cls-13" d="M433.82,83.93c1.67-1.33,3.33-2.66,5-3.99,2.4-3.55,5.42-5.85,10.02-5.01,6.34-.07,12.68-.22,18.95,1.07,1.31,2.49,3.95,3.35,6,4.94,2.21,7.15,2.09,4.8-4.57,6.84-3.43,1.04-6.83-.79-10.31-.95-7.66-.35-15.18,1.12-22.79,1.07-2.78-.02-5.66-.27-2.28-3.96Z"/>
        <path class="cls-27" d="M361.93,64.88c-.13,7.48-.23,6.72-7.62,6.61-7.36-.12-14.8.19-22.19.54-4.73.23-6.91-1.32-6.24-6.16,6.89-8.83,27.3-9.91,36.04-.99Z"/>
        <path class="cls-5" d="M72.16,32.05c3.87.59,6.97-1.84,10.48-2.65,10.5-2.44,20.66-5.99,30.92-9.22,3.92-1.23,6.98-2.73,7.63-7.15,2.03,2.62,5.76,2.61,7.91,5.06,1.98,3.04.63,5.61-2.13,6.4-15.45,4.44-29.94,12.86-46.81,11.54-2.13-2.4-5.28-2.77-7.99-4Z"/>
        <path class="cls-9" d="M149,37c2.64,3.39,5.89,4.78,10.33,4.09,10.45-1.61,20.83-.82,31.35.25,5.22.54,11.38-.97,16.3-4.34.04,1.4-.57,2.61-1.39,3.64-4.32,5.5-18.55,8.68-25.28,6.31-3.85-1.35-8.19-.36-12.01.63-6.09,1.59-11.42-.99-16.87-2.29-4.25-1.01-4.95-4.96-2.43-8.3Z"/>
        <path class="cls-2" d="M80.15,36.05c14.94-.94,28.3-7.78,42.53-11.39,3.31-.84,7.18-1.56,6.41-6.56,5.31,4.52,5.45,7.77-.4,11.05-9.56,5.37-19.99,9.7-30.89,9.25-5.68-.24-11.91-.56-17.65-2.35Z"/>
        <path class="cls-15" d="M448.84,74.92c-3.68.99-6.7,3.31-10.02,5.01-.4-3.4-2.98-2.98-5.28-2.99-10.07-.02-20.15-.16-30.22.07-3.95.09-5.67-.97-4.46-5.04,5.82-3.57,12.17-5.18,18.98-5.03.88,2.34-1.96,2.71-2.43,4.58,6.18.18,12.31-.49,18.14.87,1.6-1.65-.72-3.05.28-4.4,5.71.78,10.6,3.33,15.01,6.92Z"/>
        <path class="cls-1" d="M28.15,35.95c1.6-1.24,3.72-1.4,4.99-3.58.94-1.61,3.47-2.48,5.82-2.14,5.63.8,11.26,1.42,16.98.86,3.07-.3,5.65,1.53,8.26,2.93-.09,2.52-2.24,2.64-3.86,3.06-9.14,2.37-18.68,2.28-27.9,4.34-3.46.77-4.91-1.54-4.29-5.46Z"/>
        <path class="cls-24" d="M148.05,66.89c-.04.33-.07.66-.11.98-.31,2.04-3.99,3.56-1.24,5.98,2.21,1.94,5.13,1.59,7.51.39,3.15-1.59,6.3-1.79,9.62-1.24.58.1,1.39.38,1.6.82.47.96-.36,1.63-1.13,1.84-5.05,1.34-8.3,5.28-12.21,8.26-2.67.27-5.33,2.57-8,0,1.12-.56,2.23-1.11,3.59-1.79-2.32-3.54-9.01-.39-9.6-6.23,3.2-3.15,4.73-8.13,9.98-9.02Z"/>
        <path class="cls-7" d="M66.15,35.06c1.59,4.36.01,7.76-5.11,9.02-5.74,1.41-11.67,2.05-17.53,2.9-3.26.47-6.57,1.05-9.83.93-4.51-.16-8.56-1.53-9.45-6.9,12.34,2.22,24.09-2.35,36.17-3.15,2.13-.14,3.98-1.55,5.75-2.8Z"/>
        <path class="cls-28" d="M66.15,35.06c-.32,3.44-3.13,4.28-5.66,4.6-10.12,1.25-20.26,2.26-30.26,4.3-2.76.56-4.03-1.91-6-2.95.49-2.32,1.03-4.6,3.92-5.06.23,3.95,1.93,5.14,5.88,3.76,7.65-2.66,15.9-1.82,23.71-3.69,2.2-.53,4.55-.56,6.47-2.01.65.35,1.3.7,1.94,1.05Z"/>
        <path class="cls-26" d="M291.96,71.99c2.43,4.85-1.76,4.85-4.07,4.56-5.32-.68-10.49-.84-15.79.07-3.27.56-4.37-1.63-4.11-4.63,7.99-4.54,15.98-4.82,23.97,0Z"/>
        <path class="cls-13" d="M433.83,68c.5,2.01,4.32,2.85,2.83,5.04-1.37,2-4.21.6-6.49.26-4.75-.71-9.57-.49-14.35-.12-1.28.1-2.74,1.04-3.43-.68-.68-1.71.94-2.2,2.05-2.83,1.28-.73,2.78-1.18,3.39-2.73,5.4-.67,10.64,1.05,15.99,1.05Z"/>
        <path class="cls-25" d="M209.02,71.99c-.83,4.2-3.5,5.06-7.53,5.12-3.53.05-8.18-2.43-10.43,2.82-1.67-1.47-5.11-2.56-4.45-4.63.88-2.78,4.32-1.08,6.63-1.29,2.79-.26,5.63-.04,8.44-.08.94-.01,2.16.33,2.67-.76.65-1.39-.65-2.14-1.47-2.79-1.75-1.39-3.32-2.76-2.86-5.29,3.24,1.99,6.92,3.41,9,6.9Z"/>
        <path class="cls-12" d="M430.86,38.07c-.96,5.65-5.4,1.83-8.03,2.95,2.23-2.2,6.22.38,8.03-2.95Z"/>
        <path class="cls-16" d="M307.94,89.91c.86,1.79,2.44,2.1,4.19,1.99,11.94-.72,23.86,1.79,35.73.8,8.4-.7,16.73.01,25.09-.41,2.59-.13,3.59-1.13,3.94-3.38,1.91,3.04.84,4.96-2.5,4.91-18.71-.28-37.42.35-56.15-.35-7.71-.29-15.72-.14-23.52,1.05-2.68.41-5.25.71-7.74-.63-7.67-1.11-15.41-.25-23.11-.62-2.13-.1-4.01.11-4.49-2.56,1.04-3.61,4.02-4.49,6.94-3.71,4.36,1.17,7.91.98,10.97-2.67.8-.96,2.25-1.27,3.56-1.5,1.04-.13,2.03,0,2.91.63,1.45,2.32-1.92,2.77-1.6,5.24,4.79,1.47,9.82.71,15.49-.05-2.78-4.52-7.81-2.17-10.65-4.8-.45-.49-.86-1.22-1.52-1.18-8.54.41-16.99-2.07-25.56-.68-4.59.75-9.22.3-13.82.32-.48-.02-.98-.08-1.46-.16-2.91-1.43-3.48,1.8-5.25,2.65-3.35.53-6.46,2.63-10.05,1.6.38-4.85.32-4.98-5.29-3.95-2.82.52-5.55-.08-8.32-.1-3.15-.03-6.17.1-8.52,2.62-2.53.6-5.04,1.04-7.17-1.05-.12-.12-.22-.26-.35-.36-1.85-1.35-6.29.07-5.64-3.29.51-2.65,4.44-1.45,6.71-1.24,12.15,1.1,24.33,0,36.49.33,7.87.21,16.14.31,24-1.52,5.01-1.17,9.41,1.3,14.22,1.18,10.72-.28,21.46-.36,32.15.16,2.33.11,6.89-1.29,7.3,3.74-.57,2.01-1.54,3.48-3.99,3-.33,0-.67,0-1,0-2.57-4.5-4.28-5.1-9.82-3.25,1.93,3.23,5.33,4.78,7.82,7.24Z"/>
        <path class="cls-23" d="M259.99,89.91c.29,2.22,1.38,2.75,3.71,2.71,7.19-.12,14.38.19,21.57.4.57.02,1.13.57,1.69.88-12.14,0-24.29,0-36.43,0-28.87,0-57.74-.08-86.61.05-8.76.04-17.51.64-26.26.93-2,.07-4.42.12-5.14-2.09-.66-2.03.73-3.76,2.59-4.88,2.22,1.45,4.41,2.61,7.3,2.59,22.76-.17,45.52-.02,68.28-.16,1.45,0,4.92,1.63,3.86-2.6-1.92-1.71-4.78-1.83-6.51-3.84.17-1.71,1.03-2.87,2.81-2.9,6.16-.11,12.31-.2,18.47-.15,1.39,0,3.54-.43,3.88,1.36.34,1.8-2.01,1.8-3.1,2.7-.38.31-.72.67-1.09,1-1.42,2.81-1.05,4.15,2.56,4.76,4.86.81,9.52-.06,14.26-.4,1.83-.13,2.85-1.48,4.06-2.57,3.51.06,6.7,1.6,10.09,2.2Z"/>
        <path class="cls-14" d="M96.66,91.91c-6.3,0-12.6.01-18.9,0-1.64,0-3.63.26-4.2-1.76-.69-2.44,1.71-3.16,3.15-3.76,4.02-1.68,8.29-2.72,12.49-3.87,8.84-2.41,16.43.47,24.42,2.49.95.24,1.95.56,2.75,1.1,1.48.99,3.57,1.98,3.25,3.98-.4,2.44-2.82,1.79-4.53,1.8-6.13.06-12.27.02-18.4.02Z"/>
        <path class="cls-25" d="M208.04,83.91c2.62-.34,4.8.85,6.99,2.01,1.84,4.75-2.07,4.63-4.56,4.79-6.77.42-13.58.5-20.35.11-10.43-.6-20.85-.69-31.26-.02-5.29.34-10.56-.45-15.85.06-1.75.17-3.89.38-4.5-2.01-.57-2.25,1.18-3.24,2.78-4.16.56-.32,1.26-.37,1.81-.77.33,0,.66,0,.99,0,2.67,0,5.33,0,8,0-2.33,1.21-3.16,2.33.07,3.5,1.8.65,3.64.66,5.41.43,10.9-1.44,21.78-1.51,32.69,0,2.23.31,4.47.13,4.78-2.92,1.75.1,3.45-.07,5-1,2.66,0,5.33,0,7.99,0Z"/>
        <path class="cls-24" d="M143.1,83.92c-.5.42-1,.86-1.51,1.27-1.16.93-2.75,1.83-2.13,3.55.66,1.83,2.58,1.18,3.96,1.12,13.69-.61,27.42-1.69,41.09-.75,7.76.53,15.5.94,23.24.67,2.69-.1,6.71.85,7.27-3.86,1.44.87,3.2,1.85,2.69,3.73-.56,2.06-2.69,2.24-4.55,2.24-24.41.02-48.83.02-73.24.01-2.69,0-4.41-1.21-4.82-3.98,2.52-1.62,4.49-4.33,7.99-3.99Z"/>
        <path class="cls-26" d="M310.94,85.92c1.33-1,2.66-2,3.99-3,4.84-3.92,11.69-1.93,16.67-5.65,1.19-.89,2.37.52,3.48,1.26,4.84,3.24,9.74,5.51,15.48,1.63,2.66-1.79,5.73-2.48,8.96-.93,2.66,1.28,5.57.5,8.37.69.86,1.98,3.18,2.3,4.41,3.89,1.07,1.38,3.15,2.37,2.15,4.56-.85,1.84-2.76,1.53-4.4,1.53-11.77.01-23.55-.07-35.32.04-5.6.05-11.2-.39-16.82.78-3.29.68-6.86,0-6.96-4.8Z"/>
        <path class="cls-23" d="M307.94,89.91c-4.97.06-6.8-4.54-10.15-6.88-.78-.55-.49-1.53.47-1.93,3.88-1.58,7.78-1.34,11.43.49,1.99,1,.96,2.83.24,4.34-.6,1.37-2.09,2.28-2,3.99Z"/>
        <path class="cls-17" d="M259.99,89.91c-3.84,1.89-7.07.7-9.99-1.99-.26-.02-.51-.04-.77-.06-2.1-.89-3.9-2.39-6.28-2.74-1.33-.19-2.73-.93-2.25-2.6.43-1.47,1.42-2.68,3.3-1.59,5.04,1.71,10.29.85,15.24.23,7.18-.9,14.15.96,21.24.39,2.25-.18,1.85,1.25.48,2.37-2.09,1.18-4.29,1.89-5.55,4.47-1.27,2.6-4.02,1.64-6.14.7-3.31-1.46-6.35-1.25-9.29.81Z"/>
        <path class="cls-22" d="M250,87.92c.02,1.74-.21,3.59-2.29,3.8-6.66.68-13.35,1.49-19.99-.12-1.08-.26-2.54-.73-2.41-2.08.19-2.07,2.37-2.49,3.71-3.59,3.73-.3,7.05-2.87,10.99-1.99,3.63.59,7.23,1.24,9.99,3.99h0Z"/>
        <path class="cls-26" d="M287.96,83.91c3.96-.14,7.94-.34,11.1,2.74.68.67,1.69,1.24,1.27,2.41-.34.96-1.36.65-2.11.88-4.67,1.42-9.46.9-14.21.95-1.84.02-3.97-.09-4.64-2.03-.83-2.42,1.7-2.74,3.08-3.71.53-.37,1.01-.81,1.52-1.22,1.32-1.25,2.65-1.01,3.99-.01Z"/>
        <path class="cls-23" d="M287.96,83.91c-1.33,0-2.66,0-3.99.01-1,0-2,0-3,0,.32-1.04.49-2.02-1.1-1.99-9.67.19-19.37-.99-28.99.33-2.67.37-4.8.24-6.88-1.34,6.1-.24,12.17-.15,18.29-.75,7.67-.75,15.44,1.29,23.22.79,2.03-.13,2.46,1.27,2.44,2.94Z"/>
        <path class="cls-23" d="M250,87.92c-3.33-1.33-6.66-2.66-9.99-3.99.2-2.51.31-5.13,4-3-1.18.12-2.47.43-2.49,1.78-.02,1.28,1.31,1.12,2.23,1.22,2.73.31,4.89,1.52,6.25,3.98Z"/>
      </g>
    </g>
  </g>
</svg>