<?xml version="1.0" encoding="UTF-8"?>
<svg id="Layer_1" data-name="Layer 1" xmlns="http://www.w3.org/2000/svg" viewBox="0 0 165.88 332.21">
  <defs>
    <style>
      .cls-1 {
        fill: #8b451f;
      }

      .cls-1, .cls-2, .cls-3, .cls-4, .cls-5, .cls-6, .cls-7, .cls-8, .cls-9, .cls-10, .cls-11, .cls-12, .cls-13, .cls-14, .cls-15, .cls-16, .cls-17, .cls-18, .cls-19, .cls-20, .cls-21, .cls-22, .cls-23, .cls-24, .cls-25, .cls-26, .cls-27, .cls-28, .cls-29, .cls-30, .cls-31, .cls-32, .cls-33, .cls-34, .cls-35, .cls-36, .cls-37, .cls-38, .cls-39, .cls-40, .cls-41, .cls-42, .cls-43, .cls-44, .cls-45, .cls-46, .cls-47, .cls-48, .cls-49, .cls-50, .cls-51, .cls-52, .cls-53, .cls-54, .cls-55, .cls-56, .cls-57, .cls-58, .cls-59, .cls-60, .cls-61, .cls-62, .cls-63, .cls-64, .cls-65, .cls-66, .cls-67, .cls-68, .cls-69, .cls-70, .cls-71, .cls-72, .cls-73, .cls-74, .cls-75, .cls-76, .cls-77, .cls-78, .cls-79, .cls-80, .cls-81, .cls-82, .cls-83, .cls-84, .cls-85, .cls-86, .cls-87, .cls-88, .cls-89, .cls-90, .cls-91, .cls-92, .cls-93, .cls-94, .cls-95, .cls-96, .cls-97, .cls-98, .cls-99, .cls-100, .cls-101, .cls-102, .cls-103, .cls-104, .cls-105 {
        stroke-width: 0px;
      }

      .cls-2 {
        fill: #d0763c;
      }

      .cls-3 {
        fill: #f59474;
      }

      .cls-4 {
        fill: #c96b29;
      }

      .cls-5 {
        fill: #c37946;
      }

      .cls-6 {
        fill: #fdcc37;
      }

      .cls-7 {
        fill: #572510;
      }

      .cls-8 {
        fill: #f39370;
      }

      .cls-9 {
        fill: #701d1b;
      }

      .cls-10 {
        fill: #b25e27;
      }

      .cls-11 {
        fill: #8b441f;
      }

      .cls-12 {
        fill: #5b2511;
      }

      .cls-13 {
        fill: #622a14;
      }

      .cls-14 {
        fill: #511e0f;
      }

      .cls-15 {
        fill: #f7f2ed;
      }

      .cls-16 {
        fill: #c86b2b;
      }

      .cls-17 {
        fill: #5e1210;
      }

      .cls-18 {
        fill: #ca6b29;
      }

      .cls-19 {
        fill: #5e0d10;
      }

      .cls-20 {
        fill: #592511;
      }

      .cls-21 {
        fill: #c17a45;
      }

      .cls-22 {
        fill: #60301d;
      }

      .cls-23 {
        fill: #976c5c;
      }

      .cls-24 {
        fill: #c96b2a;
      }

      .cls-25 {
        fill: #3f3a38;
      }

      .cls-26 {
        fill: #86411e;
      }

      .cls-27 {
        fill: #c37b47;
      }

      .cls-28 {
        fill: #632c15;
      }

      .cls-29 {
        fill: #743618;
      }

      .cls-30 {
        fill: #54301f;
      }

      .cls-31 {
        fill: #f8f4f1;
      }

      .cls-32 {
        fill: #c96b2b;
      }

      .cls-33 {
        fill: #57200f;
      }

      .cls-34 {
        fill: #f6f2ee;
      }

      .cls-35 {
        fill: #8a451f;
      }

      .cls-36 {
        fill: #4e271b;
      }

      .cls-37 {
        fill: #803d1c;
      }

      .cls-38 {
        fill: #5e2b18;
      }

      .cls-39 {
        fill: #601210;
      }

      .cls-40 {
        fill: #542815;
      }

      .cls-41 {
        fill: #723518;
      }

      .cls-42 {
        fill: #fcca36;
      }

      .cls-43 {
        fill: #b35d28;
      }

      .cls-44 {
        fill: #65281a;
      }

      .cls-45 {
        fill: #f39473;
      }

      .cls-46 {
        fill: #7d3c1b;
      }

      .cls-47 {
        fill: #c37a43;
      }

      .cls-48 {
        fill: #c57b46;
      }

      .cls-49 {
        fill: #f2e6df;
      }

      .cls-50 {
        fill: #c17a47;
      }

      .cls-51 {
        fill: #cc6b2a;
      }

      .cls-52 {
        fill: #582412;
      }

      .cls-53 {
        fill: #ca6a2a;
      }

      .cls-54 {
        fill: #612a13;
      }

      .cls-55 {
        fill: #f7efeb;
      }

      .cls-56 {
        fill: #ca6b2a;
      }

      .cls-57 {
        fill: #711c1c;
      }

      .cls-58 {
        fill: #a57a6a;
      }

      .cls-59 {
        fill: #c27842;
      }

      .cls-60 {
        fill: #54210f;
      }

      .cls-61 {
        fill: #611010;
      }

      .cls-62 {
        fill: #a97861;
      }

      .cls-63 {
        fill: #f3ebe6;
      }

      .cls-64 {
        fill: #ae806a;
      }

      .cls-65 {
        fill: #e9c7b3;
      }

      .cls-66 {
        fill: #f9f5f2;
      }

      .cls-67 {
        fill: #613317;
      }

      .cls-68 {
        fill: #c17946;
      }

      .cls-69 {
        fill: #5a2611;
      }

      .cls-70 {
        fill: #5f0e10;
      }

      .cls-71 {
        fill: #f9f9f9;
      }

      .cls-72 {
        fill: #fbe396;
      }

      .cls-73 {
        fill: #4c1f0e;
      }

      .cls-74 {
        fill: #b35e28;
      }

      .cls-75 {
        fill: #572818;
      }

      .cls-76 {
        fill: #522a1e;
      }

      .cls-77 {
        fill: #ed8f70;
      }

      .cls-78 {
        fill: #4c3530;
      }

      .cls-79 {
        fill: #faf2ea;
      }

      .cls-80 {
        fill: #6c2d15;
      }

      .cls-81 {
        fill: #b25d28;
      }

      .cls-82 {
        fill: #f7f0e9;
      }

      .cls-83 {
        fill: #672a15;
      }

      .cls-84 {
        fill: #c66d31;
      }

      .cls-85 {
        fill: #a56b4a;
      }

      .cls-86 {
        fill: #cb6a29;
      }

      .cls-87 {
        fill: #471e13;
      }

      .cls-88 {
        fill: #b55e28;
      }

      .cls-89 {
        fill: #af6331;
      }

      .cls-90 {
        fill: #562413;
      }

      .cls-91 {
        fill: #6f1c1c;
      }

      .cls-92 {
        fill: #471c12;
      }

      .cls-93 {
        fill: #592b15;
      }

      .cls-94 {
        fill: #ca6a29;
      }

      .cls-95 {
        fill: #600d0f;
      }

      .cls-96 {
        fill: #8c4720;
      }

      .cls-97 {
        fill: #632a13;
      }

      .cls-98 {
        fill: #b18d7f;
      }

      .cls-99 {
        fill: #5c2514;
      }

      .cls-100 {
        fill: #d48853;
      }

      .cls-101 {
        fill: #5d0c0d;
      }

      .cls-102 {
        fill: #b45d28;
      }

      .cls-103 {
        fill: #7e3d1c;
      }

      .cls-104 {
        fill: #b45e28;
      }

      .cls-105 {
        fill: #701c1c;
      }
    </style>
  </defs>
  <path class="cls-101" d="M73.84,245.29c-3.07.18-5.58-1.18-7.98-2.88-.72-.51-1.47-.97-2.2-1.45-3.16-1.51-5.68-3.93-8.36-6.09-5.93-4.78-11.33-10.15-16.22-15.98-6.45-7.67-11.93-15.94-14.27-25.89-.91-3.88-1.35-7.81-1.38-11.79-.07-9.14-.14-18.29.52-27.42.72-9.86,1.66-19.69,5.32-29.02,1.04-2.65,2.15-5.27,4.71-6.89,2.07-.42,3.9-.12,5.18,1.78.1,1.19-.69,1.94-1.39,2.71-2.9,3.21-4.69,6.88-5.28,11.23-.89,6.59-1.72,13.16-1.48,19.83.08,2.28.41,4.49,1.03,6.69.69,2.46,2.09,4.15,4.57,4.89.49.3.77.75.87,1.31.17,1.05-.37,1.95-.91,2.7-3.57,4.97-3.46,10.41-2.29,16.06.54,2.63,1.36,5.16,2.25,7.68.12.71.43,1.37.63,2.06.95,2.21,2.05,4.35,3.2,6.46,1.04,2.15,2.48,4.07,3.56,6.2,3.84,6.46,8.34,12.43,13.45,17.94,2.51,2.64,5.12,5.18,8.21,7.15,3.35,2.13,4.88,1.71,6.92-1.62,1.9-3.1,2.41-6.66,3.45-10.05.43-.61.94-1.25,1.76-.9.76.32.81,1.15.81,1.88,0,1.69-.86,2.89-2.22,3.81,1.26-.82,1.89-.4,1.94,1.02.04,1.21,0,2.43-.18,3.62-.61,3.9-.72,7.87-1.43,11.76-.28,1.54-.56,3.29-2.8,3.21Z"/>
  <path class="cls-102" d="M135.74,316.62c3.11-1.84,6.88-2.33,9.73-4.72.01-.53.28-.98.68-1.23,2.63-1.64,2.54-4.05,1.97-6.63-1.74-7.79-4.5-15.22-7.88-22.43-.14-.29-.26-.81-.47-.81-2.82.05-2.27-2.14-2.48-3.75-.18-1.36-.88-2.42-1.66-3.46-4.06-5.37-8.68-10.28-12.84-15.56-2.01-2.55-4.08-5.07-5.37-8.08-.53-1.24-1.52-2.65.05-3.94,2.75,1.03,5.78.56,8.53,1.62,1.35,1.56,2.75,3.07,4.03,4.68.87,1.1,1.88,1.91,3.25,2.24.28.32,1,.06,1.01.7,0,.52-.55.4-.84.59,3.64,4.36,5.99,10.16,13.12,11.37-1.23.24-1.88.37-2.57.51,1.23,3.75,5.22,2.69,7.63,4.54-1.59.38-2.9-1-4.53-.28.13,1.12.99,1.91,1.5,2.85,2.59,4.77,5.1,9.58,7.24,14.56.03.07.06.15.11.22,1.47,2.15,2.69,4.31,3.17,7.02.45,2.51,1.39,5.19,4.13,6.48.19.09.3.38.4.6.09.2.12.42.2.71-.83.07-1.16-.95-2.09-.7.27,1.89,1.21,3.68.88,5.65-.89,1.29-2.18,1.12-3.46.94-2.15-.29-4.23-.86-5.86-1.4,2.82,1.08,6.17,1.64,9.63,1.41,1.81,1.17,2.33,3.09,2.95,4.97-.26.87-.58,1.61-1.64,1.88-5.87,1.5-11.54,3.63-17.19,5.78-.29.11-.63.1-.95.15-.97.03-1.38-.73-1.81-1.38-1.73-2.57-3.82-4.49-7.2-4.3-.56.03-1.11-.17-1.35-.79Z"/>
  <path class="cls-102" d="M134.86,152.9c-.31,1.47-1.1,2.55-2.65,2.79-1.61.25-2.49-.85-3.3-2.02-3.32-4.8-7.16-9.18-10.94-13.61-.24-.28-.55-.49-.83-.74-.95,1.22.38,2.72-.82,3.71-1.22-.73-1.18-2.01-1.3-3.18-.11-1.05-.23-2.07-.96-2.94.03.75.19,1.47.2,2.2,0,.56.06,1.24-.53,1.49-.79.33-1.08-.41-1.43-.92-.79-1.91-.78-3.97-1.21-5.95-.06-.45-.37-.78-.63-1.13-1.04-1.51-2.42-2.71-3.61-4.08-2.76-3.15-5.48-6.33-8.33-9.39-1.73-.63-3.19.27-4.58.97-2.53,1.27-4.83,1.69-7.11-.5-.68-.65-1.71-.89-2.55-1.39-.85-.51-1.85-1.13-1.26-2.26.71-1.36,1.76-.44,2.43.1,1.86,1.5,3.78,2.11,5.59,1.1-3.08,1.9-5.19-1.34-7.86-2.4-.52-.2-.57-.97-.27-1.53.33-.64.86-.58,1.46-.35.69.27,1.36.68,1.82,1.17,1.47,1.59,3.12,1.81,4.6,1.12-1.4.45-2.96.51-4.54-1.05-1.28-1.26-2.72-2.27-5.02-.74-1.57,1.05-4.12.44-6.2.23-4.72-.48-9.48-.68-14.11-1.89-.81-.21-1.56-.42-2.1-1.09-.58-.91-.64-1.74.31-2.45,1.19-.54,2.39-.19,3.57.05,3.34.67,6.69,1.19,10.07,1.52,2.64.26,5.25.91,7.63-1.06.83-.69,2.08-.36,3.03.13,4.12,2.12,8.53,1.4,12.87,1.44.94,0,1.74-.41,2.33-1.13,1.63-2,3.37-3.93,4.58-6.24.94-1.04,2.14-1.37,3.5-1.24,3.32,1.07,3.36,1.09,1.82,4.18-.65,1.31-.59,2.25.78,2.93.89,1.39-1.22,1.07-1.14,2.01.02.64-.41,1.14-.52,1.74-.32.94-.76,1.84-1.56,2.42-1.33.96-1.26,1.87-.18,2.97,1.08,1.1,1.88,2.44,3.04,3.46.74.65,1.4,1.32,2.54.57,1.19-.79,1.27.35,1.54,1.07.75,1.03-.44,2.79,1.29,3.46.73,1.27.98,2.86,2.42,3.68,2.08,2.13,4.23,4.2,6.34,6.39-.88-1.96-1.51-3.96-2.48-5.8-.18-.34-.25-.83-.69-.93-2.01-.46-2.04-.44-2.33-2.4-.18-1.27-.18-2.59-1.05-3.66-.24-2.44.28-4.64,2.08-6.41,1.6,2.25,2.72,4.76,3.94,7.21,1.07,2.14,2.28,4.02,4.84,4.66,1.11.28,2.16.91,3.21,2.37-1.86-.66-3.24-1.14-4.95-1.74,1.07,2.33,1.49,4.8,4.65,4.03-.08,1.38-1.44.32-1.89.99,1.57,2.89,3.16,5.77,4.7,8.67.38.71,1.03.98,1.65,1.34.64.38.6.36.28,1.37-.18.59.34,1.01.62,1.46.72,1.13,1.93,1.92,2.44,3.66-.9-.46-1.71-1.57-2.39-.24-2.08-4.24-5.86-7.01-8.71-10.07,1.47,1.49,3.27,3.22,4.98,5.01.52.54,1.42.89,1.25,1.9-.66.51-.3,1.18-.29,1.8,0,1.07.03,2.29-1.21,2.65-1.21.35-2.02-.63-2.51-1.52-1.5-2.73-3.58-5-5.47-7.42-5.39-6.9-11.33-13.31-15.33-17.19,5.22,5.48,12.07,13.76,19.01,21.96.94,1.12,1.45,2.53,2.47,3.59.6.62.99,1.7,2.07,1.31,1.13-.41.85-1.57,1.03-2.51.18-.91-.92-2.14.62-2.73,1.54,1.39,1.5,3.16,1.2,4.99Z"/>
  <path class="cls-74" d="M45.39,317.72c-.39-1.86.29-3.66.33-5.28-.83-1.61-1.25,1.82-2.06-.07,2.46-2.04,4.16-4.76,4.09-7.83-.11-4.64,3.13-7.86,4.24-11.97,1.23-4.56,3.46-8.84,5.25-13.25-.37-.74-1.74.45-1.78-.93,2.16-.33,3.7-1.44,4.5-3.57-.56-.73-1.57-.01-2.27-.74,6.88-1.05,7.58-7.93,12.22-12.03-1.77-.16-2.76-.26-3.81-.36.13-.19.21-.4.29-.4,4.02-.23,6.02-2.99,7.79-6.1.43-.77,1.05-1.43,1.58-2.14,2.62-1.05,5.44-1.13,8.15-1.78,1.58,1.39.87,2.97.22,4.42-1.56,3.48-3.5,6.76-5.72,9.86-2.83,3.95-5.48,8.02-8.3,11.98-1.57,2.2-2.82,4.52-2.73,7.37.03,1.03-.1,2.1-1.55,2.35-.95.17-.98,1.21-1.23,1.94-2.11,6.14-3.67,12.42-4.78,18.81-.18,1.02-.12,2.14-1.05,2.89-.47.72-.21,1.55-.34,2.32-.46,1.78-1.65,2.85-3.31,3.5-2.01.79-3.99,1.66-6.12,2.04-1.34.24-2.74.47-3.62-1.03Z"/>
  <path class="cls-104" d="M135.06,181.43c-2.67-1.09-5.36-1.33-8.09-.2-.37.3-.61.75-1.15.84-.58.09-1.17.1-1.6-.33-.68-.68.21-1.09.47-1.64-.87-.06-1.53.34-2.25.4-.85.12-1.68-.15-2.53-.15-.87.04-1.88.07-2.18-.85-.26-.78.65-.85,1.2-1.02.29-.11-.1.11.17-.07.2-.13.2-.17.01-.07-1.16.28-2.2-.12-3.25-.46-1.09-.33-2.2-.42-3.33-.33-3.08-.81-6.16-1.63-9.39-1.11-1.29-.27-2.47-.81-3.52-1.61.4-1.62,1.48-2.96,1.84-4.62.2-.91.89-1.09,1.88-.95,1.43.2,2.8.85,4.13.61,0,0-.16-.01-.32,0-2.67.25-5.13-2.04-8.07-.2-2.35,1.47-5.4,1.59-7.97,2.77-2.04.94-4.4,1.09-6.21,2.57-2.56,1.03-5.02,2.21-6.99,4.23-.57.58-1.51,1.18-2.16.58-1.44-1.33-2.29-.18-3.3.5-1.07.73-1.93,1.75-3.04,2.39-.83.49-1.85,1.37-2.5-.34-.35-.92-.95-.16-1.37,0-4.08,1.54-8.12,3.16-11.93,5.31-1.91.06-3.39,1.88-5.44,1.33-.04-.05-.14-.16-.13-.17.22-.24.24-.36,0-.26-.64.27-.25.79-.36,1.16-.96,3.37-3.63,4.28-6.98,2.36-2.49-3.28-2.07-5.07,1.53-6.98,1.7-.9,3.51-1.51,5.29-2.2,1.22-.44,2.11-1.34,3.09-2.13,5.84-1.66,11.43-4.03,17.15-6.05.66-.21,1.34-.33,2.04-.32.82.02-.28-.48.14-.59.63-.92,1.68-.86,2.59-1.1,2.11-.55,4.23-1.05,5.96-2.5.78-.46,1.63-.64,2.54-.61,4.45-1.51,8.88-3.06,13.15-5.04,1.25-.35,2.46-.8,3.67-1.27,2.01-.77,3.96-.74,5.8.49,1.12.75,2.09,1.69,3.21,2.44,1.45.51,2.37-.69,3.54-1.08,1.02-.34,1.9-1.32,3.13-.64.96,1.15,1.24,2.61,1.74,3.96.55,1.48,1.47,2.26,3.07,2.19,1.79.46,3.63.71,5.37,1.37.84.22,1.68.45,2.28,1.13-.5,1.97-2.02,1.26-3.1.97-2.72-.72-5.49-1.28-7.62-2.01,7.35,1.95,15.11,4.53,22.99,6.7,1.17.32,2.63,1.12,2.64-1.2,1.48-.82,2.31,0,2.84,1.23.7,1.63-.43,4.05-2.28,5.13-1.42.83-3.32.38-4.54-1.05-.53-.62-.64-1.76-1.87-1.53Z"/>
  <path class="cls-102" d="M38.94,119.71c-1.53-.78-3.12-1.35-4.85-1.5-.45.07-.84.02-1.04-.46-3.9-2.75-7.85-.51-12.28.27,1.47-1.72,3.41-1.35,4.47-2.56-3.11-2.8-5.36.12-8.03,1.48.41-1.82,2.33-1.87,2.7-3.42-4.85-1.73-9.69-3.45-14.66-5.21-.37,1.26.57,2.25.42,3.9-1.12-2.16-2.01-3.87-2.9-5.58,2.54-1.59,4.08-4.37,6.83-5.71.14-.07.31-.07.46-.09,1.28,0,2.28.74,3.34,1.33,4.04,2.23,8.15,4.34,12.46,6.02.51.2,1.17.97,1.42-.44.13-.75,1.09-.37,1.67-.1,1.2.55,2.06,1.55,3.04,2.39,1.3,1,2.89,1.32,4.37,1.87.33.12.63.38.99-.14.76-1.1,1.62-.36,2.21.17,1.42,1.29,3.11,1.89,4.93,2.27,1.15.21,2.24.66,3.37.92.71.04,1.44-.04,2,.53.16.18.33.39.57.42,3.09.38,3.79,1.67,2.41,4.43-.81,1.63-2.2,2.62-4.59,3.14,2.54-.09,3.76-1.57,4.64-3.3,1.4-2.74.65-3.96-2.41-4.26-.24-.02-.42-.22-.54-.44.07-1.52,1.05-2.52,2.11-3.39,1.36-1.11,2.93-1.86,4.7-1.23,1.69.6,1.45,2.35,1.79,3.7.15.62.13,1.28.27,1.91,0,.93-.16,1.83-.33,2.74-.41,1.55-.66,3.14-1.32,4.63-1.34,2.98-5.09,5.09-8.33,4.58-2.54-.4-3.3-1.27-3.5-3.82-.05-.67.42-1.48-.43-1.98-.37-.23-.69-.54-1.06-.78-.2-.06-.4-.14-.59-.22-.9-.31-1.78-.69-2.71-.92-.65-.21-1.25-.51-1.6-1.15Z"/>
  <path class="cls-61" d="M122.42,179.84c1.37-.71,2.73-1.36,4.12-.03-.29,1.08-1.64.61-2.08,1.49.89.51,1.7,0,2.52-.08,1.5,4.5,3.18,8.94,4.26,13.58,2.04,8.77.64,17.12-2.97,25.21-1.38,3.09-2.89,6.12-4.9,8.87-2.13-2.11-2.41-4.87-2.2-7.56.08-1.03.19-1.72-.48-2.52-.7-.83-.91-1.89-.95-2.96-.04-1.11.42-1.7,1.84-1.31-3.02-1.68-3.02-4.55-3.43-7.24.04-.74.31-1.41.61-2.07,3.18-7.15,4.26-14.61,3.27-22.37-.13-1.03-.38-2.08.4-2.99Z"/>
  <path class="cls-19" d="M77.3,52.2c-2.52-6.55-4.9-13.16-8.5-19.24-1.4-2.37-2.92-4.65-4.54-6.88-6.48-8.89-15.13-11.58-25.65-9.19-4.97,1.12-9.76,2.79-14.42,4.57-.45-.31-.18-.53-.05-.63,7.16-5.15,14.86-8.85,23.95-8.62,9.5.24,16.01,5.46,20.93,13,5.56,8.51,9.6,17.75,12.54,27.47-.16,1.5.53,2.83.97,4.18.35,1.07.59,1.95-.81,2.21-1.18.22-2.37.06-2.65-1.4-.37-1.9-1.03-3.7-1.76-5.48Z"/>
  <path class="cls-95" d="M100.27,46.85c.06-7.45-.08-14.87-1.54-22.24-2.58-13.06-9.41-19.67-22.71-21.54-4.36-.62-8.75-.85-13.17-1.21,2.02-1.14,4.26-1.29,6.44-1.52,7.78-.82,15.4-.39,22.23,4,6.24,4.01,9.41,10.09,10.91,17.12,2.18,10.22,2.23,20.57,1.5,30.94-.02.31-.19.61-.28.92-.67.4-.16,1.11-.43,1.63-.48.92-1.23,1.22-2.19,1.09-1.09-.14-1.19-.94-1.09-1.79.29-2.46.74-4.91.32-7.4Z"/>
  <path class="cls-104" d="M38.49,76.93c1.48-1.65,3.57-2.24,5.55-2.78,3.78-1.02,7.12-2.63,9.62-5.72,1.33-1.64,2.9-2.02,4.96-1.4,2.23.67,4.43,1.56,6.83,1.59,1.05.01,1.51.87,1.8,1.73.41,1.22.75,2.47,1.12,3.71.43.4.06.6-.21.83-.94.4-1.7,0-2.42-.57-4.51-3.58-5.44-3.65-10.5-.83-.23.02-.47.01-.69-.11.02.07.13.15.33.14,1.2-.08,2.4-.21,3.61-.18,1.7.04,2.5.83,2.49,2.54-.02,1.72-1.08,1.94-2.44,1.83-.31-.02-.62,0-.76,0,.71-.05,1.59.07,2.48-.1,2.67-.49,3.34.24,2.75,2.93-.05.24-.08.48-.12.71-.18.61-.39,1.21-.44,1.87-.23,3.04-1.68,4.07-4.62,3.22-1.96-.56-1.75-2-1.29-3.47-1.72,1.37-4.25.78-5.96,2.3-.3.24-.63.39-1,.46-1.61.13-3.17.53-4.77.76-1.21.17-2.41.23-3.47-.58-.2-.17-.35-.37-.47-.6-.31-.68-.31-1.41-.26-2.13.13-1.85-.24-3.5-1.65-4.82-.36-.34-.51-.81-.48-1.32Z"/>
  <path class="cls-43" d="M73.84,245.29c2.71-1.43,2.04-4.19,2.38-6.44.59-3.89.81-7.83,1.14-11.75.04-.43,1.11-1.83-.84-1.11-.55.2-.11-.73.03-1.07.43-1.09,1.58-1.89,1.3-3.26-.09-.44.2-1.14-.35-1.27-.63-.16-.87.54-1.18.99-.43.19-.63-.07-.8-.4-.35-1.21.62-1.89,1.12-2.76.45-.77.71-1.6.81-2.49.5-1.34.46-2.76.57-4.16.69-4.24,3.78-5.04,7.61-1.97.18.19.32.41.43.65.37,1.09.15,2.25.38,3.36,0,.37-.09.73-.21,1.08-.75,1.33-.05,2.8-.39,4.17.11,1.21.03,2.42-.17,3.62-.12.72-.29,1.5.08,2.15.81,1.43,1.62,2.65-.08,4.18-.72.65.05,1.99.36,2.99.42,1.37.87,2.37-.26,4.06-1.05,1.57-.9,4.38.69,6.38.35.44.79.82,1.15,1.25.61.73,1.59,1.5,1,2.51-.73,1.25-1.69-.08-2.62-.09.12,2.03,1,4.31-1.72,5.41-1.71.13-3.14,1.26-4.85,1.34-1.22.06-2.57.75-3.55-.62v-5.92c-.43-1.14-2.77,2.37-2.01-.81Z"/>
  <path class="cls-71" d="M33.05,117.75c.35.15.7.31,1.04.46-4.24,4.8-5.77,10.78-6.89,16.81-3.27,17.61-3.69,35.4-2.36,53.2.64,8.66,4.74,16.14,9.54,23.25,7.9,11.7,18.22,20.95,29.28,29.49-2.66-.2-4.27-2.28-6.15-3.7-9.99-7.56-18.58-16.53-25.83-26.76-5.67-8-9.24-16.67-9.46-26.72-.12-5.49-.54-11-.29-16.48.62-13.29,1.56-26.56,4.72-39.57,1.01-4.15,3.08-7.41,6.4-9.97Z"/>
  <path class="cls-43" d="M118.39,207.82c.07.04.2.06.21.12.68,3.08,2.13,5.76,4.69,8.12-1.52.17-1.73-1.42-2.94-1.12.23,1.48.19,2.99,1.5,4.15.73.65.58.72-.12,1.83-.22.34-.13.95-.03,1.4.52,2.2,1.1,4.38,1.65,6.57.14,4.94,1.37,8.58,4.14,11.95-2.36-.85-2.12.46-1.91,1.81.21,1.34.47,2.69.28,4.06-1.93,1.32-3.94.83-5.98.33-.88-.21-1.62-.71-2.45-.98-2.29-.7-2.5-1.14-2.27-4.95-1.03.28-1.6,1.76-2.84,1.18-.55-.25-.56-.91-.49-1.49.18-.82.73-1.42,1.26-2.03,2.4-2.8,2.51-5.09.44-8.38-.69-1.1-.05-2.17.06-3.27.11-1.1,1.63-3.13-1.44-2.75-.69.09-.75-.89-.45-1.33,1.93-2.75.98-5.75.84-8.69.28-.67.74-1.04,1.51-.91.82.4,1.02,1.19,1.22,1.98.18.71.3,1.42.4,2.14.97,7.18,2.45,14.3,2.77,20.11-.55-6.16-1.39-13.73-2.89-21.22-.28-1.42-.7-2.83-.48-4.31.66-1.79,1.23-3.65,3.33-4.33Z"/>
  <path class="cls-43" d="M35.98,78.01c.63-.24,1.26-.48,1.88-.72,2.24.96,3.18,2.72,3.22,5.09.02.94-.25,1.91.21,2.82l.06.12c-.05,1.48-1.2,1.67-2.22,1.63-4.43-.15-8.17,1.85-11.92,3.76-4.78,2.43-9.23,5.4-13.53,8.6-.96.72-1.84,1.62-3.16,1.69-1.96.2-3.01,1.69-4.14,3.02-.81.96-1.73,1.63-2.98,1.88-1.34.27-2.22-.02-2.22-1.59.52-.72.94-1.48,1.19-2.36.32-1.13,1.02-2.01,2-2.66,6.32-4.21,12.72-8.28,19.13-12.35,3.54-2.25,7.22-4.29,10.59-6.81.76-.57,1.65-1.07,1.87-2.13Z"/>
  <path class="cls-74" d="M140.61,173.69c1.37,1.23,3.26,2.06,3.28,4.31-4.47-1.34-9.03-2.31-13.55-3.46-3.27-3.85-6.13-8.05-9.62-11.74-.44-.47-.81-.99-1.4-1.29-1.26-1.48-3.4-2.22-3.81-4.43.91-1.57.72-3.4,1.24-5.07.13-.21.31-.36.54-.46,3.25,3.49,6,7.72,11.77,7.58-.86,1.2-1.88.61-3.06,1.07,3.39,2.79,5.54,6.79,10.16,7.7.55.71-.99.72-.48,1.42,1.46,1.86,3.61,2.42,5.74,3.04.62.98-1.44.33-.81,1.32Z"/>
  <path class="cls-18" d="M92.88,66.97c.4-.39.8-.77,1.2-1.16,1.74-.84,3.41-1.88,5.41-2.03,4.65,1.29,8.05,4.11,10.29,8.36.45.86.84,1.75.38,2.74-1.12,1.37-2.5.65-3.81.47-1.21.11-2.41.18-3.61-.05-1.69.13-3.38.13-5.07.3-1.61.1-3.15.52-4.71.88-.91.21-1.85.65-2.75-.06-.52-.71-.48-1.5-.31-2.3.79-2.47,1.53-4.96,2.99-7.15Z"/>
  <path class="cls-87" d="M68.11,74.49c.09-.15.18-.29.26-.43,2.01-5.62,5.74-9.06,12.24-9.31-1.43-1.23-3-.75-4.3-1.25-.97-.38-2.06-.43-3.04-.79-.79-.29-2.04-.3-2.16-1.28-.13-1.09,1.02-1.53,1.87-1.95.79-.39,1.64-.71,2.49-.91,3.33-.78,3.33-.75,2.37-4.01-.23-.77-.37-1.56-.54-2.35,1.34,1.25,1.45,3.04,1.86,4.63.38,1.48,1.25,1.89,2.46,1.6,1.75-.42.37-1.53.3-2.3-.1-1.15-1.18-2.19-.37-3.44.26.84.54,1.68.79,2.52.62,2.05.98,4.22,3.4,5.14.6.23,1.01,1.01,1.45,1.57.91,1.15.87,2.17-.77,2.36-2.57.29-1.24,1.72-.76,2.63.51.96,1.65,1.52,1.96,2.68-.08.07-.17.15-.25.22-1.04.1-1.56-.69-2.18-1.29-1-.97-2.11-1.69-3.52-1.86-6.28-.3-8.88,1.29-11.53,7.04-.4.87-.63,1.85-1.54,2.39-.45.07-.7-.17-.85-.56-.07-.41.04-.76.35-1.04Z"/>
  <path class="cls-92" d="M99.86,64.39c-2.14-.4-3.78,1.24-5.79,1.42.86-1.22,2.24-1.51,3.52-1.93.56-.19.84-.52.82-1.02-.04-.75-.66-.5-1.1-.49-.56,0-1.13.09-1.69.06-.93-.06-2.17.43-2.67-.58-.57-1.17.49-2.09,1.16-2.95.81-1.03,1.92-1.86,3.16-2.12,2.02-.42,2.44-1.59,2.45-3.44,0-2.16.35-4.33.54-6.49.75,2.12.36,4.29.23,6.43-.05.81-.83,1.92.54,2.16,1.32.23,2.12-.56,2.06-2-.02-.39.04-.79.07-1.23.55.29.39.75.5,1.11-.23,1.77.29,2.74,2.32,2.92,1.29.11,3.18.65,3.27,2.04.09,1.37-1.87,1.45-2.99,1.98-.58.27-1.21.5-1.83.59-1.02.16-1.54.64-1.72,1.69-.18,1.09.16,1.65,1.22,1.92.32.08.54.52.8.8-1.79.63-3.2-.83-4.87-.87Z"/>
  <path class="cls-68" d="M35.98,78.01c.91,1.63-.5,2.2-1.43,2.79-5.47,3.53-11,6.97-16.48,10.48-4.54,2.9-9.06,5.83-13.57,8.78-1.08.71-1.62,1.8-1.58,3.1.04,1.32-.55,1.53-1.63,1.09-1.76-1.62-.5-3.09.23-4.58.72-.84,2.18-.94,2.35-2.34-.05-.17-.05-.42.06-.44,4.61-.69,7.77-4.06,11.45-6.36,5.39-3.36,10.68-6.87,16.25-9.94.35-.19.71-.39.88-.79,1.02-.87,2.22-1.39,3.48-1.8Z"/>
  <path class="cls-44" d="M116.2,130.49c-1.17-.94-2.45-1.81-2.11-3.62-.63-.85-.59-1.89-.46-2.78.86-5.97,2.04-11.88,4.5-17.44.13-.3.36-.53.59-.76.12-.07.24-.13.36-.2,1.21,2.48.04,4.94-.09,7.4-.07,1.41-.74,2.78-.36,4.24-.23,2.19-1.76,4.07-1.46,6.38.31,2.35.72,4.72-.97,6.78Z"/>
  <path class="cls-39" d="M117.28,151.56c-.08.07-.14.15-.17.24-1.1.29-1.41-.9-2.27-1.19-.6.6-.2,1.51-.62,2.17-.62.97-1.09.73-1.54-.13-.81-3.5-.94-7.04-.78-10.6.04-.88.14-1.79,1.03-2.33.26.05.9,1.21.66-.14-.23-1.37-.4-2.71-.23-4.48,1.48,1.4,2.91,2.33,2.5,4.6-.19,1.05.29,2.22.46,3.33.32,2.84.64,5.69.96,8.53Z"/>
  <path class="cls-89" d="M32.5,79.81c.6.85-.25.93-.67,1.16-7.51,4.13-14.39,9.26-21.76,13.6-.21.12-.4.28-.6.41-1.73,1.13-3.15,2.99-5.61,2.35-.39.11-.77.26-1.86-.54,5.85-1.33,10.14-4.57,14.6-7.83-1.22-.52-2.03.39-3.04.37,1.97-2.41,5.6-.85,7.66-3.51-1.23-.06-2.23-.1-3.23-.15-.07-.21-.14-.41-.2-.62,5.66.14,10.04-2.91,14.71-5.25Z"/>
  <path class="cls-34" d="M113.4,80.88c4.77,5.68,8.25,11.93,8.6,19.56-.24.07-.47.03-.69-.1-1.02-.95-1.09-2.32-1.5-3.53-.93-2.69-1.99-5.31-3.47-7.74-.25-.5-.39-1.05-.81-1.46-.83-1.23-2.07-2.15-2.74-3.51-.18-.49-.18-.99-.18-1.5.04-.68.08-1.35.79-1.72Z"/>
  <path class="cls-63" d="M99.86,64.39c1.72-.29,3.27.44,4.87.86,2.02,1.25,4.08,2.45,4.9,4.9,1.3,1.16,1.83,2.7,2.15,4.35,0,.61-.15,1.17-.89,1.19-.61.02-.79-.45-.82-.97-1.63-5.19-5.43-8.24-10.21-10.32Z"/>
  <path class="cls-38" d="M130.15,174.22c4.84.31,9.46,1.44,13.73,3.79.98,2.89.42,4.39-2.42,6.48-.3.68-.75.92-1.43.49-2.48-.04-3.42-2.23-4.98-3.55-.1-.22-.27-.44-.27-.66,0-.47.35-.51.6-.25.61.63,1.21,1.28,1.73,1.99.99,1.35,2.31,1.76,3.82,1.24,1.57-.55,2.43-1.79,2.56-3.47.13-1.76-1.05-2.35-2.48-2.7-3.38.42-6.37-1.27-9.57-1.82-.84-.14-1.77-.28-2.19-1.25.16-.53.5-.48.89-.29Z"/>
  <path class="cls-44" d="M121.57,100.34c.14.05.28.08.43.09.18,2.39-1.6,3.69-2.92,5.25,0,0,.08-.04.08-.04-.81,1.05-1.67,2.03-2.92,2.58-1.88,1.1-3.92,1.8-6,2.39-.73.21-1.52.65-2.28,0-.34-.11-.89-.23-.31-.65.53-.39,1.21-.58,1.82-.86.45-.89,1.38-1.02,2.17-1.36,3.64-1.51,7.28-3,9.18-6.85.14-.29.45-.45.76-.56Z"/>
  <path class="cls-75" d="M1.51,99.67c-.13,1.53-1.2,3-.23,4.58,1.1,2.23,2.58,1.38,3.9.36,1.06-.83,1.87-1.97,2.93-2.82.59-.47,1.14-1.44,2.2-.84v.21c-1.32.75-2.56,1.65-3.39,2.93-1,1.55-2.61,1.95-4.14,2.55,0,0-.15,0-.15,0l-.13-.07c-.38-.2-.96.06-1.17-.51-1.82-3.18-1.78-4.41.18-6.39Z"/>
  <path class="cls-33" d="M134.86,152.9c-.48-1.66.11-3.67-1.63-4.91h0c-2.53-3.1-5.61-5.68-8.23-8.69,3.99,3.56,8.81,6.34,10.74,11.81-.29.6-.59,1.19-.88,1.78Z"/>
  <path class="cls-54" d="M162.93,310.32c-4.56,1.19-8.51-.53-12.42-2.44,4.04.58,7.79,3.1,12.11,1.49.1.32.21.63.31.95Z"/>
  <path class="cls-78" d="M92.88,66.97c-.54,2.46-2.15,4.55-2.45,7.09-.74.68.57,2.15-.98,2.52-1.07-2.15-2.27-4.26-2.06-6.79.06-.1.15-.17.26-.19,1.13.97,1.24,2.54,2.1,3.75.89-2.27,1.18-4.74,3.14-6.38Z"/>
  <path class="cls-25" d="M111.56,74.75c-.65-1.53-1.29-3.06-1.94-4.59,1.26-.09,1.23,1.09,1.57,1.77,1.42,2.8,1.99,5.84,2.2,8.95-.05.65-.1,1.31-.15,1.96-.26.12-.49.08-.69-.13-1.18-1.92-.7-4.16-1.19-6.21-.13-.6.33-1.15.19-1.75Z"/>
  <path class="cls-52" d="M41.3,85.2c-.57-.24-.56-.76-.5-1.22.38-2.83-.73-4.99-2.93-6.68.21-.12.41-.24.62-.36,3.15,2,3.21,5.06,2.81,8.27Z"/>
  <path class="cls-69" d="M75.85,252.02c2.08,1.02,4,.11,5.99-.41.78-.21,1.41-1.13,2.37-.58.1.2.07.38-.09.54-2.66,1.18-5.41,1.87-8.35,1.49.03-.35.05-.69.08-1.04Z"/>
  <path class="cls-85" d="M140.04,184.98c.48-.16.95-.33,1.43-.49.82,1.06,1.64,2.12,2.72,3.52-2.28-.31-3-1.97-4.15-3.03Z"/>
  <path class="cls-14" d="M117.14,245.83c2.85.89,5.66,2.1,8.72.86.04.31.08.62.12.93-3.01.41-5.95.31-8.68-1.25-.14-.09-.21-.2-.21-.33,0-.14.02-.21.06-.21Z"/>
  <path class="cls-62" d="M55.48,278.39c.38.71,1.55-.08,1.78.93-1.63-.3-3.06.58-4.99,1.05,1.01-1.38,2.04-1.79,3.21-1.98Z"/>
  <path class="cls-98" d="M135.68,169.33c-.88-.83.44-.91.48-1.42,1.08-.1,1.93.36,2.99.93-1.31.92-2.5-.41-3.47.49Z"/>
  <path class="cls-58" d="M128.43,134.85c.3-.96,1.45-.29,1.89-.99.82-.15,1.56-.06,2.46.99h-4.35Z"/>
  <path class="cls-23" d="M133.43,255.84c.43-.49.17-.9-.17-1.3,1.16.17,2.32.33,3.47.5,0,.12,0,.25-.01.37-1.1.14-2.2.28-3.3.42Z"/>
  <path class="cls-102" d="M1.33,106.06c.39.17.78.34,1.17.51-1.02.71-1.06,2.07-2.03,3.14.12-1.43.23-2.6.86-3.65Z"/>
  <path class="cls-64" d="M140.61,173.69q-.8-.75.81-1.32c.53-.08.94.09,1.24.61-.48.8-1.6-.15-2.04.71Z"/>
  <path class="cls-102" d="M63.16,329.96c-4.44-1.08-8.87-2.18-13.31-3.23-1.4-.33-2.83-.58-4.25-.84-2.62-.48-3.1-1.25-2.36-3.81.39-1.34,1.02-2.52,2.06-3.47,4.56.23,8.49-1.92,12.62-3.35,3.95,4.31,9.48,5.47,14.67,7.29-.24.83-.89,1.13-1.65,1.18-2.82.19-4.45,1.93-5.72,4.23-.47.84-.65,2.1-2.07,2.01Z"/>
  <path class="cls-50" d="M77.36,323.15c2.69.64,4.8,2.17,6.5,4.29,1.39,1.73,1.15,3.13-.93,3.66-5.27,1.35-10.6,1.63-15.87-.14-1.03-2.09-.63-2.83,1.62-2.65,1.92.15,3.84.38,5.95.16-.2-1.4-1.29-2.73-.38-4.14.51-.8,1.31-.84,2.13-.84.33-.1.66-.19.97-.34Z"/>
  <path class="cls-21" d="M140.54,325.06c-4.6,1.57-9.31,1.64-14.03.88-1.76-.28-2.3-1.6-1.31-3.3,1.4-2.37,3.31-4.1,5.97-4.95,3.23-.38,4.79.83,3.36,4.89,1.74.32,3.34-.35,4.97-.43.64-.03,1.27-.22,1.92-.18.65.04,1.39.09,1.57.85.18.77-.49,1.1-1.04,1.46-.45.3-1.16.15-1.42.79Z"/>
  <path class="cls-88" d="M140.54,325.06c-.64-.23-.82-.59-.08-.86.79-.29,1.76-.22,2.19-1.44-1.94-.29-3.66.42-5.43.53-1.04.07-2.07.18-3.1.25-.93.06-1.08-.35-.74-1.17,1.36-3.37,1.34-3.37-2.19-4.68.15-.12.31-.24.46-.37,2.39.19,4.75-.51,7.15-.11,3.08.51,5.98,3.37,6.21,6.32-1.44.64-2.89,1.27-4.47,1.53Z"/>
  <path class="cls-88" d="M76.84,323.68c-2.77.9-2.96,1.29-1.38,4.08.72,1.27.6,1.74-.9,1.64-1.92-.13-3.87.26-5.78-.32-.6-.18-1.36-.43-1.81.15-.52.66.47.86.6,1.34.02.08-.34.27-.52.41-.9-.03-1.81-.03-2.59-.6-.41-2.85,1.48-4.65,3.44-5.83,2.69-1.61,5.81-2.13,8.94-.86Z"/>
  <path class="cls-22" d="M76.84,323.68c-1.54-.02-3.08-.15-4.61-.04-4.12.29-6.79,2.66-7.77,6.73-.57.29-.98.08-1.31-.41.34-.54.76-1.04,1-1.61,1.59-3.73,4.57-5.39,8.43-5.8,1.59.2,3.18.39,4.77.59-.17.18-.34.36-.52.53Z"/>
  <path class="cls-13" d="M145.01,323.54c-1.77-4.58-4.82-6.4-9.66-5.94-1.22.12-2.53.61-3.71-.27,1.36-.24,2.73-.47,4.09-.71,5.19-.62,8.06,2.46,10.36,6.46-.19.58-.6.6-1.09.45Z"/>
  <path class="cls-90" d="M57.92,315.26c-3.96,2.06-7.9,4.15-12.62,3.35.03-.3.06-.59.09-.89,3.75,1.08,10.4-1.22,13.05-4.51.84.94-.35,1.36-.53,2.05Z"/>
  <path class="cls-105" d="M77.81,215.96c.86.76.25,1.33-.14,2.06-.57,1.05-1.68,1.74-1.94,2.97-1.14,2.56-2.9,4.43-5.84,4.61-2.73.17-5.47.07-8.21.02-1.87-.03-3.38-.86-4.77-2.07.34.79.63,1.53-.03,2.25-2.62-2.39-4.81-5.16-6.83-8.05-2.3-3.29-5.07-6.26-6.78-9.95.89-.65,1.48-1.31,1.05-2.61-.67-2.03-.47-4.16-.26-6.26.34-3.47-.34-4.25-3.68-4.6-1.5-.16-3.05-.31-4.41-1.12-2.53-6.01-4.05-12.18-2.87-18.76.54-3.02,2.83-5.21,3.86-8,.6-.1.96.29,1.1.74.98,3.32,2.52,6.47,3.08,9.92-.15,3.69-1.43,7.19-1.88,10.83.19,1.55.16,3.21,2.04,3.86,3.27,1.35,4.55.79,5.74-2.55.39-1.11,1.04-1.9,2.25-2.38.01,1.02-.87,1.26-1.09,1.93-.39,1.19.03,2.13.75,3.11.99,1.36,1.79,2.86,2.79,4.23-.97-1.36-1.8-2.82-2.74-4.2-.6-.88-1.52-2.05-.55-2.66,1.07-.68,1.73.8,2.26,1.64,1.74,2.82,3.6,5.55,5.7,8.12,3.31,4.07,6.68,8.06,10.72,11.47,2.47,2.08,5.17,3.18,8.3,3.49,1.09.3,2.01.81,2.41,1.95Z"/>
  <path class="cls-1" d="M40.37,177.17c-.63-3.73-2.52-7.07-3.41-10.72-.16-.33-.31-.66-.47-.99-1.03-.84-1.15-2.06-1.42-3.25-1.81-8-1.53-16.06-.38-24.08.79-5.52,2.26-10.92,4.62-16.02.34-.75.76-1.43,1.51-1.84.98.33,1.97.65,2.95.98.49,1.26-.15,2.41-.52,3.5-2.89,8.42-3.69,17.13-3.57,25.93.05,3.51.23,7.07.93,10.54.08.19.2.37.37.49,1.86-.61,2.65.17,2.4,1.98-.55,4.08-1.01,8.17-1.86,12.2-.13.6-.24,1.33-1.16,1.26Z"/>
  <path class="cls-9" d="M40.82,120.28c-1.23,4.16-3.05,8.1-4.11,12.34-1.48,5.93-1.85,11.97-2.09,17.98-.19,4.98,1.19,9.9,1.87,14.86-3.4-.22-5.22-2.41-5.86-7.04-.91-6.59-.67-13.15.37-19.7.31-1.98.53-3.98.73-5.98.54-5.38,3.73-9.28,7.21-13.03.63.19,1.25.38,1.88.57Z"/>
  <path class="cls-57" d="M56.88,225.81c-.12-1.65-1.37-2.87-1.62-4.76,2.7,3.63,6.4,3.7,10.38,3.92,4.21.23,7.38-.99,10.09-3.98.19.13.39.26.58.39-.36,4.43-1.84,8.47-4.48,12.01-1.3,1.75-3.22,1.69-5.03.75-3.93-2.03-7.11-4.97-9.92-8.34Z"/>
  <path class="cls-57" d="M35.97,193.22c1.09-.32,2.15-.58,3.25.11.44.28,1.07.3,1.63.33.97.05,2.1-1.07,2.87.18.88,1.42,1.62,2.9,1.28,4.76-.44,2.37-.7,4.8.36,7.12.31.68.56,1.45.12,2.08-.65.93-1.47-.07-2.21,0-1-2.18-2.78-3.94-3.41-6.32-1.05-2.15-1.08-4.86-3.4-6.32-.33-.61-.54-1.24-.48-1.95Z"/>
  <path class="cls-105" d="M36.46,195.16c1.43-.03,2.33.65,2.43,2.09.1,1.47,1.58,2.61.97,4.23-1.46-1.93-2.24-4.23-3.4-6.32Z"/>
  <path class="cls-27" d="M126.21,251.07c5.18,4.48,9.55,9.64,13.98,14.78,8.81,10.25,13.94,22.47,19.15,34.67.66,1.55,1.16,3.19,1.55,4.84.51,2.14-.21,2.93-2.37,2.57-2.23-.38-4.43-.91-6.51-1.85-.45-.21-1.03-.35-.98-.91.06-.64.7-.57,1.16-.56,1.29.04,2.61-.02,3.86.24,1.86.39,2.19-.25,1.71-1.91-1.44-4.99-3.51-9.73-5.6-14.46-2.66-6-5.71-11.82-9.65-17.07-4.17-5.56-8.77-10.78-13.64-15.75-1.25-1.27-2.71-2.5-2.66-4.6Z"/>
  <path class="cls-100" d="M57.82,119.3c.2-.81-.23-1.75.5-2.46,1.21-3.53,2.47-4.31,6.16-3.57,5.21,1.05,10.43,2.05,15.76,2.25.89.03,1.77.17,2.41.91,1.83,2.1,4.56,2.83,6.78,4.36,1.11.77,2.43-.26,3.62-.72,1.81-.71,3.52-1.98,5.66-1.31,3.1,2.18,5.1,5.4,7.65,8.1.38.4.77.8,1.15,1.19.42,2.14-1.34,2.57-2.66,3.1-4.3,1.74-8.84,2.55-13.43,3.13-7.72.98-15.31.27-22.86-1.5-3.07-.72-5.74-2.11-8.14-4.12-3.04-2.54-3.52-5.75-2.59-9.37Z"/>
  <path class="cls-18" d="M103.61,103.25c-.98,2.87-2.97,5.04-5.05,7.13-.31.32-.85.59-1.28.58-4.84-.12-9.84,1.32-14.4-1.5-.79-.49-2.02-.76-2.49-.04-1.79,2.76-4.27,1.44-6.52,1.33-4.92-.24-9.7-1.45-14.55-2.17-.66-1.63.75-1.7,1.63-1.99,1.37-.45,2.84-.65,4.19-1.19,1.98-.8,2.24-1.92.76-3.48-1.27-1.35-2.72-2.53-3.92-3.95-2.53-3.01-2.84-5.48-.98-8.89.89-1.62,2.04-3.1,3.39-4.37.76-.71,1.59-1.42,2.79-1.02.74.82.81,1.89,1.1,2.89.94,3.22,2.23,6.21,5.14,8.22.56.39,1.28.8,1.03,1.73-1.4,1.08-3.15,1.15-4.75,1.67-2.59-1.11-3.02-3.71-3.99-5.44.65,2.42,2.44,4.59,4.61,6.5-.15,1.29.77,1.87,1.67,2.4,3.32,1.95,7.67.75,9.67-2.63,3.71-3.35,5.73-7.7,7.29-12.32.23-.67.26-1.45.86-1.97,1.37-.34,1.6.77,2,1.61,1.21,2.56,2.64,4.95,4.52,7.12,1.79,2.07,3.6,3.88,6.41,4.34.48.08.89.38.94.96.12.3-1,.3-.14.88,1.11.74,2.59.64,3.53,1.68,0,.72-.52.67-1.01.71-1.74.14-3.24.84-4.61,1.89-1.17.33-1.49,1.94-2.88,1.94-3.3-1.58-5.52-1.24-8.34,1.28-.24.21-.54.34-.85.41-3.9-.97-7.79-2-11.88-1.91-1.96.05-3.84.44-5.1.68,2.06-.75,4.85-.83,7.61-.61,2.8.22,5.55.82,8.28,1.61,1.69.49,3.43.85,5.06,1.53,1.65.69,3.08.16,4.11-1.12,1.07-1.34,2.39-2.4,3.57-3.62.91-.11,1.37-1.57,2.55-.86Z"/>
  <path class="cls-10" d="M66.98,83.81c-3.4,1.96-5.45,4.96-6.4,8.69-.52,2.03.84,3.54,1.99,4.93,1.18,1.42,2.67,2.57,3.98,3.88.72.72,1.69,1.42,1.33,2.64-.36,1.23-1.12,2.06-2.53,2.28-1.34.21-2.67.59-3.97.99-.79.25-1.86.18-2.05,1.36-.8.63-.31,1.28-.02,1.92-.09.1-.19.19-.28.29-5.4.43-9.2-3.08-8.77-8.31.42-5.16,2.09-9.93,4.99-14.24.64-.95,1.37-1.81,2.6-2q4.09-.08,4.53-4.54c.14-.29.23-.61.42-.87,1.05-1.46,3.46-2.49,4.34-1.88.94.66.85,3.23-.17,4.85Z"/>
  <path class="cls-56" d="M57.82,119.3c.06,7.01,4.28,11.51,11.27,12.71,5.25.91,10.46,2.06,15.81,1.82,6.53-.29,13.02-.99,19.22-3.31,1.35-.51,2.76-.95,3.38-2.47.92,1.58,2.79,2.41,3.35,4.27-.76,1.26-2.13,1.45-3.35,1.7-8.32,1.72-16.75,2.77-25.23,2.74-5.71-.02-11.45-.24-17.14-1.17-7.06-1.14-13.92-2.92-20.56-5.56-2.05-1.88-1.96-5.12.22-7.79.51-.24,1.1-.63,1.32.27.13.54.06,1.13.07,1.69.04,3.03,1.53,4.26,4.53,3.71,3.69-.67,6.14-3.26,6.65-7.04.07-.56,0-1.14.47-1.57Z"/>
  <path class="cls-53" d="M121.57,100.34c-.76,3.32-3.27,5.08-6.02,6.52-1.92,1-3.91,1.9-6.09,2.25-2.8-.19-3.34-1.26-1.46-3.86,1.34-1.84,1-2.5-1.01-2.88.37-.79,1.15-.99,1.83-.9,2.76.34,5.53-.41,8.28.09-2.52-.5-5.05.24-7.56-.08-.55-1.27.67-1.4,1.27-1.83,1.69-1.19,2.9-2.57,2.56-4.81.96-2.16,1.58-4.52,3.5-6.12,2.46,3.51,3.79,7.48,4.7,11.62Z"/>
  <path class="cls-100" d="M112.37,123.23c-.33-.08-.19-1.13-.41-.6-.76,1.86-1.82.75-2.46.28-2.22-1.63-3.66-4.01-5.41-6.09-.61-.73-.37-1.29.48-1.68,1.33-.6,2.14-1.65,2.45-3.08.9-.7,1.9-1.21,2.99-1.56,2.65-.85,4.35.53,3.81,3.28-.34,1.71-.38,3.36.09,5.03-.17,1.59.46,3.46-1.54,4.41Z"/>
  <path class="cls-47" d="M133.23,147.99c.3,1.09.56,2.18.53,3.33-.03,1.19-.1,2.36-1.38,2.84-1.34.49-2.18-.48-2.78-1.43-2.04-3.21-4.4-6.17-6.92-9.02-6.04-6.83-11.98-13.75-17.96-20.63-.13-.15-.18-.38-.51-1.08,4.9,3.88,9.01,7.83,12.76,12.1,3.62,4.12,6.94,8.5,10.49,12.67,1.12,1.31,1.65,2.96,2.77,4.22.39.44.72,1.25,1.51.9.61-.27.41-.97.51-1.52.15-.86-.51-2.06.96-2.38,0,0,0,0,0,0Z"/>
  <path class="cls-31" d="M112.93,139.73c-.32,4.55.04,9.08.48,13.61.56.43.8,1.04.99,1.69-.02,1.87.7,3.62.89,5.46.12,1.14.24,2.26-.55,3.23-.3.33-.67.55-1.12.61-.43-.08-.9-.05-1.21-.45-1.97-4.1-1.99-8.55-2.24-12.93-.2-3.52.06-7.06-.23-10.59.31-1.48.22-2.99.19-4.48-.02-1,.2-1.87.78-2.67.2-.23.46-.32.76-.28.42,2.26.83,4.53,1.25,6.79Z"/>
  <path class="cls-80" d="M111.68,132.94c-.09.06-.18.08-.29.07-.89,1.35-2.35,1.67-3.77,1.95-11.2,2.23-22.46,3.34-33.93,2.45-7.78-.6-15.35-1.99-22.84-4.06-1.41-.39-2.76-.91-4.09-1.48-1.02-.39-2.11-.68-2.65-1.78-.01-.45.11-.78.67-.66,21.71,8.07,43.76,8.34,66.06,2.89.36.1.74.17.84.62Z"/>
  <path class="cls-20" d="M98.7,118.75c-2.03.19-3.95.78-5.73,1.76-1.86,1.03-3.59,1.24-5.31-.36-1.52-1.41-3.96-1.43-5.18-3.33-.56-2.1-2.3-2.3-4.02-2.39-3.3-.17-6.61-.11-9.91-.51-2.65-.33-5.22-1.02-7.86-1.34-.72-.09-1.4-.39-1.87-1.02-.21-.5,0-.76.49-.87,0,0,0-.18,0-.18,7.36,2.04,14.88,2.5,22.42,2.42.45-1.05-.82-1-.76-1.73.2-.04.47-.18.64-.1,1.37.69,2.95,1.17,4.01,2.19,2.13,2.04,4.33,2.05,6.82,1.03.42-.17.88-.47,1.38-.16-2.28,2-5.16,2.1-7.58.42-.86-.59-2.28-2.02-2.76-1.18-.89,1.54,1.34,1.46,2.08,2.24,2.6,2.76,5.47,1.09,8.77-.03-2.77,2.56-5.77,2.8-8.43,1.18-.74-.45-1.79-1.72-2.41-.7-.68,1.14,1.03,1.24,1.71,1.8,3.14,2.58,6.38,3.32,10.03.9.95-.63,2.32-.91,3.48-.86,1.48.05-.01.54-.02.84Z"/>
  <path class="cls-15" d="M112.37,123.23c.72-1.4.61-2.96.88-4.44-.2-3.14.79-6.09,1.5-9.08.19-.81.73-1.41,1.36-1.91.85-.95,1.88-1.64,3.04-2.15-2.44,6.89-4.34,13.91-5.07,21.21-.32.2-.31,1.1-.97.53-.46-.39-1.33-1.12-.93-1.46,1.14-.96-.25-1.86.18-2.71Z"/>
  <path class="cls-84" d="M116.12,107.79c-.96,3.66-1.91,7.33-2.87,10.99-.81-1.51-.5-3.12-.2-4.65.23-1.2.23-2.27-.64-3.11-.97-.94-1.95,0-2.9.22-.85.2-1.66.54-2.48.82.31-.48.62-.97.93-1.45,2.72-.94,5.44-1.88,8.16-2.82Z"/>
  <path class="cls-99" d="M109.49,101.13c2.02-.04,4.05-.23,6.05-.07,1.31.1.91-1.1,1.63-1.56.76,1.14.02,2.81,1.48,3.66-3.85-2.58-7.79-1.1-11.65-.79-1.25-.17-2.37.16-3.39.88-1-.07-1.51.98-2.44,1.06-.15-.11-.2-.23-.16-.35.04-.12.09-.18.13-.18,1.65-1.49,3.77-1.82,5.82-2.33.73-.98,1.59-.96,2.53-.32Z"/>
  <path class="cls-21" d="M76.24,256.57c-.66,2.74-2.36,4.54-3.82,6.4-7.17,9.12-13.55,18.67-17.42,29.73-2.08,5.95-3.9,11.96-5.29,18.1-.38,1.66.3,2.36,1.94,1.92,1.65-.45,3.26-.51,5.44-.06-3.03,2.08-5.95,3.04-9.02,3.52-1.49.23-1.54-1.01-1.35-1.95.56-2.75,1.15-5.51,1.93-8.2,2.76-9.56,5.96-19.02,10.98-27.63,4.1-7.03,8.9-13.65,14.06-19.98.58-.71,1.15-1.58,2.55-1.85Z"/>
  <path class="cls-100" d="M85.61,214.24c.15-.16.3-.32.46-.49-.21-1.18.24-2.44-.47-3.55v.02c-.93-1.53-2.55-1.94-4.11-2.29-1.81-.41-3.04.78-3.62,3.2-1.16.54-2.09-.07-2.88-.73-6.72-5.68-12.01-12.44-15.24-20.68-1.38-3.53-.58-4.84,3.12-5.22,7-.72,14-1.5,20.94-2.67,5.42-.92,10.85-1.84,16.03-3.78,1.22-.45,2.47-.77,3.77-.88,3.05.57,6.1.75,9.15-.03,1.15-.85,2.28-.46,3.41.04,1.01,1.03,1.43,2.44,1.64,3.71,1.66,10.09,1.32,19.89-5.11,28.52-4.15,5.56-9.94,8.11-16.73,8.48-2.9.16-5.84.26-8.63-.87-1.25-.51-2.45-1.07-1.73-2.81Z"/>
  <path class="cls-100" d="M103.58,164.58c-1.78-1.27-3.6-1.29-5.62-.49-1.11.44-2.16,1.46-3.55.87-1.92-1.26-1.99-3.29-1.7-5.15.39-2.49-.75-3.92-2.74-5.3-.26,1.04.43,1.74.52,2.54.18,1.62.85,3.42-1.36,4.29-1.4-.29-2.17-1.35-2.73-2.5-.66-1.36-1.5-1.44-2.7-.83-.85.43-1.78.73-2.66,1.09-.88.36-1.52.89-1.35,1.97-.02.23-.07.45-.14.67-.69,1.07-.53,2.07.17,3.09.95,1.39,1.65,2.89,1.89,4.58,0,.37-.15.67-.42.92-.83.02-1.66.04-2.4.49-5.35,1.68-10.72,1.18-16.05.03-2.16-.47-3.46-2.32-4.61-4.11-3.5-5.45-4.43-11.56-4.43-17.88,0-.65.03-1.3.06-1.94,1.13-5.32,1.56-5.69,6.65-4.52,14.28,3.3,28.25,1.77,42.04-2.55,6.18-1.94,8.01-.69,7.91,5.88-.07,4.27.28,8.56-.46,12.8-.21,1.2-.52,2.37-1.04,3.48-1.15,2.42-2.54,3.09-5.27,2.58Z"/>
  <path class="cls-4" d="M104.05,177.65c-9.13,3.43-18.68,5.01-28.28,6.3-4.63.63-9.3,1-13.95,1.48-1.98.21-2.35,1.04-1.62,3.25,1.75,5.33,5.05,9.72,8.39,14.09,2.41,3.15,5.25,5.83,8.58,7.99.16.11.44.04.67.06.91-.49.51.61.91.75-.19,1.49.71,3.21-.93,4.4-.8-.46-1.61-.92-2.41-1.38-1.92-.48-3.57-1.46-5.03-2.77-6.99-6.27-12.78-13.45-16.57-22.12-.32-.73-.78-1.45-.33-2.29,1.2-2,3.51-2.21,5.33-3.11,2.97-1.49,6.18-2.49,9.86-3.91-.65,1.13-.95,1.65-1.35,2.35.39,0,.64.08.8-.01,2.24-1.29,3.83-3.47,6.24-4.53.5-.22,1.01-.7,1.57-.29.65.48-.37.98.13,1.82,2.75-1.95,4.98-4.87,8.68-5.06.92-.92,2-.95,3.1-.47,3.22,1.42,6.48,1.49,9.81.45.69-.21,1.41-.35,2.08.11,1.42-.19,2.61.12,3.36,1.46.78.17,1.29.53.99,1.44Z"/>
  <path class="cls-56" d="M54.45,147.01c.02,5.93.69,11.71,3.2,17.22,2.09,4.59,5.48,6.72,10.45,6.63,3.56-.07,7.12-.02,10.68-.03-2.45,2.36-5.76,2.48-8.78,3.35-3.37,1.59-6.97,1.27-10.52,1.28-2.91,0-5.82-.06-8.73.01-2.02.05-3.18-.87-3.8-2.7-.4-1.16-.73-2.34-.67-3.56.23-5.18.72-10.32,2.33-15.29.37-1.16.93-2.24,1.78-3.14.7-.58,1.1-1.38,1.54-2.15.42-.6.4-1.47,1.13-1.89.52-.22.99-.12,1.4.26Z"/>
  <path class="cls-51" d="M85.61,214.24c-.11,1.07.38,1.56,1.43,1.86,12.83,3.66,25.73-2.27,29.28-15.95,1.87-7.19,2.03-14.34.02-21.51-.13-.46-.12-.96-.17-1.44,1.12.37,2.22.86,3.44.47.31.36.26.68-.12.95-.41.22-.83.44-1.55.83.94.1,1.6.17,2.26.25.65.55.99,1.26,1.12,2.09,1.62,10.57-.03,20.47-6.12,29.42-1.26,1.85-3.1,3.29-4.05,5.4-3.82,3.36-8.48,4.42-13.35,4.68-2.18.11-4.53.64-6.5-.96-2.04-.62-4.04-1.44-6.23-1.4.26-1.55-.5-3.22.53-4.68Z"/>
  <path class="cls-32" d="M54.45,147.01c-.47,0-.95,0-1.42,0-.27-.2-.52-.47-.48-.79.3-2.43-.07-4.63-1.92-6.43-.28-.27-.3-.73-.16-1.15.44-.59,1.04-.83,1.76-.84,2.84.67,5.48,1.93,8.25,2.81,4.97,1.59,10.09,1.51,15.12,1.47,7.35-.06,14.68-.85,21.86-2.69,3.22-.83,6.36-1.87,9.48-2.99,4.26-1.53,3.83-.79,3.69,2.36-.02.48-.07.97.15,1.43-.05,7.95.23,15.88,2.09,23.66-1.75,1.8-3.92,2.73-6.36,3.11-.98-.79-1.95-1.58-2.93-2.38,2.55-.29,4.47-1.41,4.92-4.13.99-6.03,2.04-12.05.75-18.19-.55-2.61-1.22-3.09-4.42-2.18-4.73,1.36-9.41,2.93-14.28,3.7-8.06,1.28-16.13,2-24.29.54-2.68-.48-5.39-.93-8.08-1.42-2.07-.38-3.37-.34-3.28,2.23.02.62-.28,1.25-.44,1.88Z"/>
  <path class="cls-11" d="M53.46,187.4c3.71,8.18,8.57,15.54,15.13,21.75,2.12,2.01,4.47,3.7,6.81,5.43-4.74.28-8.03-2.48-11.09-5.49-5.48-5.38-10.41-11.23-14.3-17.9-.35-.6-.8-1.15-1.41-1.6.79,3.24,3.27,5.53,4.53,8.53-2.32-1.73-3.23-4.55-5.01-6.69-.66-.8-.75-1.77.07-2.62,1.17-.08,2.05-.84,3.06-1.29.75-.34,1.44-.72,2.22-.11Z"/>
  <path class="cls-41" d="M99.7,174.74c-4.14,1.96-8.31,2.28-12.45.05-.89-.48-1.68-.26-2.53-.14.06-1.09.99-1.16,1.72-1.41,3.82-1.3,7.64-2.61,11.48-3.85,1.27-.41,2.8-.51,1.05-2.76,3.67,2.89,7.69,2.63,11.81,2.95-1.53.95-2.74,1.03-5.37.52-3.16-.62-3.31-.64-3.71,2.48-.18,1.42-1.29,1.49-1.98,2.16Z"/>
  <path class="cls-46" d="M81.18,170.34c-.01-.32-.02-.64-.04-.96-.12-1.27.53-2.63-.55-3.8-.32-.35-.18-1.02.35-1.21.87-.32,1.73-.78,2.76-.37,1.8.71,4.89-1.02,5.29-2.9,1.41-1.28,1.23-2.8.64-4.36-.23-.6-.57-1.15-.8-1.74-.27-.69-.5-1.53.26-1.96.72-.42,1.09.44,1.53.84,1.92,1.71,3.87,3.32,2.8,6.45-.53,1.57.47,3.13.98,4.65-.81,1.28-2.29,1.45-3.51,1.94-3.19,1.27-6.47,2.3-9.71,3.43Z"/>
  <path class="cls-70" d="M114.23,163.56c.74-.74.51-1.58.33-2.46-.42-2.05-1-4.08-.86-6.2-.15-.88.4-.75.75-.4.74.74,1.18,1.68,1.32,2.73,1.16,1.45,2.97,2.24,3.94,3.88,2.18,3.07,2.85,6.75,4.11,10.2.16.45.09.96-.29,1.34-1.8-.49-3.72-.49-5.41-1.36-1.31-.58-1.78-1.78-2.18-3-.53-1.59-1.17-3.14-1.7-4.73Z"/>
  <path class="cls-66" d="M110.47,216.4c-.37-.59.14-.86.45-1.19,9.08-9.53,11.29-21,9.51-33.61-.09-.63-.15-1.27-.23-1.9.74.06,1.51-.38,2.21.15,1.94,9.79.62,19.12-4.03,27.97-.9,1.27-1.81,2.54-2.71,3.82-.38.89-.73,1.79-1.83,2.03-.32.29-.63.57-.95.86-.36,1.21-.88,2.21-2.43,1.88Z"/>
  <path class="cls-59" d="M129.44,174.21c2.91,1.23,6.08,1.54,9.07,2.48.84.26,1.67.58,2.5.87.23.33.44.67.68.98.33.43.9.8.48,1.45-.4.61-.98.36-1.53.21-3.95-1.06-7.96-1.94-11.84-3.2-5.33-1.73-10.75-3.19-15.83-5.79,3.41.72,6.83,1.41,10.23,2.18.95.21,1.85.64,2.75-.06,1.48-.96,2.67-.79,3.49.87Z"/>
  <path class="cls-24" d="M68.05,175.28c-5.06,2.4-10.48,3.87-15.63,6.05-.69.29-1.24.03-1.81-.3-.93-.33-1.13-1.19-1.42-1.98-.93-2.91-.54-3.48,2.36-3.57,1.84-.05,3.69.16,5.51-.23,3.22-.14,6.46.22,9.67-.38.5-.09.96-.02,1.31.41Z"/>
  <path class="cls-37" d="M104.05,177.65c-.33-.48-.66-.96-.99-1.44.1-.51.35-1.02.91-.93,2.95.5,6.13,0,8.79,1.88.28.62.99,1.46-.47,1.4-1.03-.04-2.16-1.06-2.92.47-1.51-1.46-3.98.76-5.32-1.37Z"/>
  <path class="cls-55" d="M114.23,163.56c.83-.07,1,.55,1.24,1.15.86,2.2,1.76,4.38,2.65,6.57-1.95.26-3.19-.3-3.53-2.51-.21-1.4-.88-2.73-1.35-4.09-.09-.43.35-.43.53-.64.15-.16.31-.33.46-.49Z"/>
  <path class="cls-83" d="M68.05,175.28c-3.73.18-7.46.36-11.19.54-2.64.39-5.32-.17-7.95.3-.43.08-.85.14-.9-.41-.04-.45.27-.72.75-.73,1.13-.02,2.26.03,3.39-.01,2.41-.1,4.83.26,7.22-.2,3.54-.2,7.08-.4,10.63-.6.15.15.8.22.26.5-.66.34-1.46.41-2.2.6Z"/>
  <path class="cls-101" d="M41.3,191.81c-1.64-.22-2.2-1-2.4-3.44-.25-1.46.51-2.53,1.6-3.22,2.16-1.38,4.46-2.46,7.11-2.53.37.17.66.4.54.88-1.85.74-3.74,1.39-5.53,2.25-3.44,1.64-3.69,2.96-1.32,6.06Z"/>
  <path class="cls-96" d="M48.15,183.5c-.19-.19-.37-.38-.56-.56-.49-.47-.7-1.07-.72-1.73-.03-1.04-.23-2.24.7-2.92,1.08-.8,1.61.68,2.48.9.19.62.39,1.23.58,1.85.06,1.71-1.49,1.8-2.47,2.47Z"/>
  <path class="cls-28" d="M113.77,164.05c-.18.21-.35.42-.53.64-1.61.76-3.21,1.54-4.84,2.25-.59.25-1.26.97-1.9.02,2.16-.95,4.38-1.8,6.37-3.11.3.07.6.13.9.2Z"/>
  <path class="cls-65" d="M119.49,178.62c.04-.32.08-.64.12-.95.71.01,1.44-.03,2.05.7-.68.68-1.33,1.01-2.16.25Z"/>
  <path class="cls-17" d="M31.58,110.4c3.82-8.77,10.21-15.33,17.91-20.74.8-.56,2.16-.9.32-2.08-.77-.5-.55-1.76.15-2.61.08-.04.16-.1.21-.18,1.24,1.36,2.68,1.59,4.42.98,1.17-.42,2.38-.29,3.21.88-3.55,3.47-5.27,7.9-6.21,12.59-1.55,7.81-.75,8.84,7.71,11.44-.2.13-.4.26-.6.39-.29.33-.67.49-1.07.32-2.9-1.24-5.55-.95-7.9,1.25-1.36-.18-.95-1.01-.6-1.75.34-.72,1.07-1.19,1.49-2.29-1.22.24-1.63,1.09-2.24,1.69-1.46,1.45-2.27,3.51-4.19,4.53-2.59-.05-4.42-1.61-6.2-3.35-.43.86.59,1.02.36,1.88-2.21-1.15-4.97-.82-6.77-2.96Z"/>
  <path class="cls-35" d="M44.78,129.42c-.18.19-.37.38-.55.56-.98,7-.66,14.02-.22,21.03.16,1.17.58,2.36-.3,3.46-.14.17-.59.26-.19.72,1.9,2.16.38,3.88-.94,5.43-.61.72-.95,1.9-2.19,1.99l-.08-.1c-1.66-12.96-1.38-25.78,2.69-38.33.33-1.01.73-1.97,1.21-2.91.42.19.5.58.58.97-.31,1.41-.62,2.82-.92,4.24-.24,1.14-.33,2.26.91,2.95Z"/>
  <path class="cls-16" d="M49.57,112.45c1.92-2.72,4.25-3.63,7.31-1.77.51.31,1.22.27,1.84.39,5.27,1.76,10.75,2.14,16.24,2.45,1.62.09,3.25.29,4.85.14,2.55-.23,3.11.99,2.68,3.16-2.19-1.02-4.59-.47-6.88-.76-3.83-.49-7.61-1.17-11.35-2.05-2.32-.55-4.1-.25-4.99,2.23-.16.45-.53.56-.95.59-.31-1.17-.85-2.33-.88-3.5-.06-2.03-1.22-2.02-2.61-1.68-2.31.57-3.52,2.43-4.74,4.25h0c-.82,0-1.65-.02-2.47-.02-.65-1.88.5-2.74,1.94-3.43Z"/>
  <path class="cls-7" d="M44.21,121.27c-1.06,4.03-2.41,7.99-3.14,12.11-1.44,8.14-1.59,16.32-.81,24.53.14,1.52.04,3.06.05,4.59-1.53-3.5-1.15-7.3-1.31-10.92-.42-9.64.76-19.15,3.86-28.35.23-.68.6-1.32.91-1.98.15-.02.29-.02.44.01Z"/>
  <path class="cls-26" d="M49.57,112.45c-.47,1.24-1.66,2.08-1.94,3.43-1.14-.35-2.28-.7-3.43-1.05,1.34-2.61,3.32-4.74,5.27-6.88.52-.57,1.07-.99,1.84-.28.85.77.4,1.3-.12,2.04-.6.86-2.29,1.13-1.62,2.74Z"/>
  <path class="cls-73" d="M50.09,115.9c1.15-.2,2.43-1.04,3.43,0,1.11,1.15.47,2.58.06,3.88-.64,2.01-1.87,3.55-3.78,4.49-.74.37-1.54.54-2.33.19-.56-.25-.87-.74-.8-1.36.1-.88.7-.63,1.26-.54,1.13.17,2.24.24,3.2-.6,1.17-1.01,1.79-2.25,1.86-3.79.1-2.11-2.3-1.04-2.89-2.27,0,0,0,0,0,0Z"/>
  <path class="cls-40" d="M66.98,83.81v-4.68c-1.73.74-3.33,1.16-4.28,2.7-.47.12-.69-.02-.55-.53.14-.63.29-1.25.43-1.88.23-1.04-.15-1.48-1.25-1.44-1.83.06-3.67.02-5.95.02,1.3-.94,2.29-.63,3.2-.61,1.25.03,1.71-.48,1.77-1.69.06-1.34-.57-1.67-1.76-1.59-2.18.15-4.3-.08-6.26-1.36,1.04.12,2.07.24,3.11.36,1.15-.48,2.38-.43,3.59-.57,1.49-.18,2.58.4,2.86,1.96.18,1.02.65,1.69,1.46,2.36,2.09,1.73,2.05,1.8,3.59-.6.26-.41.47-.86,1.07-.84.13.19.27.39.4.58.71.61.26,1.41.35,2.12-.86,4.79-.19,9.33,2.46,13.44,3.77,5.84,11.53,5.55,15.11-.41,1.25-2.08,1.4-4.64,3.09-6.49.27-.07.49,0,.66.22-1.16,5.66-3.46,10.69-7.91,14.56-3.03,2.91-6.59,2.64-10.23,1.67-.96-.25-1.78-.81-2-1.91-2.99-2.18-4.55-5.18-5.04-8.78,1.42,2.56,2.08,5.58,4.66,7.42.82.03,1.56.29,2.3.64,3.25,1.54,6.37,1.21,9.43-.66-2.32-.51-5,.84-6.88-1.49-4.93-2.71-6.68-7.31-7.43-12.5Z"/>
  <path class="cls-29" d="M62.16,81.29c.18.18.36.35.55.53,0,.08,0,.16,0,.24q-.02,4.84-4.91,4.59c-1.57-1.11-3.07-.07-4.55.24-2.83.58-2.97.56-3.07-2.1.25-.88.88-1.42,1.74-1.47,2.39-.13,4.57-.79,6.59-2.5.22,1.28-.63,1.6-1.17,2.09-.66.58-.53,1.33-.38,2.03.18.84.93.73,1.57.79,2.88.25,3.01.13,3.21-2.82.04-.54.28-1.07.42-1.61Z"/>
  <path class="cls-5" d="M81.16,237.59c.55-8.03.45-16.11,1.99-24.06.11-.58-.08-1.52.87-1.36.7.12.47.88.37,1.44-.63,3.51-.46,7.09-.59,10.61-.24,6.45-.96,12.89-.64,19.36.04.72.15,1.44.24,2.16.07.59.59,1.43-.31,1.62-.8.16-.83-.81-1.06-1.37-1.07-2.72-.79-5.57-.87-8.39Z"/>
  <path class="cls-93" d="M78.74,211.57c-.3-.25-.61-.5-.91-.75-.47-2.28.18-3.35,2.36-3.34,2.19,0,4.37.37,5.42,2.76-.74-.44-1.45-.97-2.24-1.31-2.68-1.13-4.14-.28-4.63,2.63Z"/>
  <path class="cls-30" d="M85.59,210.21c1.29,1.03.99,2.27.47,3.54-1.1-1.06-.4-2.35-.47-3.54Z"/>
  <path class="cls-91" d="M110.47,216.4c.81-.63,1.62-1.25,2.43-1.88,1.29,3.28,1.6,6.48-.69,9.56.59-.47,1.18-.94,1.86-1.48,1,1.95.84,3.7.1,5.49-.44,1.05-.37,1.06.73,1.56.16.07.3.34.33.53.49,3.45,1.72,7.06-1.99,9.66-.32.22-.55.58-.82.87-2.32,1.48-4.71,2.75-7.46,3.35-2.13.47-3.58-.19-4.85-1.81-1.46-1.87-2.52-3.95-3.43-6.11-2.18-5.14-3.94-10.42-5.36-15.81,5.82.37,11.56.21,16.91-2.58.78-.41,1.58-.76,2.25-1.34Z"/>
  <path class="cls-48" d="M113.84,213.66c.61-.68,1.22-1.35,1.83-2.03.73,4.36,1.68,8.7,2.14,13.1.52,4.96,1.66,9.87,1.34,14.9-.07,1.06-.15,2.05-1.45,3.14.1-4.41-.35-8.35-1.01-12.27-.95-5.61-1.4-11.31-2.85-16.84Z"/>
  <path class="cls-103" d="M115.77,157.23c-1.56,0-1.05-1.85-2.07-2.33-.37-.47-.37-1-.28-1.55.81-1.37.05-2.97.57-4.54,1.45.72,2.18,1.97,3.12,3-.09,1.89.91,4.06-1.34,5.42Z"/>
  <path class="cls-6" d="M111.74,75.9c.99,2.19.73,4.56,1.01,6.86.59,4.75-1.06,8.54-4.98,11.24-3.99,2.75-8.83,2.53-12.1-.99-3.69-3.98-6.09-8.7-5.94-14.37.02-.82.04-1.63.73-2.23,2.28-.64,4.46-1.8,6.95-1.35.69.88.27,1.86.24,2.79-.07,2.13.12,4.21,1.61,5.89,1.74,1.96,3.91,1.56,4.9-.87.46-1.14.53-2.34.48-3.56-.04-.86-.32-1.78.38-2.53,1.66-.6,2.13.48,2.08,1.72-.08,2.01-.06,4.07-.54,6.03-.89,3.61-3.91,5.36-7.58,4.56-.78-.17-1.51-.59-2.7-.41.9,2.08,2.08,3.66,4.3,4.11,2.6.52,5.04.13,6.82-2.07,1.74-2.15,2.46-4.71,2.6-7.44.09-1.78-.09-3.57.1-5.34.1-.96-.03-2.29,1.65-2.05Z"/>
  <path class="cls-72" d="M111.74,75.9c-1.35.43-.87,1.56-.9,2.45-.11,3.13.23,6.24-.8,9.35-1.82,5.5-5.69,7.05-10.92,5.75-1.44-.36-4.08-4.06-4.19-5.63-.05-.81.24-1.12.97-.7,1.07.62,2.28.78,3.41,1.2,3.1,1.15,6.02-1.23,6.61-4.28.36-1.88.07-3.86.51-5.77.2-.87-.31-1.38-1.28-1.22-.46.26-.87.24-1.18-.23.3-1.44,2.05-1.08,2.67-2.12,1.14-.16,2.27.93,3.42.02.49.44.98.93,1.49.03.35.34.22.75.18,1.15Z"/>
  <path class="cls-76" d="M104.22,76.68c.31.12.62.25.94.38.29,1.99.71,3.97-.03,5.97-.53,1.43-1.22,2.66-2.9,2.9-1.81.26-3.19-.5-4.08-2-1.66-2.81-1.81-5.8-.73-8.86,1.63-.96,3.43-.42,5.15-.56.41.84,1.53,1.13,1.66,2.18Z"/>
  <path class="cls-67" d="M90.45,76.41c-.54,5.03.67,9.65,3.43,13.84,2.15,3.27,5.05,5.23,9.17,4.73,4.1-.5,6.69-2.9,8.31-6.59.8-1.82.87-3.77,1.39-5.64.17.03.33.05.5.08.07.46.14.93.21,1.39.46,4.31-1.63,7.44-4.66,10.14-2.52,1.45-5.1,2.7-7.44,2.22,3.84,1.12,8.03.88,11.36-3,1.72-1.81,1.67-4.55,3.36-6.38,1.15.03.45,1.06.81,1.51-.83,2.14-1.67,4.28-3.1,6.11-1.24,3.49-7.09,5.76-10.17,3.96-6.52-1.18-9.31-6.35-12.19-11.41-.47-.83-.46-1.91-1.33-2.52-.19-.03-.38-.07-.57-.1-.86-2.53-1.04-5.12-.54-7.75.14-.26.35-.44.62-.56.65-.67.04-1.77.83-2.38.01.78.02,1.56.03,2.35Z"/>
  <path class="cls-79" d="M104.22,76.68c-1.23-.21-2.26-.58-1.66-2.18,1.36.06,2.72.13,4.09.2.45,2.2-1.48,1.49-2.43,1.98Z"/>
  <path class="cls-86" d="M68.15,77.9c.09-.64.18-1.28.27-1.91.68-2.25,1.58-4.41,3.06-6.26,2.72-3.38,6.26-4.64,10.52-3.84,3.25,1.83,5.4,4.5,6.31,8.16.22.89.48,1.72-.18,2.51-1.98.9-3.95-.4-5.93,0-1.63.21-3.25.37-4.89.18-1.34.09-2.66.39-4,.47-1.17.17-2.27.65-3.43.86-.59.07-1.18.22-1.72-.17Z"/>
  <path class="cls-49" d="M88.05,76.37c-.33-4.47-2.93-7.62-6.05-10.47,2.48.34,3.79,2.3,5.37,3.89.88,2.17,1.95,4.28,2.22,6.66-.08.14-.14.29-.19.44-.74.59-1.12.22-1.35-.52Z"/>
  <path class="cls-16" d="M116.07,87.21c-.36,2.49-1.03,4.85-2.84,6.73-1.63.95-3.26,1.33-4.88-.03,2.96-2.56,4.22-6.02,5.1-9.68,1.14.76,1.85,1.9,2.62,2.98Z"/>
  <path class="cls-102" d="M40.38,162.61c.8-1.76,2.57-2.91,3.12-4.84.18-.63.49-1.35.09-1.87-.53-.68-1.05.6-1.93.08.45-1.37,2.91-2.14,1.67-4.14,1.08-2.01,1-4.18.6-6.3-.29-1.52-.42-3.01-.43-4.55-.02-1.79.22-3.43,2.1-4.21,1.62-.67,3.45.09,4.96,1.96,2.89,2.14,3.5,4.96,2.47,8.27-.07.67.1,1.4-.45,1.96-.87-3.83-1.26-4.33-3.88-4.88,2.7.48,4.13,2.64,3.35,5.03-.19.58-.77,1.05-.52,1.77-2.13,1.71-2.56,4.25-2.92,6.67-.74,4.96-2.34,9.88-.82,14.99.5,1.69,1.37,2.29,3.12,2.22,2.82-.12,5.65,0,8.47,0-2.69.78-5.45.19-8.17.41-.91.07-1.91-.34-3.05.64,3.13,0,5.92,0,8.71,0-1.53.74-3.16.31-4.74.35-3.09.09-3.09.03-2.08,3-.91.55-1.36-.49-2.45-.67,0,1.52,0,2.97,0,4.43-1.73.66-3.46,1.32-5.19,2-1.66.65-2.9,1.72-3.51,3.44-.97-1.33-.02-2.63.15-3.91.32-2.45.87-4.86,1.32-7.29,1.23-4.96,1.6-10.04,2.46-15.1-1.19-.09-1.41,1.04-2.15,1.22-.9.22-.32-.39-.29-.68Z"/>
  <path class="cls-57" d="M69.32,218.99c-1.47-.11-2.73-.69-2.96-2.25-.18-1.22.83-2.14,1.9-1.95,1.25.22,3.04.2,3.2,2.18.13,1.5-.88,1.89-2.14,2.02Z"/>
  <path class="cls-57" d="M49,199.98c-1.27-.19-1.94-1.11-2.1-2.25-.14-1,.87-1.36,1.62-1.39,1.23-.04,1.9.85,1.93,2,.02.82-.39,1.55-1.45,1.63Z"/>
  <path class="cls-57" d="M74.79,219.46c-.56-.02-1.21-.01-1.21-.78,0-.78.59-1.07,1.28-1.1.63-.03,1.39-.08,1.32.87-.06.77-.71.96-1.39,1.01Z"/>
  <path class="cls-77" d="M74.41,96.31c2.9.99,5.84.93,8.8.35-2.68,4.28-9.32,4.85-13.65,1.16,1.44-1.07,3.13-1.34,4.85-1.51Z"/>
  <path class="cls-2" d="M89.45,107.18c1.38-4.12,5-2.71,7.84-3.1.97-.13,1.05,1.04,1.47,1.68-.98,3.37-3.06,4.51-6.12,3.14-1.08-.49-2.58-.33-3.19-1.72Z"/>
  <path class="cls-3" d="M103.61,98.79c3.98.19,7.38-1.07,10.17-3.96.78,2.21.07,4.01-2.14,5.29-.68.39-1.43.67-2.15,1-.84.11-1.68.21-2.53.32-1.54-.07-3.05-.14-4.11-1.56-.97-1.28.14-.99.76-1.1Z"/>
  <path class="cls-97" d="M89.45,107.18c.72.3,1.44.61,2.16.89,4.19,1.64,4.63,1.5,7.15-2.31.79-.66,1.59-1.32,2.38-1.98,0,.18.02.36.02.53-1.04,1.33-2.05,2.69-3.13,4-1.69,2.04-3.73,1.89-5.93.89-5.34-2.42-10.93-3.51-16.78-2.95-1.7.16-3.72-.12-4.52,2.28-.15-1.45.2-2.73-.24-4.11.86,1.43,1.93,1.51,3.36,1.2,5.32-1.14,10.44.14,15.52,1.55Z"/>
  <path class="cls-8" d="M69.94,99.19c4.03,2.57,8.12,1.86,12.23.24-1.91,4.09-8.5,5.33-11.73,2.23-.76-.73-1.35-1.43-.51-2.47Z"/>
  <path class="cls-102" d="M56.96,126.18c.66.02,1.26.25,1.14.93-.15.91-.86,1.51-1.73,1.76-.57.16-.89-.25-.89-.81,0-1.01.61-1.57,1.47-1.87Z"/>
  <path class="cls-102" d="M110.78,140.19c-.81-1.16-.12-2.55-.58-3.95-4.6,1.46-9.03,3.39-13.76,4.31-5.46,1.06-10.95,1.72-16.5,2.27-4.96.49-9.89.12-14.69-.17-4.47-.28-9.17-1.87-13.23-4.39-3.86-1.15-6.03-4.04-5.38-7.18,13.16,4.57,26.74,6.31,40.61,5.66,8.16-.38,16.26-1.42,24.14-3.73-.64,2.36-.31,4.79-.61,7.18Z"/>
  <path class="cls-94" d="M46.64,131.07c.4,3.44,3.07,5.18,5.38,7.18-.49.16-.98.33-1.47.49-.59-.23-1.22-.4-1.77-.69-2.89-1.56-4.43-.72-4.55,2.49-.06,1.7.13,3.33.67,4.96.76,2.3-.11,5.44-1.57,6.34-.69-5.78-.63-11.58-.49-17.37.04-1.56-.28-3.37,1.39-4.48.8.36,1.61.73,2.41,1.09Z"/>
  <path class="cls-81" d="M88.99,161.09c.21.69,1.09.97,1.1,2.01-2.27.39-4.25,1.53-6.23,3.22-.03-3.07-1.95-.87-3.06-1.46,1.93,1.49,2.37,2.94.34,4.52-.77-1.76-1.48-3.55-2.68-5.07-1.01-1.28-.69-2.18.79-2.75,1.04-.4,2.13-.61,3.14-1.13,1.22-.63,2.33-.56,2.91.91.21.29-.28.18.03.07.07-.02.02-.08-.05-.22-.65-1.28-1.63-1.34-2.82-.82-1,.44-1.93,1.15-3.14.8-.76-1.18-1.07-2.07.8-2.59,1.91-.54,3.85-2.23,5.53-1.94,1.61.27,1.68,3.29,3.35,4.45Z"/>
  <path class="cls-12" d="M79.31,161.17c.61-.21,1.23-.4,1.83-.62q3.49-1.33,5.44,2.29c-1.65-1.04-4.29-1.5-6.85-1.21-.15.02-.32-.04-.48-.07.03-.13.05-.26.06-.39Z"/>
  <path class="cls-60" d="M51.53,150.89c-.64-.38-.21-.81-.07-1.24,1.09-3.35-.6-5.44-4.07-5.03-.46.05-.91.17-1.44-.02.97-1.35,2.4-1.29,3.77-.86,2.57.8,3,2.89,2.86,5.24-.35.64-.7,1.28-1.05,1.91Z"/>
  <path class="cls-42" d="M88.05,76.37c.45.17.9.35,1.35.52.05,2.62.73,5.24.11,7.87-.56,2.54-1.3,5.01-2.78,7.19-4.09,6.03-12.2,6.03-16.2-.1-2.78-4.26-3.5-8.97-2.38-13.95.44-.12.88-.24,1.32-.36,1.19.99.91,2.37.88,3.62-.06,2.8.31,5.5,1.39,8.09,1.14,2.73,3.05,4.54,6.02,5.12,3.37.65,6.11-1.26,6.84-4.79-.41-.27-.76,0-1.11.14-4.5,1.73-8,.22-9.83-4.28-.71-1.76-.82-3.64-.84-5.5-.02-1.26.45-2.33,2.11-1.63.72.67.72,1.58.78,2.47.04.64.03,1.29.14,1.93.35,2.1,1.58,3.45,3.12,3.48,1.63.03,2.94-1.41,3.22-3.63.19-1.53.16-3.06-.11-4.59-.12-.7-.43-1.42.12-2.09,2.01-.53,3.9.29,5.85.47Z"/>
  <path class="cls-45" d="M108.35,93.91c1.63.13,3.26-.39,4.88.03-3.55,4.57-9.21,5.34-14.21,1.74,3.6,1.1,6.44-.45,9.33-1.77Z"/>
  <path class="cls-72" d="M74.82,78.62c-.73-.12-1.37-.03-1.3.9.26,3.48.48,6.98,3.67,9.33,1.77,1.3,3.64.95,5.5.35.68-.22,1.27-.7,1.93-1,.35-.16.85-.36,1.11-.23.49.25.38.84.24,1.31-.84,2.84-2.26,5.24-5.39,5.93-2.68.59-5.14-.07-7.18-1.94-2.74-2.53-3.52-5.92-3.85-9.42-.2-2.09-.07-4.2-.08-6.3,1.15-.3,2.29-.6,3.44-.91.57.64,1.66.53,2.07,1.41.05.22,0,.42-.16.58Z"/>
  <path class="cls-36" d="M82.2,75.9c1.34,2.49,1.43,5.13.74,7.77-.55,2.08-1.7,3.71-4.2,3.62-2.3-.08-3.07-1.78-3.66-3.61-.54-1.66-.22-3.37-.26-5.06.11-.03.16-.1.15-.21.57-.95,1.56-1.5,2.21-2.36,1.67-.05,3.35-.1,5.02-.15Z"/>
  <path class="cls-82" d="M77.18,76.04c.58,2.02-.83,2.18-2.21,2.36-.63-.65-2.21-.2-2.06-1.77,1.38-.52,2.81-.7,4.27-.59Z"/>
</svg>