<?xml version="1.0" encoding="UTF-8"?>
<svg id="Isolation_Mode" data-name="Isolation Mode" xmlns="http://www.w3.org/2000/svg" viewBox="0 0 294.73 240.76">
  <defs>
    <style>
      .cls-1 {
        fill: #030507;
      }

      .cls-1, .cls-2, .cls-3, .cls-4, .cls-5, .cls-6, .cls-7, .cls-8, .cls-9, .cls-10, .cls-11, .cls-12, .cls-13, .cls-14, .cls-15, .cls-16, .cls-17 {
        stroke-width: 0px;
      }

      .cls-2 {
        fill: #d9dee0;
      }

      .cls-3 {
        fill: #be946d;
      }

      .cls-4 {
        fill: #f1f1f2;
      }

      .cls-5 {
        fill: #b2bdbf;
      }

      .cls-6 {
        fill: #997756;
      }

      .cls-7 {
        fill: #977757;
      }

      .cls-8 {
        fill: #997656;
      }

      .cls-9 {
        fill: #92a3b0;
      }

      .cls-10 {
        fill: #957858;
      }

      .cls-11 {
        fill: #b3bdbf;
      }

      .cls-12 {
        fill: #090605;
      }

      .cls-13 {
        fill: #cfd5d7;
      }

      .cls-14 {
        fill: #06090c;
      }

      .cls-15 {
        fill: #030508;
      }

      .cls-16 {
        fill: #be946c;
      }

      .cls-17 {
        fill: #2a2d31;
      }
    </style>
  </defs>
  <path class="cls-12" d="M1.41,150.62c-1.89-1.19-1.69-2.82-.56-4.24,12.48-15.69,24.37-31.91,39.45-45.35,7.87-7.11,17.55-5.6,26.9-5.61,1.5,0,3.11-.15,3.67,1.74.25.85.07,1.76.02,2.64.3-.94-.33-2.33,1.29-2.61,2.48,1.86,1.98,4.8,2.52,7.3,2.02,9.31,6.95,13.83,15.94,14.33,11.06.62,18.75-3.8,21.5-12.36.46-1.43.76-2.91,1.91-4,.76-1.26,1.74,1.33,3.08-.45,1.44-1.9,2.02.53,2.56,1.71-1.34,17.04-15.28,24.17-29.15,22.82-3.07-.3-6.28-.61-9.24-1.77-7.63-2.64-11.66-8.36-13.8-15.86-.77-2.72-.05-6.83-3.71-7.53-5.22-.99-10.62-2.9-15.8,1.09-7.47,5.74-13.52,12.82-19.58,19.88-5.94,6.92-11.99,13.77-17.24,21.2,1.18,1.88,2.83,1.24,4.19,1.24,24.47.04,48.94.02,73.4.05,3.3,0,6.11-.7,8.62-3.08,13.16-12.48,24.83-26.39,38.31-39.3-4.83-1.23-9.37.26-13.6-1.16-2.96-1.69-1.81-4.18-1.26-6.56,7.34.32,8.48-4.13,9.34-10.35,1.45-10.49,8.23-16.4,16.97-16.51,7.82-.09,13.64,4.21,16.79,12.46,1.08,2.82,1.55,5.77,1.89,8.76.19,1.7-.53,3.99,2.02,4.5,2.54.51,4.99.25,6.69-2.14,1.53-2.17,2.84-4.52,5.02-6.17,4.5-3.41,9.44-5.43,15.2-5.47,6.36-.04,6.89-.66,5.78-7-2.13-12.11-6.2-23.43-13.94-33.24-4.74-6-4.2-8.96,2.08-13.48,22.21-16.01,52.17-2.62,54.96,24.56,1.25,12.14-8.26,26.77-20.71,31.93-1.34.56-2.96.57-4.06,1.89,2,1.94,4.56.32,6.67,1.12,2.73,2.51-1.64,3.53-1.19,5.56-2.56,2.21-1.28,3.06,1.23,3.12,4.16.1,8.36.31,12.48-.12,5.43-.57,9.75,1.37,13.62,4.82,15.72,14.01,28.77,30.42,41.9,46.77.89,1.11,1.47,2.25.94,3.64-.65,1.69-2.21,1.21-3.44,1.21-13.98.04-27.97.07-41.95.01-2.4,0-4.05.02-4.01,3.3.21,20.47.23,40.94.31,61.4,3.32,6.49.82,11.22-6.43,11.74-13.61.97-27.21,2.08-40.82,2.93-17.93,1.12-35.8,3.36-53.8,3.17-17.81-.19-35.52-2.31-53.29-3.41-11.29-.7-22.55-1.88-33.84-2.53-8.42-.48-11.17-3.86-8.95-11.83.46-1.65.65-3.24.65-4.89,0-18.32-.1-36.64.09-54.96.04-3.7-.9-4.8-4.7-4.79-14.31.06-28.63.46-42.94-.19Z"/>
  <path class="cls-14" d="M118.53,103.61c-.29-.44-.01-2.23-1.13-.83-1.45,1.81-2.01.3-2.89-.36-1.81-1.33-1.7-3.52-2.37-5.36-1.71-4.69-4.77-8.23-9.64-9.32-6.57-1.47-13.24-1.43-19.7.91-3.06,1.11-5.41,3.2-7.23,5.91-.78,1.16-1.05,2.95-3.03,2.89-1.93,1.13-.32,3.52-2.12,5.31,1.25-6.13-2.04-6.45-6.49-6.44-7.97.02-15.9-.38-22.5,5.29-.12.1-.74-.38-1.13-.58,4.13-4.79,9.02-7.6,15.68-6.8,3.28.4,6.66.06,9.99.08,1.52.01,3.08.16,3.5-1.87.44-2.1-1.47-1.97-2.49-2.41-8.17-3.48-14.13-9.2-17.92-17.21-.35-.73-.93-2.05-1.23-2-5.06.86-4.69-3.28-5.38-6.02-5.75-22.8,1.35-43.01,28.92-53.01-3.12-3.62-1.52-5.22,2.38-6.6,15.94-5.66,30.7-.8,40.83,14,1.89,2.76,3.14,3.96,6.39,1.79,3.86-2.58,8.48-3.67,12.9-5.01-.02-.42.01-.76-.07-1.06-.59-2.13-4.66-2.89-2.96-5.63,1.68-2.71,4.85-1.23,7.42-1.1,1.13.06,2.25.31,3.35.47.14-.44.33-.73.3-.99-.27-2.34-3.51-4.71-1.12-6.8,2.04-1.79,5.09-.4,7.6.44,5.73,1.91,9.88,5.49,11.25,11.58.5,2.23,1.47,3.34,3.79,3.85,4.89,1.09,9.45,5.34,13.72,5.18,4.29-.16,6.09-6.96,9.76-10.23,10.24-9.1,21.69-10.74,34.4-6.48,3.71,1.24,5.9,2.8,2.35,6.56,3.13,1.37,6.1,2.46,8.87,3.93,22.79,12.08,25.34,33.23,19.07,52.87-.19.61-.59,1.64-.9,1.64-5.43.06-5.49,5.28-7.82,8.21-4.91,6.19-10.76,10.8-18.5,12.79-4.25-3.48,2.51-3.07,1.87-5.28.48-2.23,2.4-3.14,4.05-4.17,4.53-2.83,7.78-6.75,10.04-11.51,1.36-2.86,2.58-5.75,5.41-7.62,1.48-.98,1.81-2.76,1.97-4.44,1.66-18.14-2.51-30.43-23.28-39.31-1.68-.72-3.49-1.13-5.18-1.84-1.58-.66-3.33-1.51-3.45-3.3-.33-4.96-3.88-4.8-7.2-4.69-8.94.3-15.81,4.62-21.27,11.46-.83,1.04-1.55,2.17-2.3,3.27-4.67,6.82-5.57,7.06-12.94,3.16-3.7-1.96-7.49-3.73-11.59-4.55-3.9-.78-6.23-2.64-6.81-6.77-.4-2.83-1.69-5.37-4.52-6.8-.91,1.24-.28,2.63-.67,3.87-.42,1.29-.92,3.27-1.96,3.28-6.02.06-8.3,7.08-14.38,7.26-3.61.11-6.86,2.41-10.11,4.12-6.33,3.33-7.45,3-11.38-2.81-4.58-6.76-10.08-12.4-18.29-14.69-2.61-.73-5.22-1.01-7.91-.79-2.63.21-4.82.69-5.19,4.1-.34,3.15-3.17,4.03-5.75,4.83-7.67,2.38-14.21,6.46-19.47,12.57-7.25,8.43-8.09,18.29-6.45,28.71.1.66.25,1.49.73,1.83,5.22,3.63,6.19,10.09,9.89,14.73,3,3.75,6.8,6.33,11.12,8.24,1.53.68,3.11,1.03,5.16-.17-4.43-2.83-8.95-4.75-12.57-8.26-9.46-9.18-12.11-20.21-8.79-32.51,3.32-12.32,12.08-19.6,24.22-22.88,10.39-2.81,19.82-.1,28.52,5.56,6.6,4.29,7.01,7.57,2.31,13.86-7.55,10.12-11.69,21.57-13.76,33.93-.61,3.66.42,5.23,4.16,5.53,10.69.84,17.87,6.52,21.87,16.37,1.96,1.2,1.99,1.37.94,4.49.08.43.05.84-.09,1.26-.7,1.05-1.07,2.47-2.76,2.36Z"/>
  <path class="cls-9" d="M1.41,150.62c14.81-.06,29.62-.01,44.43-.25,4.05-.06,3.57,2.35,3.56,4.87-.07,21.47-.02,42.95-.28,64.42-.05,4.16,1.4,5.45,5.31,5.72,29.04,1.98,58.06,4.35,87.11,6.11,14.64.89,29.22-1.47,43.82-2.39,16.43-1.04,32.84-2.53,49.28-3.54,10.13-.63,10.15-.39,10.77-10.18,3.91.17,7.47,1.66,10.94,3.22,2.18.98,4.97,1.91,4.96,4.97,0,2.98-2.58,4.05-4.81,5.14-4.67,2.27-9.63,3.61-14.7,4.63-17.63,3.54-35.47,5.11-53.4,6.23-25.47,1.59-50.96,1.43-76.4.53-23.54-.83-47.13-2.53-70.06-8.74-3.2-.87-6.39-1.83-9.21-3.72-4.15-2.78-4.31-5.2-.03-7.82,3.54-2.17,7.43-3.81,11.58-4.41,2.99-.44,4.2-1.67,4.18-4.87-.13-18.32-.14-36.65.01-54.97.03-3.36-1.12-4.22-4.31-4.19-12.49.15-24.99.08-37.48.02-1.76,0-3.68.63-5.26-.78Z"/>
  <path class="cls-5" d="M120.44,95.51c-1.21-.14-2.2-.51-2.71-1.8-3.88-9.72-11.94-12.97-21.5-13.19-3.64-.08-4.08-1.41-3.67-4.38,2.03-14.43,6.48-27.9,16.11-39.12,2.61-3.04,2.35-4.9-.34-7.46-9.36-8.91-24.69-11.43-36.76-5.83-12.49,5.79-19.35,17.84-18.24,32.06.93,11.97,10.34,22.9,23,26.72.58.17,1.37-.07,1.59.81-3.21,4.24-6.8,3.83-11.1,1.48-7.08-3.86-11.84-9.52-14.67-16.95-.69-1.8-.83-3.99-3.75-3.74-1.99.18-1.6-1.69-1.89-2.89-4.95-20.92,5.29-38.15,26.45-44.7,2.85-.88,8.2-.41,4.22-6.32-.93-1.38,1.21-1.39,2.15-1.66,11.51-3.29,23.07,1.61,31.32,13.27q5.13,7.25,12.77,3.17c3.39-1.81,6.96-3.45,10.73-3.93,4.87-.62,6.98-2.48,4.52-7.65,8.52,3.6,9.16,2.99,8.1-6.97,5.05,1.01,7.96,3.76,8.53,9.05.36,3.43,1.66,4.81,5.09,5.39,5.1.86,10,2.84,14.22,5.84,3.74,2.65,5.65,2.33,8.08-1.85,5.98-10.31,14.35-17.5,27.17-17.24,2.14.04,4.27.58,6.39.96,1.5.26,2.69.7,1.26,2.54-2.23,2.86-.77,3.92,2.15,4.71,6.31,1.71,12.17,4.42,17.37,8.46,12.45,9.68,14.67,24.03,11.41,37.81-.11.48-.2,1.37-.37,1.39-6.5.61-5.42,7.07-7.99,10.63-3.73,5.17-8.32,8.95-13.85,11.83-4.27,1.93-8.26,2.18-11.63-1.96,1.06-1.09,2.57-1.04,3.91-1.41,16.07-4.52,25.72-19.59,22.99-35.92-2.57-15.37-17.56-26.87-33.63-25.87-8.11.5-15.11,3.49-21.19,8.85-2.6,2.29-2.98,4.27-.52,7.12,10.01,11.59,14.59,25.45,16.5,40.43.43,3.38-.37,4.33-3.78,4.16-10.35-.54-19.11,2.22-23.8,12.55-.57,1.25-1.6,1.5-2.86,1.47-2.8-.05-5.61-.02-8.44-.02,1.24-9.36,0-17.75-7.79-23.5-5.11-3.77-11.15-3.82-16.41-.28-8.38,5.64-9.32,14.3-8.24,23.98h-10.91Z"/>
  <path class="cls-3" d="M240.23,163.45c.04,17.81-.03,35.62.2,53.43.04,3.44-1.66,3.69-4.2,3.87-20.74,1.47-41.47,3-62.2,4.51-7.13.52-14.27,1.05-21.41,1.52-1.42.1-2.92.95-4.27-.28-.78-1.58-.39-3.28-.4-4.91-.03-36.62-.02-73.25-.02-109.87,0-1-.05-2,.02-3,.05-.77-.29-1.75.73-2.15.96-.38,1.55.35,2.09.93,3.19,3.41,6.04,7.09,8.77,10.87,9.07,12.54,18.09,25.13,26.87,37.87,2.8,4.07,6.05,5.56,10.82,5.48,11.98-.2,23.97-.1,35.96-.04,2.46.01,5.06-.29,7.04,1.76Z"/>
  <path class="cls-3" d="M137.26,226.49c-27.6-1.85-55.21-3.63-82.75-6.28-1.09-1.87-.51-3.91-.52-5.86-.06-15.49-.04-30.98-.03-46.48,0-5.42.47-6.07,5.91-6.17,11.49-.22,23-.39,34.48.05,6.18.24,9.9-2.3,13.12-7.11,9.17-13.7,18.75-27.12,28.59-40.35,1.65-2.22,3.27-6.3,5.71-5.53,2.65.83,1.07,4.98,1.08,7.62.1,35.15.07,70.3.07,105.45,0,5.32-.02,5.32-5.66,4.65Z"/>
  <path class="cls-3" d="M227.41,99.42c.16-.03.33-.07.49-.1,11.55-2.51,20.24,1.5,28.2,10.2,10.64,11.64,20.95,23.49,30.96,35.74-1.66,1.43-3.22.88-4.63.88-26.82.04-53.64-.02-80.46.09-3.23.01-5.59-.82-7.91-3.16-12.78-12.9-25.73-25.63-38.61-38.43-1.03-1.03-1.98-2.14-4.06-4.41,7.33,0,13.37.04,19.42-.02,2.53-.02,2.32,1.76,2.56,3.4.93,6.43,3.36,12.15,8.07,16.77,2.28,3.51,6.03,4.8,9.71,5.5,5.36,1.03,10.95,1.22,16.29-.06,10.9-2.6,16.98-9.62,18.11-20.89.19-1.92.17-4.05,1.86-5.53Z"/>
  <path class="cls-16" d="M121.38,100h17.25c.12.45.23.89.35,1.34-6.67,6.86-13.32,13.74-20.01,20.59-6.98,7.14-14.02,14.23-20.98,21.39-1.81,1.86-3.65,2.94-6.48,2.93-27.14-.14-54.28-.11-81.43-.13-.62,0-1.25-.11-2.94-.26,6.61-8.09,12.62-15.7,18.91-23.08,6.58-7.72,13.17-15.48,21.31-21.67,6.07-4.61,12.86-1.51,19.32-1.52,1.66,0,1.13,2.51,1.27,3.89.9,9.14,4.95,16.11,13.48,20.09,13.89,5.16,31.04,2.67,36.82-12.24,1.38-3.55,1.17-7.54,3.19-10.88l-.07-.45Z"/>
  <path class="cls-4" d="M210.68,25.5c13.54.02,26.04,11.33,26.59,25.14.6,14.71-10.68,27.28-25.59,28.49-2.18.18-4.04.41-4.46-2.93-1.9-15.05-6.49-29.13-16.18-41.14-1.5-1.85-.25-2.67.92-3.56,5.17-3.95,10.95-6.15,18.71-6.01Z"/>
  <path class="cls-6" d="M137.26,226.49c2.88-.13,5.31.03,5.29-4.42-.19-37.46-.11-74.92-.11-113.32-4.34,5.68-8.39,10.56-11.97,15.77-8.26,12.04-16.61,24.01-25.2,35.82-1.89,2.59-3.89,3.1-6.71,3.08-12.82-.08-25.65.12-38.46-.13-4.23-.08-5.81.87-5.73,5.47.29,17.15.13,34.3.14,51.45-1.74-.99-1-2.67-1-4.03-.01-20.31.14-40.63,0-60.94-.03-3.91,1.41-4.74,4.96-4.68,11.32.18,22.65-.05,33.96.14,3.43.06,5.89-.88,8.31-3.38,12.62-13.04,25.43-25.89,38.13-38.85,1.14-1.17,1.94-2.67,2.98-4.13,2.12,2.25,1.54,3.99,1.54,5.53.05,37.63-.03,75.26.13,112.89.03,5.72-2.78,4.87-6.28,3.73Z"/>
  <path class="cls-8" d="M240.23,163.45c-15.49-.02-30.98-.12-46.47,0-3.2.02-5.33-1.08-7.11-3.62-9.89-14.14-19.85-28.24-29.8-42.35-2.44-3.46-4.93-6.89-8.5-10.09,0,39.71,0,79.41,0,119.12-1.12-1.08-.77-2.48-.77-3.77-.02-38.09-.02-76.18,0-114.28,0-1.11.17-2.21.26-3.4,2.44.19,3.32,1.99,4.53,3.19,12.88,12.76,25.78,25.5,38.49,38.43,2.77,2.82,5.53,4.13,9.56,4.05,11.8-.26,23.62.02,35.43-.16,3.37-.05,4.94.76,4.56,4.4-.29,2.8-.13,5.65-.17,8.47Z"/>
  <path class="cls-11" d="M72.54,97.45c2.02-6.58,6.76-9.88,13.26-11.27,3.78-.81,7.58-1.06,11.39-.9,10.79.48,16.74,6.43,17.33,17.14-3.67,14.08-9.3,18.35-23.58,17.91-10.71-.33-17.12-6.63-18.2-17.9-.16-1.65-.13-3.32-.19-4.98Z"/>
  <path class="cls-11" d="M199.31,121.16c-10.53.06-17.61-4.93-20.27-14.29-2.83-9.97,2.37-18.39,12.57-20.53,3.48-.73,6.93-.76,10.43-.33,12.32,1.52,18.31,6.65,17.89,15.36-.63,13.16-7.46,19.72-20.62,19.8Z"/>
  <path class="cls-17" d="M147.65,95.41c-1.66,0-3.32.01-4.97,0-5.86-.03-8.19-2.47-7.1-8.25,1.37-7.27,4.62-13.7,13.33-12.83,7.13.72,13.6,12.67,9.87,18.91-.94,1.57-2.35,2.22-4.17,2.17-2.32-.06-4.64-.01-6.96,0Z"/>
  <path class="cls-10" d="M227.41,99.42c-.61,5.19-.86,10.31-3.45,15.24-4.55,8.67-11.99,12.05-20.99,12.65-5.89.39-11.99.94-17.48-2.36-1.85-1.12-3.95-1.92-4.05-4.56,6.54,4.65,13.9,5.75,21.71,5.18,12.44-.9,20.3-8.93,21.34-21.91.15-1.89-.89-4.79,2.92-4.24Z"/>
  <path class="cls-7" d="M121.45,100.45c-.02,10.48-3.26,19.47-13.52,23.78-8.69,3.65-17.77,3.94-26.49-.66,6.34,1.24,12.62,2.48,19.15.93,10.39-2.46,16.98-9.96,17.94-20.89,1.07-.96.02-3.88,2.92-3.16Z"/>
  <path class="cls-4" d="M57.68,51.03c.76-10.22,6.15-18.57,16.46-23.13,10.25-4.53,20.09-3.08,29.14,3.66,1.75,1.3,1.83,2.1.44,3.89-9.1,11.71-13.96,25.15-15.61,39.79-.3,2.69-.93,4.15-4.18,3.98-14.13-.73-26.35-13.22-26.25-28.19Z"/>
  <path class="cls-15" d="M130.02,76.66c-.09,4.73-3.94,8.44-8.67,8.36-4.75-.08-8.35-3.87-8.29-8.71.07-4.85,3.75-8.4,8.63-8.31,4.78.09,8.42,3.87,8.32,8.66Z"/>
  <path class="cls-1" d="M182.2,76.58c-.02,4.65-3.96,8.46-8.69,8.41-4.83-.05-8.42-3.73-8.38-8.61.04-4.87,3.68-8.44,8.57-8.38,4.78.06,8.52,3.83,8.5,8.59Z"/>
  <path class="cls-13" d="M126.33,72.65c-.07,1.28-.79,1.92-1.88,2.01-1.38.11-2.22-.6-2.2-2.03.02-1.11.62-1.97,1.77-2.01,1.35-.05,2.06.84,2.32,2.03Z"/>
  <path class="cls-2" d="M176.52,74.68c-1.12.04-2-.42-2.16-1.55-.18-1.26.37-2.38,1.74-2.5,1.31-.11,2.14.73,2.21,2.1.06,1.21-.7,1.74-1.79,1.95Z"/>
</svg>