<?xml version="1.0" encoding="UTF-8"?>
<svg id="Isolation_Mode" data-name="Isolation Mode" xmlns="http://www.w3.org/2000/svg" viewBox="0 0 160.35 136.79">
  <defs>
    <style>
      .cls-1 {
        fill: #6fa6be;
      }

      .cls-1, .cls-2, .cls-3, .cls-4, .cls-5, .cls-6, .cls-7, .cls-8, .cls-9, .cls-10, .cls-11, .cls-12, .cls-13, .cls-14, .cls-15, .cls-16, .cls-17, .cls-18, .cls-19, .cls-20, .cls-21, .cls-22, .cls-23, .cls-24, .cls-25, .cls-26, .cls-27, .cls-28, .cls-29, .cls-30, .cls-31, .cls-32, .cls-33, .cls-34, .cls-35, .cls-36, .cls-37, .cls-38, .cls-39, .cls-40, .cls-41, .cls-42, .cls-43, .cls-44, .cls-45, .cls-46, .cls-47, .cls-48, .cls-49 {
        stroke-width: 0px;
      }

      .cls-2 {
        fill: #71a5bd;
      }

      .cls-3 {
        fill: #406e8e;
      }

      .cls-4 {
        fill: #b4b4b4;
      }

      .cls-5 {
        fill: #254258;
      }

      .cls-6 {
        fill: #192a33;
      }

      .cls-7 {
        fill: #473b42;
      }

      .cls-8 {
        fill: #fcf7df;
      }

      .cls-9 {
        fill: #244152;
      }

      .cls-10 {
        fill: #eef1ea;
      }

      .cls-11 {
        fill: #445f6c;
      }

      .cls-12 {
        fill: #5d3c35;
      }

      .cls-13 {
        fill: #4d3c3e;
      }

      .cls-14 {
        fill: #615d4a;
      }

      .cls-15 {
        fill: #363329;
      }

      .cls-16 {
        fill: #83b3cb;
      }

      .cls-17 {
        fill: #8cb4bc;
      }

      .cls-18 {
        fill: #030303;
      }

      .cls-19 {
        fill: #4d3a3e;
      }

      .cls-20 {
        fill: #43606b;
      }

      .cls-21 {
        fill: #24343e;
      }

      .cls-22 {
        fill: #47393f;
      }

      .cls-23 {
        fill: #2c171f;
      }

      .cls-24 {
        fill: #3a242b;
      }

      .cls-25 {
        fill: #1c3849;
      }

      .cls-26 {
        fill: #33292e;
      }

      .cls-27 {
        fill: #274656;
      }

      .cls-28 {
        fill: #8bacd2;
      }

      .cls-29 {
        fill: #361b25;
      }

      .cls-30 {
        fill: #4d333a;
      }

      .cls-31 {
        fill: #8f8f8f;
      }

      .cls-32 {
        fill: #b5c8cf;
      }

      .cls-33 {
        fill: #162f3e;
      }

      .cls-34 {
        fill: #43363a;
      }

      .cls-35 {
        fill: #636155;
      }

      .cls-36 {
        fill: #40353b;
      }

      .cls-37 {
        fill: #74a4b6;
      }

      .cls-38 {
        fill: #493b40;
      }

      .cls-39 {
        fill: #3b3236;
      }

      .cls-40 {
        fill: #3b2b32;
      }

      .cls-41 {
        fill: #553742;
      }

      .cls-42 {
        fill: #473236;
      }

      .cls-43 {
        fill: #3e343d;
      }

      .cls-44 {
        fill: #3c3140;
      }

      .cls-45 {
        fill: #e3eae7;
      }

      .cls-46 {
        fill: #271b20;
      }

      .cls-47 {
        fill: #253c46;
      }

      .cls-48 {
        fill: #523943;
      }

      .cls-49 {
        fill: #3b2f35;
      }
    </style>
  </defs>
  <path class="cls-16" d="M120.34,118.31c-.57.56-1.14,1.11-1.71,1.67-3.03,1.44-5.03,4.25-7.88,5.95-1.37.82-2.52,2.52-4.14.42-.79-7.89.51-15.77-.03-23.67-.66-9.66-2.4-18.98-7.12-27.55-4.04-8.24-12.89-10.8-20.57-10.3-1.28.08-2.58.48-3.89.54-5.62.86-9.61,4.06-12.56,8.76-3.73,7.42-6.37,15.24-8.63,23.2-.32,1.12-.53,2.25-1.29,3.18-1.47,1.15-2.44,2.49-2.43,4.54,0,4.95-1.29,9.72-2.23,14.53-2.4.73-4.28,2.1-5.35,4.44-3.52-.94-4.88-4.39-7.43-6.48-1.49-1.22-2.84-2.58-4.67-3.31-3.2-3.73-4.56-8.17-4.99-12.97-1.56-6.8,1.23-13.27,1.52-19.92.03-.83,0-1.66.19-2.48,1.58-5.07,0-10.74,2.89-15.58.37-.94.91-1.8,1.32-2.73,4.65-8.75,8.82-17.77,14.54-25.93.76-1.09,1.52-2.16,2.47-3.09,1.68-.83,3.08-1.99,4.08-3.6l-.06.07c5.98-4.94,13.32-6.15,20.6-7.53,4.65.38,9.14-.99,13.76-1.18,9.26-.38,17.82,2.2,26.32,5.34,1.61,1.03,2.88,2.46,4.29,3.72,7.06,5.1,7.56,12.75,7.97,20.44-.36,3.05-.02,6.07.47,9.08.64,3.32.42,6.73,1.01,10.06,1.16,4.97,2.43,9.9,3.97,14.77.03,5.37.01,10.75,0,16.11-1.06,3.87-2.19,7.71-4.55,11.04l.03-.05c-1.24,3.34-4.48,5.29-5.91,8.5Z"/>
  <path class="cls-8" d="M100.38,73.87c5.67,8.08,7.13,17.45,7.71,26.91.53,8.59.71,17.24-.5,25.83-.16,1.36-1.48,1.53-2.28,2.24-.5,1.46-2.27.4-2.95,1.48-7.97,3.32-16.27,5.3-24.89,5.45-4.43.08-8.98.95-13.32-.84-1.63.07-3.19-.13-4.61-1.01-2.6.3-4.72-.87-6.8-2.19-4.16-7.48-4.33-15-1.84-23.27,1.92-6.39,2.67-13.16,5.42-19.36.77-1.74,1.04-4.04,3.86-3.6,2.63,2.36,2.34,5.7,2.83,8.73,1.42,8.66,4.01,10.95,12.87,10.99,1.99,0,3.98.09,5.96-.12,5.91-.6,9.74-4.14,10.66-10.02.43-2.78.63-5.6,1.52-8.3,1.41-3.8.88-7.69.54-11.57,0-.56.14-1.08.38-1.59,1.92-2.23,3.73-2.04,5.46.24Z"/>
  <path class="cls-2" d="M124.68,8.93c.32-.11.51-.34.57-.67,2.43-3.21,6.19-2,9.34-2.8,3.28-1.46,5.19-6.16,9.91-4.21,2.09,1.1,4.26,1.33,6.65,1.32,6.83-.04,9.69,4.74,6.99,11.06-1.94,4.54-3.59,9.22-6.31,13.39-2.12,4.64-4.76,8.97-7.59,13.21-3.89,5.83-10.19,8.13-17.09,6.19-.48-.17-.93-.41-1.34-.71-2.99-4.51-2.86-5.49,1.79-7.22,3.94-1.47,6.04-5.07,9.28-7.3.96-.58,1.86-1.24,2.65-2.04,1.66-1.42,3.13-2.99,4.12-4.96,1.39-2.04,2.91-4,4.32-6.61-3.35-.76-6.16-2.9-9.75-2.22-9.21,0-12.65,3.73-13.8,15.02-.16,1.6.32,3.32-.98,4.68-2.88-1.37-4.39-4.19-6.62-6.26-2.35-4.18-.76-7.67,1.92-10.97,1.4-3.34,1.88-7.3,5.92-8.89Z"/>
  <path class="cls-26" d="M52.43,27.95c-.15,1.97-1.71,2.91-2.96,4.07-1.06.44-1.89.01-2.66-.68-2.02-6.73-7.15-10.43-13.05-13.39-.44-.22-.99-.89-1.23-.75-4.7,2.68-9.64-1.39-14.33.57-4.47-.91-8.11,3.27-12.64,2.08-.71-.37-1.25-.84-1.08-1.75,5-2.99,10.9-2.91,16.24-4.77.55-.19,1.44-.1,1.88.23,3.73,2.84,5.28.19,6.82-2.6.55-.5,1.33-.71,1.79-.24,3.84,3.91,9.42,5.4,13.11,9.5,1.06,1.99,2.7,3.88,3.06,5.99.73,4.24,2.68,3.19,5.05,1.73Z"/>
  <path class="cls-42" d="M27.74,111.81c-.93-2.62-2.15-5.17-2.11-8.04.46-.63-.02-1.66.88-2.11,1.49,4.15,1.65,8.78,4.58,12.39,1.9.57,2.77,2.24,3.85,3.66,4.27,5.69,10.02,9.31,16.5,11.95.9.41,1.32,1.29,1.92,1.99,2.06.75,4.12,1.5,6.18,2.25-5.39,1.29-9.83-1.55-14.25-3.7-8.04-3.92-13.41-10.63-17.54-18.4Z"/>
  <path class="cls-39" d="M27.57,59.91c-2.07-2.9-2.64-7.18-7.17-7.83-2.15-3.05-3.34-7.71-8.82-5.11-.76.36-1.96-.08-2.05-.86-.46-4.14-4.88-6.09-5.44-10.12.38-.34.82-.5,1.33-.49,2.48.83,3.86,2.84,5.23,4.87.69,1.83,2.38,1.88,3.92,2.48,6.57,2.55,11.21,7.3,14.37,13.52.54,1.05.52,2.24-.13,3.33-.36.37-.78.46-1.24.2Z"/>
  <path class="cls-12" d="M64.14,134.93c13.04,1.01,25.72-1.06,38.21-4.61-.21.85-.68,1.44-1.55,1.74-11.17,3.83-22.67,5.16-34.43,4.61-1.03-.05-1.77-.8-2.24-1.74Z"/>
  <path class="cls-49" d="M151.29,27.04c2.99-4.42,4.16-9.66,6.41-14.43,2.37-5.02-1.5-9.95-7.39-9.31-2.43.26-4.16-.31-5.97-1.52-.11-.88.04-1.45,1.1-.92,3.33,2.25,7.35-.15,10.97,1.95,4.05,2.36,4.64,5.97,3.28,9.11-2.33,5.38-3.71,11.3-7.6,15.96-.79.22-1.21.08-.8-.84Z"/>
  <path class="cls-40" d="M113.04,26.28c-10.23-5.36-21.01-7.42-32.51-5.6-2.59.41-5.26.3-7.89.44-1.04.47-1.32,0-1.23-.97,12.66-1.96,25.26-2.59,37.58,1.97,1.86.59,4.13.57,4.68,3.12,0,.48-.22.83-.64,1.06Z"/>
  <path class="cls-22" d="M151.29,27.04c.27.28.53.56.8.84-.51,2.94-2.97,4.89-3.89,7.62-2.11,3.63-3.12,8.21-8.09,9.36l-.92.91c-4.08,3.31-8.44,3.37-13,1.09-.31-.97.19-1.46,1.03-1.76,7.49,1.81,11.52-.17,16.41-6.74,2.74-3.67,5.49-7.28,7.66-11.32Z"/>
  <path class="cls-38" d="M5.31,35.95c-.4.02-.81.04-1.21.05-1.22-3.88-.81-8.01-3.54-11.76-1.84-2.52,1.23-4.9,3.92-6.14.34.3.67.6,1.01.9-.54,3.11-.25,6.02.93,9.08.97,2.51,1.36,5.55-1.11,7.87Z"/>
  <path class="cls-34" d="M71.41,20.14c.41.32.82.65,1.23.97-7,1.56-13.91,3.43-20.26,6.91,2.72-4.42,7.45-5.25,11.88-6.52,2.32-.67,4.77-.92,7.16-1.36Z"/>
  <path class="cls-44" d="M119.41,18.26c-3,3.1-2.59,6.85-2.04,10.63-.41.54-.87.59-1.39.17-1.15-.74-2.33-1.46-2.94-2.78.07-.15.16-.29.28-.41.74-1.2,1.08-2.58,1.78-3.8.17-2.35,2.34-3.33,3.45-5.04.96-.06,1.34.29.86,1.23Z"/>
  <path class="cls-48" d="M130.03,82c-1.9-4.52-2.89-9.27-3.59-14.1.23-.5.48-.49.75-.03,1.94,4.52,2.69,9.38,3.93,14.1-.35.46-.72.45-1.1.04Z"/>
  <path class="cls-13" d="M105.31,128.84c.29-1.22,1.13-1.88,2.28-2.23,4.45-.93,6.58-5.72,11.04-6.62-3.77,3.96-7.32,8.25-13.32,8.86Z"/>
  <path class="cls-29" d="M130.03,82c.37-.01.73-.02,1.1-.04.65,5.94.5,11.88-.03,17.81-.33.37-.68.39-1.05.06,0-5.94,0-11.89-.01-17.83Z"/>
  <path class="cls-7" d="M145.44.86c-.37.31-.74.61-1.1.92-4.16-.46-6.49,3.29-9.99,4.35-.26-.21-.38-.45-.35-.71.03-.27.09-.41.16-.41,1.05-.87,2.1-1.74,3.15-2.6,1.35-2.39,3.6-2.51,5.96-2.36.73.27,1.45.54,2.18.82Z"/>
  <path class="cls-24" d="M134.16,5.01c.06.37.13.75.19,1.12-2.99.88-6.27.56-9.09,2.13,1.77-4.37,5.47-3.46,8.91-3.25Z"/>
  <path class="cls-19" d="M119.41,18.26c-.29-.41-.58-.82-.86-1.23.85-3.6,1.47-7.38,6.13-8.1-2.52,2.67-4.31,5.77-5.27,9.33Z"/>
  <path class="cls-41" d="M130.04,99.84c.35-.02.7-.04,1.05-.06-.75,3.78-1.72,7.46-4.87,10.08,1.27-3.34,2.55-6.68,3.82-10.02Z"/>
  <path class="cls-30" d="M127.19,67.87c-.25.02-.5.03-.75.03-.67-3.35-1.33-6.69-2-10.04.3-.4.34-1.03.99-1.12.6,2.43,1.21,4.86,1.81,7.29-.02,1.28-.03,2.56-.05,3.83Z"/>
  <path class="cls-41" d="M120.34,118.31c.87-3.6,3.42-6.03,5.91-8.5-.46,3.88-3.16,6.21-5.91,8.5Z"/>
  <path class="cls-17" d="M51.24,130.68c-9.09-2.67-15.68-8.36-20.15-16.62.89-.34,1.94-1.14,2.67-.04,2.45,3.66,6.89,5.56,8.62,9.84,2.8.09,3.37-2.61,5-4-.84-6.03,1.71-11.76,1.64-17.75,0-.73,1.58-1.48,2.42-2.22,2.22,3.41.49,6.94-.27,10.12-1.41,5.95-2.06,11.66.3,17.46.43,1.06.87,2.22-.23,3.21Z"/>
  <path class="cls-10" d="M51.24,130.68c-3.53-10.29-.98-20.53.2-30.79,2.98-9.06,5.08-18.45,10.04-26.77,1.68-.27,1.61,1.06,1.9,2.07-.51,3.73.04,7.77-3.17,10.7-3.55,4.57-5.69,9.78-6.8,15.42-.22,1.12.25,2.41-.09,3.47-2.84,8.98-3.71,17.93.04,26.89-.95.21-1.49-.48-2.11-.98Z"/>
  <path class="cls-45" d="M100.38,73.87c-1.71-.98-3.4-1.07-5.09.06-.67.22-1.4.16-1.79-.38-4.28-5.92-10.51-7.23-17.25-7.38-.94-.42-2.08-.68-1.75-2.14,9.44-1.82,17.92-.37,24.53,7.29.61.71.91,1.69,1.35,2.54Z"/>
  <path class="cls-9" d="M115.98,29.06c.46-.05.93-.11,1.39-.17,2.49,1.64,4.16,4.04,5.95,6.34,2.89,2.15,5.43,1.48,7.87-.87,1.3-1.25,2.51-2.67,4.17-3.43,1.07-.49,2.52-1.34,2.83.91-4.23,2.69-6.59,7.77-12.41,8.66-2.18.33-.83,2.97.58,4.33-1.83.79-1.19,2.93-2.26,4.13-.21-.94-.68-1.91-.59-2.82.7-7.14-2.23-12.62-7.55-17.07Z"/>
  <path class="cls-27" d="M47.53,30.93c.65.36,1.3.73,1.94,1.09-7.07,8.85-11.02,19.53-17.05,28.99-.78-.21-1.28-.7-1.45-1.51,4.37-10.19,8.77-20.36,16.56-28.57Z"/>
  <path class="cls-28" d="M47.37,119.86c.15,2.23-.05,4.37-2.34,5.47-1.37.66-2.06-.46-2.66-1.48.18-5.85.61-6.2,5-4Z"/>
  <path class="cls-23" d="M26.51,101.67c-.29.7-.58,1.4-.88,2.11-1.48-7.09.8-14.01.95-21.02.02-1.09.65-1.82,1.77-2.04-.02,7.03-2.61,13.84-1.84,20.95Z"/>
  <path class="cls-32" d="M74.5,64.03c.7.34,1.4.68,2.11,1.01,0,.34-.03.8-.26.9-5.19,2.21-9.55,5.7-14.01,9.03-.29-.62-.58-1.24-.86-1.86,3.03-4.91,7.18-8.22,13.03-9.09Z"/>
  <path class="cls-6" d="M103.53,55.09c2,1.11,2.13,2.9,1.88,4.77-.21,1.6-1.09,3.2-2.78,2.8-2.15-.51-1.47-2.69-1.36-4.24.11-1.44.48-2.94,2.25-3.33Z"/>
  <path class="cls-21" d="M51.29,60.54c2.24.66,2.96,2.19,2.88,4.21-.07,1.67-.93,3.15-2.6,3.04-2.18-.14-2.07-2.25-2.13-3.83-.06-1.45.13-2.96,1.86-3.42Z"/>
  <path class="cls-36" d="M28.45,78.74c-2.11-5.5.33-10.63,1.24-15.89.29-.82.83-1.31,1.7-.89.49.24.33.73.08,1.14-2.07,5.01-1.7,10.49-3.02,15.64Z"/>
  <path class="cls-46" d="M124.12,48.95c.6-1.46-.29-3.74,2.26-4.13.33-.04.61.05.85.28-.37.35-.75.7-1.12,1.05-1.81,3.43-.38,7.07-.67,10.6-.33.37-.66.75-.99,1.12-.53-2.96-1.46-5.9-.32-8.91Z"/>
  <path class="cls-43" d="M31.47,63.1c-.46-1.03-1.13-.55-1.78-.25-1.24-.6-2.16-1.42-2.12-2.94.39-.04.79-.08,1.18-.12,1-.6,1.92.04,2.88.18.26.35.52.7.78,1.04-.32.7-.63,1.39-.95,2.09Z"/>
  <path class="cls-18" d="M62.34,74.98c2.65-6.34,8.31-8.35,14.27-9.93,7.92-.6,14.67,1.27,18.69,8.88.07.33.14.67.22,1,.51,3.98.46,7.95.03,11.93-.4,2.78-.84,5.56-1.18,8.35-.83,6.83-5.66,11.36-12.58,11.64-2.65.11-5.31.11-7.96.08-7.51-.08-10.82-2.78-12.2-10.23-.66-3.57-.96-7.21-1.42-10.82.71-3.64,1.42-7.28,2.13-10.91Z"/>
  <path class="cls-15" d="M85.29,121.73c-5.26.57-10.54.61-15.8.1-.57-.06-1.11-.49-1.61-1.08,5.46.27,10.87.2,16.27-.04,1.12-.49,1.25.13,1.14,1.02Z"/>
  <path class="cls-35" d="M108.08,109.3c-3.38-.68-6.01-3.34-7.49,1.22,1.42-6.32,1.87-6.42,7.49-1.22Z"/>
  <path class="cls-14" d="M85.29,121.73c-.38-.34-.76-.68-1.14-1.02,3.31-1.2,6.71-2.16,9.87-3.81-2.16,3.02-5.45,3.91-8.73,4.83Z"/>
  <path class="cls-45" d="M95.54,86.86c0-3.98-.02-7.95-.03-11.93,1.35,3.97,1.27,7.95.03,11.93Z"/>
  <path class="cls-11" d="M138.2,31.83c-1.84-1.58-2.52.49-3.51,1.22-1.96,1.45-3.73,3.15-5.67,4.62-3.24,2.45-5.03,1.23-5.7-2.45-1.23-5.77.21-11.21,2.72-16.24,2.52-5.04,7.09-6.18,12.37-4.85,3.58-.37,6.23,2.54,10.06,2.5-.48,2.91-2.34,4.8-3.46,7.02-1.35,2.28-3.4,4.05-4.62,6.42-.55.81-1.12,1.6-2.19,1.75Z"/>
  <path class="cls-25" d="M144.24,23.93c1.12-2.15,2.25-4.3,3.33-6.37-3.15-1.17-6.15-2.29-9.16-3.42,4.02-1.68,7.21,2.52,11.26,1.59,1.09-.25.95,1.26.25,2.17-1.87,2.44-3.7,4.92-5.54,7.39-.56-.4-.6-.85-.14-1.36Z"/>
  <path class="cls-5" d="M144.24,23.93c.05.45.09.9.14,1.36-.59,2.21-2.38,3.43-3.99,4.79-.49-3.16,2.95-3.86,3.85-6.15Z"/>
  <path class="cls-37" d="M31.63,59.96c-1.06,1.56-1.94.34-2.88-.18-1.7-7.09-7.42-10.88-12.54-15.12-.57-.47-1.79-.92-2.26-.64-3.97,2.36-3.56-1.25-4.42-3.12.87-1.9,2.77-2.09,4.43-2.7,3.68.42,5.83,3.31,8.56,5.28,3.26,2.34,6.35,5.52,10.97,3.12,3.53-2.17,5.01-5.69,6.23-9.38.18-7.72-7.05-13.93-16-13.73-2.42-1.68-3.39-4.56-5.4-6.58,2.19-3.07,4.51-1.94,6.78-.16,1.91,1.5,3.38,2.2,3.94-1.17.38-2.3,1.85-1.99,3.19-.76,2.45,2.25,5.15,4.12,8.25,5.34,4.91,1.92,5.56,6.6,7.03,10.76-5.3,9.68-10.6,19.35-15.89,29.03Z"/>
  <path class="cls-1" d="M18.33,16.92c3.74.23,4.61,2.91,5.07,5.94-.59,2.29-2.52,2.34-4.32,2.5-3.71.31-5.72,1.9-5.39,6.01.19,2.42-.07,4.89-.15,7.34-.51,2.24-2.72,1.38-4.01,2.21-1.41-1.66-2.82-3.31-4.22-4.97-.15-3.98.63-7.92-2.51-11.54-2.03-2.34,1.48-3.7,2.68-5.41,2.26-.2,4.64-.08,6.41-1.87,2.1-2.12,4.29-.24,6.43-.21Z"/>
  <path class="cls-31" d="M70.45,82.95c-.09-1.33.05-2.58,1.59-3.85,1.22,6.43-.75,12.59.88,19.57-3.11-2.35-2.57-4.66-2.46-6.84.78-2.96-.57-5.92-.01-8.89Z"/>
  <path class="cls-4" d="M70.45,82.95c1.56,2.96,1.15,5.92.01,8.89-.51-2.96-1.4-5.92-.01-8.89Z"/>
  <path class="cls-20" d="M41.13,37.75c-1.37,3.97-2.84,7.89-6.77,10.16-4.03,1.19-7.35-.06-10.47-2.68-1.77-1.49-3.41-3.3-5.51-4.25-5.63-2.55-5.78-7.14-5.05-12.25.24-1.69,1.36-3.33,2.52-3.42,5.38-.4,10.55-4.19,16.21-.83,5.15,3.07,8.6,7.1,9.07,13.27Z"/>
  <path class="cls-33" d="M41.13,37.75c-.95-3.56-2.75-6.69-5.21-9.38-3.09-3.37-6.69-5.47-11.51-3.89-.78.26-1.61.4-2.43.49-6.8.75-9.11,3.52-8.38,10.19.06.59.38,1.35.83,1.69,4.77,3.6,9.62,7.11,14.39,10.71,1.83,1.38,3.81-1.42,5.55.34-3.47,1.95-6.61,1.28-9.66-1.06-3.66-2.8-6.89-6.19-11.17-8.15-4.03-3.28-.64-7.54-1.11-11.29-.27-2.11,3.71-3.66,6.73-3.59,1.5.03,2.95-.13,4.24-.96,8.47-2.71,18.7,5.88,17.73,14.89Z"/>
  <path class="cls-3" d="M40.51,25.25c2.34,1.35,4.5,2.09,3.37,5.36-1.91-1.09-3.72-1.91-3.37-5.36Z"/>
  <path class="cls-47" d="M34.86,41.73c-2.88.27-4.6-1.65-6.82-2.09-1.36-.27-.64-1.25-.37-2.25.47-1.72,1.17-1.17,1.98-.54,1.75,1.38,4.17,2.03,5.22,4.87Z"/>
</svg>