<?xml version="1.0" encoding="UTF-8"?>
<svg id="Isolation_Mode" data-name="Isolation Mode" xmlns="http://www.w3.org/2000/svg" viewBox="0 0 359.81 62.92">
  <defs>
    <style>
      .cls-1 {
        fill: #ffcd08;
        stroke-width: 0px;
      }
    </style>
  </defs>
  <path class="cls-1" d="M.36,24.09c5.8,0,11.64-.4,17.4.12,4.85.44,6.75-1.54,7.89-5.87,1.51-5.76,3.6-11.37,5.82-18.25,2.34,6.97,4.65,12.84,6.24,18.9,1.09,4.16,3.11,5.45,7.29,5.19,5.96-.37,11.96-.09,19.51-.09-5.73,4.2-10.1,7.92-14.96,10.8-4.65,2.75-5.36,5.72-3.29,10.55,2.26,5.29,3.68,10.93,5.79,17.42-6.32-4.54-11.88-8.38-17.24-12.47-2.3-1.75-3.89-2.1-6.4-.1-5.27,4.2-10.9,7.94-17.3,12.53,2.24-7.02,3.82-13.11,6.16-18.89,1.62-4,.68-6.14-2.79-8.34-4.99-3.18-9.66-6.88-14.46-10.35.12-.38.24-.76.36-1.14Z"/>
  <path class="cls-1" d="M151.39,24.09c6.42,0,12.83-.13,19.24.06,3.15.09,4.76-.86,5.65-4.07,1.72-6.2,3.95-12.27,6.47-19.94,2.49,7.48,4.75,13.55,6.47,19.78.94,3.4,2.58,4.4,5.97,4.25,6.3-.27,12.63-.08,20.59-.08-6.44,4.71-11.56,8.74-16.99,12.3-2.78,1.83-3.21,3.51-2.09,6.53,2.29,6.18,4.16,12.51,6.58,19.94-6.32-4.56-11.79-8.23-16.92-12.32-2.75-2.19-4.64-1.97-7.28.12-5.07,4.01-10.44,7.65-16.82,12.25,2.41-7.38,4.29-13.62,6.52-19.72,1.14-3.12.79-5-2.2-6.93-5.3-3.41-10.26-7.34-15.36-11.06.05-.37.11-.75.16-1.12Z"/>
  <path class="cls-1" d="M128.06,62.85c-6.07-4.39-11.42-8.04-16.51-12.03-2.75-2.15-4.8-2.44-7.68-.12-5,4.01-10.36,7.58-16.71,12.16,2.45-7.53,4.31-13.85,6.58-20.01,1.12-3.03.53-4.68-2.17-6.46-5.34-3.53-10.39-7.48-15.33-12.29,5.88,0,11.79-.39,17.62.12,4.83.42,6.79-1.53,7.93-5.87,1.51-5.75,3.54-11.37,5.76-18.34,2.34,7.07,4.57,13.01,6.22,19.1,1.05,3.86,2.76,5.38,6.92,5.09,6.09-.42,12.22-.11,18.72.81-5.28,3.84-10.49,7.8-15.89,11.48-2.47,1.68-3.08,3.25-2,6.18,2.33,6.32,4.19,12.82,6.53,20.17Z"/>
  <path class="cls-1" d="M328.39.58c2.31,7.05,4.53,13.63,6.58,20.26.74,2.4,1.95,3.39,4.59,3.31,6.59-.19,13.18-.06,20.25,1.04-5.27,3.82-10.44,7.79-15.86,11.39-2.58,1.71-2.86,3.35-1.86,6.09,2.17,6.01,3.99,12.15,5.06,18.99-4.61-3.29-9.43-6.33-13.76-9.96-3.6-3.02-6.35-3.46-10.13-.17-4.32,3.76-9.27,6.81-14.87,9.57,1.94-6.08,3.67-12.23,5.9-18.2,1.13-3.04.56-4.75-2.08-6.52-5.37-3.6-10.53-7.51-17.16-12.29h15.55q9.73,0,12.76-9.14c1.4-4.24,2.78-8.49,4.18-12.73.1-.31.3-.58.86-1.65Z"/>
  <path class="cls-1" d="M288.29,25.12c-5.19,3.77-10.28,7.7-15.62,11.25-2.73,1.81-3.2,3.53-2.07,6.57,2.29,6.18,4.11,12.52,6.48,19.88-6.2-4.45-11.63-8.12-16.78-12.16-2.65-2.07-4.53-2.33-7.3-.09-5.03,4.06-10.43,7.66-16.78,12.25,2.44-7.68,4.36-14.26,6.66-20.7.89-2.5.49-3.83-1.68-5.3-5.49-3.73-10.8-7.71-16.13-12.72,5.64,0,11.32-.4,16.91.12,5.27.49,7.78-1.22,8.94-6.45,1.25-5.6,3.46-10.99,5.68-17.76,2.38,7.34,4.51,13.53,6.37,19.8.93,3.13,2.32,4.6,5.92,4.39,6.3-.36,12.63-.1,18.95-.1.15.34.29.68.44,1.03Z"/>
</svg>