<?xml version="1.0" encoding="UTF-8"?>
<svg id="Layer_1" data-name="Layer 1" xmlns="http://www.w3.org/2000/svg" viewBox="0 0 111.94 130.42">
  <defs>
    <style>
      .cls-1 {
        fill: #9aa0ad;
      }

      .cls-1, .cls-2, .cls-3, .cls-4, .cls-5, .cls-6, .cls-7, .cls-8, .cls-9, .cls-10, .cls-11, .cls-12, .cls-13, .cls-14, .cls-15, .cls-16, .cls-17, .cls-18, .cls-19, .cls-20, .cls-21, .cls-22, .cls-23, .cls-24, .cls-25, .cls-26, .cls-27, .cls-28, .cls-29, .cls-30, .cls-31, .cls-32, .cls-33, .cls-34, .cls-35, .cls-36, .cls-37, .cls-38, .cls-39, .cls-40, .cls-41, .cls-42, .cls-43, .cls-44, .cls-45, .cls-46, .cls-47, .cls-48, .cls-49, .cls-50, .cls-51, .cls-52, .cls-53, .cls-54, .cls-55, .cls-56, .cls-57, .cls-58, .cls-59, .cls-60, .cls-61, .cls-62, .cls-63, .cls-64, .cls-65, .cls-66, .cls-67, .cls-68, .cls-69, .cls-70, .cls-71, .cls-72, .cls-73, .cls-74, .cls-75, .cls-76, .cls-77, .cls-78, .cls-79, .cls-80, .cls-81, .cls-82, .cls-83, .cls-84, .cls-85, .cls-86, .cls-87, .cls-88, .cls-89, .cls-90, .cls-91, .cls-92, .cls-93, .cls-94, .cls-95, .cls-96, .cls-97, .cls-98, .cls-99, .cls-100, .cls-101, .cls-102 {
        stroke-width: 0px;
      }

      .cls-2 {
        fill: #b8becd;
      }

      .cls-3 {
        fill: #abacbb;
      }

      .cls-4 {
        fill: #cadff3;
      }

      .cls-5 {
        fill: #767985;
      }

      .cls-6 {
        fill: #444e4b;
      }

      .cls-7 {
        fill: #70777f;
      }

      .cls-8 {
        fill: #d6dbe2;
      }

      .cls-9 {
        fill: #2a2d36;
      }

      .cls-10 {
        fill: #454b54;
      }

      .cls-11 {
        fill: #c4c1cd;
      }

      .cls-12 {
        fill: #a9aeaa;
      }

      .cls-13 {
        fill: #686e78;
      }

      .cls-14 {
        fill: #d7dbe0;
      }

      .cls-15 {
        fill: #353f4a;
      }

      .cls-16 {
        fill: #9398a8;
      }

      .cls-17 {
        fill: #878e97;
      }

      .cls-18 {
        fill: #a0a4a8;
      }

      .cls-19 {
        fill: #878d9b;
      }

      .cls-20 {
        fill: #c9cfd5;
      }

      .cls-21 {
        fill: #d5d8dd;
      }

      .cls-22 {
        fill: #c9ccdb;
      }

      .cls-23 {
        fill: #3d4f73;
      }

      .cls-24 {
        fill: #aaafb8;
      }

      .cls-25 {
        fill: #4e5158;
      }

      .cls-26 {
        fill: #534f4d;
      }

      .cls-27 {
        fill: #7d949d;
      }

      .cls-28 {
        fill: #e1e8ec;
      }

      .cls-29 {
        fill: #2a3a66;
      }

      .cls-30 {
        fill: #f5f6f7;
      }

      .cls-31 {
        fill: #b7bec6;
      }

      .cls-32 {
        fill: #9ca2b0;
      }

      .cls-33 {
        fill: #a9afc0;
      }

      .cls-34 {
        fill: #54575f;
      }

      .cls-35 {
        fill: #272a31;
      }

      .cls-36 {
        fill: #8e939a;
      }

      .cls-37 {
        fill: #506696;
      }

      .cls-38 {
        fill: #a9abb7;
      }

      .cls-39 {
        fill: #545864;
      }

      .cls-40 {
        fill: #72737f;
      }

      .cls-41 {
        fill: #dce5e5;
      }

      .cls-42 {
        fill: #6e707c;
      }

      .cls-43 {
        fill: #555b66;
      }

      .cls-44 {
        fill: #6d6e70;
      }

      .cls-45 {
        fill: #9299a8;
      }

      .cls-46 {
        fill: #494c53;
      }

      .cls-47 {
        fill: #484a53;
      }

      .cls-48 {
        fill: #585b61;
      }

      .cls-49 {
        fill: #717887;
      }

      .cls-50 {
        fill: #b8bcc7;
      }

      .cls-51 {
        fill: #9ea3af;
      }

      .cls-52 {
        fill: #98a2ad;
      }

      .cls-53 {
        fill: #1f222b;
      }

      .cls-54 {
        fill: #7f8590;
      }

      .cls-55 {
        fill: #656d6b;
      }

      .cls-56 {
        fill: #4c689a;
      }

      .cls-57 {
        fill: #24282c;
      }

      .cls-58 {
        fill: #d2cfd6;
      }

      .cls-59 {
        fill: #747d87;
      }

      .cls-60 {
        fill: #e6e0e7;
      }

      .cls-61 {
        fill: #293038;
      }

      .cls-62 {
        fill: #22252d;
      }

      .cls-63 {
        fill: #2a3f5a;
      }

      .cls-64 {
        fill: #9facb5;
      }

      .cls-65 {
        fill: #625e5e;
      }

      .cls-66 {
        fill: #63656f;
      }

      .cls-67 {
        fill: #858b99;
      }

      .cls-68 {
        fill: #3a3e42;
      }

      .cls-69 {
        fill: #677f9e;
      }

      .cls-70 {
        fill: #596263;
      }

      .cls-71 {
        fill: #8096c3;
      }

      .cls-72 {
        fill: #484e58;
      }

      .cls-73 {
        fill: #7d8689;
      }

      .cls-74 {
        fill: #dadee2;
      }

      .cls-75 {
        fill: #272c31;
      }

      .cls-76 {
        fill: #bec4ca;
      }

      .cls-77 {
        fill: #565962;
      }

      .cls-78 {
        fill: #4e525d;
      }

      .cls-79 {
        fill: #cdd4e1;
      }

      .cls-80 {
        fill: #8d9290;
      }

      .cls-81 {
        fill: #6b7c84;
      }

      .cls-82 {
        fill: #373a41;
      }

      .cls-83 {
        fill: #43474e;
      }

      .cls-84 {
        fill: #7c94c7;
      }

      .cls-85 {
        fill: #2d3135;
      }

      .cls-86 {
        fill: #f4f5f5;
      }

      .cls-87 {
        fill: #a59fac;
      }

      .cls-88 {
        fill: #898f9f;
      }

      .cls-89 {
        fill: #9da2b3;
      }

      .cls-90 {
        fill: #9ba0ad;
      }

      .cls-91 {
        fill: #303136;
      }

      .cls-92 {
        fill: #889199;
      }

      .cls-93 {
        fill: #9d9cad;
      }

      .cls-94 {
        fill: #adb1c0;
      }

      .cls-95 {
        fill: #878d98;
      }

      .cls-96 {
        fill: #8d91a1;
      }

      .cls-97 {
        fill: #8c929b;
      }

      .cls-98 {
        fill: #797d89;
      }

      .cls-99 {
        fill: #828993;
      }

      .cls-100 {
        fill: #253853;
      }

      .cls-101 {
        fill: #505d85;
      }

      .cls-102 {
        fill: #828290;
      }
    </style>
  </defs>
  <g id="TWnyP5">
    <g>
      <path class="cls-34" d="M51.76,130.39c-3.84-.33-7.65-.8-11.12-2.67-.05-.22-.09-.44-.14-.66-1.35-2.12-2.89-4.11-4.46-6.08-1.54-2.78-4.59-4.71-4.74-8.29,3.28-6.99,3.84-7.19,12.01-4.32.36-.94,1.86,3.13,1.61-.37-.1-1.29-.25-2.58.86-3.57,1.49-.09,2.01,1.01,2.59,2.06,1.24,2.7-.19,5.81,1.3,8.44.63-.15,1.02-.6,1.41-1.04.69-.81,1.44-1.57,2.07-2.43,3.92-4.63,7.31-9.66,11.14-14.35,1.2-1.47,2.14-3.37,4.32-3.77,4.5,3.71,8.06,7.91,7.35,14.31-1.75,2.05-4.04,3.7-4.73,6.52-1.51,2.89-4.62,4.17-6.61,6.58-.34.29-.72.55-1.1.77-3.5,1.5-5.92,4.52-9.12,6.44-1.01.67-1.72,1.67-2.63,2.45Z"/>
      <path class="cls-77" d="M106.65,103.62c-12.61,13.63-26.95,24.29-46.04,26.8-1.89-1.43-5.31,1.64-6.39-2.17,2.67-3.17,6.05-5.47,9.52-7.65l-.06.04c3.19-3.07,7.77-4.74,9.42-9.36.43-1.16,1.2-1.93,2.42-2.22,2.92-.38,4.21-2.96,6.2-4.59,2.88-2.35,4.69-5.98,8.53-7.2,1.3.22,2.49,1.08,3.81.96,5.19-.48,9.24,1.6,12.58,5.38Z"/>
      <path class="cls-83" d="M42.7,108.91c-.18,1.05-.52,1.41-1.5.55-4.92-4.3-6.9.31-9.45,3.16-4.21-1.1-4.36-5.8-7.19-8.12-.26-.36-.47-.75-.64-1.16-.08-.3-.15-.61-.22-.92-.14-.6-.39-1.17-.57-1.76-.05.73.48,1.31.52,2.02.39,5.29-5.39,3.08-7.38,5.92-.89,1.27-3.5-.91-4.83-2.42-1.75-1.99-3.16-4.22-4.45-6.53-.05-2.34-.1-4.68-.15-7.02,1.42-1.28,2.8-.64,4.1.17,3.15,1.97,6.17,2.27,9.15-.36.89-.78,2.35-1.64,3.11-.61,3.85,5.25,4.96-.28,7.01-1.72.91-.63,1.36-1.91,2.74-1.91,4.46,6.33,8.53,12.85,9.75,20.71Z"/>
      <path class="cls-82" d="M109.86,86.6c1.46,1.77.56,3.91.91,5.86.78,4.26-2.03,4.71-5.02,4.36-2.96-.34-5.5-2.03-8.06-3.49-4.75-2.7-4.74-2.72-6.45,2.42-.22.67-.64,1.11-1.29,1.35-.46.12-.92.17-1.39.15-1.54-.41-2.86-2.16-4.58-1.26-6.13,3.18-9.76-1.09-13.74-4.43,1.46-5.47,4.86-9.53,9.32-12.82,3.86-.65,7.69-.62,11.42.76,1.54,4.36-.82,7.48-3.05,10.63q1.75-1.47,2.93-5.08c1.74-2.57,4.39-3.11,7.02-2.4,4.05,1.09,8.05,2.44,11.98,3.95Z"/>
      <path class="cls-57" d="M109.86,86.6c-3.33,1.29-6.04-.32-8.87-1.77-3.23-1.65-6.52-2.22-9.41.82-1.2-2.01.03-4.16-.35-6.22-.12-.64.28.08-.02-.42-.21-.34-.09.61-.52.62-3.78-.03-7.56-.07-11.34-.1-.21-4.14,3.15-6.68,4.51-10.12.91-1.62,1.08-3.68,2.86-4.78.75-.06,1.76-1.62,2.18.27,1.71,7.75,8.03,11,14.03,14.68,2.82,1.73,6.47,2.87,6.94,7.02Z"/>
      <path class="cls-68" d="M32.85,88.62c-2.12,2.88-3.78,6.29-7.91,6.8-1.12.14-3.63,1.03-.94-1.51.32-.3-1.45-2.48-2.33-1.39-4.51,5.57-8.85,3.04-13.35.21-.37-.23-.98-.08-1.48-.1-.22-2.62.97-4.91,1.73-7.29,1.78-1.72,3.68-1,5.75-.56,4.56.98,6.72-.48,8.06-5.06.3-1.01.61-2.02,1.8-1.98,1.25.04,1.57,1.26,1.56,2.17-.04,3.92,2.49,3.51,5.05,3.16,1.71.48,2.38,1.81,2.73,3.38.07.82-.09,1.56-.68,2.18Z"/>
      <path class="cls-25" d="M6.99,99.65c2.06,2.29,3.97,4.77,6.28,6.78.89.77,3.42,4.52,3.88-.7.15-1.64,1.53-.3,2.34-.37,1.73-.15,3.79,0,3.28-2.81,1.14-.49,1.44.51,1.98,1.11l-.02-.03c3.44,5.83,7.06,11.54,11.31,16.84.88,1.06,1.36,2.08-.29,2.88-3.33.92-5.6-1.14-8.06-2.8-3.38-2.29-6.1-5.59-10.23-6.75-4.42-4.02-9-7.94-10.47-14.15Z"/>
      <path class="cls-14" d="M25.88,66.66c-3.57-4.39-5.1-9.35-4.12-14.99-.26-.51-.11-1.01.42-1.02,1.42-.04.63,2.14,1.61,2.04,2.48-.26,3.01,1.59,3.72,3.13.82,1.79,1.8,3.47,2.81,5.14,1.01,1.71,2.39,2.3,4.27,1.4,1.16-.28,2.24.04,3.33.38.44.15.84.36,1.24.6.93.64,1.92,1.19,2.68,2.06,3.18,3.69,4.2,3.8,8.31.94,1.09-.84,2.07-1.83,3.27-2.53,1.85-.76,3.25-.59,3.63,1.74-.81,1.67-2.2,2.94-3.16,4.51-.73.66-1.59,1.11-2.52,1.42-3.85.63-7.75,1.88-11.4-.67-.58-.26-1.24-1.3-1.68.14-.41,1.35-.38,2.85-1.45,3.96-4.48.69-4.92-3.99-7.58-5.73-1.18-.77-1-3.35-3.38-2.53Z"/>
      <path class="cls-85" d="M30.88,83.61q-5.3,2.08-6.95-5.94c-.86,3.29,1.18,7.26-3.49,7.92-2.89.41-5.85,1.97-8.49-.38-1.35-1.2-2.23,1.67-3.38.13-.02-1.61,1.07-2.29,2.34-2.87,6.28-2.89,11.31-7.34,15.72-12.57,2.58.64,2.14,3.15,3.02,4.84.78,2.9,2.08,5.74,1.23,8.87Z"/>
      <path class="cls-46" d="M89.71,96.63c.67-.38.92-.98.63-1.66-1.14-2.66,1.11-4.15,2.42-5.44,1.12-1.1,2.59.9,3.73,1.65,2.65,1.76,5.43,3.23,8.38,4.34,2.98,1.12,5.25.48,5.89-3.07,3.21,5.42-1.81,7.79-4.12,11.16-.64.11-1.76.48-1.85.3-2.77-5.27-7.72-4.24-12.27-4.32-1.37-.03-1.78-1.3-2.7-1.92-.3-.2-.42-.43-.35-.67.07-.25.15-.38.24-.38Z"/>
      <path class="cls-92" d="M.72,24.65c.38-3.1.69-6.22,1.16-9.31.5-3.25,3.58-3.56,6.29-4.9-4.54-2.94-.96-4.55.8-6.33C13.44-.41,16.34-1.02,19.86,1.61c-.73,3.09-4.39,3.13-5.79,5.61-.94,1.67-2.73,2.81-3.14,4.84-.29.96-.61,2.01-1.43,2.56-4.37,2.94-4.12,7.52-4.37,11.95-.34.37-.75.59-1.24.68-1.67-.12-2.74-.97-3.17-2.61Z"/>
      <path class="cls-41" d="M27.67,2.66c-.63-.46-1.26-.93-1.88-1.38,4.52-2.78,8.33-.52,11.89,2.04,10.47,7.53,22.53,7.31,34.56,7.4,1.61.01,2.39-.89,3.02-2.13,1.05-2.05,2.51-2.51,4.43-1.13-.92,2-2.49,3.51-3.89,5.16-.62.52-1.32.88-2.09,1.1-3.88.6-7.78.37-11.67.37-2.79-.04-5.47-.73-8.18-1.26-4.48-2.53-10.13-.65-14.45-3.81-3.29-3.27-8.1-3.74-11.73-6.37Z"/>
      <path class="cls-20" d="M86.71,64.63c-.76,1.64-.46,3.7-2.01,5.02-2.73,1.95-4.04,5.67-7.81,6.35-1.44-.75-3.09.48-4.51-.46-.39-.64-.47-1.33-.33-2.06.22-.73.66-1.3,1.23-1.78,4.85-5.22,9.78-10.36,13.07-16.79.85-1.66,1.31-3.92,4.03-3.49,1.3,1.36,1.03,2.8.24,4.28-1.59,2.85-1.28,6.54-3.91,8.93Z"/>
      <path class="cls-36" d="M95.69,7.76c8.04-.51,13.33,3.62,15.87,10.71,1.07,3-.18,6.69-2.86,9.26-2.86-.41-5.42-3.73-4.22-6.75,1.29-3.24-.68-2.36-2.15-2.51-1.45-.04-2.76-.43-3.75-1.56-.54-1.52,1.82-2.02,1.25-3.56.82-.68,1.93-.41,2.86-.87-1.86-2.15-4.97-1.71-6.99-3.46-.29-.42-.31-.84,0-1.26Z"/>
      <path class="cls-97" d="M90.63,55.7c.05-1.48.6-3.06-.87-4.23-.67-2.5-.27-4.52,2.47-5.47,1.55-.54,2.16-1.89,2.79-3.22,1.07-1.85,3.18-3.05,3.39-5.44.57-1.15.86-2.34,1.13-3.61.69-3.27,3.1-3.98,6.29-2.11.29,9.08-6.49,13.9-11.99,19.34-1.48,1.46-1.82,3.38-3.2,4.73Z"/>
      <path class="cls-50" d="M29.7,61.7c-.97-1.47-1.75-3.12-2.96-4.36-.99-1.01.39-5.61-3.53-2.58-.2-1.05-.4-2.09-.62-3.13-.02-.1-.28-.2-.41-.19-.14,0-.28.15-.42.24-2.08-2.66.3-7.3-3.97-8.99-.79-.8-2.76-.41-2.42-2.37,5.58-2.95,5.61-2.96,3.5-10.19-.37-1.26.14-1.83,1.16-2.26,1.51-.34,2.91-.27,3.99,1.04,1.22,2.47,2.18,4.96.57,7.64-1.79,6.9,1.99,12.47,4.4,18.35.9,2.2,2.88,4.28.71,6.79Z"/>
      <path class="cls-51" d="M105.82,31.63c-2.61-.39-5.74-1.65-4.75,3.31.3,1.49-1.26,2.06-2.27,2.81-1.93-1.76-1.45-4.06-.88-6.02,1.38-4.72,3.82-9.1,4.75-13.99,2.25-1.9,3.39,1.65,5.42.8-3.65,2.89-3.39,6.34.6,9.2-.96,1.3-1.92,2.59-2.88,3.89Z"/>
      <path class="cls-39" d="M27.67,2.66c4.47.55,8.41,2.3,11.87,5.18.36.19.51.41.45.67-.06.28-.14.42-.24.42-2.21.99-4.05-.15-5.86-1.14-1.71-.94-3.36-1.87-5.41-1.48-4.73-.74-9.18-.2-13.03,2.95-1.81.98-3.18,3.02-5.67,2.35,1.89-4.81,5.64-7.75,10.07-10,2.61.35,5.21.7,7.81,1.05Z"/>
      <path class="cls-102" d="M95.69,7.76c0,.31,0,.62.02.93-1.04,1.18-2.24.87-3.36.4,1.24,1.06,3.98-.08,4.31,2.19.19,1.28-1.67,1.72-2.91,2.09-3.01.09-5.93-.29-8.59-1.82-2.41-2.91-3.98.31-5.92.83-.82.49-1.66.92-2.65.82-.71-.26-1.34-.58-.87-1.52,1.11-1.62,1.54-3.87,3.98-4.23.34-.26.67-.51,1.01-.77,4.32-.67,8.62-.94,12.91.19.69.29,1.38.59,2.08.88Z"/>
      <path class="cls-70" d="M17.46,113.8c5.09-1.16,7.16,3.5,10.43,5.67,2.5,1.67,4.67,3.47,7.86,3.14,2.5.73,4.39,2.14,5.23,4.71-.1.14-.22.28-.35.4-9.13-2.31-16.5-7.53-23.17-13.93Z"/>
      <path class="cls-73" d="M.72,24.65l3.06,2.04c.32.35.47.77.48,1.24-1.9,5.38,2.12,9.28,3.48,13.85.18,1.39,1.71,3.1-.9,3.83-3.47-.11-4.37-4.19-4.38-5.36-.06-5.3-4.05-10.16-1.74-15.61Z"/>
      <path class="cls-17" d="M6.84,45.62c1.74-1.36-.46-2.67-.06-4.01-.39-1.3.63-1.57,1.45-1.98,2.67-.83,4.85,2.08,7.56.98-.02,1.36,2.38.36,2,2.07-2.77.96-5.64,1.96-7.66,4.09-2.39,2.53-2.6.35-3.29-1.16Z"/>
      <path class="cls-18" d="M25.88,66.66v-3.09c4.01,4.25,6.73,8.83,11.22,11.62.47.08.83.33,1.08.74.22.69.14,1.34-.31,1.92-2.3.68-4.4.72-5.68-1.82-.97-2.78-4.13-4.22-4.54-7.35-.59-.67-1.18-1.35-1.77-2.02Z"/>
      <path class="cls-21" d="M27.65,68.68c1.84,2.23,4.54,3.82,5.11,6.97-1.76,1.45-2.74-.37-4.02-.96-1.52-1.24-.45-3.62-2.11-4.8.34-.4.68-.81,1.02-1.21Z"/>
      <path class="cls-28" d="M93.61,6.88c-4.3-.06-8.61-.13-12.91-.19,5.59-2.26,11.36-.17,17.64-1.31-1.75,2-3.4.99-4.73,1.5Z"/>
      <path class="cls-6" d="M54.78,127.66c.63,3.69,4.45.66,5.83,2.76-2.95,0-5.91-.02-8.86-.03-.06-1.47.13-2.75,2.03-2.8.36-.42.69-.4,1,.06Z"/>
      <path class="cls-30" d="M76.74,75.89c3.07-1.54,4.13-5.66,7.96-6.24-.95,3.75-3.95,6.38-5.36,9.88-3.23,3.81-6.4,7.66-8.87,12.03-.07,1.13-.71,1.77-1.76,2.06-5.03,6.38-10.06,12.76-15.1,19.14-4.05-2.67-1.7-6.58-1.95-9.99.52-1.98,2.02-3.48,2.71-5.39,2.08-3.78-2.06-5.47-2.81-8.3-.83-1.49-1.95-2.89-1.4-4.78.74-1.57,2.26-1.97,3.72-2.48,1.25-.34,2.52-.39,3.8-.21,2.12.56,4.27.86,6.46.68,5.32.07,8.51-4.04,12.59-6.4Z"/>
      <path class="cls-47" d="M68.71,93.62c.59-.69,1.18-1.37,1.76-2.06,2.19,1,4.66,1.45,6.26,3.56,1.82,2.39,4.11.92,5.69,0,2.92-1.71,4.75-.86,6.44,1.54-1.03,3.63-4.31,5.28-6.73,7.68-2.39.57-3.44,3.79-6.4,3.25-.63-5.52-4.08-9.62-7.02-13.97Z"/>
      <path class="cls-79" d="M32.85,88.62c-.01-.65-.03-1.3-.04-1.95,3.35.38,5.67,3.79,9.36,3.21.5.84.52,1.75.37,2.68-.54,2.34-.95,4.69-.04,7.04.89,1.72,3.84,1.04,4.1,3.5.08.7-.03,1.35-.49,1.9-1.05,2.34,1.55,4.74,0,7.11-2.35.09-1.91-2.56-3.4-3.2-3.28-6.76-6.57-13.53-9.85-20.29Z"/>
      <path class="cls-4" d="M49.91,116.65c-1.97,2.04-2.09-.07-2.17-1.13-.22-2.92-.18-5.87-.24-8.8-.6-2.56-.98-5.15-1.16-7.77-.09-1.47-.05-2.94.05-4.4.39-1.6-.25-3.84,2.5-3.95,1.53,1.76,1.13,3.92,1.23,5.97.12,3.46-.44,6.96.69,10.36.5,3.32.45,6.58-.89,9.73Z"/>
      <path class="cls-75" d="M35.72,120.63c-4.69-5-8.93-10.29-10.99-17,3.58,2.03,4.17,6.39,7.02,8.99,1.69,2.66,3.37,5.32,5.06,7.98-.35.45-.72.44-1.09.02Z"/>
      <path class="cls-84" d="M52.75,102.09c.11,3.57-.91,7.24.86,10.68-.61.65-1.22,1.3-1.83,1.96-3.4-2.23-.47-5.32-1.09-7.93-.29-2.69-.56-5.38-.93-8.06.21-1.83-.65-4.25,2.45-4.51.59.18,1.01.54,1.28,1.09.92,2.39.11,4.59-.75,6.78Z"/>
      <path class="cls-66" d="M75.74,107.59c2.26-.92,3.14-3.93,5.99-3.96-.84,3.16-2.85,5.15-6,6-.97.33-1.61,1.01-2.03,1.93-.51,1.32-1.21,2.37-2.87,2.15.28-3.12,1.62-5.41,4.91-6.11Z"/>
      <path class="cls-62" d="M70.82,113.7c.96-.71,1.92-1.43,2.87-2.15.71.33,1.06,1.08.5,1.5-3.46,2.59-6.19,6.2-10.5,7.58,1.53-3.18,5.08-4.29,7.13-6.94Z"/>
      <path class="cls-9" d="M54.78,127.66c-.33-.02-.67-.04-1-.06,3.23-2.46,5.56-6.21,9.97-7-2.77,2.63-5.51,5.31-8.97,7.06Z"/>
      <path class="cls-69" d="M51.61,106.44c.97,2.74-2.85,5.58.18,8.27-.62.65-1.25,1.29-1.87,1.94-.12-3.31-.25-6.62-.37-9.93-.2-.4-.21-.81,0-1.21,1.06-.5,1.58.19,2.07.93Z"/>
      <path class="cls-61" d="M35.72,120.63c.36,0,.72-.02,1.09-.02,1.55,2.14,4.52,3.4,4.17,6.72-1.74-1.57-3.49-3.14-5.23-4.71,1.14-.68.09-1.33-.03-1.99Z"/>
      <path class="cls-29" d="M47.69,98.76c-.06,2.65-.12,5.31-.19,7.96-.47-.57-.93-1.15-1.4-1.72-.08-.72-.17-1.44-.25-2.16.96-1.2-2.29-4.3,1.83-4.08Z"/>
      <path class="cls-53" d="M75.73,109.63c2.27-1.73,4.37-3.63,6-6,2.81-1.88,5.1-4.29,7.14-6.97.28,0,.57,0,.85-.02.04.35.08.7.12,1.05-3.8,3.9-7.58,7.82-11.41,11.69-.74.75-1.62,2-2.69.26Z"/>
      <path class="cls-35" d="M24.75,103.65c-.66-.37-1.32-.74-1.98-1.11.29-1.97-2.55-2.97-1.6-5.6,2.2,1.97,2.98,4.28,3.58,6.7Z"/>
      <path class="cls-48" d="M90.68,79.64c.06-.93.12-1.86.17-2.79.24,0,.48,0,.72,0,0,2.94,0,5.87,0,8.81-.94,3.52-2.15,6.67-6.77,4.51,6.37-.93,5.08-6.31,5.88-10.53Z"/>
      <path class="cls-86" d="M41.88,89.7c-4.74,4.12-6.12-1.81-9.08-3.03-.64-1.02-1.28-2.04-1.92-3.06-.71-2.97-1.43-5.95-2.14-8.92,1.68-1.09,2.45,1.6,4.02.96.82,2.49,3.52,1.14,4.94,2.4,1.24,1.47,3.02,1.85,4.75,2.32,1.78.49,3.44,1.1,4.03,3.12.14.72.08,1.42-.15,2.11-1.2,1.67-1.68,4.13-4.45,4.09Z"/>
      <path class="cls-96" d="M29.7,61.7c-.22-6-4.75-10.36-6.09-15.97-.82-3.44-1.58-6.72.1-10.07,1.25.05.52,2.97,2.62,1.79,2.58,2.53,3.89,6.05,6.59,8.47.42,1.17.03,2.48.58,3.63.71,1.62,2.84,2.19,3.08,4.16-.42,3.03.1,6.22-1.62,9-2.56,3.79-3.93,1.5-5.26-1.02Z"/>
      <path class="cls-60" d="M45.84,83.81c-1.03-2.71-3.85-1.86-5.73-2.89-1.2-.66-3.71-.13-2.41-2.86-.24-.97-.48-1.95-.72-2.92,2.49-1.99,2.56,1.43,4.16,2.01.22.32.09-.9-.2-.3-.11.22-.3.19-.39-.14-.6-2.32-3.56-4.35-.88-7.08,3.92,2.68,8.21.73,12.32.99,3.01,2.17,1.76,5.41,2.08,8.25.05,1.3-.05,2.59-.32,3.87-.72,1.2-2.63.69-3.16,2.18-1.67.01-3.16-.73-4.74-1.11Z"/>
      <path class="cls-91" d="M50.79,66.73c-3.04,4.24-6.97,4.06-8.92-.56-.69-1.65-3.64.22-3.27-2.47-1-2.15.4-3.14,1.96-4.06,3.74-1.24,7.32-1.01,10.68,1.2,1.11,2.06.82,4.01-.45,5.89Z"/>
      <path class="cls-31" d="M56.81,65.59c-.65-1.64-1.82-1.65-3.19-1-.5-.56-.57-1.22-.44-1.93,1.67-2.51-.29-6.4,3.13-8.24,1.63,1.32,3.42-2.91,5.02.13-.56,4.43-.72,8.83.87,13.13.02.48-.08.93-.29,1.36-1.29,1.4-2.67,1.96-4.29.49-.32-1.3-.34-2.67-.81-3.95Z"/>
      <path class="cls-8" d="M34.96,62.72c-.85-3.43.47-6.69.75-10.03.94-2.41,2.55-3.68,5.26-3.06.5.61.7,1.32.73,2.1.14,2.64-2.73,4.11-2.6,6.75-.13,1.78-.73,3.46-1.24,5.15-.97-.3-1.94-.59-2.91-.89Z"/>
      <path class="cls-55" d="M52.93,79.57c-.87-2.92,1.17-6.16-.95-8.95.59-.33,1.18-.67,1.77-1,.54-.53,1.17-.62,1.88-.43,1.9,1.21,1.63,3,1.29,4.81-1.12,1.51-.83,3.47-1.61,5.1-.66.82-1.38,1.36-2.37.47Z"/>
      <path class="cls-44" d="M39.66,69.63c-.92,3.15,2.21,5.51,1.83,8.59-2.14-.3-1.99-3.58-4.51-3.09,0,0,.13.06.13.06.1-1.75.13-3.51.32-5.25.07-.67-1.04-1.67.18-1.94.95-.21,1.8.52,2.05,1.62Z"/>
      <path class="cls-64" d="M37.87,63.61c0-1.95-.01-3.91-.02-5.86,1.58-.76,1.68-3.56,4.19-3.05.82,1.1.88,2.33.64,3.62-.32,1.06-.97,1.81-2.02,2.19-.68,1.06-1.37,2.13-2.05,3.19-.25-.01-.5-.04-.74-.09Z"/>
      <path class="cls-60" d="M55.75,69.62c-.67,0-1.34,0-2.01,0-.41-2.43,1.32-3.24,3.07-4.03,2.67.38,1.16,1.97.92,3.19-.45.77-.94,1.43-1.97.85Z"/>
      <path class="cls-54" d="M53.72,62.66c-.03.64-.06,1.28-.1,1.92-.89.79-1.13,2.42-2.83,2.14.01-2.03.02-4.06.03-6.09.17-.7.57-1.16,1.32-1.25,1.59.58,1.6,1.92,1.58,3.28Z"/>
      <path class="cls-50" d="M3.73,27.67c.03-.32.05-.64.05-.97.33-.01.66-.01.99,0,.09-3.94,2.52-6.98,4.13-10.29,1.27-2.61,4.25-2.86,6.78-3.55.71-.08,1.4-.02,2.09.15,6.56,1.86-.04,3.63-.03,5.43,5.71,2.88,5.77,4.54.39,10.05q-3.11-1.36-1.55-5.02c-.67.47-1.33,1.08-2.16,1.14-3.68.27-6.4,1.33-6.21,5.85.05,1.24-.84,2.52-2.55,2.46-2.08-1.22-2.09-3.21-1.94-5.26Z"/>
      <path class="cls-94" d="M15.83,13.65c-7.19,1.38-7.79,8.35-11.06,13.04-1.24-5.12-1.19-9.79,4.11-12.88.54-.32.61-1.44.9-2.19,1.64-.98,3.28-1.97,4.92-2.95,5.35-1.35,10.77-.61,16.17-.59,1.03,0,2.1.26,2.21,1.49.13,1.48-1.06,1.94-2.22,2.18-3.89.8-7.89.39-11.82.94-1.15.16-2.3.07-3.2.97Z"/>
      <path class="cls-33" d="M39.42,8.74c.02-.3.06-.6.12-.9,2.63,2.01,5.7,1.92,8.77,1.89,2.04-.02,3.66,1.19,5.41,2.01,1.52,1.83.28,2.99-1.01,4.14-1.14,1.02-1.33,2.25-.64,3.57.72,1.37,1.89,1.04,3.02.66,1.92-.64,3.54-.08,5.07,1.12,1.09.85,2.41,1.52,3.47.09,1.06-1.42-.62-1.86-1.22-2.72-1.23-1.78-3.42-3.55-.69-5.84,4.3-.05,8.6-.1,12.9-.15.42,2.26-1.63,1.81-2.67,2.47-3.36,5.21-3.71,14.19-.68,17.93,3.07,3.74,4,8.73,7.24,12.37.93,1.05.83,2.29-.16,3.11-1.75,1.45-2.93,3.7-5.48,4.07-1.92.71-2.54-2-4.35-1.64-1.09.02-1.67-.84-2.45-1.34-1.67-1.07-3.09.23-4.62.47-.98-.06-1.7-.56-2.29-1.31-.77-1.62-2.38-2.93-1.87-5.02,3.18-3.42-1.84-5.3-1.55-8.18-.04-1.33.59-2.61.31-3.94-.31-1.43-1.31-2.3-2.65-2.7-1.45-.44-1.92.72-2.64,1.67-3.3,4.42-4.36,4.62-8.93,2.31-2.03-1.02-2.22.39-2.04,1.86.39,3.17-1.28,4.96-3.94,6.12-2.22.38-.3,2-.84,2.89-.33.65-.83,1.1-1.55,1.27-2.93-.64-4.4-2.62-3.61-5.38.59-2.08-1.32-3.4-.82-5.24,1.13-2.91,2.11-5.91,5.11-7.55,2.44-.97,4.08-3.11,6.45-4.3,2.89-1.46-1.75-3.07-.37-4.86q2.02-4.28-.81-8.96Z"/>
      <path class="cls-2" d="M61.73,12.77c-1.11,2.43.16,4.93,1.89,5.37,3.42.87,2.27,2.84,1.45,4.27-1.04,1.83-3.5,1.99-4.72.66-2.2-2.42-3.89-2.98-6.58-.76-1.17.96-2.55-.24-2.89-1.69-.45-1.93-2.01-4.32.66-5.62,1.62-.78,2.36-1.55,2.18-3.26,2.67.34,5.34.69,8.01,1.03Z"/>
      <path class="cls-95" d="M70.77,13.75c1.32-.25,2.95.55,3.85-1.13.36-.31.72-.62,1.08-.93.34.34.68.68,1.02,1.01,1.4,2.61-1.23,4.62-1.04,7.06-.52,1.42-.96,2.92-2.8,3.18-2.34-2.69-2.67-5.84-2.11-9.19Z"/>
      <path class="cls-88" d="M66.7,48.73c.62.62,1.24,1.23,1.86,1.85,1.29.63,2.22,2.55,4.08,1.16,2.4-.16,2.36-3.46,4.88-3.72.85-.09,1.24-.97-.09-2.01-3.37-2.65-2.99-7.74-6.34-10.57-.27-.23.34-1.26-.35-1.77-1.26-1.62-.52-3.33-.21-5.03.57-.5,1.22-.59,1.93-.41.43.2.77.5,1.06.87.58.99,1.64,1.95,1.57,3.05-.23,3.57.48,6.1,4.66,6.7,1.44.21,1.84,2.21,2.67,3.44,2.02,3.03,3.69-.48,5.54-.3,1.39.08,2.05-1.22,3.17-1.67,1.92.09,3.78.29,4.58,2.46.18,1.82-.46,4.03-2.01,4.12-3.33.19-2.92,2.84-3.93,4.59-1.99,7.05-8.37,11.21-11.54,17.52-.81,1.61-2.47,3.05-4.55,3.47-2.14-2.42-2.95.56-4.2,1.19-1.28.64-2.21,2.11-3.88,1.07-1.81-1.13-.56-2.62-.41-3.98-.29-2.02-1.39-3.11-3.48-3.07-3.09-4.1-2.32-8.47-.93-12.89.17-.28.43-.47.66-.69.67-.68,3.94-.19,1.14-2.47,1.29-1.09,2.85-1.79,4.14-2.88Z"/>
      <path class="cls-98" d="M66.67,70.65c.63,1.36-2.29,2.18-.82,3.27,1.88,1.4,2.38-.55,2.94-1.9.58-1.4,2.44-.15,3.23-1.62.44-.82,1.74-1.95,2.77-.73.3.36-.71,1.83-1.12,2.79-.34.37-.68.74-1.01,1.1-4.18,4.33-7.87,9.48-14.96,8.97-1.32.07-2.63.14-3.95.21-1.41-.77-.94-2.01-.81-3.17.84.03,1.54-.2,1.94-1,.83-.8,1.83-1.28,2.91-1.63,3.52-.17,4.38-3.08,5.66-5.55.97-.73,1.97-1.35,3.24-.74Z"/>
      <path class="cls-24" d="M57.69,82.53c6.17-1.02,9.68-6.47,14.96-8.96.04.7.08,1.4.12,2.09-.52,4.86-5.62,5.07-8.08,7.95-2.37-.13-4.85.5-7-1.08Z"/>
      <path class="cls-74" d="M64.69,83.61c1.3-4.07,6.24-4.43,8.08-7.95,1.32.08,2.9-4.23,3.97.23-2.56,4.85-7.02,6.74-12.05,7.72Z"/>
      <path class="cls-11" d="M95.7,42.76c-1.67-.7-3.33-1.4-5-2.09-4.06-1.89-1.79-5.9-2.87-8.8-.3-.81.14-.98-.83-1.31-3.03-2.2-7.19-3.72-5.32-8.85.43-.89,2.2.16,2.04-2.4-.18-2.86,3.59-1.84,5.75-2.08-1.19-.31-2.7.45-3.78-.82,3.76-2.85,8.22-2.73,13.03.28,1.32.35,2.64.7,3.96,1.04,1.36,4.21-.33,7.52-2.61,10.99-1.7,2.58-1.62,5.89-1.26,9.02,1.03,2.95-1.69,3.58-3.11,5.02Z"/>
      <path class="cls-87" d="M98.72,16.69c-3.9-.64-7.79-1.52-13.11-.49,2.82.34,4.41.53,7.3.88-3.66,1.12-6.81-.23-8.7,2.37.45,2.15,2.85.42,3.57,1.89-1.87,1.14-4.39-.65-6.06,1.34-3.79.47-6.04-2.73-4.64-6.65.5-1.41,1.46-2.51,2.57-3.48,1.46-1.18,2.88-2.46,5-1.98,3.06.66,6.12,1.33,9.18,1.99,2.13-.49,4.29-1.14,5.85,1.18,1.21,1.48-.53,1.99-.96,2.94Z"/>
      <path class="cls-40" d="M99.67,13.75c-1.95-.39-3.9-.79-5.85-1.18,4.69-3.25-2.68-1.06-1.35-3.06.78-1.18,2.13-.64,3.24-.82,3.89.41,7.52,1.31,10.12,5.5-2.46-.18-4.31-.31-6.16-.44Z"/>
      <path class="cls-22" d="M5.81,32.7c.33-.37.66-.73.98-1.1,1.78-2.05-1.68-5.7,2.44-7.21,2.72-.99,5.67-.15,8.47-1.64-1.29,1.67-1.77,3.3-.77,5.08.06.1.32.15.46.12.14-.03.25-.2.38-.31,1.17-.61,2.03-.63,2.01,1.04-.6,2.61,3.11,3.51,2.36,6.33-1.38,5.15-1.27,5.18-6.35,5.6-2.31,2.64-4.54.04-6.81-.12-1.54-2.4-4.44-4.26-3.17-7.8Z"/>
      <path class="cls-38" d="M19.78,28.69c-.41-.85-1.21-.95-2.01-1.04,1.7-.87,1.27-3.2,2.97-4.25.56-.34.65-2.32.2-3.16-.54-1.01-1.75-.2-2.63.18-2.69,1.17-.92-1.27-1.48-1.82.97-2.96,3.68-1.82,5.66-2.44.23-.07-.19-.07-.25-.18-.93-1.72-.43-2,3.72-2.06,1.5,2.26,6.63,3.92,1.22,7.34-1.32.9-1.13,1.83-.63,3.29.84,2.43.63,4.81-2.78,5.2-1.01-1.56-2.61-.92-3.99-1.06Z"/>
      <path class="cls-43" d="M23.77,29.76c2.1-1.44,3.17-2.77.99-5.33-1.39-1.63-.94-3.66,1.93-3.81,2.95-.05,3.64,1.28,2.93,4.08-.8,3.16-2.24,6.17-2.32,9.5.05.45.03.9-.04,1.34-.2.93-.81,1.57-1.52,2.14-.26.74-.52,1.48-1.08,3.08-.43-2.28-.69-3.69-.95-5.1,1.96-1.95-.23-3.94.06-5.9Z"/>
      <path class="cls-72" d="M26.67,34.66c-2.08-3.67,1.1-6.58,1.8-9.74.57-2.56-.22-3.27-1.77-4.31.18-1.11,3.97-2.24-.16-3.4-1.26-.35.29-1.55.51-2.36.59-.96,1.56-1.14,2.56-1.29.94-.1,1.88-.09,2.82-.1,2.76.05,3.45-.95,1.65-3.24-.65-2.83-4.46-2.2-5.29-4.82,4.38-1.55,6.71,3.43,10.63,3.33,1.41,2.15,3.43,2.77,7.14,1.03-2.61,3.68-4.18,5.9-5.75,8.11-1.35,1.77-2.35,3.8-4,5.35-3.14,1.65-5.25,4.26-6.9,7.31-.84,1.56-1.48,3.28-3.24,4.12Z"/>
      <path class="cls-93" d="M28.79,5.41c2.55.68,4.44,2.3,6.13,4.23.99,2.43-2.05,3.09-2.22,5.01-.98.04-1.96.08-2.94.12-1.88-1.77-4.03-.79-6.1-.59-2.01.19-3.98.18-5.9-.51-.64,0-1.29,0-1.93-.02,1.86-4.41,5.94-2.07,8.92-2.63,2.42-.45,5-.26,8.73-1.09-7.1-1.49-13.06.4-18.79-1.27,4.06-3.86,8.81-4.72,14.09-3.26Z"/>
      <path class="cls-10" d="M80.74,12.74c-4.53,5.05-4.21,8.25.97,9.95.22,3.83,3.41,5.15,5.94,7.03-.69,2.5.08,5.12-.66,7.62-2.98,2.66-4.66-.38-6.77-1.54-.38-.29-.72-.63-1.03-.99-2.65-4.71-4.34-9.71-4.4-15.18-1.01-2.77,1.51-4.55,1.93-6.91.64-.39,1.29-.79,1.93-1.18,1.13-.34,2.18-.55,2.08,1.21Z"/>
      <path class="cls-13" d="M80.74,12.74c-.38-.94-1.27-1.01-2.08-1.21,1.69-.89,3.3-2.02,5.1-2.59,1.59-.51,1.34.67.89,1.65-1.3.72-2.6,1.44-3.9,2.16Z"/>
      <path class="cls-90" d="M5.81,32.7c.45,2.85,3.29,4.72,3.17,7.8-.73.37-1.47.74-2.2,1.11-.88-3.02-4.12-4.94-3.94-8.43.1-1.86-.77-3.9.89-5.52.69,1.68,1.39,3.36,2.08,5.04Z"/>
      <path class="cls-101" d="M45.84,83.81c2.24-2.44,3.34-.02,4.74,1.11.64,1.2,1.29,2.41,1.93,3.61-.16.64-.26,1.3-.8,1.77-.96.88-2.05.57-3.14.34-1.56,1.05-.49,2.65-.83,3.95-3.17,1.28-3.24-1.32-3.94-3.14-.33-2.26,1.49-3.86,1.85-5.91.06-.58.12-1.16.18-1.73Z"/>
      <path class="cls-63" d="M51.43,89.81c.36-.42.72-.85,1.08-1.28,1.23,2.97,5.05,5.09,2.99,9.14-3.36,1.19-1.54-2.3-2.75-3.05h0c-1.52-1.31-2.25-2.83-1.32-4.81Z"/>
      <path class="cls-56" d="M52.75,94.63c1.41.57.59,3.16,2.75,3.04-.11,1.97-1.28,3.29-2.75,4.42,0-2.49,0-4.97,0-7.46Z"/>
      <path class="cls-71" d="M44.7,90.14c.55,1.81.54,3.99,3.05,4.44-.02,1.39-.04,2.78-.06,4.17-2.66.44-.55,3.02-1.83,4.08-.92-1.66-3.43.3-4.15-1.82.07-2.32.73-4.61.38-6.96.8-1.35.39-3.51,2.6-3.91Z"/>
      <path class="cls-100" d="M44.7,90.14c-.64,1.48-1.27,2.95-1.91,4.43-1.88.18-1.63-.84-1.13-2,.08-.96.16-1.91.23-2.87,1.57-1.1,1.89-3.34,3.78-4.16,1.99,2.02-1.26,2.94-.96,4.6Z"/>
      <path class="cls-37" d="M41.65,92.56c.33.69.07,1.73,1.13,2,1.58,2.47.63,4.52-1.07,6.44-1.57-2.8-1.38-5.62-.06-8.45Z"/>
      <path class="cls-56" d="M51.43,89.81c.44,1.6.88,3.21,1.32,4.81-2.86.23-1.67,2.54-2.08,4.03-.31.33-.67.38-1.07.19-.46-.69-.23-1.61-.73-2.29-.1-1.97-.19-3.94-.29-5.92.68-1.2,2.08.08,2.85-.83Z"/>
      <path class="cls-71" d="M48.86,96.55c.82.47.8,1.3.91,2.08.79,2.28,1.6,4.55.08,6.85-.11.41-.21.83-.32,1.24-1.39-3.31-.59-6.77-.67-10.17Z"/>
      <path class="cls-23" d="M49.86,105.49c-.03-2.28-.06-4.57-.08-6.85.3-.06.59-.05.88.03,1.39,2.46.98,5.15.95,7.79-.58-.32-1.17-.64-1.75-.96Z"/>
      <path class="cls-32" d="M25.75,37.68c-.02-.84.22-1.55.97-2.02.87-.76,1.68-1.69,3.02-.99.29,2.05,4.48,3.47.97,6.33-.32.26.83,3.33,3.04,3.64.27.33.35.71.26,1.13-.34.55-.79.92-1.48.87-3.42-2.11-4.89-5.69-6.78-8.96Z"/>
      <path class="cls-76" d="M33.77,45.56c0-.3-.01-.61-.02-.91.31-.33.63-.65.94-.98,3.39.48,6.94.72,7.61,5.19-.4.73-.82,1.41-1.82.82-1.59,1-3.18,2.01-4.76,3.01-.79-1.27-3.99.1-3.2-2.91,2.97-.65,2.16-2.42,1.26-4.22Z"/>
      <path class="cls-65" d="M33.77,45.56c1.85.1,3.32.79,2.6,2.91-.6,1.77-1.74,3.35-3.86,1.31-.28-1.05-.57-2.09.02-3.14.41-.36.83-.72,1.24-1.08Z"/>
      <path class="cls-81" d="M51.89,59.56c-.35.36-.71.72-1.06,1.08-3.4.54-6.76-1.4-10.16-.12.37-.61.73-1.23,1.1-1.84,1.49-4.36,5.51-5.65,9.09-7.47,1.44.28,2.06,1.34,2.5,2.59.2,2.09-.05,4.08-1.45,5.77Z"/>
      <path class="cls-52" d="M51.89,59.56c-.74-2.13.82-3.99.72-6.05-.43-1.15-.78-2.31-.69-3.56.24-1.55,1.79-2.14,2.45-3.39.79-1.35,1.07-3.33,3.39-2.87.08,1.91,2.64,2.82,2.01,5,.67,2.84-1.28,4.35-3.04,5.95-2.83,1.99.31,6.2-2.99,8.02-.61-1.04-1.22-2.07-1.83-3.11Z"/>
      <path class="cls-12" d="M63.67,71.69c.04,4-1.46,6.49-5.95,6-2.44-.83-3.51-2.01-1.05-4.1-.84-1.2.27-2.85-.91-3.97.66-.28,1.31-.57,1.97-.85,1.44,1.7,2.77.33,4.14-.14,2.11.13,1.8,1.68,1.81,3.05Z"/>
      <path class="cls-58" d="M56.71,54.64c1.01-1.98,2.03-3.97,3.04-5.95.55.33,1.11.66,1.66.98,1.18.39,1.29,1.33,1.22,2.36.77.45,2.25,1.2,2.21,1.31-.79,1.89-2.66,1.02-4.07,1.42-1.24-1.27-2.07-.06-2.8.6-1.43,1.29-1.02-.19-1.25-.73Z"/>
      <path class="cls-7" d="M63.67,71.69c-.6-1.02-1.21-2.03-1.81-3.05-.02-.33-.08-.65-.17-.97,2.3-1.72,3.37-1.08,4.98,2.98-1,.35-2,.7-3,1.04Z"/>
      <path class="cls-27" d="M50.92,51.67c-2.73,2.76-6.69,3.92-9.17,7.01,0-1.33-.02-2.67-.03-4-1.1-.68.11-2.22-1.07-2.86-.06-.71-.12-1.42-.18-2.13.37-.33.75-.67,1.12-1,.43-.35.85-.71,1.26-1.09,5.6-1.87,7.67-.82,8.06,4.08Z"/>
      <path class="cls-76" d="M40.66,51.8c1.31.6,1.2,1.73,1.07,2.86-1.14,1.22-1.4,3.56-3.88,3.08-.46-2.64,3.05-3.41,2.81-5.95Z"/>
      <path class="cls-80" d="M56.67,73.59c-1.78,1.91,1.23,2.6,1.05,4.1-.69,1.14-1.8.93-2.86.88.04-1.86-1.14-4.17,1.8-4.98Z"/>
      <path class="cls-3" d="M17.76,13.67c3.58-.26,7.17-.43,10.73-.82,2.02-.22,1.72.71,1.26,1.92-.9.03-1.8.06-2.7.09-4.01-.39-6.5,3.35-10.22,3.75-.74-.43-2.22-.8-.87-1.84,1.05-.81,2.59-1,3.91-1.47-.68-.52-1.4-1.07-2.12-1.62Z"/>
      <path class="cls-89" d="M34.77,40.69c2.43-1.91,5-3.54,3.84-7.55-.6-2.07,2.2-2.08,3.41-2.71,1.17-.61,1.17.91,1.01,1.95-.14.91.64,2.05,1.28,1.64,1.65-1.05,3.93-1.01,5.08-2.86,1.11-1.79.46-5.61,4.68-3.64,3.96,1.85,4.17,4.66,2.66,8.16-5.3-.49-9.17,3.74-14.15,4.28-1.49.97-2.95,2.09-4.75,2.3-1.26.15-3.09.93-3.06-1.59Z"/>
      <path class="cls-19" d="M34.77,40.69c3.49,2.6,5.24-1.65,7.97-2.02.46-.25.92.03,1.36.02,6.34-.15,10.15,2.9,11.62,9.01-1,.67-2,1.34-3,2.01-1.64.49-2.11-1.15-3.13-1.78-2.65-1.63-5.05-2-7.16.8-.27-.03-.55-.05-.83-.06-1.15-3.26-5.11-2.65-6.92-5.01.09-1.22-2.22-1.67-1.05-3.2.38-.49.82-.24,1.13.22Z"/>
      <path class="cls-16" d="M55.71,47.7c-.32-.08-.89-.1-.93-.25-1.52-6.37-7.26-6.93-12.05-8.79,2.3-.69,4.59-.85,6.66-2.78,1.78-1.66,4.83-1.77,7.33-.19.03,1.24.61,2.12,1.64,2.82,3.11,2.1,2.16,3.76-.62,5.18-1.86.74-2.09,2.3-2.03,4.01Z"/>
      <path class="cls-1" d="M70.7,28.71c1.43,1.64.17,3.31.04,4.96-3.35-1.59-2.55-4.08-2.7-7.22-.19-4.03,2.85-7.32,1.54-11.27-.1-.31.77-.95,1.2-1.44,1.66,2.77,1.24,5.99,1.97,8.96.35.68.03,1.25-.3,1.82-.78,1.31-1.26,2.74-1.74,4.18Z"/>
      <path class="cls-67" d="M29.74,34.67c-1.01.33-2.02.66-3.02.99-.02-.33-.03-.67-.05-1,2.65-4.61,3.89-10.36,9.91-12.23,1.81,2.6-.98,3.59-1.83,5.26-3,1.37-3.06,4.85-5.01,6.98Z"/>
      <path class="cls-45" d="M34.75,27.69c-.7-2.21,2.19-3.17,1.83-5.26.4-2.45,2.34-3.48,4.23-4.55,2.48,3.14,3.3,5.7-1.89,6.9-1.58.37-1.94,3.1-4.18,2.92Z"/>
      <path class="cls-26" d="M62.63,52.04c-1.18-.39-.98-1.49-1.22-2.36,1.42-2.25,3.14-2.79,5.29-.94.47,3.35-1.99,3.1-4.08,3.3Z"/>
      <path class="cls-5" d="M72.64,51.74c-2.27,2.83-3.26,1.12-4.08-1.16.13-.63.07-1.62.44-1.83,1.04-.58.74.63.95,1.04.58,1.15,1.5,1.71,2.69,1.95Z"/>
      <path class="cls-59" d="M71.76,23.73c.33-.34.65-.68.98-1.02.69-1.03,1.38-2.06,2.06-3.09,1.66,5.01,3.32,10.03,4.98,15.04-3.89-.17-4.65-4.06-7.06-5.98h0c-1.36-1.45-1.16-3.2-.97-4.95Z"/>
      <path class="cls-78" d="M80.52,34.79c2.25.06,3.07,4.61,6.18,1.96,2.94,1.27,2.97,3.56,2.14,6.14-1.03-.21-1.99-.02-2.58.89-2.65,4.05-3.62,1.22-4.72-1.13-.27-2.63-3.17-4.92-1.02-7.86Z"/>
      <path class="cls-99" d="M80.52,34.79c.34,2.62.68,5.24,1.02,7.86-1.4-.79-.99-3.39-4.04-2.99-1.49.19-4.93-2.46-3.53-5.64,1.06-2.41-2.32-3.26-1.24-5.34,3.43.72,4.37,4.38,7.06,5.98.24.04.49.09.73.13Z"/>
      <path class="cls-97" d="M88.84,42.89c-.42-2.15-.34-4.47-2.14-6.14-.04-2.39-1.75-5.02.96-7.04,1.07.43,2.13.86,3.2,1.29-3.89,3.16-.76,6.44-.15,9.67q-.1,2.7-1.86,2.23Z"/>
      <path class="cls-99" d="M71.76,23.73c.92,1.53,1.05,3.22.97,4.95-.68,0-1.35.02-2.03.03-1.56-2.07.12-3.44,1.06-4.98Z"/>
      <path class="cls-49" d="M81.14,59.08c-.17,1.08-.92,1.72-1.83,2.15-.75.35-1.32-.01-1.42-.8-.16-1.34.44-2.29,1.82-2.46.68-.09,1.23.37,1.43,1.12Z"/>
      <path class="cls-42" d="M32.7,14.64c-.76-2.33,1.78-3.2,2.22-5.01,2.84,4.11,2.64,4.56-2.22,5.01Z"/>
      <path class="cls-15" d="M42.43,48.74c2.54-4.3,5.3-4.04,10.28.97-.04,1.27-.07,2.53-.11,3.8-.56-.61-1.12-1.23-1.68-1.84-1.41-5.1-4.85-4.3-8.49-2.93Z"/>
    </g>
  </g>
</svg>