<?xml version="1.0" encoding="UTF-8"?>
<svg id="Layer_1" data-name="Layer 1" xmlns="http://www.w3.org/2000/svg" viewBox="0 0 158.17 195.89">
  <defs>
    <style>
      .cls-1 {
        fill: #5b3e36;
      }

      .cls-1, .cls-2, .cls-3, .cls-4, .cls-5, .cls-6, .cls-7, .cls-8, .cls-9, .cls-10, .cls-11, .cls-12, .cls-13, .cls-14, .cls-15, .cls-16, .cls-17, .cls-18, .cls-19, .cls-20, .cls-21, .cls-22, .cls-23, .cls-24, .cls-25, .cls-26, .cls-27, .cls-28, .cls-29 {
        stroke-width: 0px;
      }

      .cls-2 {
        fill: #e8e6ab;
      }

      .cls-3 {
        fill: #ded0c4;
      }

      .cls-4 {
        fill: #dab495;
      }

      .cls-5 {
        fill: #abcb51;
      }

      .cls-6 {
        fill: #c89e7b;
      }

      .cls-7 {
        fill: #d7b69c;
      }

      .cls-8 {
        fill: #f9ece0;
      }

      .cls-9 {
        fill: #f5e5d8;
      }

      .cls-10 {
        fill: #603e30;
      }

      .cls-11 {
        fill: #adcb58;
      }

      .cls-12 {
        fill: #5f3e30;
      }

      .cls-13 {
        fill: #5c3e32;
      }

      .cls-14 {
        fill: #f9ede2;
      }

      .cls-15 {
        fill: #58462d;
      }

      .cls-16 {
        fill: #dec8bb;
      }

      .cls-17 {
        fill: #623e35;
      }

      .cls-18 {
        fill: #643d36;
      }

      .cls-19 {
        fill: #e3c7ae;
      }

      .cls-20 {
        fill: #e4e7a9;
      }

      .cls-21 {
        fill: #faece1;
      }

      .cls-22 {
        fill: #5e4137;
      }

      .cls-23 {
        fill: #633f36;
      }

      .cls-24 {
        fill: #d6b293;
      }

      .cls-25 {
        fill: #eac9ab;
      }

      .cls-26 {
        fill: #e8c9aa;
      }

      .cls-27 {
        fill: #dfd1c5;
      }

      .cls-28 {
        fill: #eee4b7;
      }

      .cls-29 {
        fill: #d2b294;
      }
    </style>
  </defs>
  <g id="TPBmlV">
    <g>
      <path class="cls-6" d="M110.14,194.88c-6.69,1.54-13.5.82-20.26.92-11.89.16-23.78.34-35.61-1.23-2.62-2.94-1.57-6.66-1.88-9.99-1.63-17.11-4.14-34.11-6.25-51.15.43-3.59,2.33-3.04,4.4-1.44,1.26.97,2.2,2.87,3.92.73-2.09-3.51-6.09-4.18-9.23-6.18-2.29-5.04-3.16-10.48-4.3-15.82-3.57-16.74-8.21-33.16-13.63-49.42-5.31-15.93-11.71-31.39-18.12-46.88-.68-1.65-1.6-3.35-.82-5.26C18.84,4.8,29.77,2.55,41.05,1.86c2.4-.6,4.84-.92,7.06.47,2.22,1.39,3.65.18,5.1-1.24,3.98-.05,7.97-.1,11.95-.15,4.76,3.53,5.67,9.26,7.81,14.19,2.35,5.4,5.68,10.6,5.5,16.87-2.53,3.43-5.06,3.11-7.66.04-4.55-5.38-10.32-6.95-16.99-5.08-6.78,1.9-10.16,6.83-11.75,13.44-2.25,9.35.1,16.94,7.97,22.65,6.79,1.87,9.26,6.38,8.79,13.27-.21,3.1,1.47,6.1,2.92,8.92,1.47,2.86,1.16,4.78-2.22,6.23-6.65,2.87-8.4,7.99-5.22,14.57,3.14,6.5,8.96,10.12,15.1,13.22,6.06,3.06,6.18,3.2,3.38,9.3-2.44,5.31-3.17,10.87-1.6,16.53.88,3.17,1.1,5.73-2.19,7.74-2.63,1.6-2.78,4.38-2.29,7.13.81,4.5,3.38,7.9,6.99,10.54,8.04,5.88,17.19,8.42,27.04,8.98,4.24.24,8.65-1.11,12.7,1.21.97,1.45.96,3.11.99,4.75.16,3.86-1.97,6.69-4.32,9.4Z"/>
      <path class="cls-1" d="M88.84,29.74c9.01-2.02,17.76-.66,26.35,2.19,1.82.6,2.79,1.31,4.09-1.28,4.64-9.23,15.49-12.67,24.55-7.62,8.96,5,14.23,12.7,14.33,23.37.04,4.38-1.04,8.24-5.12,10.58-1.14.66-1.56,1.58-1.85,2.76-1.05,4.25-3.89,6.66-8.18,6.65-2.87,0-3.19,1.46-3.36,3.61-.38,4.82-1.18,9.61-3.64,13.83-1.19,2.04-.16,2.96.94,4.22,15.15,17.31,19.63,37.14,13.74,59.3-.47,1.78-.35,2.98.64,4.56,3.75,6,3.78,11.65.12,16.18-3.79,4.68-8.7,5.98-14.25,3.65-2.45-1.03-3.59.91-5.36,1.46-8.28,2.56-10.55,8.11-8.5,16.1.36,1.41.36,2.99-.45,4.38-2.65,1.55-3.47-.14-4.03-2.28-.95-3.65-.88-7.48-2.1-11.08-.39-1.63-.05-3.17.53-4.69.71-1.49,2.13-2.01,3.53-2.53,17.07-6.38,24.84-19.7,26.74-36.89,1.65-14.93-2.18-28.57-11.3-40.7-2.34-3.11-4.32-3.86-6.96-.63-17.27,12.19-35.8,11.57-54.74,5.07-3.88-1.33-7.6-3.36-11.16-5.51-1.22-3.22.99-4.97,2.93-6.85,1.45-.06,2.56.72,3.49,1.66,9.67,9.84,41.28,11.61,53.19,2.04,6.51-4.69,10.02-11.16,11.28-18.97.16-.65.3-1.29.37-1.96.28-2.63-.6-5.49.87-7.84,1.79-2.86,5.01-.59,7.41-1.55.62-.25,1.2-.56,1.76-.92,2.31-2.92,3.27-6.87,6.85-8.82.53-.29.75-1.08.87-1.74,1.48-7.97-1.51-14.24-7.47-19.31-4.83-4.11-10.12-5.4-15.98-2.21-3.18,1.85-5.16,4.62-6.36,8.04-.43,1.21-.51,2.68-2.01,3.26-3.26-.13-5.96-1.97-8.94-2.96-5.61-1.86-11.45-1.83-17.21-2.47-2.27-.82-4.83-1.26-5.63-4.11Z"/>
      <path class="cls-13" d="M23.2,119.86c-4.95,4.03-10.89,5.26-17.01,5.97-3.17.36-4.09-.99-3.57-4.1,1.43-8.63,5.28-15.63,13.57-20.26-6.68-2.5-11.47-6.43-14.99-12.05-2.28-3.64-1.22-5.23,2.62-6.29,8.73-2.43,16.72-1.47,24.62,5.37-2.92-11.67-6.28-22.05-9.85-32.36C13.81,42.38,8.59,28.8,2.19,15.71c-1.23-2.52-1.56-4.47,2.08-4.8,2.37,1.05,3.17,3.35,4.12,5.43,9.39,20.43,16.94,41.54,23.13,63.15,7.98,27.86,13.98,56.11,17.51,84.89.97,7.92,1.62,15.86,2.33,23.8.19,2.12,1.54,5.76-3.04,5.76-2.05-.87-2.09-2.61-2.23-4.52-1.91-27.02-6.23-53.68-12.16-80.09-.2-.91-.62-1.77-1-2.84-.67,1.02-1.17,1.79-1.68,2.57-1.57-1.13-1.63-3.18-2.8-4.55-2.46-2.48-4.77-.13-7.14.23-5.51,2.47-10.08,5.85-11.94,11.96-.48,1.59-1.25,3.2.55,4.51,2.45,1.76,4.41-.04,6.42-.96,2.28-1.05,4.45-2.43,6.87-.38Z"/>
      <path class="cls-25" d="M48.31,193.94c3.26-.59,1.87-3.27,1.72-4.8-1.2-12.56-2.24-25.16-4.13-37.62-6.17-40.61-16.32-80.2-31.75-118.34-3.04-7.53-6.58-14.85-9.89-22.27,1.37-.59,2.74-1.17,4.11-1.76,6.92,16.61,13.96,33.16,19.7,50.25,5.22,15.53,9.65,31.24,13.43,47.15,1.6,6.75,3.11,13.53,4.66,20.29,1.42,1.47.63,3.35.92,5.02,2.55,16.41,4.93,32.82,6.26,49.4.36,4.43.83,8.85.93,13.3-2-.08-4.13,1.09-5.96-.63Z"/>
      <path class="cls-12" d="M88.84,29.74c1.76,1.01,3.51,2.02,5.27,3.04-2.38,2.22-5.58,1.68-8.39,2.4-3.38.87-6.73,1.76-9.84,3.33-3.08,1.55-5.17.96-7.06-2-3.52-5.51-8.47-7.63-14.89-5.43-9.45,5.12-11.64,18.06-4.3,25.51,1.41,1.43,2.71,2.92,3.04,5.01-.29,2.09-1.69,2.31-3.4,2.03-11.91-10.13-12.47-27.34-1.14-35.46,7.35-5.27,18.11-4.37,23.31,2.67,2.43,3.29,4.15,2.85,6.71.97,3.72-2.18,3.55-4.93,2.03-8.65-2.56-6.25-5.81-12.2-8.06-18.57-.92-2.62-1.05-4.81,2.9-3.81,5.41,6.94,7.38,15.52,11.08,23.28.91,1.9,1.05,4.16,2.73,5.69Z"/>
      <path class="cls-26" d="M75.03.78c-2.67-.15-3.48.44-2.09,3.31,3.22,6.67,6.12,13.5,9.01,20.32,2.44,5.77,2.35,5.81-3.78,7.4-3.52-10.63-8.12-20.8-13-30.86,3.3.81,6.54-2.35,9.87-.17Z"/>
      <path class="cls-19" d="M117.17,179.47c3.65,3.11,1.63,7.56,2.54,11.32.5,2.06.65,3.53,3.2,2.88-2.74,2.27-5.91.68-8.86.98-2.66-2.71.91-6.07-.93-8.86,0-1.66,0-3.32-.01-4.98.89-1.86,2.27-2.24,4.07-1.33Z"/>
      <path class="cls-15" d="M23.2,119.86c-2.52-.25-4.63.53-6.9,1.74-2.04,1.08-4.66,3.96-7.12.27.27-1.01,1.03-1.51,1.92-1.88.43-.17.88-.3,1.33-.41,8.05-1.97,12.81-7.44,15.73-14.85.29-.38.67-.66,1.1-.85,1.57,1.38,1.94,3.21,1.98,5.18-1.02,4.84-4.03,8.2-8.04,10.81Z"/>
      <path class="cls-7" d="M53.21,1.1c-1.22,4.41-2.72,5.17-5.72,2.24-2.09-2.04-4.35-.84-6.43-1.48,3.96-1.72,8.09-.71,12.16-.77Z"/>
      <path class="cls-29" d="M113.11,185.79c1.97,2.78.56,5.91.93,8.86-1.3.07-2.6.15-3.91.22-.71-3.59,4.21-5.33,2.98-9.08Z"/>
      <path class="cls-10" d="M117.17,179.47c-1.36.44-2.71.89-4.07,1.33-9.82.36-19.6.42-28.99-3.16-7.11-2.71-13.66-6.16-17.43-13.24-3.2-6-2.39-9.83,3.2-13.8,1.44-1.02.94-1.72.59-2.85-2.52-8.03-1.99-15.7,2.95-22.76,1.64-2.34-.07-2.67-1.74-3.32-6.43-2.52-12.26-5.95-16.49-11.59-2.33-3.11-4.1-6.52-3.68-10.54.64-6.2,3.05-8.45,10.92-10.25-4.02-6.07-5.83-12.67-5.34-19.8.13-1.88-.59-2.5-2.45-2.8-2.05-.32-4.33-.73-5.35-3.07.94-.49,1.88-.98,2.82-1.47,8.07-2.06,10.4-.43,10.43,7.54.02,4.85.77,9.49,2.85,13.89.63,1.33,1.36,2.66.78,4.23-.15,2.41-1.75,4.08-3.02,5.92-.55.94-1.58,1.14-2.45,1.61-3.63,1.92-4.52,4.36-3.03,8.22,3.05,7.94,16.65,15.31,25.09,13.6,6.25-1.26,12.28-.84,17.81,2.63,1.68,1.05,3.81,2.41,2.66,4.68-1.1,2.16-3.45,1.5-5.38.85-1.73-.58-3.41-1.32-5.21-1.71-9.92-2.13-17.13,3.17-18.1,13.3-.49,5.15.54,9.93,3.42,14.27.74,1.11,1.51,2.2,2.11,3.39.69,1.37,1.34,2.89.05,4.15-1.51,1.48-3.02.45-4.53-.35-1.42-.75-2.69-3.47-4.49-1.32-1.37,1.63-.41,3.9.75,5.59,3.66,5.31,9.01,8.33,14.94,10.32,4.57,1.53,9.31,2.56,14.21,2.46,4.61-.17,9.24.43,13.81-.61,1.13-.26,2.31-.06,3.25.78.18,1.4-.02,2.71-.87,3.88Z"/>
      <path class="cls-24" d="M47.08,131.87c-1.55-1.45-.72-3.33-.92-5.02,2.74.76,7.1-1.46,7.28,3.98.43-.02.92.08,1.28-.09.91-.42,1.84-1.14,2.26.45.24.9-.26,1.69-.99,2.11-1.41.82-2.61,1.88-3.86,3.7-1.36-2.51-1.56-5.73-5.05-5.13Z"/>
      <path class="cls-4" d="M57.03,4.94c-.97,1.72-2.06,3.52-4.42,3.85-.78.11-1.34-.67-1.01-1.23,1.06-1.81,2.31-3.58,4.47-4.16.79-.21.91.7.96,1.55Z"/>
      <path class="cls-3" d="M100.16,176.67c-10.37-.53-19.94-3.15-27.49-10.82-2.12-2.16-3.75-4.66-3.77-7.89,0-1.59.34-3.04,1.95-3.7,1.66-.68,2.88.07,3.79,1.49.27.42.59.8.9,1.19,1.08,1.32,2.37,2.86,4.08,1.42,1.58-1.33.05-2.64-.84-3.8-3.53-4.58-5.78-9.56-5.74-15.54.1-13.46,10.43-20.7,22.97-15.93.92.35,1.75.96,2.65,1.37,1.23.56,2.83,1.21,3.63-.11.95-1.59-.32-2.69-1.78-3.46-5.64-2.95-11.5-4.15-17.76-2.37-9,2.56-24.69-6.71-26.91-15.9-1.36-5.61.9-8.36,7.29-8.89,2.17.76,4.5,1.22,6.49,2.32,14.29,7.86,29.34,8.34,44.84,4.94,5.45-1.19,9.99-4.23,14.58-7.17,3.24.14,4.96,2.5,6.66,4.73,13.15,17.2,13.25,46.61-.09,63.62-7.67,9.77-18.26,13.95-30.55,14.13-1.64.02-3.33-.37-4.92.37Z"/>
      <path class="cls-3" d="M66.16,87.82c-4.37-6.28-5.67-13.37-5.08-20.8.28-3.48-.5-4.88-4.18-3.94-1.6.41-3.3-.08-4.79-.92-1.29-2.42-2.22-5.04-5.22-6.13-.91-.33-1.61-1.65-2.1-2.66-3.6-7.39.91-19.77,8.42-23.3,7.63-1.19,13.46,1.33,16.71,8.52,1.44,3.19,3.11,1.43,4.74.62,9.45-4.69,19.3-5.49,29.63-3.76,19.87,3.33,30.08,20.57,27.76,40.14-.76,6.39-3.87,11.55-7.85,16.34-10.29,7.81-22.2,7.5-34.11,6.51-9.11-.76-17.39-3.84-23.92-10.62Z"/>
      <path class="cls-14" d="M100.16,176.67c3.16-1.76,6.78-1.22,10.13-1.65,13.7-1.8,23.66-9.17,29.02-21.22,8.1-18.23,6.94-36.45-4.02-53.64-1.66-2.6-4.05-4.33-6.23-6.34,3.88-4.71,3.98-4.79,7.45-.14,13.03,17.46,16.44,36.49,8.76,57.1-4.79,12.87-14.56,20.48-27.24,24.8-5.92,1.01-11.84,2.02-17.88,1.08Z"/>
      <path class="cls-8" d="M124.19,91.93c-1.27-1.76.74-2.18,1.35-3.06,10.47-15.23,6.51-42-13.78-49.94-12.85-5.02-25.98-4.57-38.31,2.45-2.45,1.39-3.71,2.58-4.49-1.57-1.01-5.34-5.89-8.63-11.53-8.91-1.43-.07-3.03.52-4.22-.84,7.29-2.76,13.35-.67,17.05,6.25,1.21,2.28,1.94,3.14,4.52,1.58,5.9-3.56,12.55-4.7,19.34-5.12,9.49-.38,18.47,1.57,26.91,5.96,2.27.7,3.66,2.8,5.84,3.66,3,3.44,5.65,7.11,7.44,11.35,3.13,6.29.88,12.8.83,19.23-.92,7.89-4.38,14.32-10.94,18.95Z"/>
      <path class="cls-27" d="M135.13,72.98c-.4-6.65.78-13.46-2.08-19.85.48-.55,1.13-.57,1.79-.63,5.53-.46,7.52-2.18,7.94-6.82.46-5.03-2.39-9.91-6.55-11.02-3.38-.9-5.72.76-7.51,3.45-1,1.5-1.02,3.52-2.52,4.76-2.7-.16-3.94-2.14-5.18-4.13.53-5.03,2.22-9.35,7.09-11.75,10.8-.9,17.63,2.83,21.84,11.98,1.75,3.81,2.33,7.91-.08,11.41-2.24,3.27-3.12,6.81-4.01,10.46-1.87,2.79-4.61,2.11-7.11,1.51-2.31-.56-2.92.06-2.86,2.33.07,2.78.61,5.64-.78,8.3Z"/>
      <path class="cls-21" d="M145.87,60.84c-.38-3.69-.5-7.02,2.53-10.17,3.65-3.79,1.66-12.3-3.72-17.35-3.85-3.61-7.87-7.18-13.92-5.44-.93.27-2,.08-2.65-.9,4.24-2.96,8.75-2.67,13.21-.78,7.74,3.27,13.41,12.84,12.86,21.25-.11,1.7-.17,3.97-1.45,4.56-3.96,1.82-4.48,5.99-6.86,8.83Z"/>
      <path class="cls-9" d="M146.06,158.79c.64-1.26,1.28-2.52,2.01-3.95,3.59,5.39,2.49,9.89-2.86,13.06-1.66.3-1.39-.89-1.21-1.74.53-2.5,1.12-4.99,2.07-7.37Z"/>
      <path class="cls-16" d="M146.06,158.79c.33,3.09-.28,6.1-.86,9.11-1.85,1.66-3.81.67-6.63.8,2.87-3.8,5.18-6.86,7.48-9.91Z"/>
      <path class="cls-11" d="M26.33,96.87c-7.16,2.35-13.54.33-19.01-6.01,5.67-5.01,16.58-1.56,19.01,6.01Z"/>
      <path class="cls-2" d="M26.33,96.87c-5.49-6.85-11.04-8.61-19.01-6.01-2.95-2.43-3.13-4.03,1.2-4.74,7.72-1.26,15.59,2.08,19.47,8.17,1.61,2.53.5,2.76-1.66,2.58Z"/>
      <path class="cls-20" d="M12.17,120.65c-.36.04-.72.08-1.07.12-2.66-1.01-2.57-2.63-1.66-5.06,2.16-5.81,7.03-8.71,11.77-11.83,1.73-1.29,3.85-1.43,5.82-2.01,1.74-.51,2.33.39,2.23,2-.2.33-.39.66-.59,1-1.92,1.66-4.42,2.16-6.59,3.33-5.1,2.75-7.77,7.38-9.92,12.44Z"/>
      <path class="cls-28" d="M21.21,103.88c.79,2.02-1.13,2.03-2.04,2.43-4.82,2.09-6.93,6.49-9.4,10.6-1.08,1.8,1.03,2.52,1.33,3.86-.64.37-1.28.73-1.92,1.1-2.23.15-2.39-1.14-1.95-2.83,1.95-7.55,6.29-12.9,13.98-15.16Z"/>
      <path class="cls-5" d="M12.17,120.65c.33-7.89,7.47-14.72,16.51-15.78-2.05,8.88-7.86,13.81-16.51,15.78Z"/>
      <path class="cls-17" d="M104.44,75.04c.1,2.9-.51,5.53-2.68,7.73-.79.8-3.62.62-1.86,2.99,1.19,1.61,2.9,1.41,4.54.94.6-.17,1.1-.7,1.61-1.11,1.05-.83,2.16-1.13,2.94.18.67,1.12.24,2.26-.64,3.17-2.21,2.3-5.27,2.99-7.78,1.74-2.94-1.47-4.96-.93-7.54.5-2.63,1.45-5.18.17-7.27-1.67-.92-.81-1.31-2-.35-3.1.8-.91,1.75-.62,2.68-.08.85.49,1.7,1.21,2.61,1.32,1.4.16,2.65-.62,3.1-2,.45-1.41-.89-1.38-1.74-1.81-4.16-2.08-5.25-5.9-4.81-10.02.51-4.72,2.07-9.13,6.71-11.56,2.39-1.25,4.2.16,5.77,1.66,3.15,3,4.78,6.71,4.7,11.12Z"/>
      <path class="cls-18" d="M60.19,36.37c1.87.25,3.77.66,5.14,2.37,2.58,3.22.33,14.28-3.45,15.94-1.63.72-3.74.98-5.33-.02-3.78-2.39-5.03-6.12-4.19-10.34.83-4.16,3.01-7.36,7.83-7.95Z"/>
      <path class="cls-22" d="M77.97,63.82c2.73.46,4.07,2.3,3.88,4.83-.16,2.15-1.09,4.34-3.89,4.21-2.9-.14-3.86-2.15-3.86-4.74,0-2.53,1.38-3.91,3.87-4.3Z"/>
      <path class="cls-17" d="M111.09,67.9c-.81-2.28.32-4.02,2.13-4.85,1.88-.86,3.96-.63,4.89,1.84-2.56,5.41-3.32,5.74-7.01,3.01Z"/>
      <path class="cls-17" d="M111.09,67.9c4.06,3.01,4.69-1.96,7.01-3.01,1.06,3.22-.24,5.6-3.19,6.54-2.59.82-3.77-1.02-3.83-3.54Z"/>
      <path class="cls-23" d="M126.2,42.87c.72-6.93,3.94-10.4,9.15-9.83,5.6.62,9.94,7.49,8.78,13.91-1.01,5.57-4.59,7.56-11.08,6.17-2.28-3.42-4.56-6.84-6.85-10.25Z"/>
    </g>
  </g>
</svg>