<?xml version="1.0" encoding="UTF-8"?>
<svg id="Isolation_Mode" data-name="Isolation Mode" xmlns="http://www.w3.org/2000/svg" viewBox="0 0 1277.03 1303.11">
  <defs>
    <style>
      .cls-1 {
        fill: #36a852;
      }

      .cls-1, .cls-2, .cls-3, .cls-4 {
        stroke-width: 0px;
      }

      .cls-2 {
        fill: #557dbf;
      }

      .cls-3 {
        fill: #f9bc17;
      }

      .cls-4 {
        fill: #ea4435;
      }
    </style>
  </defs>
  <path class="cls-1" d="M626.54,1303.11c-7.51-1.7-15.19-1.13-22.79-1.75-152.44-12.35-284.99-70.22-397.33-173.95-56.05-51.75-100.95-112.08-135.57-180.06-.53-1.03-.99-2.1-1.49-3.14.65-1.99,2.08-3.33,3.7-4.57,35.31-27.13,70.44-54.5,105.64-81.77,33.89-26.26,67.75-52.54,101.61-78.84,1.55-1.2,2.99-2.7,5.22-2.57,6.78,17.83,13.45,35.72,22.34,52.66,54.62,104.01,137.37,173.57,251.36,204.46,38.5,10.44,77.85,13.21,117.69,11.02,45.99-2.52,90.59-11.07,133.45-28.21,22.13-8.85,42.95-20.16,62.88-33.17,2.33-.41,3.67,1.37,5.18,2.52,25.62,19.59,51,39.49,76.52,59.21,24.73,19.11,49.35,38.36,74.08,57.46,17.1,13.21,34.05,26.61,51.23,39.73,1.15.88,2.62,1.58,2.69,3.36-13.06,13.12-27.52,24.61-42.27,35.7-69.2,52.03-146.59,86.12-230.9,104.94-41.82,9.34-84.16,14.65-126.97,16.25-1.46.05-3.02-.31-4.33.71h-51.95Z"/>
  <path class="cls-4" d="M69.27,359.64c16.46-33.71,36.06-65.54,58.53-95.53C214.14,148.85,326.24,70.07,463.89,27.83,534.37,6.2,606.67-2.45,680.19.59c147.79,6.11,278,57.4,390.2,153.98,4.54,3.91,8.76,8.21,13.46,11.91,3.3,2.6,2.57,4.11-.03,6.7-40.46,40.31-80.82,80.71-121.2,121.1-19.19,19.19-38.44,38.32-57.5,57.64-2.9,2.94-4.43,3.4-7.78.32-54.67-50.42-118.92-81.46-192.58-90.86-106.14-13.55-202.33,12.32-286.94,78.31-61.1,47.65-104.18,108.57-130.13,181.6-.67,1.88-1.42,3.72-2.14,5.58-1.88.41-3.15-.72-4.46-1.74-55.5-43.25-111.27-86.16-166.74-129.43-13.11-10.23-26.26-20.42-39.52-30.46-2.11-1.6-4.42-3.01-5.56-5.59Z"/>
  <path class="cls-2" d="M1082.95,1145.51c-17.89-13.79-35.8-27.56-53.66-41.39-51.12-39.56-102.21-79.15-153.31-118.73-.92-.71-1.81-1.45-2.72-2.17,12.89-9.41,25.77-18.82,37.47-29.74,47.42-44.27,77.75-98.17,91.12-161.59,1.69-8.01,2.1-6.62-5.35-6.62-112.89-.05-225.79-.03-338.68-.03q-6.39,0-6.39-6.44c0-79.6.05-159.2-.11-238.79,0-4.83,1.21-6.03,6.03-6.02,200.65.13,401.29.14,601.94-.04,5.47,0,6.89,1.87,7.67,6.74,7.54,47.11,10.96,94.51,9.88,142.19-2.22,98.18-20.95,192.75-62.61,282.2-31.64,67.92-74.54,127.7-129.34,178.87-.6.56-1.29,1.04-1.93,1.56Z"/>
  <path class="cls-3" d="M69.27,359.64c14.22,10.9,28.48,21.76,42.65,32.72,49.88,38.62,99.74,77.29,149.6,115.93,8,6.2,16.03,12.38,24.04,18.57-9.03,27.53-15.38,55.64-18.35,84.47-2.85,27.7-2.76,55.39.31,83.11,3.1,28,9.25,55.28,18.02,82.01-46.86,36.35-93.73,72.69-140.59,109.05-25.2,19.55-50.39,39.13-75.58,58.69-18.84-36.98-33.61-75.55-44.93-115.46-11.23-39.61-18.61-79.95-22.1-120.96-2.97-34.88-3.1-69.8-.47-104.75,6.33-84.23,28.31-164.13,65.49-239.9.58-1.19,1.27-2.33,1.91-3.5Z"/>
</svg>