<?xml version="1.0" encoding="UTF-8"?>
<svg id="Layer_1" data-name="Layer 1" xmlns="http://www.w3.org/2000/svg" viewBox="0 0 126.05 95.4">
  <defs>
    <style>
      .cls-1 {
        fill: #f4e3cf;
      }

      .cls-1, .cls-2, .cls-3, .cls-4, .cls-5, .cls-6, .cls-7, .cls-8, .cls-9, .cls-10, .cls-11, .cls-12, .cls-13, .cls-14, .cls-15, .cls-16, .cls-17, .cls-18, .cls-19, .cls-20, .cls-21, .cls-22, .cls-23, .cls-24, .cls-25, .cls-26, .cls-27, .cls-28, .cls-29, .cls-30, .cls-31, .cls-32, .cls-33, .cls-34, .cls-35, .cls-36, .cls-37, .cls-38, .cls-39, .cls-40, .cls-41 {
        stroke-width: 0px;
      }

      .cls-2 {
        fill: #bcb5a2;
      }

      .cls-3 {
        fill: #ada490;
      }

      .cls-4 {
        fill: #976031;
      }

      .cls-5 {
        fill: #aea698;
      }

      .cls-6 {
        fill: #735651;
      }

      .cls-7 {
        fill: #78c152;
      }

      .cls-8 {
        fill: #cac3af;
      }

      .cls-9 {
        fill: #78c151;
      }

      .cls-10 {
        fill: #694c47;
      }

      .cls-11 {
        fill: #c3b9a8;
      }

      .cls-12 {
        fill: #64a143;
      }

      .cls-13 {
        fill: #f9f9f8;
      }

      .cls-14 {
        fill: #cbc4b1;
      }

      .cls-15 {
        fill: #eee7db;
      }

      .cls-16 {
        fill: #aca491;
      }

      .cls-17 {
        fill: #664d44;
      }

      .cls-18 {
        fill: #e7e5e3;
      }

      .cls-19 {
        fill: #725550;
      }

      .cls-20 {
        fill: #bcb3a0;
      }

      .cls-21 {
        fill: #6e504d;
      }

      .cls-22 {
        fill: #f2f3ee;
      }

      .cls-23 {
        fill: #64a240;
      }

      .cls-24 {
        fill: #6c504a;
      }

      .cls-25 {
        fill: #6b4d48;
      }

      .cls-26 {
        fill: #996032;
      }

      .cls-27 {
        fill: #79c152;
      }

      .cls-28 {
        fill: #bcb6a2;
      }

      .cls-29 {
        fill: #6d504b;
      }

      .cls-30 {
        fill: #875329;
      }

      .cls-31 {
        fill: #65a143;
      }

      .cls-32 {
        fill: #885329;
      }

      .cls-33 {
        fill: #f8f8f7;
      }

      .cls-34 {
        fill: #bdb6a2;
      }

      .cls-35 {
        fill: #a29c8f;
      }

      .cls-36 {
        fill: #b2ab97;
      }

      .cls-37 {
        fill: #64a142;
      }

      .cls-38 {
        fill: #845126;
      }

      .cls-39 {
        fill: #64a243;
      }

      .cls-40 {
        fill: #6c4e4c;
      }

      .cls-41 {
        fill: #cbc4b0;
      }
    </style>
  </defs>
  <path class="cls-1" d="M126.05,62.88l-.1.02h-.1c-.44-.45-.42-1.02-.43-1.58-.04-4.02.08-8.04.05-12.07,0-.44,0-.88.32-1.24h.26v14.86Z"/>
  <path class="cls-8" d="M53.59,39.64c.24-.09.69.11.5-.51-.42-1.37-.81-2.74-.76-4.2.03-.8-.6-.6-1.04-.57-2.07.11-4.07-.14-5.92-1.12-5.52-2.93-8.05-8.25-6.63-14.92.42-1.97,1.21-3.79,2.12-5.56.39-.77.13-.86-.51-.94-1.53-.21-1.87-.92-1.08-2.29,1.24-2.14,3.38-3.06,5.5-3.96.95-.4,1.95-.7,2.95-.95.6-.15.79-.32.58-.98-.47-1.49-.15-2.18,1.29-2.83,2.99-1.36,5.88-.82,8.76.46,3.77,1.68,6.68,4.28,8.61,7.93.29.54.54.64,1.11.37,1.26-.59,2.57-1.07,3.94-1.36.76.42.61,1.17.57,1.81-.13,2.19-.47,4.35-.52,6.55-.08,3.26-.53,6.51-.21,9.78.02.16-.03.32-.11.46-.11.18-.28.29-.47.38-2.53,1.29-4.19,3.35-5.21,5.96-.87,2.23-1.07,4.55-.93,6.92.05.91.41,1.58,1.3,1.95.73.31,1.43.7,2.22.86,1.31.39,2.67.13,3.99.34.27.11.55.28.23.56-.47.42-.26.78-.03,1.18-.15.63-.64.67-1.16.67-.16,0,0-.09-.1,0-.08.07.12.03.16.1.85.3.74,1.22,1.18,1.79.19.25-.12.4-.35.47-.38.12-.77.09-1.16.11-4.07.05-7.91-.84-11.54-2.67-1.73-.87-3.35-1.9-4.84-3.16-.93-.78-1.59-1.8-2.46-2.62Z"/>
  <path class="cls-11" d="M72.55,26.82c-.58-2.75.04-5.5.06-8.24.02-2.52.12-5.06.59-7.57.17-.91.26-1.9-.17-2.82,2.96-1.26,5.85-.42,8.74.29,2.1.52,4.03,1.48,5.89,2.58,1.48.54,2.57,1.61,3.59,2.74.2.22.38.29.6.39,4.07,3.86,6.43,8.74,8.33,13.9.41,1.19.78,2.38,1.05,3.61.11.51.26.98.63,1.36-.08,1.28-.41,1.59-1.67,1.5.09,1.15-.22,2.27-.26,3.41-.13.72-.31,1.42-.52,2.12-.33.68-.92.94-1.62,1.03-.31-.16-.57-.73-.98-.26-1.36,1.52-3.27,2.16-4.95,3.17-5.05,2.21-10.23,3.89-15.79,4.09-.8.03-1.58.28-2.38.21-.45-.04-1,.08-1.21-.53.39-.02.79-.04,1.36-.07-.81-.44-.35-1.56-1.3-1.8.22-.56,1.25-.11,1.23-.97-.04-.4-.64.13-.64-.4,0-.63.41-.89.85-1.15.02-.43.39-.46.67-.56.45-.16.92-.27,1.33-.52,2.73-1.68,2.63-1.97,2.34-4.45-.38-3.19-1.27-6.13-3.33-8.67-.73-.9-1.86-1.38-2.45-2.4Z"/>
  <path class="cls-30" d="M72.49,47.8c1.87.38,3.72,0,5.57-.16,4.88-.44,9.44-2.08,13.92-3.97.85-.4,1.72-.21,2.59-.11,1.16.07,2.32,0,3.48.04.87.04,1.15.46.85,1.26-.43,1.13-.75,2.28-.94,3.47-.36,2.22.6,3.68,2.79,4.12,1.56.31,3.13.55,4.75.28,1.42-.24,2.7-.68,3.78-1.66.26-.24.51-.51.9-.55,1.55.92,3.36.85,5.03,1.36,2.93.9,5.89,1.69,8.79,2.68,1.15.39,1.23.36,1.25-.84.01-.8.02-1.59,0-2.39-.03-1.17.29-2.42-.83-3.32-.07-.06-.08-.22.05-.31.06-.04.13-.02.21.02.38.09.75.19,1.13.28.02,4.96.04,9.92.06,14.87-2.53-.92-5.05-1.89-7.59-2.77-6.2-2.15-12.54-3.77-18.96-5.1-.27-.06-.56-.03-.83-.05-1.29.16-2.52-.27-3.77-.45-.47-.07-.94-.17-1.42-.22-5.08-.77-10.18-1.3-15.31-1.64-3.42-.03-6.82-.3-10.24-.21-1.79.05-3.56.42-5.35.22-1,.01-1.99.3-3,.24-.89-.13-1.81.48-2.69-.09-.54.06-1.08.11-1.61.17-.18-.14-.21-.34-.15-.54.52-1.93.16-3.76-.51-5.58-.47-1.28-.28-1.53,1.08-1.62,1.03-.07,2.04-.3,3.07-.25.75-.15,1.5-.21,2.23.08,3.71,1.71,7.57,2.75,11.69,2.71Z"/>
  <path class="cls-8" d="M99.66,37.93c-.06-1.3.51-2.56.04-4.14,1.35,1.1,1.75.24,2.13-.64.09-.08.2-.12.32-.11.56.45,1.21.57,1.91.47,2.55-.34,4.72-1.36,6.4-3.37.98-1.17,1.37-2.4.93-3.88-.69-2.3-1.55-4.52-2.94-6.51-.22-1.92-1-3.56-2.39-4.91-.24-.29-.29-.62-.24-.98.09-.67-.06-1.26-.59-1.72-.41-.43-.97-.56-1.51-.72-1.72-.71-3.53-.5-5.32-.53-.37,0-.73,0-1.1.04-.12,0-.23-.05-.33-.11-.1-.19-.12-.44.07-.53.94-.45,1.29-1.48,2.12-2.09-1.99-.3-5.78,1.17-6.75,2.47-.73.98-.89,1.91-.11,2.91-.04.34-.25.52-.57.59-.97-.02-1.2-1.06-1.95-1.44-.78-.4-1.41-1.1-2.11-1.67.17-1.96,1.72-3.02,2.94-4.18,2.4-2.29,5.25-3.9,8.54-4.55,4.17-.82,8.25-.53,12.08,1.43,2.02,1.03,2.5,2.18,1.98,4.39-.12.53.12.76.41,1.01,1.24,1.09,2.25,2.36,3.01,3.82,1.02,1.97,1.25,3.94-.04,5.87-.32.48-.4.95-.35,1.46.51,4.67-.54,9.01-2.82,13.07-1.02,1.81-2.34,3.41-3.93,4.76-2.73-.43-5.47-.51-8.21-.12-.54.08-1.1.28-1.62-.1Z"/>
  <path class="cls-26" d="M11.11,70.07c1.52,1.68,3.44,2.89,5.12,4.38,1.42,1.26,2.86,2.5,4.28,3.74.08.12.07.23-.02.33-.11.05-.26.12-.33.05-1.21-1.04-2.62-1.01-4.07-.8-.72-.17-1.16-.75-1.68-1.17.24.46.72.88.32,1.49-1.31.11-2.13,1.07-3.09,1.78-.67-2.02-1.07-4.14-1.91-6.11-.23-.53-.32-1.15-1.02-1.57-.47,1.64-.92,3.22-1.37,4.8-.78.11-1.51-.04-2.17-.47.12-1.85.87-3.51,1.62-5.16-.39-.9.3-1.56.52-2.33.13-.45.33-.89.57-1.3.16-.23.38-.41.64-.52.98-.45,1.41-1.21,1.36-2.28-.02-.39-.05-.8.26-1.12,2.12-4.61,5.83-7.24,10.52-8.88,3.52-1.23,6.9-2.86,10.34-4.31.43-.63,1.68-.52,1.65-1.34-.02-.68-1.06-.86-1.57-1.37-2.59-2.6-5.44-4.95-7.8-7.78-2.58-3.11-4.96-6.36-7.01-9.85-2.43-4.14-4.29-8.54-5.72-13.12-.09-.27-.13-.55.04-.81.64-.24.87.15,1,.67,3.23,7.7,8.16,14.2,14.04,20.04,3.49,3.47,7.29,6.55,11.28,9.43,1.36.99,2.67,1.25,4.21.81.8,1.14.95,2.51,1.3,3.81-.2.53-.69.6-1.15.74-3.49,1.12-6.92,2.42-10.39,3.6-2.19.75-4.36,1.52-6.55,2.26-.58.2-1.18.22-1.78.19-3.15-.14-5.45,1.47-7.49,3.62-1.84,1.93-2.97,4.33-4.32,6.58-.49.82.09,1.34.37,1.97Z"/>
  <path class="cls-8" d="M84.96,83.3c-.73-1.99-1.72-3.87-2.73-5.73-.15-.28-.28-1.21-1.05-.53-.18.04-.33-.03-.39-.18-.47-1.16-1.26-2.11-1.99-3.11-.62-1.57-1.35-3.09-2.32-4.48-.2-.28-.5-.53-.33-.94.32-.32.72-.28,1.12-.27,6.01.03,10.77-2.38,14.23-7.3.66-.94,1.18-1.98,1.62-3.05.28-.7.52-1.42.98-2.04.25-.11.47-.01.67.13.89.64,1.88,1,2.95,1.19.39.07.79.17.96.6.19,2.62-.32,5.14-1.12,7.61-.11.33-.51.77.32.74.11,0,.26.36.34.58,1.08,3.09,1.79,6.25,1.96,9.52-.4.38-.83.11-1.25.06-2.36-.31-4.67-.39-6.94.59-2.8,1.21-4.79,3.25-6.39,5.75-.19.3-.26.68-.62.85Z"/>
  <path class="cls-6" d="M84.96,83.3c.68-2.3,2.34-3.86,4.11-5.28,3.31-2.67,7.09-2.98,11.09-1.98,1.58.42,3.14.9,4.53,1.79,2.55,1.63,3.3,3.99,2.19,6.81-1.55,3.92-4.73,5.63-8.63,6.32-3.58.63-6.96-.23-10.28-1.48-.53-.2-.83-.54-1.02-1.06-.64-1.71-1.32-3.41-1.98-5.12Z"/>
  <path class="cls-8" d="M59.38,52.61c.96-.07,1.92-.15,2.88-.22.57.92.28,1.94.29,2.91.02,2.15.43,4.19,1.46,6.09.34.64.72,1.23,1.23,1.75.36.36.78.71.73,1.3-.33.75-1.06.73-1.57.84,2.36.07,4.64.83,6.72,2.15.83.53,1.72,1.01,2.37,1.78.28.33.92.7.26,1.26-.23.1-.47.14-.7.09-2.17-.51-3.89.46-5.29,1.88-1.91,1.95-3.46,4.18-3.9,7-.21,1.34.04,2.62.27,3.92.11.59.49,1.22-.01,1.82-1.39-1.32-2.1-3.09-2.98-4.72-1.98-3.69-3.96-7.46-4.47-11.65-.52-4.27-1.33-8.6-.19-12.93.48-.77,1.42-.9,2.05-1.5.54-.52.94-1.02.84-1.8Z"/>
  <path class="cls-8" d="M42.26,51.14c-.6-1.22-.87-2.53-1.15-3.84.44-.7.26-1.52.48-2.28.73-2.5,2.54-3.82,4.85-4.65.4.16.79-.01,1.16-.08,3.72-.65,8.94,1.62,10.99,4.8.04.06.03.15.01.23-1.03.08-2.06.22-3.09.23-.94.01-1.29.13-.81,1.2.9,2,1.25,4.1.38,6.24-2.21,1.86-4.85,1.71-7.48,1.59-.58-.03-1.15-.23-1.74-.15-1.21-.39-2.22-1.06-3.03-2.03-.3-.37-.67-.71-.57-1.26Z"/>
  <path class="cls-8" d="M110.2,50.63c-2.84,3.36-7.76,2.82-10.96,1.73-1.22-.42-1.9-2.09-1.68-3.77.16-1.27.42-2.52.99-3.67.43-.87.13-.99-.68-.97-1.07.03-2.15-.03-3.22-.06.54-1.49,1.74-2.25,3.1-2.84.39-.45,1.14-.37,1.43-.97,3.12-1.77,6.31-2.29,9.61-.49,1.41,1.29,2.59,2.73,2.93,4.69.07.42.24.83.68,1.03-.27,1.44-.44,2.91-1.17,4.23-.25.45-.46.94-1.03,1.09Z"/>
  <path class="cls-19" d="M64.12,85.21c-.16-.9-.32-1.8-.47-2.7-.9-5.11,2.47-10.67,7.38-12.28.96-.32,1.81.15,2.71.12,1.61.04,2.88.72,3.85,1.99.29,1.18.05,1.51-1.12,1.28-1.12-.22-2.32.03-3.36-.62-.07-.04-.15-.06-.23-.03-.21.07-.28.27-.36.44-.33.66-1.61.63-1.25,1.77-.23,1.34-.02,2.61.67,3.78.3.55.53,1.1.05,1.67-2.72,2.99-2.04,7.03-.08,9.42.15.18.28.39.39.6.44,1.09.32,2.24.36,3.37.04,1.06-.89.42-1.29.72-.09-.05-.18-.1-.27-.14-.79-.61-1.62-1.17-2.42-1.78-.71-.54-.9-1.61-1.91-1.81-1.39-1.7-1.94-3.79-2.64-5.8Z"/>
  <path class="cls-40" d="M71.85,80.48c.33-.43-.19-.9.07-1.33,2-.18,2.99-2.23,1.94-3.98-.62-1.03-1.4-1.16-2.33-.38-.15.13-.28.28-.49.32-.33-.5-.18-.88.29-1.2.47-.31,1.12-.43,1.1-1.25,0-.25.44-.41.77-.13,1.15,1.01,2.63.56,3.94.83.71.15.27-.59.23-.96,1.03-.22,1.15.78,1.67,1.25.94.98,1.59,2.15,2.14,3.38,1.16,4.74.38,9.28-1.73,13.56-1.66,3.37-4.61,4.73-8.08,4.14.9-.11,1.1-.61.98-1.47-.12-.84.01-1.72-.27-2.56.23-.23.52-.19.79-.11,1.32.41,2.12-.29,2.77-1.29,1.36-2.11,1.09-5.67-.46-7.66-.89-1.14-2.08-1.14-3.31-1.18Z"/>
  <path class="cls-38" d="M10.64,16.35c.76,2.41,1.52,4.81,2.52,7.14,1.97,4.59,4.51,8.85,7.49,12.84,2.65,3.55,5.58,6.84,8.98,9.7,1.12.94,2.04,2.11,3.3,2.91.45.29.58.67-.08.92-.63.24-1.15.73-1.87.76-4.3-3.59-8.21-7.54-11.44-12.13-.46-.65-.81-.52-1.34-.18-2.32,1.49-4.41,3.26-6.41,5.14-.59.27-.98-.12-1.4-.43-.15-.48.05-.79.5-.96,1.78-2.25,3.67-4.41,5.71-6.43.44-.44.52-.73.18-1.29-3.98-6.53-6.53-13.6-7.85-21.13.06-.56.28-.68.7-.25.29.68,0,1.39.14,2.1-.03.13.28-.07.12-.03-.06.01-.06-.03-.07-.09-.05-.21-.03-.4.18-.49.19-.08.31.08.37.21.27.53.54,1.07.27,1.68Z"/>
  <path class="cls-26" d="M110.2,50.63c1.03-1.4,1.61-2.96,1.69-4.7.02-.38.12-.59.51-.62,4.14.56,8.27,1.15,12.26,2.42,1.21.94.89,2.28.9,3.53.01,1.12,0,2.24,0,3.36,0,.52-.04.88-.73.62-2.71-1.04-5.49-1.86-8.29-2.62-1.86-.51-3.72-1.03-5.61-1.39-.49-.09-.45-.47-.74-.59Z"/>
  <path class="cls-32" d="M42.26,51.14c.81,1.27,1.79,2.35,3.27,2.86.23.08.31.22.33.43-2.6.35-5.13,1.06-7.69,1.62-4.96,1.09-9.85,2.43-14.77,3.65-.8.2-1.66.17-2.49.24-1.81.15-3.22.96-4.39,2.36-1.55,1.87-3.2,3.66-4.51,5.72-.41.64-.81,1.28-.91,2.05-1.31-1.08-1.25-1.05-.42-2.51,1.23-2.16,2.38-4.38,4.09-6.2,2-2.13,4.27-3.9,7.41-3.73,1.55.08,2.88-.52,4.26-.98,3.04-1.02,6.07-2.1,9.1-3.15,2.24-.78,4.48-1.57,6.72-2.35Z"/>
  <path class="cls-31" d="M20.47,78.47c.01-.09.03-.18.04-.27,2.81-1.16,4.39-.62,5.9,2.09,1.12,2,1.69,4.19,2.1,6.43.09.47.09.72-.47.58-2.29-.55-4.59-1.04-6.6-2.38-.45-.17-.55-.56-.55-.96-.03-1.62.01-3.25-.55-4.81-.08-.22-.02-.47.13-.68Z"/>
  <path class="cls-9" d="M5.16,76.53c.76-.01,1.52-.02,2.17.47,1.83,1.56,2.08,2.83.91,4.92-1.03,1.84-2.53,3.28-4.1,4.65-.35.3-.55.37-.74-.19-.72-2.22-1.22-4.48-.9-6.82.21-1.55,1.06-2.64,2.66-3.02Z"/>
  <path class="cls-7" d="M4.32,8.37c-.78-1.55-1.78-2.99-2.15-4.73-.17-.78-.37-1.55-.59-2.31-.14-.5.04-.71.52-.61,2.42.53,4.84,1.08,6.74,2.83,1.48,1.36,1.26,2.96.62,4.61-1.15,1.11-2.47,1.54-4.04,1.03-.47-.15-.89-.34-1.1-.83Z"/>
  <path class="cls-12" d="M11.63,79.87c.65-1.34,1.7-2.03,3.22-1.91.31-.08.61-.01.91.06,1.83.83,2.62,2.22,2.27,4.17-.17.94-.06,2-.91,2.73-.15.66-.65,1.2-.67,1.91.11.49-.2.83-.42,1.19-.33.53-.79.56-1.2.15-.95-.96-1.98-1.87-2.34-3.26-.17-.88-.74-1.61-.93-2.5-.18-.87-.26-1.7.08-2.54Z"/>
  <path class="cls-9" d="M10.64,16.35c-.18-.56-.35-1.13-.54-1.72-.34.17.02.62-.33.75-.4-.78-.43-1.59-.28-2.44.01-.48.02-.97.63-1.11,1.66-1.44,2.61-1.56,4.55-.55,1.89.98,3.24,2.56,4.66,4.08.56.6.15.78-.37.95-2.41.76-4.87,1.08-7.39.7-.32-.22-.63-.45-.95-.67Z"/>
  <path class="cls-37" d="M10.13,11.84c-.21.37-.42.74-.64,1.11-.34-.23-.43.07-.57.27-3.02,1.09-5.91.33-8.93-.56,1.27-1.71,2.57-3.22,4.32-4.29,1.57.78,3.13,1.33,4.59-.22.17-.18.37-.01.55.02,1.23,1.04.84,2.38.67,3.68Z"/>
  <path class="cls-27" d="M12.47,84.9c.71.89,1.42,1.78,2.12,2.68.59.75,1.07.85,1.45-.18.08-.22.26-.39.4-.59.46.82.3,1.72.2,2.56-.25,2.12-1.18,4-2.19,6.02-1.83-2.03-3.38-4.02-4-6.57-.43-1.78.35-3.22,2.02-3.93Z"/>
  <path class="cls-27" d="M17.11,84.91c.39-1.13.6-2.3.71-3.47.14-1.49-.83-2.68-2.44-3.26,0-.37.23-.53.56-.61,1.66-.47,3.21-.33,4.54.9.62,1.68.89,3.4.74,5.19-.04.43-.02.87.24,1.25-.55.32-.43.89-.46,1.37-.05.85-.25,1.2-1.09.56-.9-.69-1.85-1.29-2.78-1.94Z"/>
  <path class="cls-9" d="M10.37,42.99c.47.16.94.32,1.41.47,1.51,1.98,1.37,3.33-.54,5-.93.81-1.95,1.49-3,2.13-.58.35-.88.24-.9-.46-.03-1.19-.05-2.38-.07-3.57-.05-.95.23-1.81.76-2.57.56-.81,1.29-1.26,2.32-1.01Z"/>
  <path class="cls-7" d="M10.12,63.81c.43,1.96-.2,3.36-2.12,4.11-1.32.83-2.83.46-4.24.7-.01-.04-.01-.11-.03-.11-1.6-.53-.69-1.4-.26-2.16.57-1.01,1.22-1.97,2.08-2.76,1.55-1.43,3.26-1.33,4.57.23Z"/>
  <path class="cls-23" d="M10.37,42.99c-1.75.34-2.74,1.31-2.7,3.18,0,.13-.25.27-.39.4-1.35-.1-2.64-.47-4.11-.86,1.39-1.8,2.76-3.45,4.91-4.2,1.02-.35,1.94,0,2.8.55-.17.31-.34.61-.52.92Z"/>
  <path class="cls-5" d="M108.79,39.59c-1.3-.15-2.45-.88-3.86-.74-1.58.16-3.16.14-4.61.95-.33.19-.76.19-1.15.28.16-.72.32-1.44.48-2.15,3-.58,6.01-.69,9.04-.25.34.05.75-.05.8.47-.34.43-1.34.53-.7,1.44Z"/>
  <path class="cls-3" d="M58.6,45.32c-.71-.66-1.38-1.38-2.14-1.98-2.29-1.84-4.87-2.92-7.84-3.01-.73-.02-1.45.58-2.18.04,2.33-.76,4.73-.9,7.16-.73.65.2,1.05.67,1.49,1.19,1.35,1.61,3.06,2.8,4.9,3.79.28.15.54.32.81.47-.73.08-1.46.15-2.2.23Z"/>
  <path class="cls-39" d="M3.76,68.61c.22-.21.38-.5.76-.45,1.18.15,2.32-.21,3.48-.24-.41,1.15-.81,2.3-1.22,3.45-.75.43-1.51.85-2.25,1.3-.61.37-.84.2-.83-.5.01-1.19-.13-2.37.06-3.56Z"/>
  <path class="cls-20" d="M98.67,57.58c-1.57-.49-3.28-.64-4.52-1.91-.73-.33-1.1-.82-.75-1.64,1.71.22,3.42.37,5.07.94.35.85.24,1.73.2,2.61Z"/>
  <path class="cls-36" d="M59.38,52.61c.39.3.56.57.2,1.07-.79,1.1-1.89,1.73-3.1,2.23-.19-1.05.35-2.04.21-3.09.9-.03,1.77-.38,2.68-.22Z"/>
  <path class="cls-40" d="M66.76,91.01c.74-.32,1.1.32,1.37.72.56.84,1.4,1.35,2.08,2.04.22.23.47.17.75.2.49.05.19.39.13.63-1.88-.66-3.26-1.94-4.33-3.59Z"/>
  <path class="cls-21" d="M53.43,9.66c3.1-1.65,5.82-.37,8.43,1.2,2.07,1.25,2.04,1.38.2,2.89-5.02,4.13-7.48,9.6-8.43,15.88-.02.15-.06.29-.1.46-.88-.2-1.58-.69-2.33-1.04-2.64-1.33-3.8-3.64-4.12-6.43-.21-1.81.17-3.57.91-5.24.18-.4.59-.83.11-1.3-.99-.15-.83-.8-.56-1.41.49-1.14,1.53-1.67,2.59-2.14.43-.19.88-.36,1.31-.54.48-.48,1.15-.49,1.76-.75-.17-.55-.53-1.16.24-1.58Z"/>
  <path class="cls-6" d="M69.44,43.12c-4-1.45-3.61-1.14-3.59-4.75.02-4.51,1.58-8.33,5.4-11.01.25-.18.56-.28.84-.42.52.27.49.78.51,1.25.14,4.5.08,9.01.04,13.51-.01,1.56-.41,1.81-1.92,1.5-.42-.08-.83-.34-1.27-.07Z"/>
  <path class="cls-10" d="M69.44,43.12c.41-.85,1-.15,1.42-.08,1.29.2,1.42.2,1.43-1.2.04-2.71.04-5.43,0-8.14-.03-2.25.17-4.52-.22-6.76.15-.04.31-.08.46-.12,3.37,1.98,4.94,5.14,5.74,8.79.21.97.27,1.96.44,2.94.28,1.6-.29,2.73-1.71,3.55-.97.56-2,.94-3.04,1.31-1.53.11-3.05.16-4.54-.29Z"/>
  <path class="cls-2" d="M48.08,16.08c.78-.13.85.06.5.79-1.63,3.39-1.94,6.76.42,10,.61.84,1.46,1.45,2.17,2.19-.12.22.28.58-.5.59-3.52.07-5.99-1.59-7.88-4.33-.75-1.09-1.18-2.37-1.42-3.65-.38-2.03.91-3.78,3.19-4.6,1.15-.41,2.3-.76,3.5-.98Z"/>
  <path class="cls-24" d="M67.03,25.25c.32,2.27-.68,4.05-2.68,4.74-1.86.65-3.94-.13-4.96-1.86-1-1.71-.65-3.85.87-5.22,1.68-1.52,4.14-1.37,5.78.35-.1.19-.29.26-.46.35-.61.3-.76.8-.47,1.38.31.61.8.7,1.39.36.16-.09.33-.24.53-.09Z"/>
  <path class="cls-34" d="M53.43,9.66c-.07.18-.25.4-.2.54.68,1.9-.88,1.52-1.8,1.79-1.04-.44-2.09-.88-3.13-1.32-.59-.25-.79-.44-.1-.93.67-.48,1.36-.37,2.06-.37,1.06,0,2.14-.12,3.17.28Z"/>
  <path class="cls-33" d="M67.03,25.25c-.55.44-1.08.94-1.86.41-.53-.36-.66-.84-.55-1.44.15-.82.78-.88,1.42-.96,1.1.28,1.16,1.08.99,1.99Z"/>
  <path class="cls-17" d="M73.77,44.96c-.07.8-.13.85-1.23.97-.32-.15-.65-.29-.83-.71.75.2,1.47.38,2.06-.26Z"/>
  <path class="cls-25" d="M91.73,14.17c.16-.17.32-.35.48-.52,1.28-1.53,2.71-2.8,4.83-2.94.05.02.11.04.16.07,2.09,1.01,4.53,1.03,6.51,2.32.5.33,1.32.73,1.02,1.43-.33.74-1.11.3-1.7.14-.26-.07-.53-.2-.88,0,.34.86,1.13,1.3,1.83,1.72,1.2.73,1.56,1.82,1.5,3.04-.16,3.23-1.09,6.12-4.11,7.87-.47.27-.81.79-1.43.77-1.41-3.61-2.94-7.16-5.29-10.28-.93-1.24-1.93-2.42-2.9-3.63Z"/>
  <path class="cls-19" d="M99.92,28.08c.97-1.12,2.54-1.52,3.36-2.79,1.5-2.33,2.39-4.81,1.58-7.62-.22-.76-1.13-.8-1.57-1.37-.36-.46-.91-.76-1.34-1.16-.2-.18-.7-.25-.42-.7.19-.32.56-.24.87-.26.51-.03.89.32,1.35.44.27.07.62.15.78-.1.21-.32-.18-.44-.36-.64-1.14-1.3-2.81-1.37-4.3-1.86-.94-.31-2.04-.25-2.67-1.23.32-.25.69-.17,1.05-.16,1.94.18,3.92.06,5.82.65.57.03,1.01.29,1.34.75.11.67.7,1.17.69,1.89-.05.25-.14.5.01.75.22.33.47.64.47,1.07,0,.24,0,.56.23.64,2.04.73,1.47,2.38,1.4,3.85-.04.28-.13.54-.21.81-.1.99-.33,1.99,0,2.98-.25,3.52-1.77,6.38-4.56,8.55-.42.33-.9.49-1.43.5-.07,0-.13.03-.18.07-.31-.02-.6,0-.71-.43-.38-1.55-.79-3.09-1.19-4.64Z"/>
  <path class="cls-29" d="M86.48,25.71c.85.84.56,1.85.27,2.76-.56,1.76-2.3,2.97-3.98,2.9-1.79-.08-3.49-1.36-3.95-2.98-.52-1.84.13-3.6,1.74-4.69,1.5-1.02,3.36-.9,4.94.33-.16.23-.41.37-.62.55-.5.4-.7.92-.27,1.45.4.49.92.36,1.38.02.16-.12.29-.27.49-.33Z"/>
  <path class="cls-16" d="M97.75,41.05c-1.05.93-2.26,1.68-3.1,2.84-.89-.07-1.78-.14-2.66-.21,1.7-1.03,3.55-1.79,4.96-3.3.6-.65.75.17.8.68Z"/>
  <path class="cls-13" d="M86.48,25.71c-.18.86-.8,1.03-1.54.91-.65-.11-.91-.63-.92-1.22-.02-.99.73-1.2,1.49-1.37.49.46,1.39.7.98,1.69Z"/>
  <path class="cls-18" d="M93.4,54.04c-.01.67.42,1.13.75,1.64-1.58,5.15-4.57,9.08-9.63,11.26-2.67,1.15-5.45,1.64-8.35,1.43-.47-.1-.64-.42-.64-.87-.26-2.69-.67-5.37-1.16-8.02-.36-2-.52-4.03-.97-6.01-.18-.78.1-1.17,1.02-1.1,1.21.09,2.43.26,3.64,0,5.14.25,10.26.75,15.33,1.67Z"/>
  <path class="cls-22" d="M78.07,52.37c.21.79-.47.43-.63.38-1.02-.33-2.06-.11-3.08-.2-.7-.06-.78.25-.68.84.75,4.4,1.48,8.8,2.2,13.2.06.37.16.8-.24,1.1-.51.08-.8-.29-1.11-.59-2.1-2.01-4.62-2.67-7.46-2.39-.42.04-.87.23-1.21-.2-.41-1.02-1.41-1.57-1.95-2.53-1.42-2.52-1.83-5.22-1.68-8.05.03-.52.02-1.04.03-1.55,5.27-.37,10.54-.37,15.81-.02Z"/>
  <path class="cls-26" d="M85.14,48.21c.69-.58,1.63-.5,2.4-.89,1.64-.84,3.31-1.67,5.04-2.31,1.3-.48,2.67.05,4,.23.15.02.38.41.34.56-.22.87-.1,1.75-.15,2.62-.04.59-.48.56-.87.54-1.63-.1-3.26-.14-4.87-.29-1.71-.16-3.42-.13-5.12-.19-.25,0-.57.12-.76-.27Z"/>
  <path class="cls-4" d="M64.51,48.74c-2.36.08-4.61.69-6.91.73-1.69.03-.89-1.26-1.09-1.96-.21-.71.39-.79,1-.97,2.85-.83,4.68,1.43,7.01,2.2Z"/>
  <path class="cls-28" d="M107.78,20.91c.11-.24.23-.47.34-.71.05-.23-.02-.53.36-.53.34.02.6.14.75.48.91,2.1,2.03,4.11,2.53,6.38.29,1.32.02,2.38-.79,3.44-1.92,2.51-4.46,3.7-7.55,3.86-.64.03-1.16-.12-1.42-.77,3.61-1.96,5.26-5.16,5.77-9.08-.17-1.03-.08-2.06,0-3.08Z"/>
  <path class="cls-11" d="M97.04,10.72c-1.86.57-3.31,1.81-4.83,2.94-1-.84-1.01-1.4-.42-2.56,1.06-2.1,3.08-2.5,5.05-2.87.78-.15,1.46-.67,2.3-.53.22.04.52-.08.63.2.12.29-.15.41-.35.53-.97.58-1.33,1.79-2.37,2.3Z"/>
  <path class="cls-25" d="M108.48,19.68c-.12.18-.24.35-.36.53-.26-.96.36-2.01-.32-2.93-.19-.26-.16-.67-.74-.41-.43.2-.83-.25-.77-.65.08-.56-.18-1.03-.18-1.55,1.5,1.33,2.63,2.84,2.37,5.01Z"/>
  <path class="cls-25" d="M104.06,11.27c-1.94-.25-3.9-.22-5.82-.65,1.98-.16,3.96-.25,5.82.65Z"/>
  <path class="cls-25" d="M106.1,13.92c-.04-.7-1.25-.98-.69-1.89.67.47.85,1.12.69,1.89Z"/>
  <path class="cls-15" d="M15.93,77.57c-.19.2-.37.41-.56.61-.18-.07-.35-.15-.53-.22-.29-.58-.58-1.16-.96-1.91.95.38,1.4,1.08,2.05,1.53Z"/>
  <path class="cls-35" d="M65.86,64.51c1.65-.18,3.28-.35,4.93.1,1.95.53,3.44,1.71,4.84,3.08.18.23.36.45.54.68,1.24,1.61,2.24,3.35,2.86,5.29-.62-.33-.95-1.05-1.67-1.25-.94-1.17-2.33-1.53-3.63-2.07.07-.74-.53-1.03-.98-1.4-2.57-2.11-5.53-3.26-8.96-3.45.63-.64,1.48-.55,2.08-.98Z"/>
  <path class="cls-8" d="M71.85,80.48c1.61-.57,2.66-.3,3.63,1.1,1.49,2.14,1.77,4.51.9,6.95-.82,2.3-2,2.85-4.32,2.19-1.98-2.14-2.61-4.62-1.94-7.46.27-1.13.88-2.02,1.72-2.78Z"/>
  <path class="cls-41" d="M70.6,79.05c0,1.42-.75,2.6-1.71,2.66-.93.06-1.8-.88-2.03-2.28-.18-1.07.05-2.08.83-2.86.43-.43,1.03-.4,1.57-.17.69.29,1.34,1.62,1.34,2.65Z"/>
  <path class="cls-14" d="M71.04,75.11c.3-.71.74-1.23,1.58-1.2.9.03,1.34.65,1.63,1.37.43,1.03.45,2.11-.07,3.12-.49.93-1.22,1.34-2.26.76-1.11-1.17-1.29-2.54-.88-4.04Z"/>
  <path class="cls-41" d="M79.24,79c.02,1.46-.73,2.68-1.62,2.81-.9.13-1.71-.71-2.07-2.08-.12-.44-.17-.88-.08-1.3.22-.93.45-2,1.63-2.08,1.21-.08,1.67.88,1.96,1.89.09.3.14.62.17.76Z"/>
  <path class="cls-25" d="M107.78,20.91c0,1.03,0,2.06,0,3.08-.47-1.03-.21-2.06,0-3.08Z"/>
</svg>