<?xml version="1.0" encoding="UTF-8"?>
<svg id="Layer_1" data-name="Layer 1" xmlns="http://www.w3.org/2000/svg" viewBox="0 0 427.45 209.94">
  <defs>
    <style>
      .cls-1 {
        fill: #e8e9eb;
      }

      .cls-1, .cls-2, .cls-3, .cls-4, .cls-5, .cls-6 {
        stroke-width: 0px;
      }

      .cls-2 {
        fill: #a6adb3;
      }

      .cls-3 {
        fill: #ecebeb;
      }

      .cls-4 {
        fill: #010202;
      }

      .cls-5 {
        fill: #ededed;
      }

      .cls-6 {
        fill: #010102;
      }
    </style>
  </defs>
  <g id="cpYpIC">
    <g>
      <path class="cls-6" d="M11.68,92.47q-12.51,1.86-10.99-10.4c1.43-11.42,5.26-21.94,11.9-31.33-.84-1.36-2.16-.89-3.18-1.22-4.13-1.38-4.95-3.67-2.09-6.95,4.5-5.15,9.56-9.75,15.03-13.87C48.14,9.32,77.52,3.27,109.09,5.46c10.99.76,21.81,2.68,32.39,5.72,1.97.56,3.52.17,5.24-.38,44.64-14.42,89.3-14.37,133.91.02,2.62.84,4.82.49,7.22-.12,30.73-7.94,61.21-8.44,91.21,3.28,14.95,5.84,27.89,14.77,38.97,26.38,1.67,1.75,4.23,3.2,3.53,6.17-.79,3.38-4.12,2.79-6.97,3.86,7.41,10.27,11.08,21.81,12.49,34.2,1.03,9.01.32,9.85-8.37,8.25-.78-.14-1.56-.27-2.84-.5,2.62,7.4,5.24,14.35,4.94,21.98-.3,7.71-1.69,8.78-8.56,5.35-2.3-1.15-3.06-.8-3.94,1.49-2.35,6.08-5.54,11.75-9.42,16.99-1.29,1.74-1.33,2.6.7,3.73,12.51,6.96,19.6,17.75,21.51,31.81.46,3.36.1,10.7-.84,14.66-3.92,16.67-17.95,21.93-32.22,12.37-1.43-.96-1.8-.97-3,.37-10.22,11.48-26.97,11.85-37.81.81-1.58-1.61-2.38-1.29-4.07-.36-12.4,6.76-29.25-.95-28.59-14.96.09-1.92-.62-2.72-2.57-2.63-2.16.1-4.33.01-6.5.01-62.31,0-124.63.02-186.94-.06-3.77,0-5.69.19-6.03,5.02-.86,12.17-15.83,18.93-27.74,12.86-2.12-1.08-3.15-1.55-5.09.61-9.19,10.28-28.05,9.83-36.89-.65-1.05-1.25-1.35-2.57-3.65-.93-13.57,9.66-27.95,4.26-31.92-12.13-.95-3.92-1.17-12.83-.7-16.1,1.93-13.37,8.87-23.51,20.53-30.26,2.46-1.42,2.94-2.4,1.12-4.74-3.81-4.88-6.76-10.33-8.87-16.13-1.11-3.04-2.24-2.81-4.66-1.54-5.78,3.03-7.74,1.74-8.04-4.74-.36-7.84,1.93-15.1,5.04-22.71Z"/>
      <path class="cls-2" d="M283.02,176.7c-9.33,0-18.66-.11-27.98.07-3.49.07-4.63-.46-3.56-4.38,2.71-9.9,3.19-20.02,1.31-30.18-2.99-16.15-12.98-25.85-29.23-28.47-6.13-.99-12.26-1.19-18.39-.18-19.88,3.27-30.63,15.57-31.47,35.79-.33,8.04.12,16,2.37,23.75.89,3.08-.01,3.67-2.92,3.65-19.16-.1-38.31-.09-57.47,0-2.56.01-3.63-.67-4.35-3.34-5.6-20.58-18.93-33.07-39.91-37.23-2.04-.4-3.85-.38-3.51-3.43,2.65-23.73,8.42-46.47,21.07-67.04,15.95-25.93,39.19-42.37,68.14-50.5,37.86-10.63,76.08-10.79,113.83.2,45.09,13.13,71.94,44.11,83.6,89.02,2.35,9.04,3.66,18.25,4.85,27.5.34,2.64-.23,3.71-3.14,4.26-21.21,4.02-34.65,16.63-40.2,37.47-.66,2.48-1.68,3.11-4.04,3.08-9.66-.11-19.32-.05-28.98-.04Z"/>
      <path class="cls-2" d="M329.7,41.91c-9.9-9.99-21.04-18.31-33.76-24.7,26.72-14.86,92.05-.11,113.46,25.43-.6,1.39-1.99.9-3.03,1.25-3.89,1.29-4.82,3.89-1.92,6.61,8.85,8.3,12.46,18.99,14.77,30.45.82,4.07-.37,4.73-3.93,3.56-1.73-.57-3.58-.76-5.36-1.17-1.79-.41-3.31-.09-4.43,1.45-1.16,1.59-.7,3.08.2,4.64,3.35,5.79,6.08,11.82,7.25,18.49.48,2.73.46,4.13-2.73,2.27-3.8-2.21-5.83-.56-6.97,3.26-2.3,7.74-6.26,14.65-10.78,21.28-1.49,2.19-3.09,2.99-5.83,2.25-5.31-1.44-10.79-2.11-16.31-1.92-2.42.08-3.66-.48-3.7-3.21-.04-2.97-.55-5.94-.86-8.9,9.14-2.55,13.13-9.91,15.84-17.93,3.51-10.37,4.86-21.22,2.39-31.96-2.37-10.33-9.37-17.51-18.67-22.26-11.16-5.7-23.24-7.95-35.62-8.88Z"/>
      <path class="cls-2" d="M61.52,123.91c-.38,3.46.31,7.66-1.44,10.16-1.77,2.53-6.23.58-9.46,1.16-2.29.41-4.8.18-6.89,1.02-5.21,2.09-8.17.23-10.75-4.4-2.84-5.09-6.05-10.01-7.8-15.57-1.97-6.29-1.64-9.23-11.01-4.86.49-7.62,3.27-14.21,6.74-20.61.99-1.84,2.72-3.64,1.13-5.94-1.69-2.46-3.96-1.55-6.3-1.11-9.07,1.69-8.86,3.62-6.6-7.04,2.09-9.89,6.11-18.94,13.69-26.11,3.52-3.32,2.02-5.67-4.5-7.49C30.84,19.4,92.97,4.76,131.94,16.77c-12.95,6.9-24.32,15.08-34.21,25.21-12.59,1.41-25.08,3.15-36.5,9.22-13.77,7.32-20.7,21.07-18.52,36.59,1.06,7.56,1.72,15.18,5.03,22.25,2.95,6.32,7.61,10.8,13.77,13.87Z"/>
      <path class="cls-2" d="M58.9,142.37c17.54.22,33.16,6.02,42.05,23.95,2.93,5.9,4.35,12.21,4.66,18.74.28,5.92-2.49,9.6-7.95,11.05-6.04,1.6-10.99-.2-13.55-5.33-.97-1.95-1.78-3.7-4.22-3.4-2.74.33-3.07,2.44-3.35,4.76-.59,4.8-3.47,7.73-8.08,9.09-4.42,1.31-8.92,1.43-13.3.31-5.66-1.45-8.32-5.68-9.1-11.25-.26-1.82-.99-3.14-3.02-3.4-1.9-.25-3.18.47-4.02,2.19-.51,1.04-1.13,2.04-1.8,2.99-2.99,4.17-6.67,6.86-12.22,6.04-5.49-.81-8.4-4.33-10.12-9.18-5.08-14.3,1.82-32.13,15.49-40.15,8.47-4.97,17.81-6.17,28.54-6.41Z"/>
      <path class="cls-2" d="M414.09,179.09c-.02,4.08-.55,8.03-2.29,11.72-4.17,8.85-14.52,10.08-20.72,2.48-.53-.64-.95-1.37-1.44-2.04-1.38-1.9-1.8-4.95-5.22-4.43-3.44.53-3.05,3.5-3.57,5.8-.91,4.06-3.19,7.09-7.07,8.39-5.69,1.9-11.49,1.89-17.04-.67-3.79-1.75-5.76-4.91-5.98-9.1-.11-2.08-.98-3.63-3.1-3.92-2.08-.28-3.18,1.02-4.15,2.83-3.09,5.75-8.14,7.75-14.16,5.85-5.68-1.79-8.03-5.65-7.52-12.4,1.94-25.93,21.78-42.51,49.31-41.22,7.51.35,14.94,1.12,21.89,4.37,13.75,6.43,20.48,17.38,21.06,32.33Z"/>
      <path class="cls-1" d="M329.7,41.91c.7-2.46,2.6-.93,3.68-.82,14.13,1.35,27.94,4.04,39.48,13.04,10.84,8.45,14.51,19.78,13.24,33.37-.95,10.21-2.5,20.13-8.61,28.54-2.71,3.72-5.48,8.65-11.74,6.89-3.52-23.22-10.32-45.25-23.48-64.99-3.78-5.67-8.23-10.81-12.58-16.03Z"/>
      <path class="cls-1" d="M61.52,123.91c-6.56-.37-9.9-5.14-13.13-9.85-4.14-6.02-5.26-13.15-6.4-20.13-1.48-9.05-1.67-18.1,2.15-26.81,4.53-10.3,12.94-16.27,22.93-20.15,8.65-3.37,17.79-5.06,27.05-5.93,1.26-.12,2.7-.45,3.63.93-21.41,23.18-31.78,51.25-36.22,81.93Z"/>
      <path class="cls-4" d="M277.55,103.61c9.3-.01,16.9,7.61,16.74,16.77-.16,9.01-7.67,16.42-16.67,16.45-9.19.04-16.8-7.64-16.73-16.88.06-9.07,7.48-16.34,16.67-16.35Z"/>
      <path class="cls-6" d="M150,103.58c9.19.1,16.56,7.44,16.56,16.48,0,9.22-7.74,16.94-16.82,16.76-9.36-.18-16.8-7.83-16.57-17.02.23-9.07,7.75-16.32,16.83-16.22Z"/>
      <path class="cls-5" d="M286.85,112.78c-.06,2.56-1.58,3.88-3.7,3.96-2.16.08-3.78-1.22-3.85-3.63-.09-2.62,1.41-4.05,3.91-4.06,2.38,0,3.43,1.61,3.64,3.73Z"/>
      <path class="cls-3" d="M155.39,116.83c-2.14-.27-3.78-1.24-3.87-3.65-.1-2.58,1.3-4.12,3.85-4.14,2.34-.02,3.62,1.49,3.67,3.79.05,2.36-1.38,3.56-3.65,3.99Z"/>
    </g>
  </g>
</svg>