<?xml version="1.0" encoding="UTF-8"?>
<svg id="Isolation_Mode" data-name="Isolation Mode" xmlns="http://www.w3.org/2000/svg" viewBox="0 0 68.27 45.31">
  <defs>
    <style>
      .cls-1 {
        fill: #a7aeb4;
        stroke: #231f20;
        stroke-miterlimit: 10;
        stroke-width: 4px;
      }
    </style>
  </defs>
  <path class="cls-1" d="M33.1,2.09c19.17.06,30.73,10.13,33.05,28.09.5,3.85-.58,6.99-4.41,8.42-3.84,1.43-7.49,1.24-9.99-2.68-.88-1.38-1.63-3.1-3.66-2.78-2.12.33-2.13,2.37-2.46,3.87-1.15,5.16-5.3,6.14-9.45,6.27-4.32.14-8.61-.62-10.6-5.53-2.7-6.63-3.3-6.72-7.41-1.1-2.04,2.79-4.6,4.42-7.99,3.82-3.46-.61-5.74-2.74-6.97-6.25C-1.38,21.11,7.65,6.08,22.08,3.2c3.89-.78,7.81-1.45,11.03-1.1Z"/>
</svg>