<?xml version="1.0" encoding="UTF-8"?>
<svg id="Layer_1" data-name="Layer 1" xmlns="http://www.w3.org/2000/svg" viewBox="0 0 1256.9 659.52">
  <defs>
    <style>
      .cls-1 {
        fill: #93cf6c;
      }

      .cls-1, .cls-2, .cls-3, .cls-4, .cls-5, .cls-6, .cls-7, .cls-8, .cls-9, .cls-10, .cls-11, .cls-12, .cls-13, .cls-14, .cls-15, .cls-16, .cls-17, .cls-18, .cls-19, .cls-20, .cls-21, .cls-22, .cls-23, .cls-24, .cls-25, .cls-26, .cls-27, .cls-28, .cls-29, .cls-30, .cls-31, .cls-32, .cls-33, .cls-34, .cls-35, .cls-36, .cls-37, .cls-38, .cls-39, .cls-40, .cls-41, .cls-42, .cls-43, .cls-44, .cls-45, .cls-46, .cls-47, .cls-48, .cls-49, .cls-50, .cls-51, .cls-52, .cls-53 {
        stroke-width: 0px;
      }

      .cls-2 {
        fill: #70b04a;
      }

      .cls-3 {
        fill: #76ad51;
      }

      .cls-4 {
        fill: #70af4a;
      }

      .cls-5 {
        fill: #76ae55;
      }

      .cls-6 {
        fill: #422c16;
      }

      .cls-7 {
        fill: #2d1c0f;
      }

      .cls-8 {
        fill: #93a88b;
      }

      .cls-9 {
        fill: #63503a;
      }

      .cls-10 {
        fill: #77ac53;
      }

      .cls-11 {
        fill: #94cf6b;
      }

      .cls-12 {
        fill: #97a88e;
      }

      .cls-13 {
        fill: #4b3f2c;
      }

      .cls-14 {
        fill: #71b04c;
      }

      .cls-15 {
        fill: #533a1a;
      }

      .cls-16 {
        fill: #94cf6d;
      }

      .cls-17 {
        fill: #745228;
      }

      .cls-18 {
        fill: #93cd6c;
      }

      .cls-19 {
        fill: #9aa894;
      }

      .cls-20 {
        fill: #9caf90;
      }

      .cls-21 {
        fill: #77ab51;
      }

      .cls-22 {
        fill: #99a990;
      }

      .cls-23 {
        fill: #523b18;
      }

      .cls-24 {
        fill: #93cb6c;
      }

      .cls-25 {
        fill: #6faf49;
      }

      .cls-26 {
        fill: #6c4924;
      }

      .cls-27 {
        fill: #674e33;
      }

      .cls-28 {
        fill: #77ad54;
      }

      .cls-29 {
        fill: #6c4925;
      }

      .cls-30 {
        fill: #71522d;
      }

      .cls-31 {
        fill: #92cd6a;
      }

      .cls-32 {
        fill: #93cd6a;
      }

      .cls-33 {
        fill: #95ce6d;
      }

      .cls-34 {
        fill: #70b049;
      }

      .cls-35 {
        fill: #52391b;
      }

      .cls-36 {
        fill: #93cb6a;
      }

      .cls-37 {
        fill: #91cb6a;
      }

      .cls-38 {
        fill: #71b049;
      }

      .cls-39 {
        fill: #b4a3be;
      }

      .cls-40 {
        fill: #93ce6c;
      }

      .cls-41 {
        fill: #684a25;
      }

      .cls-42 {
        fill: #94cf6c;
      }

      .cls-43 {
        fill: #422b17;
      }

      .cls-44 {
        fill: #93ce6b;
      }

      .cls-45 {
        fill: #71b04b;
      }

      .cls-46 {
        fill: #94ce6c;
      }

      .cls-47 {
        fill: #2c1b0e;
      }

      .cls-48 {
        fill: #92ca6b;
      }

      .cls-49 {
        fill: #94a789;
      }

      .cls-50 {
        fill: #95ce6c;
      }

      .cls-51 {
        fill: #75ad50;
      }

      .cls-52 {
        fill: #9aac90;
      }

      .cls-53 {
        fill: #543b1a;
      }
    </style>
  </defs>
  <g id="YKp9Wv">
    <g id="OTqtye">
      <g>
        <path class="cls-23" d="M534,317.3c7.23,1.01,14.48,1.88,21.69,3.07,15.49,2.56,28.99-2.73,42.22-9.94,18.99-10.36,36.58-22.88,54.79-34.45,9.1-5.78,18.36-11.32,28.46-15.27,11.37-3.08,23.02-4.82,34.59-6.88,6.71-1.19,13.58-.59,20.39-1.24,9.41-.91,18.92-.63,28.39-1.01,20.84-.83,41.51-2.67,61.59-8.3,12.94-3.63,25.72-7.95,38.41-12.47,8.75-3.12,17.57-6.05,26.16-9.53,17.47-7.07,31.94-17.37,39.4-35.82,5.41-13.38,11.4-26.56,18.04-39.38,9.44-18.22,21.99-34,38.57-46.35,17.58-13.1,37.03-21.9,58.54-26.49,11.98-2.56,24.12-4.94,34.87-11.52,6.01-3.68,11.64-7.92,16.2-13.15,9.87-11.33,22.5-13.5,36.3-11.87,25.51,3.02,50,10.13,73.82,19.52,9.08,3.58,17.92,7.89,25.4,14.41,2.34,2.04,4.04,1.67,5.65-.9,3.37-5.38,4.35-11.5,5.2-17.56.51-3.61,1.01-7.23,1.65-10.82.42-8.64,4.14-16.28,7.41-24.03.7-1.65,2.19-3.07,4.39-1.67.16,2.14.47,4.28.47,6.43.04,34.57.05,69.15.03,103.72,0,1.61.49,3.34-.71,4.8-4.19.8-7.78-1.05-11.15-2.96-5.06-2.86-10.04-5.92-14.33-9.93-8.2-7.66-18.75-9.56-29.11-11.96-21.98-5.1-44.43-8.29-65.75-16.07-5.87-2.14-10.88-4.82-13.46-11.47-2.73-7.03-12.56-7.25-17.86-.94-4.37,5.21-6.57,11.51-8.69,17.84-2.53,7.54-4.8,8.79-12.16,5.66-6.44-2.74-12.93-5.24-19.69-7.01-5.03-1.32-10.13-1.79-15.3-.91-8.04,1.36-12.04,7.01-10.58,15.04.24,1.32.41,2.63.54,3.95.5,4.9-1.05,6.67-6.06,6.85-2.16.08-4.29,0-6.44-.51-2.25-.53-4.54-1.08-6.9-.75-5.72.79-8.26,4.92-4.9,9.52,8.53,11.68,2.53,25.51-5.55,33.81-13.74,14.12-30.84,22.9-48.53,30.75-1.36.61-2.76,1.15-4.15,1.72-12.52,5.14-14.46,16.09-6.92,27.39,1.93,2.89,4.26,5.5,7.3,7.42,2.14,1.36,4.31,3.11,3.38,6.03-.88,2.75-3.61,2.83-5.9,2.62-8.05-.74-14.14,3.39-19.78,8.1-4.42,3.7-6.46,9.27-6.38,14.73.18,12.71-6.08,22.19-13.92,31.06-3.52,3.98-7.37,7.67-11.57,11-3.12,2.47-5.92,5.36-8.27,8.64-9.91,13.85-21.69,25.62-37.18,33.23-.9.44-1.63,1.15-2.5,1.64-3.49,1.12-6.78,2.51-9.19,5.52-1.03,1.28-2.58,2.13-4.11,2.73-7.35,2.89-14.18,6.95-21.25,10.33-8.21,3.92-17.45,8.71-19.32,19.72-.31,1.83-.94,3.61-3.39,3.52-1.72-.67-2.34-2.12-2.91-3.75-1.34-3.9-2.69-7.81-4.99-11.3-1.2-1.83-1.36-3.69.08-5.5,8.38-12.46,20.29-20.93,32.82-28.56,23.73-14.46,42.33-34.01,57.48-57.07.91-1.39,1.88-2.74,2.82-4.11-.2-2.56,1.04-4.21,3.03-5.78,9.3-7.35,17.61-15.78,24.92-25.07,2.93-3.73,4.73-8.35,7.53-10.15-2.32,1.9-4.89,5.89-9,8.37-6.26,3.78-12.32,7.89-18.77,11.36-2.24,1.2-4.94,2.55-6.85.21-2.09-2.56-.25-4.96,1.72-6.96,1.76-1.77,3.43-3.62,4.36-4.5-5.87,7.35-14.8,12.52-24.18,17.02-3.32,1.6-6.78,3.08-10.09-.36-1.35-1.4-3.09-.68-4.72-.32-10.06,2.18-19.83,5.48-29.87,7.79-15.58,3.59-31.13,4.25-46.99,2.09-9.73-1.33-19.12-4.34-28.95-5.03,1.07,1.55,3.46,2.86,2.04,5.2-1.25,2.06-3.48,1.65-5.45,1.13-5.14-1.35-10.32-2.48-15.52-3.58-3.88-.83-6.4.12-8.73,2.95-3.98,4.82-5.19,5.09-11.12,2.81-8.72-3.36-14.52.33-15.1,9.61-.08,1.33,0,2.66.05,3.99.11,3.71-2.06,5.05-5.39,4.9-2.36-.1-4.47-1.23-6.69-1.9-6.86-2.08-10.89.54-10.95,7.64-.05,5.9-2.8,9.4-8.04,11.25-3.29,1.16-6.44,2.88-9.9,3.4-11.19,1.66-19.73,8.22-28.25,14.89-6.1,2.6-11.31,6.26-14.08,12.54-1.5,3.4-4.42,2.89-7.18,3.01-1.93.06-3.89-.44-5.78.32-17.95,2.78-36.12,2.24-54.16,3.62-19.2,1.46-35.98,8.55-51.02,20.35-8.06,6.32-16.5,12.17-23.92,19.29-3.48,3.3-7.26,2.98-10.34-.86,16.57-21.53,37.13-37.92,62.27-48.42.27-.11.45-.45,1.18-1.22-3.91-.96-7.47-1.83-11.04-2.7.76-5.37,5.24-3.35,8.35-4.13-.74-.91-1.88-1.46-1.94-2.77,1.27-3.75,3.16-7.15,5.66-10.22,4.99-.76,10.12-3.35,14.78.96Z"/>
        <path class="cls-29" d="M853.11,343.5c1.25-2.2,3.63-2.95,5.63-3.97,11.51-5.87,20.98-14.2,28.34-24.64,6.62-9.4,15.71-16.2,23.47-24.38,5.27-5.55,10.11-11.48,12.72-18.89,1.23-3.49,2.03-6.99,1.87-10.73-.63-14.96,14.41-26.71,26.44-26.39,2.2.06,5.68,1.27,6.41-.94.93-2.82-2.91-3.43-4.74-4.85-9.27-7.19-15.01-22.04-7.85-30.65,2.51-3.01,5.36-5.4,9.05-6.79,16.1-6.11,31.02-14.43,44.71-24.83,7.2-5.47,13.34-12.14,16.19-21.01,1.69-5.25,1.1-10.49-2.07-15.24-2.24-3.36-4.81-6.89-2.08-10.96,2.82-4.19,7.11-4.96,11.95-3.95,3.24.68,6.47,1.42,9.87,1.34,3.14-.07,4.05-1.07,3.35-4.27-.91-4.17-2.31-8.43-.55-12.75,2.51-6.18,10.34-10.52,18.06-9.77,10,.97,19.54,3.65,28.55,8.17,1.48.74,3.15,1.07,4.67,1.74,3.28,1.44,4.93.23,5.77-3.06,1.82-7.13,4.57-13.84,8.72-20.01,4.67-6.95,16.45-9.14,21.68-1.41.09.14.28.23.33.37,3.74,12.49,15.45,12.66,24.97,15.63,18.54,5.8,37.82,8.61,56.74,12.9,10.58,2.4,20.59,5.76,28.91,13.55,6.14,5.74,13.81,9.67,21.71,12.82-2.85,1.4-5.97,1.36-8.73.4-11.03-3.84-22.59-3.81-33.97-4.95-29.31-2.94-58.66-5.32-88.18-4.7-12.38.26-23.96,2.84-34.97,8.64-11.08,5.84-22.69,10.41-35.34,11.64-2.28.22-4.02,1.01-4.93,3.46-6.39,17.25-17.89,31.03-30.52,43.92-8.26,8.43-16.98,16.41-25.61,24.48-1.6,1.49-2.03,3.17-2.58,5.14-6.64,23.58-6.85,48-9.68,72.08-2.34,19.87-9.39,38-20.76,54.46-.37.54-.6,1.18-.9,1.77.62,3.65-1.76,5.5-4.44,6.89-6.31,3.26-10.54,7.74-10.21,15.39.08,1.88-.7,3.53-2.38,4.62-5.31,1.23-6.27.73-6.99-3.69,1.5-12.79,8.21-23.5,14.29-34.3,12.46-22.12,15.71-45.96,14.7-70.85-1.8-.19-2,1.48-2.71,2.42-10.63,14.2-23.5,26.23-36.56,38.1-15.39,13.99-30.72,28.07-48.38,39.19-12.51,7.88-25.41,15.15-40.01,18.65-1.15-.08-2.32.01-3.43-.42-1.54-.6-2.38-1.75-2.57-3.36-.2-1.74.72-3.21,2.22-3.45,8.45-1.38,13.39-8.14,19.82-12.6Z"/>
        <path class="cls-6" d="M1246.05,41.57c-1.11,10.72-1.52,21.57-7.51,31.15-2.04,3.26-4.27,3.7-6.76.98-8.09-8.83-19.08-12.67-29.69-16.81-19.07-7.44-38.74-13.22-58.94-16.63-10.72-1.81-21.72-3.5-32.52.49-4.88,1.8-8.48,5.29-11.93,8.82-11.96,12.24-26,20.19-42.98,23.47-16.99,3.27-33.62,8.08-48.96,16.48-10.09,5.52-19.41,12.07-27.98,19.8-16.39,14.79-27.24,33.2-35.85,53.2-3.94,9.15-8.38,18.07-12.37,27.2-7.54,17.27-21.98,26.75-38.46,33.46-13.65,5.56-27.59,10.51-41.65,14.95-19.45,6.14-38.86,12.16-59.55,13.72-17.91,1.36-35.78,2.24-53.71,2.81-16.09.51-32.06,2.59-47.8,6.2-2.65.61-5.5.73-8.22-.17,8.55-4.78,17.89-7.48,27.22-10.14,12.21-3.48,24.58-6.25,37.22-7.56,9.18-.95,18.39-1.57,27.58-2.33,16.56.11,33.14,1.4,49.48-3.11,14.22-3.92,28.77-6.84,42.25-12.96,22.39-10.16,41.34-24.76,54.99-45.49,6.94-10.54,12.64-21.79,17.7-33.4,5.83-13.39,12.37-26.44,20.01-38.97,9.62-15.79,24.19-24.2,41.09-29.5,7.95-2.49,14.92-6.58,21.02-12.08,7.01-6.32,14.96-9.7,24.47-9.12,3.3.28,6.58.62,9.87,1.07,11.98,1.67,21.2-3.41,28.77-12.27,3.62-4.24,6.58-9.22,12.36-11.04,1.02-.04,1.8-.47,2.18-1.51,1.8-2.7,4.17-4.18,7.52-3.63,4.75,3.52,6.48,2.93,7.18-2.46,4.44-2.98,9.7-2.87,14.65-3.59,3.63-.53,7.41-2.07,11.19-.43,2.19,2.7,5.32,4.34,7.89,6.62,2.48,2.2,6.18.89,9.05-.03,6.07-1.96,12.12-1.64,18.21-.82,3.32.45,6.63.25,9.94.49,4.93.36,6.82,2.21,7.2,7.07.12,1.49.12,2.99.16,4.48.07,2.52,1.15,4.1,3.79,4.35.33.03.68.18.98.12,2.42-.5,5.42,3.57,7.3-.78,1.81-4.19,0-9.03-3.95-11.28-3.87-2.19-4-5.24-.3-7.57,1.4-.88,2.87-1.68,4.56-1.93,9.45.59,18.67,2.22,27.35,6.22,6.29,2.89,10.46,8.52,15.97,12.43Z"/>
        <path class="cls-15" d="M124.34,111.86c8.84,26.39,20.61,51.12,40.49,71.23,12.62,12.76,27.76,21.48,44.53,27.52,3.23,1.16,6.2,3.26,9.85,3.12,2.57-.74,4.01.89,5.47,2.55,1.88,2.13,3.97,3.93,6.52,5.31,3.15,1.7,6.12,1.81,8.77-.54,2.47-2.2,4.91-2.4,7.68-.9,13.27,1.28,26.58,1.62,39.9,1.62,31.16,0,58.57,10.37,81.29,31.46,30.3,28.11,66.34,43.65,106.3,51.42,1.57.11,2.85.65,3.59,2.18,1.38,2.89,3.43,5.11,6.14,6.9,2.98,1.97,2.3,4.36.11,6.61-2.65,1.24-5.25.29-7.79-.32-23.41-5.64-46.74-11.62-68.09-23.2-18.53-10.06-36.57-20.96-53.15-34.1-2.02-1.6-2.93-4.62-6.07-4.8-2.06-.92-3-3.24-5.11-4.1-3.92-4.84-8.99-8.01-14.76-10.17-1.54-.58-3.04-1.2-4.28-2.33-4.25-3.24-9.56-3.18-14.39-4.38-10.52-2.6-21.27-1.72-31.55,1.12-8.08,2.23-16.35,2.66-24.49,4.11-10.37,1.85-20.19,5.29-30.15,8.43-14.09,4.44-27.87,9.76-41.81,14.6-1.88.65-3.93.54-5.92.74-1.7-.44-3.41-.86-2.9-3.25,16.03-5.69,30.55-14.76,46.42-20.8,6.62-2.52,13.31-4.85,21.04-7.65-14.37-1.6-27.66-2.91-40.9-4.6-11.06-1.42-22.09-3.02-33.22-3.63-12.57-.68-22.3-6.56-30.64-15.71-7.48-8.21-14.26-17.23-23.98-23.14-1.68-1.02-3.15-2.5-5.26-2.7-2.76.44-4.43-.95-5.41-3.33-.83-2-1.79-3.89-2.95-5.74-4.02-6.45-9.77-8.57-17.09-7.3-3.4.59-6.73,1.97-10.3,1.24-5.35-2.42-11.13-3.99-15.82-7.77-1.43-1.17-2.1-2.5-.94-4.25,1.3-1.96,8.14-4.45,10.78-3.91,8.09,3.97,16.87,6.06,25.22,9.32,14.17,5.52,28.08,11.5,39.46,21.96,3.3,3.03,6.56,6.23,9.2,9.83,8.76,11.97,20.67,17.37,35.18,17.78,1.99.06,3.98.22,6.24.35-.29-.58-.38-1.11-.68-1.32-30.19-21.16-47.29-51.19-57.99-85.56-.64-2.07-1.27-4.14-1.91-6.2-1.79-2.09-1.29-4.25-.2-6.43,1-.91,1.79-2.42,3.53-1.27Z"/>
        <path class="cls-26" d="M620.19,325.55c3.27-.8,4.82-3.84,7.16-5.78,8.44-7.02,19.16-8.1,28.88-11.72,8.33-3.1,8.51-3.12,8.93-11.94.27-5.66,3.11-8.41,8.85-8.56,2.18-.06,4.26.23,6.34,1.05,7.71,3.03,7.84,2.97,7.78-4.82-.08-10.84,7.79-16.79,18.94-11.72,3.13,1.42,5.21,1.91,7.37-1.73,3.19-5.36,5.95-5.99,12.02-4.12.47.15.98.27,1.47.26,6-.1,11.38,3.05,17.6,2.97-2.57-2.18-5.14-4.36-7.71-6.55.07-.31.14-.62.21-.93,5.05.71,10.2,1.01,15.13,2.21,13.79,3.34,27.74,5.46,41.91,5.25,8.11-.12,16.2-1.3,24.11-3.38,10.91-2.88,21.84-5.7,32.74-8.62,1.77-.47,3.57-.74,4.35,1.1,1.46,3.45,3.26,2.48,5.86,1.31,10.11-4.52,19.27-10.38,27.26-18.06,1.65-1.59,3.41-2.98,6.4-3.99-3.73,6.47-9.99,10.15-12.8,18.25,15.7-7.55,28.98-16.17,40.96-27.73.26,1.25.57,1.84.4,2.04-12.98,15.31-23.28,33.11-40.79,44.25-.64.41-.97,1.31-1.44,1.98-1.96-1.15-3.49.32-5.09.94-20.64,7.96-41.93,11.49-64.1,10.47-28.5-1.3-56.95-.86-85.12,4.58-22.97,4.44-44.42,12.73-64.43,24.77-2.83,1.71-6.22,2.47-8.56,5-.75,1.49-2.07,2.38-3.62,2.15-5.68-.84-10.29,1.17-14.36,4.93-4.82-.62-9.44-2.47-14.43-2.14-.97.06-1.75-.8-2.22-1.73Z"/>
        <path class="cls-47" d="M1096.09,34.61c-4.21,3.24-7.83,7.03-11.17,11.17-8.65,10.72-19.52,16.05-33.56,13.11-2.41-.5-5.01.03-7.27-1.31-1.11-.85-2.92-1.21-2.54-3.19.35-1.81,1.95-1.86,3.36-2.36,5.83-2.04,11.77-3.02,17.94-2.66,2.82.16,5.52.1,4.15-4.2-.59-1.85.28-3.71,1.9-4.76,1.46-.94,2.37-2.19,3.18-3.62,12.87-4.76,24.6-11.65,36.01-19.16,8.53-5.62,17.99-8.25,28.15-9.11,30.2-2.54,60.5-3.24,90.74-4.97,9.8-.56,19.45-2.08,29.12-3.55.77,4.58.66,9.16.08,13.74-.02.63-.05,1.25-.07,1.88-3.8,1.01-2.87,4.8-4.15,7.26-3.05,5.86-4.52,12.28-5.92,18.69-3.36,1.21-5.65-1.25-7.3-3.09-8.05-8.94-18.88-10.95-29.85-12.82-1.95-.33-3.9-.69-5.84-1.04-5.71,1.17-11.39,1.12-17.24.64-9.4-.77-18.86-.67-28.32.11-6.5.54-13.23,1.99-19.4-1.74-8.77.69-17.43,2.02-26.01,3.95-1.62,3.14-4.14,3.14-6.99,2-2.51,1.03-5.2,1.74-7.01,3.99-.39.86-1.09,1.13-1.99,1.03Z"/>
        <path class="cls-40" d="M454.74,385.81c3.34,1.52,6.82,1.42,10.34.86,13.21,10.11,17.46,34.6,8.08,46.5-.96.43.11-2.18-1.45-.95-3.83,3.02-7.76,5.81-10.99,9.65-2.42,2.87-7.47,1.94-10.22,5.47-1.57,2.01-3.76,3.71-5.7,5.53-1.36,1.27-2.92,2.87-4.69,2.5-5-1.04-8.52,1.82-12.34,4-1.46.83-2.99,1.47-4.58,1.93-3.45,1-6.54-.18-6.92-3.66-.92-8.39-4.69-16.69-1.41-25.32.41-1.08.72-2.15.47-3.38-2.7-13.72,3.93-23.57,13.52-32.11,2.09-1.86,4.64-3.18,6.49-5.35,4.31-3.3,9.54-3.86,14.61-4.89,1.59-.32,3.2-.52,4.79-.78Z"/>
        <path class="cls-46" d="M72.12,167.7c2.74-.51,5.5-.94,8.23-1.54,11.42-2.52,19.22,1.57,23.7,12.46.91,2.21,1.13,4.92,3.96,5.83-1.83,3.27.38,6.47.16,9.71-.19,2.76.67,5.64-.92,8.24-.45.12-.63-1.14-.76-.49-.77,3.7-3.18,6.23-5.23,9.23-4.23,6.16-9.74,10.98-14.66,16.41-1.58,1.74-2.47,3.94-3.88,5.78-1.63,2.13-3.3,4.28-6.44,4.02-2.78-.23-4.08,1.97-5.72,3.51-9.28,8.74-14.73,7.15-17.87-5.26-1.49-5.88-3.62-11.41-3.45-17.89.1-3.95-2.4-8.36-2.16-12.93.52-9.78,3.3-18.56,10.54-25.58,1.78-1.72,3.24-3.77,4.21-6.11.72-1.6,2.34-2.44,3.24-3.89,2.01-2.1,4.68-1.15,7.06-1.53Z"/>
        <path class="cls-46" d="M174.55,262.7c.86.64,1.73,1.28,2.59,1.93,2.11,1.01,5,1.22,4.87,4.6,1.74,5.71,4.21,11.17,5.12,17.17.52,3.47.71,6.81.08,10.22-.51,3.88-2.97,6.52-5.05,9.68-4.67,7.1-11.74,11.74-16.6,18.45-1.07,1.48-1.8,3.16-2.62,4.79-1.03,2.03-2.8,3.66-5.08,3.52-3.47-.21-5.57,1.61-7.59,3.9-.88,1-1.83,1.93-2.87,2.78-5.59,4.56-11.46,3.26-12.97-3.77-1.22-5.7-5.64-10.26-5.27-16.28.25-3.98-.56-7.52-1.66-11.41-2.21-7.84.09-15.65,3.41-23.13,2.69-6.05,7.16-10.71,10.99-15.89.68-.63,1.56-1,2.19-1.7,5.44-2.83,11.14-4.74,17.24-5.59,4.49-.62,8.87-.69,13.21.73Z"/>
        <path class="cls-4" d="M690.98,640.74c-13.27,9.96-28.6,14.22-44.73,16.72-10.24,1.59-20.46,2.31-30.78,1.98-1.97-.06-3.94-.51-5.89-.91-2.06-.42-3.14-1.76-1.63-3.54,6.67-7.81,6.29-18.21,10.09-27.1,4.77-11.14,9.66-22.11,17.02-31.84,5.25-6.94,12.37-10.18,20.75-11.32,1.35-.18,3.38.15,3.8-1.68.35-1.51-1.45-2.04-2.37-2.92-4.81-4.62-9.04-9.69-12.13-15.64-2.12-2.95-3.25-5.95-1.66-9.68.8-1.87-.26-3.84-1.34-5.6-2.25-3.69-3.69-7.47-3.09-12.06.55-4.24-1.1-8.49-.87-12.81.23-4.29,1.4-5.31,5.64-4.36,4.18.94,8.26,2.3,12.28,3.8,2.03.76,3.87,1,5.16-1.23,3.04-1.45,4.99,1.08,7.11,2.25,3.76,2.07,7.21,4.7,10.8,7.08.68.45,1.7,1.36,2.06,1.16,6.14-3.4,8.17,2.74,11.86,4.98.99.6,2.07,1.81,2.95,1.68,6.12-.89,8.24,3.52,10.8,7.58.77,1.22,2.1,2.08,3.17,3.1,1.35.85,1.43,2.07,1,3.43-2.04,2.24-3.39.37-4.99-.76-6.09-4.32-11.86-9.21-19.82-9.97-2.89-.27-4.9-2.66-7.23-4.24-3.26-2.22-6.27-4.64-10.87-3.38-2.88.8-5.82-.95-8.64-1.91-6.87-2.34-8.11-1.33-7.31,5.73.68,5.91.65,11.95,4.36,17.1.68.94.8,2.2.67,3.38-1.03,9.96,6.13,15.09,12.3,20.74,1.1,1.01,2.87.83,4.35.74,5.69-.35,11.26.83,16.89,1.24,5.13.37,9.04,3.08,11.66,7.57,1.34,2.72,2.23,5.63,3.68,8.3,1.59,4.02,1.95,8.15,1.12,12.39-1.87,7.46-5.13,14.41-7.88,21.54-1.8,1.47-2.39,3.75-3.67,5.57-1.19,1.7-2.44,2.94-4.64,2.85Z"/>
        <path class="cls-34" d="M935.75,370.11c1.34,4.18,4.76,1.81,7.27,2.3,5.54-1.49,8.85,1.76,11.54,5.76,2.59,3.85,5.11,7.78,6.91,12.08,2.03,4.86,5.44,7.69,10.81,8.38,3.26.42,6.35,1.9,9.76,1.76,2.35-.09,4.63,0,6.42-1.98.79-.87,2.07-1.59,3.14-1.28,7.51,2.17,13.24-3.04,19.81-4.67,4.73-1.17,5.25-3.34,1.96-6.97-3.21-3.55-6.92-6.56-8.22-11.63-.61-2.38-3.56-3.27-5.8-4.38-3.73-1.85-7.56-3.6-9.03-8.02-.53-1.61-1.92-2.28-3.36-2.7-3.65-1.05-6.64-2.86-8.63-6.25-.71-1.22-2.95-2.11-2.22-3.52.97-1.88,3.14-.96,4.86-.59,3.43.46,7.08-.21,8.37,4.86.52,2.04,4.25,2.59,6.72,3.51,3.17,1.17,7.49,1.45,6.53,6.88-.24,1.36,1.62,1.89,2.75,2.53,2.57,1.47,5.17,2.91,7.75,4.37,1.72,1.31,3.9,1.82,5.56,3.24.64.55,1.56,1.17,1.55,1.87-.19,7.71,6.77,10.82,10.35,16.07,3.16,4.64,3.48,4.51-1.39,7.84-4.81,2.17-10.09,3.17-14.67,5.97-2.19,1.34-4.81,1.1-7.31,1.13-3.57.05-7.33-.79-9.95,2.93-.88,1.26-2.78.81-4.26.88-7.06.31-13.93-.51-20.52-3.21-1.54-.63-3.28-1.38-4.67-.01-1.32,1.29-.18,2.8.26,4.18,3.39,10.7.7,20.52-5.15,29.41-8.7,13.21-18.67,25.42-31.37,35.13-1.98,1.51-3.8,3.19-4.45,5.82-.4,1.63-1.21,3.33-3.14,3.44-1.88.11-2.84-1.49-3.73-2.91-4.16-6.63-7.35-13.75-10.02-21.06-5.88-16.14-10.43-32.45-9.33-50.06.99-15.72,13.61-34.94,30.82-37.91,2.07-.36,3.15-1.6,4.11-3.19Z"/>
        <path class="cls-33" d="M980.96,348.4c-1.14.11-2.28.22-4.03.4,2.17,1.57,4.98,1.8,4.76,4.97-.09,1.29,1.62,1.34,2.65,1.83,3.56,1.69,9,.86,8.97,7.53,0,1.37,4.09,2.99,6.48,4.08,2.29,1.05,4.43,2.27,6.34,3.87,1.31,1.1,3.24,1.86,1.87,4.36-.8,1.46.88,2.3,1.75,3.22,2.27,2.43,4.76,4.67,6.84,7.24,3.19,3.95,2.96,6.71-1.8,7.76-7.61,1.68-14.06,8.45-22.76,5.4-.52-.18-1.73.04-1.76.22-.94,5.36-5.15,2.88-7.96,3.16-5.4.55-10.44-1.61-15.55-2.94-3.09-.81-4.77-3.44-6.21-6.12-2.04-3.79-4.23-7.56-6.11-11.38-2.52-5.13-6.64-7.55-11.41-9.58-1.57-9.84,2.49-16.67,11.42-20.59,2.48-1.09,3.66-3.18,5.34-4.92,1.9,1.15,3.79,1.3,6.09.99,5.01-.68,10.12-1.28,15.1.52Z"/>
        <path class="cls-7" d="M1072.09,36.79c.88,1.97,2.26,3.97-1.29,4.89-2.57.67-2.97,1.94-1.24,4.32,2.51,3.46,1.41,5.56-2.95,5.5-7.14-.1-14.09.63-21.09,2.18-3.83.85-2.89,1.89-1.43,3.91-8.89-.58-16.19,2.74-22.43,8.91-8.69,8.58-19.9,12.41-31.13,16.1-10.57,3.47-20.05,9.73-26.31,18.12-7.76,10.39-14.46,21.76-19.47,34.26-5.38,13.41-11.58,26.67-19.21,39.28-9.33,15.43-21.08,28.25-35.42,38.5-13.64,9.75-28.56,17.48-45.26,21.22-5.26,1.18-10.46,3.35-15.63,4.57-6.2,1.46-12.32,3.9-18.84,4-11.48.19-22.95,0-34.39-1.03-.96-.09-1.88-.55-2.82-.84,9.65-.72,19.38-.86,28.93-2.26,27.06-3.98,53.18-10.82,75.46-27.88.13-.1.3-.14.45-.21,1.26-4.1,5.29-3.36,8.14-4.69,7.83-1.62,12.04-7.54,16.13-13.59,1.2-1.77,1.98-3.79,3.15-5.6,1.43-1.44,2.22-3.27,3.08-5.06.79-1.65,1.52-3.4,3.77-3.5,12.62-14.59,21.6-31.5,30.71-48.33,8.55-15.79,16.73-31.81,28.03-45.93,6.5-8.11,14.43-14.16,24.49-17.25,9.52-2.92,18.99-5.98,28.49-8.98,3.88-1.18,8.9.25,11.08-4.83,1.11-1.08,2.4-1.84,3.94-2.14,1.63.02,3.02-.45,3.91-1.93,1.21-.99,2.57-1.64,4.14-1.81,2.27.73,3.48-.96,4.89-2.17,6.71-2.58,13.41-5.16,20.12-7.74Z"/>
        <path class="cls-53" d="M710.23,554.4c-.09-1.33-.17-2.66-.26-3.99,10.1-36.49,28.65-69.19,45.9-102.48,5.34-10.31,10.99-20.47,15.43-31.23-.12-.83-.28-1.82.3-2.4,4.75-4.7,8.98-10.14,15.95-11.88,5.51,2.24,6.92,4.68,4.86,9.89-1.32,3.35-1.11,6.85-2.01,10.23-3.22,12.08-9.56,22.47-16.41,32.75-7.45,11.18-15.35,22.04-22.95,33.11-9.03,13.15-13.91,28.24-19.72,42.87-4.53,11.39-8.6,22.96-12.84,34.46-1.07,2.9-.98,5.88-1.45,8.82-.22,1.35-.73,2.71-2.26,2.95-1.45.23-1.82-1.16-2.42-2.12-.62-5.6-1.07-11.22-2.63-16.66-.44-1.55-.1-2.94.52-4.33Z"/>
        <path class="cls-41" d="M714.08,575.46c1.98.88,1.03-.97.99-1.29-.81-7.33,2.83-13.57,5.13-20.04,4.77-13.38,10.16-26.54,15.17-39.84,4.47-11.88,10.49-22.95,17.87-33.2,7.06-9.8,13.57-19.96,20.49-29.82,6.4-9.12,11.26-18.69,14.42-29.27,1.28-4.27.99-8.84,2.96-13.02,1.65-3.49-2.85-3.38-3.82-5.44-1.22-1.55-.4-3.06.64-3.97,3.47-3.05,5.67-6.79,7.04-11.14.29-.93,1.12-1.63,2.16-1.89.85-3.01,1.42-6.14,2.62-8.99,1.64-3.88,4.6-6.65,8.03-9.25,13.1-9.91,30.13-12.71,42.54-23.79.68-.61,1.84-.68,2.78-1.01-2.74,3.29-5.59,6.5-8.19,9.9-1.55,2.03-3.56,1.98-5.72,2.19-2.55.25-5.89.02-6.6,3.15-.68,2.95,3.05,2.93,4.47,4.59-2.71,1.73-5.84,2.69-8.88,3.09-7.14.94-11.53,5.42-15.43,10.74-4.19,5.71-7.17,12.11-8.56,18.99-4.61,22.86-16.42,42.28-28.68,61.56-13.29,20.9-27.33,41.35-37.65,64.01-9.77,21.44-15.72,44.15-22.6,66.56-2.34,7.64-4.6,15.29-8.11,22.5-1.15-4.08-2.56-8.09-2.91-12.36-1.92-4.27.7-7.91,1.62-11.79,1.51-3.4,4.09-6.19,5.51-9.66.42-1.03,1.29-1.91,2.69-1.51Z"/>
        <path class="cls-25" d="M797.13,386.55c.13,7.64-5.2,12.12-9.84,17-5.33,4.38-10.66,8.76-15.99,13.15-.17.02-.37-.01-.49.07-15.81,11.58-31.4,7.6-47.41.03-11.19-5.29-21.62-11.55-31.2-19.33-1.61-1.31-3.74-1.27-5.65-1.79-1.47-.4-3.64.39-4.07-1.95-.35-1.87,1.03-3.03,2.19-4.25,4.03-4.24,8.65-7.81,13.43-11.1,12.19-8.39,24.64-16.44,38.9-20.88,17.4-5.42,34.15-5.22,48.87,7.47.93.8,1.96,1.22,3.15,1.33-.29,2.21,1.14,3.67,2.3,5.24,3.28,4.48,4.24,9.85,5.82,14.99Z"/>
        <path class="cls-17" d="M350.27,256.64c1.79-1.04,2.71.34,3.82,1.32,12.45,11.13,26.65,19.76,40.91,28.26,9.69,5.78,19.7,10.94,30.03,15.56,13.88,6.21,28.54,9.72,43.1,13.65,5.73,1.54,11.56,2.71,17.34,4.05,1.09-1.15,2.35-.97,3.66-.5,1.51.3,2.89.96,3.81,2.19,3.95,5.32,9.49,5.38,15.25,4.71,2.1-.24,4.25-1.14,6.02.85,2.07,1.35,4.94.44,6.96,2.52-4.01,3.76-10.06.64-14.01,4.21-36.7-6.54-73.21-13.75-106.78-31-11.12-5.71-21.35-12.84-30.81-21.03-5.77-4.99-11.52-10-17.29-15.01-4.37-1.93-4.7-3.55-2-9.78Z"/>
        <path class="cls-18" d="M66.27,153.41c-3.33,1.44-5.74,4.52-9.75,4.93-1.39.14.33,1.32.69,2,.61,4.78-1.9,8.57-4,12.49-3.12,2.38-6.8,3.24-10.55,3.9-5.57-.84-10.65-3.11-15.8-5.26-4.69-1.96-9.59-3.36-13.63-6.75-3.34-2.8-4.15-5.31-1.18-8.34,6.09-6.21,12.74-11.65,22.23-11.33,2.02.07,4.07.14,5.08-2.18.27-.41.55-.81.85-1.2,1.73-1.38,1.89-3.2,1.99-5.3.34-7.12,1.49-14.08,4.81-20.57,1.53-2.98,3.7-4.21,6.37-2.44,8.46,5.6,16.62,11.47,17.55,23.03.21,2.6-.54,4.8-.88,7.18-.3,3.65-.74,7.24-3.8,9.82Z"/>
        <path class="cls-31" d="M327.19,240.56c7.54,2.09,14.41,5.24,19.02,11.98,1.18,1.62,2.15,3.31,2.34,5.39.75,8.08,1.75,16.14,2.47,24.23.11,1.18.48,2.48-.26,3.36-2.46,2.93-2.28,6.41-2.53,9.89-.36,5.05-3.55,7.33-8.19,5.24-4.59-2.06-9.83-3.24-13.14-7.62-.5-.66-1.17-1.23-1.95-1.52-13.01-4.8-16.83-18.62-15.66-29.03.15-1.3.72-2.58.06-3.88-.55-4.7,4.38-7.56,4.08-12.17,3.05-6.34,7.95-8.43,13.75-5.87Z"/>
        <path class="cls-38" d="M435.34,391.48c2.32,1.93-.43,2.02-1.07,2.56-8.67,7.41-15.52,15.95-17.63,27.54-.24,1.29-.88,3.38-.32,3.81,4.32,3.39.55,6.52-.08,9.69-1.59,7.93,1.58,15.39,2.2,23.1.19,2.32,2.18,1.89,3.91,1.24,4.07-1.54,7.69-3.89,11.36-6.17,1.44-.9,2.88-2.62,4.58-.11,1.43,2.11,2.78.19,3.68-.6,3.73-3.29,7.25-6.83,10.93-10.19.99-.91,1.58-3.12,3.82-.86,1.51,1.52,2.93-.69,3.95-1.81,2.85-3.12,4.3-7.58,9.62-8.22,1.52-.18,2.7-3.09,4.89-5.81-.9,3.33-1.46,5.43-2.03,7.53-2,2.79-2.19,7.49-7.76,6.46-1.01-.19-2.9,2.56-3.83,4.25-1.33,2.43-3.45,4.02-5.28,5.91-.54.56-1.72,1.36-2,1.17-4.61-3.2-6.05,1.46-8.27,3.48-2.81,2.56-5.02,5.77-8.19,7.97-2.25,1.56-4.23,3.65-7.48,1.48-1.53-1.02-3.63,0-5.02,1.31-3.24,3.04-7.57,4.08-11.26,6.3-3.19,1.92-5.45.83-6.26-2.8-1.72-7.78-2.38-15.69-2.54-23.65-.03-1.72.63-3.24,1.53-4.68,1.4-2.25,2.48-4.37-.55-6.39-1.4-.94-1.04-2.8-.71-4.2,4.06-17.31,12.5-31.26,29.79-38.3Z"/>
        <path class="cls-2" d="M912.29,177.88c-1.73,3.18-3.46,6.36-5.19,9.54-2.67-1.68-2.25-4.35-1.81-6.74,1.63-8.81.5-17.18-3.39-25.24-1.8-3.74-3.08-7.81-7.77-9.09-.94-.26-1.93-1.05-2.2-1.94-1.98-6.58-8.11-9.3-12.51-13.61-1.08-1.06-2.37-1.84-3.63-2.64-2.36-1.49-3.95-1.1-4.86,1.78-1.89,5.96-3.26,12.07-7.53,17.13-1.87,2.22-1.29,5.73-.62,8.73.77,3.41.6,6.66-1.98,9.34-1.49,1.54-1.39,3.25-.88,5.11,1.29,4.76.11,9.17-1.97,13.45-.52,1.06-1.03,2.12-2.48,2.1-3.36-4.61-4.77-9.4-2.34-15.03,1.1-2.55.81-5.47.02-8.22.51-3.34-2.27-7.83,3.39-9.45.44-.13.47-2.14.48-3.27.01-4.32-.12-8.64-.1-12.96.02-3.72-.8-7.82,4.67-8.88,1.59-.31,1.45-2.43,1.87-3.83,1.35-4.42,2-9.05,3.98-13.3,1.26-2.7,3.08-3.26,5.6-1.77,1,.59,2.08,1.11,2.93,1.87,6.96,6.23,16.61,9.79,19.72,19.86.23.75.85,1.96,1.31,1.97,9.53.16,9.02,9,11.85,14.38,5.04,9.56,4.22,20.24,3.44,30.71Z"/>
        <path class="cls-14" d="M63.19,173.64c-.85,2.99-3.12,5.03-5,7.31-7.39,8.97-9.7,19.38-8.97,30.7.06,1.01.11,2.18,1.36,2.34,2.84.37,1.91,2.33,1.5,3.75-2.45,8.6,2.76,15.68,4.77,23.32,1.02,3.86,4.48,5.17,8.09,1.68,2.14-2.07,4.32-4.15,6.69-5.94,1.67-1.26,2.89-4.57,6.04-1.53,1.14,1.1,2.25-.94,2.91-1.91,2.9-4.24,5.68-8.57,8.44-12.91.84-1.33,1.03-3.56,3.36-1.3,1.14,1.11,1.64-.34,2.08-1.12,1.47-2.6,2.95-5.2,4.3-7.86.74-1.46.99-3.2,3.36-2.87,1.75.25,2.1-1.35,2.52-2.58.74-2.18,1.37-4.39,2.32-7.47.12,2.3.2,3.73.28,5.16-.74,3.1-1.48,6.19-2.23,9.29.08,4.01-4.44,2.4-5.75,4.71-1.34,3.05-2.68,6.11-4.02,9.16-1.29,1.83-2.11,3.64-5.19,3.74-3.98.12-4.62,4.72-6.77,7.26-1.62,1.91-2.86,4.37-4.12,6.69-1.39,2.57-3.09,5.31-6.96,3.65-1.54-.66-2.4.67-3.38,1.51-2.63,2.27-5.2,4.61-7.67,7.06-.15.08-.3.15-.44.24-8.11,5.72-9.59,5.53-12.24-4.45-2.14-8.05-6.92-15.44-5.49-24.61.52-3.32-3.44-6.66-3.15-11.16.61-9.46,2.63-18.26,7.78-26.31,1.1-1.71,2.55-3.56,1.63-5.93,2.39-5.2,6.84-8.09,11.77-10.41.78-.37,1.6.07,2.17.77Z"/>
        <path class="cls-45" d="M143.24,269.69c-.09.61.05,1.49-.3,1.81-9.56,8.53-13.42,19.53-13.97,31.96-.11,2.57-1.59,5.84,2.89,6.52,1.09.17.78,1.27.6,2.08-.31,1.47-1,2.96-.89,4.39.26,3.37-2.14,7,2.33,10.05,1.91,1.3,1.45,5.91,2.35,8.93,1.76,5.9,4.79,6.85,9.41,2.97,2.16-1.81,3.94-4.06,6.1-5.86,1.63-1.35,2.91-4.63,5.96-1.28.98,1.07,2.23-.97,2.9-1.95,2.89-4.27,5.71-8.59,8.4-12.98.85-1.39,1.14-2.82,3.17-1.17,1.71,1.39,2.32-.6,2.88-1.59,1.31-2.3,2.44-4.72,3.56-7.13.75-1.63,1.05-3.13,3.63-3.29,3.08-.2,2.27-4.01,3.85-5.79,2.07,4.73-.41,12.76-4.77,14.59-1.94.81-2.98,2.16-3.44,3.89-.74,2.81-2.68,4.88-4.04,7.29-.55.97-1.45,2.44-2.51,2.14-3.96-1.09-4.64,2.08-6.12,4.28-2.85,4.27-5.65,8.56-8.56,12.78-.99,1.43-2.22,2.53-4.13,1.05-1.87-1.45-3.02.26-4.32,1.17-4.05,2.9-7.02,7.06-11.3,9.71-2.26,1.4-5.04,2.08-5.87-.73-2.63-8.93-8.43-16.96-7.84-26.82.1-1.66.63-3.25.53-4.94-.07-1.15.24-2.41-1.41-2.69-2.73-.47-2.71-2.52-2.61-4.58.45-9.49,1.49-18.89,6.37-27.28,2.3-3.94,4.62-7.91,7.52-11.48,1.9-5.05,4.42-6.64,9.63-6.05Z"/>
        <path class="cls-30" d="M327.19,240.56c-5.59-.4-9.24,3.76-13.75,5.87-16.09-4.77-32.43-4.63-48.87-2.48-20.78,2.72-40.17,10.22-59.71,17.24-7.19,2.58-14.44,4.99-21.66,7.47-.65.44-1.32.47-2.02.12-1.35-1.39-2.69-2.77-4.04-4.16,15.84-5.43,31.66-10.89,47.51-16.28,13.82-4.7,27.66-9.18,42.45-9.97,5.23-.28,10.39-2.01,15.55-3.21,13.83-3.22,27.35-1.88,40.73,2.43,1.71.55,2.93,1.47,3.81,2.97Z"/>
        <path class="cls-10" d="M124.34,111.86c-1.54-.32-1.34,1.25-2.02,1.87-2.26-1.85-4.57-2.42-7.58-1.52-3.79,1.14-7.22.08-9.62-3.43-1-1.45-1.94-2.79-.64-4.48,1.17-1.52,2.69-1.79,4.46-1.13,1.45.54,2.93,2.54,4.44.85,1.62-1.81-.02-3.75-.72-5.56-1.65-4.28-5.64-5.46-9.33-5.48-4.92-.03-9.93-.24-14.84.7-2.93.56-3.6,1.41-2.44,4.71,2.32,6.64,8.23,10.26,11.87,15.72,1.02,1.53,2.41,2.85,2.16,4.85-.19,1.46-.79,2.62-2.62,1.63-3.07-3.97-8.99-5.16-10.26-11.06-.33-1.51-2.97-2.44-4.36-3.82-1.44-1.44-3.69-2.51-3.11-5.2.49-3.92-3.83-5.44-4.4-8.83-2.15-3.7,1.24-3.99,3.11-4.34,9.6-1.78,19.29-4.05,28.86.02,3.83,1.63,5.17.57,4.95-3.44-.31-5.56,2.37-10.03,5.99-13.82,5.4-5.66,11.24-10.84,18.1-14.77,1.71-.98,3.5-2.17,4.63-3.72,2.78-3.82,4.57-1.7,5.47,1.01,4.26,12.92,7.09,26.2,3.89,39.69-2.53,10.66-9.03,20.35-25.97,19.55Z"/>
        <path class="cls-51" d="M488.31,320.36c-.95-.29-1.9-.59-2.84-.88-.16-2.78-1.03-4.93-3.73-6.49-3.17-1.84-5.49-4.68-6.58-8.34.36-2.29-1.47-3.59-2.5-5.18-2.02-3.13-.95-5.45,2.18-6.05,9.68-1.85,19.45-4.81,29.16.07,3.07,1.54,5.2,1.31,5.09-2.87-.22-8.32,5.11-13.66,10.23-19.14,5.51-5.9,13.23-8.84,18.99-14.42,2.54-2.46,3.91-.44,4.79,1.69,3.34,8.08,4.42,16.66,5.07,25.28.35,4.64.03,9.24-1,13.87-1.56,7.05-5.23,12.44-10.94,16.67-.89.66-2.89.7-2.23,2.73-4.91.12-9.81.24-14.72.36-7.46,2.4-9.08-1.61-8.95-6.88.18-7.46-3.7-11.89-11.24-12.06-4.77-.11-9.59.2-14.32,1.04-2.56.45-3.73,1.71-1.89,4.08,2.55,3.28,3.58,7.44,6.48,10.57,1.93,2.08,2.31,4.5-1.04,5.96Z"/>
        <path class="cls-24" d="M247.65,220.16c-1.7.19-3.27-.13-4.91,1.38-5.51,5.09-10.28,4.8-16.11-.06-2.78-2.33-4.19-5.9-7.43-7.73.03-1.65-1.58-3.3-.02-4.96,1.64-4.19,2.02-8.65,2.42-13.04.47-5.1,2.6-9.53,4.87-13.85,1.49-2.84,4.57-2.65,6.99-.99,9.34,6.39,19.67,16.38,15.24,30.31-.15.48.01.97.29,1.41.53,2.68-4.95,4.29-1.35,7.53Z"/>
        <path class="cls-37" d="M97.45,120.59c1.98-.97,1.71-2.75.46-3.57-2.59-1.71-3.53-5.3-5.62-6.44-5.75-3.13-6.18-9.45-9.78-13.74-1.7-2.03-.85-3.74,1.73-4.38,4.16-1.04,8.36-1.19,12.63-1.43,4.94-.28,9.43-.39,13.87,1.8,4.52,2.23,5.46,6.72,5.79,10.85.34,4.33-3.54,5.42-7.63,2.24-1.24-.96-2.11-2.61-3.27-.41-1.12,2.13,1.81,1.5,2,2.19,1.38,4.86,5.1,1.64,7.61,2.45,2.76.89,2.2-1.43,2.76-2.78,2.4,1.59,4.29,3.35,4.32,6.37-.44,1.95-.88,3.89-1.32,5.83-4.61,2.08-9.62,2.17-14.51,2.81-3.14.41-6.34.36-9.05-1.79Z"/>
        <path class="cls-48" d="M636.94,328.26c1.62-5.26,5.61-6.53,10.51-6.18,2.46.18,4.88,1.12,7.37.25,3.75,3.55,8.17,6.59,9.19,12.2-1.62,2.46-.17,4.77,1.05,6.45,2.47,3.41,2.03,7.25,2.53,10.95.47,3.52-1.55,5.72-4.86,5.44-7.41-.63-14.69-1.78-20.78-6.87-3.48-2.91-4.81-6.46-4.17-10.54.53-3.38.7-6.4-1.23-9.36-.46-.7-.11-1.62.39-2.34Z"/>
        <path class="cls-21" d="M636.94,328.26c2.25,3.74,4.36,7.07,2.51,12.16-1.58,4.36,3.75,11.1,9.11,11.83,4.31.59,7.96,2.99,12.4,3.13,4.63.15,5.37-.22,4.73-4.73-.61-4.28.15-8.77-3.67-12.31-1.56-1.45.75-2.79,1.99-3.81,1.74,4.4,3.48,8.8,5.22,13.2-.04,4.55,2.23,8.93.96,13.57l-.26.26c-3.99,1.41-7.68-.69-11.52-1.02-.9-.02-1.8-.05-2.44-.84-2.1-2.07-5.2-.75-7.49-2.19-2.82-1.94-5.48-5.1-8.52-5.51-3.99-.54-2.9,4.99-5.48,7.18-4.1,3.48-8.77,5.77-13.35,8.31-5.76,3.6-12.83,2.81-18.85,5.62-1.69.79-2.76-.38-3.25-2.07-.66-2.29-.84-4.76-.2-6.88,1.58-5.25.6-10.92,3.02-16.01,1.01-2.12-.05-4.18-1.41-5.97,2.9-.55,4.94-1.97,6.2-4.86,2.62-5.99,7.97-9.06,13.55-11.77,5.8-.43,11.54-.51,16.75,2.71Z"/>
        <path class="cls-5" d="M309.35,258.6c1.4,2.49.74,5.2.8,7.82.23,8.99,4.61,16.89,11.38,21.08,6.17,3.82,11.72,9.11,19.01,11.27,4.21,1.25,5.46.73,5.68-3.65.19-3.85-.48-7.53,2.94-11,1.86-1.89-.45-5.96-1.1-9.01-.46-2.13-2.25-4.33.46-6.26.28-.2.43-1.09.23-1.36-3.27-4.58-1.98-9.92-2.55-14.95,1.88.85,2.62,2.82,4.06,4.1.19,2.04,2.69,3.8.14,6.25-1.29,1.24,1.48,2.17,1.87,3.53,1.61,7.21-1.39,14.81,1.83,21.91.38.83.51,2.27.04,2.92-3.44,4.74-2.73,10.29-3.44,15.6-.5,3.78-3.35,4.63-6.3,3.06-5.64-3-12.25-4.54-16.37-9.93-2-2.62-5.4-1.24-7.77-3.66-10.53-10.71-14.45-23.07-10.91-37.72Z"/>
        <path class="cls-35" d="M63.19,173.64c-3.51.96-5.86,3.62-8.23,6.03-1.69,1.72-3.54,2.82-5.7,3.61-14.58,2.83-28.41,8.1-42.28,13.23-.31.12-.62.24-.94.34-1.98.67-4.26,2.23-5.68-.47-1.26-2.4,1.07-3.53,2.59-4.69,5.99-4.54,12.51-8.16,19.43-11.05,3.52-1.47,7.1-2.81,10.66-4.21,2.73-2.63,6.38-.39,9.35-1.76,3.25-.95,6.51-1.91,9.76-2.86,4.5-2.76,9.07-4.65,14.14-1.31-.27,1.8-2.26,1.9-3.1,3.14Z"/>
        <path class="cls-3" d="M42.39,174.68c-2.92,1.63-6.16,1.55-9.35,1.76-2.8-2.88-7.08-4.25-10.24-4.93-6.39-1.39-10.83-5.43-16.07-8.34-3.11-1.73-3.62-4.49-.83-6.94,7.56-6.64,15.06-13.56,26.21-13.05,3.16-3.39,6.11-.57,9.13.3,1.67,2.92-.44,2.92-2.36,3.04-3.61.23-7.44-.78-10.76,1.14-5.22,3.01-10.73,5.67-14.85,10.29-1.26,1.42-2.62,2.63-.18,4.38,8,5.76,17.12,9.05,26.34,12.13.91.3,1.97.16,2.97.22Z"/>
        <path class="cls-3" d="M70.07,143.58c-.31-3.08-.23-6.27-1.01-9.23-2.48-9.45-10.06-14.59-17.46-19.8-1.36-.95-2.22-.14-2.45,1.25-.89,5.57-5.67,9.84-4.55,16.41.4,2.37-1.65,5.87-1.28,9.17.14,1.25-1.75.54-2.3,1.42-1.47.02-2.17-.69-2.05-2.17,1.54-.99,2.34-2.41,2.04-4.22-.52-3.18,1.15-6.47.82-9.11-.89-7.15,3.86-12.05,5.52-18.09.88-3.19,3.08-4.56,5.95-2.17,7.57,6.29,15.73,12.16,17.99,22.68.65,3.9.66,7.79,0,11.69-.41.72-.82,1.44-1.23,2.16Z"/>
        <path class="cls-28" d="M249,212.63c-1.95.33-1.25-.89-1.06-1.81,2.93-14.13-7.97-22.44-16.78-28.86-2.35-1.72-3.34.34-3.9,2.11-2.42,7.66-6.1,15.02-5.3,23.45.17,1.8-.59,3.63-2.78,1.26.1-.83.21-1.66.31-2.5.68-3.15-.44-6.44.68-9.56-.73-7.94,3.92-14.42,5.92-21.63.6-2.18,2.01-2.7,4.18-1.28,9.64,6.29,17.92,13.47,20.25,25.64.9,4.71-.07,8.89-1.52,13.17Z"/>
        <path class="cls-49" d="M134.15,275.58c-1.14,2.17-1.9,4.68-3.49,6.46-7.82,8.77-8.96,19.66-10.12,30.57-.26,2.46-.79,5.14,2.65,6.04,1.5.39,1.54,1.53,1.26,2.76-1.71,7.47.95,14.15,3.58,20.9,1.08,2.76,1.52,5.76,2.53,8.55,1.27,3.53,3.19,4.45,6.82,2.16,3.93-2.48,6.18-7.02,10.83-8.48-3.07,4.22-6.95,7.57-11.2,10.54-3.14,2.19-6.22,1.77-7.18-1.86-2.62-9.89-10.16-18.69-6.95-29.94.21-.74.19-2.13-.21-2.37-5.81-3.34-3.54-8.93-3.25-13.42.78-12.07,5.49-22.75,13.56-31.86.37-.32.76-.34,1.17-.06Z"/>
        <path class="cls-27" d="M134.15,275.58c-.39.02-.78.04-1.17.06-5.68-1.2-11.54-1.57-17.02-3.71-1.38-.54-3.27-.78-2.97-2.72.31-1.97,2.22-1.6,3.66-1.6,9.14-.03,18.29-.03,27.43-.05.1.86-.15,1.58-.85,2.12-3.35,1.47-6.19,3.73-9.09,5.9Z"/>
        <path class="cls-52" d="M181.18,268.78c.67-.04,1.35-.08,2.02-.12,1.76,6.09,4.52,11.85,5.4,18.25,1.13,8.27,1.2,17.03-3.94,23.26-4.04,4.89-7.12,10.46-11.43,15.04-2.07,2.2-6.21,1.21-7.99,4.33.95-3.05.54-6.69,6.14-5.97,2.66.34,4.24-4.2,5.4-7,1.26-3.06,2.39-5.18,5.79-7.06,3.79-2.09,3.86-7.61,3.54-12.17.66-8.42-1.05-16.43-4.05-24.25-.52-1.35-.6-2.88-.89-4.32Z"/>
        <path class="cls-20" d="M853.15,162.55c1.65,3.47,1.15,6.98.35,10.55-1.01,4.52-.74,8.81,2.7,12.39,4.2,2.19,6.56,6.32,9.82,9.5,5.22,5.09,11.31,8.38,18.15,10.51,1.3.41,2.55.73,3.11,2.15-2.92,1.46-6.73-.17-9.24,2.68-5.4-4.06-11.5-7.2-16.06-12.36-5.84-6.6-9.65-14.21-11.47-22.81-.2-.93-.36-2.4.14-2.84,3.11-2.74,2.17-6.4,2.51-9.76Z"/>
        <path class="cls-8" d="M661.22,522.57c-.01,3.13-1.99,3-4.1,2.36-3.81-1.16-7.56-2.47-11.37-3.63-5.5-1.68-6.95-.84-6.57,4.65.45,6.32-1.23,13.37,2.04,18.79,3.89,6.44,2.96,13.14,3.87,19.77-3.48-2.06-4.67-5.03-3.49-8.9.5-1.64.9-3.44-.03-4.86-5.05-7.64-2.97-16.5-4.26-24.76-.97-6.18,1.84-7.49,8.16-6.44,5.28.88,9.89,5.34,15.74,3.03Z"/>
        <path class="cls-19" d="M600.44,342.18c3.47-.07,3.06,2.17,2.62,4.41-1.17,5.86-2.47,11.7-3.5,17.59-1.24,7.13.08,8.11,7.07,6.79,4.91-.92,9.38-3.52,14.5-3.48-2.79,2.91-6.14,4.34-10.23,4.11-2.54-.14-4.79.8-7.04,2.03-3.24,1.77-5.5.83-5.74-3.14-.39-6.32.51-12.61,1.72-18.72,1.55-7.81,1.91-7.9-5.65-8.37,1.95-1.14,4.16-.88,6.26-1.22Z"/>
        <path class="cls-12" d="M61.17,255.5c3.25-4.65,6.21-9.65,13.05-9.41,2.01.07,3.25-1.4,4.21-3.04,1.49-2.56,3.23-5,4.45-7.68,2.48-5.43,7.38-7.61,12.36-9.78.14,2.04-.69,4.15-2.51,4.4-7.5,1.03-8.47,8.14-12.22,12.61-2.48,2.95-3.3,7.76-9.24,5.64-2.09-.75-3.52,2.59-5.28,4.02-1.52,1.23-2.58,3.11-4.83,3.25Z"/>
        <path class="cls-9" d="M690.98,640.74c2.68-2.89,4.54-6.59,8.3-8.42-1.66,5.71-3.29,11.43-5,17.12-.44,1.46-.14,3.96-2.4,3.68-2.66-.33-1.52-2.88-1.51-4.48,0-2.63.39-5.26.61-7.9Z"/>
        <path class="cls-22" d="M1029.14,399.57c3.11-2.82,2.68-5.55-.11-8.34-2.34-2.34-4.5-4.87-6.87-7.18-1.83-1.79-3.24-3.39-2.91-6.39.45-4.17-4.76-4.14-6.17-7.11,5.19.98,8.29,3.54,9.54,9.19,1.12,5.07,6.13,8.04,9.32,12.03,3.35,4.19,2.71,6.33-2.79,7.8Z"/>
        <path class="cls-13" d="M38.99,140.64c.68.72,1.37,1.45,2.05,2.17.02.24.09.46.2.67-3.1,1.81-6.07-.65-9.13-.3-2.65-3.93-5.83-7.57-7.17-13.31,5.1,3.94,9.04,8.09,14.04,10.77Z"/>
        <path class="cls-47" d="M1035.09,52.57c.57.31,1.11.67,1.7.92.97.41,2.64.16,2.33,1.84-.22,1.21-1.63.65-2.48.97-4.12,1.55-8.26,2.56-12.62,1.1,3.61-1.81,7.14-3.78,11.08-4.83Z"/>
        <path class="cls-48" d="M670.18,361.31c.27-4.57-1.8-8.97-.96-13.57.91,4.48,2.96,8.88.96,13.57Z"/>
        <path class="cls-37" d="M75.31,91.69c1.55,2.04,3.12,4.06,4.63,6.13.67.92,1.44,1.95-.23,2.7-.75-3.3-4.58-5.06-4.4-8.83Z"/>
        <path class="cls-23" d="M1256.19,13.74c-.03-4.58-.05-9.16-.08-13.74,1.17,4.57.89,9.16.08,13.74Z"/>
        <path class="cls-48" d="M658.4,360.54c3.84.34,7.68.68,11.52,1.02-4.05,1.96-7.78.41-11.52-1.02Z"/>
        <path class="cls-47" d="M1051.97,44.53c-1.88,3.68-3.28,4.3-4.89,2.17,1.47-1.08,3.07-1.89,4.89-2.17Z"/>
        <path class="cls-48" d="M648.47,357.51c2.58.45,5.77-1.19,7.49,2.19-2.61-.34-5.37-.18-7.49-2.19Z"/>
        <path class="cls-18" d="M71.3,141.43c0-3.9,0-7.8,0-11.69,1.36,3.9,1.5,7.8,0,11.69Z"/>
        <path class="cls-46" d="M99.27,216.42c.37-3.46,5.19-1.5,5.75-4.71.47,4.49-3.42,3.66-5.75,4.71Z"/>
        <path class="cls-47" d="M1042.93,48.51c.54.35,1.49,1.02,1,1.39-1.43,1.07-3.12,1.84-4.91.54,1.06-1.14,2.39-1.73,3.91-1.93Z"/>
        <path class="cls-24" d="M220.17,196.73c-.34,3.18.71,6.46-.68,9.56-.04-3.21-1.15-6.49.68-9.56Z"/>
        <path class="cls-36" d="M488.31,320.36c.53-1.11,2.11-2.28.63-3.47-3.94-3.2-5.44-8.02-8.29-11.94-3.11-4.27-2.22-6.62,3.06-7.31,5.47-.71,10.99-1.75,16.48-1.07,9.65,1.2,13.13,5.91,12.11,15.52-.28,2.63-.1,4.84,3.52,4.12,1.47-.29,2.58.3,3.46,1.44.37,4.18-2.07,6.78-5.08,9.07-5.93,2.22-11.79,2.04-17.92.42-4.02-1.06-4.13-5.98-7.97-6.78Z"/>
        <path class="cls-43" d="M1138.08,23.63c21.66-.32,43.36-2.68,64.96.99-.59.3-1.14.7-1.76.89-1.91.56-4.4.84-4.24,3.37.14,2.29,2.57,1.52,4.07,1.78,1.9.34,3.09,1.53,3.42,3.22.91,4.61,1.11,9.27-.72,13.74-.68,1.67-1.81,3.09-3.75,1.39-2.3-2.02-4.96-2.55-7.88-2.47-2.99.08-3.93-1.62-4.13-4.41-.79-11.19-.94-10.44-11.95-11.79-9.48-1.17-18.46-.09-27.54,1.89-2.54.55-4.73.37-5.61-2.55-.82-2.69-4.55-3-4.86-6.06Z"/>
        <path class="cls-43" d="M1238,54.84c0,2.46.13,3.97-.02,5.45-.6,5.8-2.08,5.96-7.71,5.18-7.38-1.03-11.16-8.18-18.31-9.33-2.34-.38-1.56-2.77.06-3.73,5.25-3.08,10.33-6.72,16.8-6.81,2.97-.04,6.04.42,7.95-2.79.51-.86,1.62-1.27,2.57-.4.85.78.75,1.9.28,2.77-1.82,3.37-2.15,6.92-1.6,9.66Z"/>
        <path class="cls-43" d="M1163.84,40.79c-1,.17-1.97.43-2.95.49-1.81.1-2.65-1.16-3.15-2.63-.64-1.88.62-2.86,2.09-3.33,3.88-1.25,7.79-1.07,11.64.27.94.33,1.92.74,1.99,1.92.09,1.37-.86,2.19-1.95,2.57-2.48.88-5.01,1.77-7.68.71Z"/>
        <path class="cls-43" d="M1105.08,29.59c2.13-1.36,4.55-1.72,6.99-2,1.68.13,3.63.21,3.57,2.46-.04,1.8-1.82,2.2-3.28,2.46-2.98.52-6.83,2.97-7.29-2.91Z"/>
        <path class="cls-43" d="M1096.09,34.61c.66-.34,1.32-.68,1.99-1.03.97.66,1.98,1.38,1.53,2.72-.15.46-.93.99-1.44,1.01-1.8.06-1.95-1.35-2.08-2.7Z"/>
        <path class="cls-39" d="M66.29,170.5c-4.71.44-9.42.87-14.14,1.31,1.26-4.01,2.04-8.24,5.05-11.48,5.11,2.16,10.36,4.06,14.91,7.37-1.59,1.66-3.98,1.66-5.83,2.8Z"/>
        <path class="cls-42" d="M627.65,632.4c-2.44-1.05-3.61,1.9-6.06,1.22,5.24-7.25,6.94-15.95,10.86-23.69,2.59-5.11,5.97-9.62,9.73-13.81,5.02-5.61,12.18-6.67,19.1-7.42,9.12-.98,18.25.08,27.34,1.14,5.08.59,6.13,4.62,7.14,8.4,3.21,12.07.52,23.08-6.85,32.94-6.88,9.21-16.58,13.99-27.56,16.34-13.03,2.8-26.21,4.29-39.56,3.93-1.27-.03-2.93.55-3.7-.77-.89-1.54.96-2.19,1.63-3.23,3.07-4.78,7.45-8.9,7.93-15.04Z"/>
        <path class="cls-50" d="M714.08,575.46c-1.59,4.43-3.21,8.85-7.01,11.98-1.04,2.95-3.04,3.95-6.02,2.96-6.91-7.65-16.38-6.02-25.14-6.87-3.57-.35-7.15.45-10.17-2.74-5.09-5.37-11.89-10.99-11.31-18.07.43-5.29-2.83-8.01-3.22-12.1-.57-6-2.13-11.94-1.22-18.07.4-2.67,1.81-3.43,4.15-2.8,3.05.82,6.02,1.94,9.08,2.7,2.29.57,4.68,2.97,7-.45.67-.99,2.5.22,3.6.92,2.94,1.88,5.77,3.94,8.75,5.74,2.03,1.22,3.71,5.07,6.79,1.25.18-.23,1.71.19,2.17.7,5.29,5.89,14.47,6.5,18.7,13.79,3.48,6.62,3.82,13.81,3.85,21.06Z"/>
        <path class="cls-53" d="M701.05,590.4c2.01-.99,4.01-1.97,6.02-2.96.1.13.31.29.28.38-1.02,3.54-2.06,7.07-3.09,10.6-1.07-2.68-2.96-5.02-3.21-8.02Z"/>
        <path class="cls-16" d="M938.39,463.23c-.23-2.24-.46-4.47-.8-7.69-4.76,4.12-7.57,8.6-9.87,13.5-.62,1.32-.85,3.33-2.35,3.61-1.83.34-2.24-1.8-2.78-3.03-7.2-16.38-15.58-32.42-15.47-51.02.12-20.43,14.12-36.34,34.25-38.9,3.19-.41,5.45.51,7.27,3.13,5.93,8.51,10.9,17.51,14.12,27.39,4.44,13.63-.99,24.63-9.64,34.64-2.17,2.51-4.66,4.74-6.92,7.18-3.05,3.28-5.88,6.73-7.81,11.19Z"/>
        <path class="cls-11" d="M887.27,207.64c-11.42-.38-27.24-11.66-31.07-22.15,0-2.74-.4-5.26,1.87-7.83,1.39-1.57-.27-4.73-.43-7.18-.18-2.85-2.69-6.46,2.67-7.87,1.55-.41.87-3.34.48-5.07-.83-3.64-.99-7.25.04-10.84.52-1.79-.86-5.16,3.41-4.12.87.21.9-1.57,1.18-2.47,1.26-4.12,2.6-8.23,3.66-12.41.96-3.8,2.94-4.55,6.15-2.54,2.38,1.49,5.02,2.67,6.66,5.11,1.04,1.56,2.22,2.44,4.28,2.86,3.2.66,4.18,4,5.73,6.49,1.38,2.21.91,6.02,5.68,5.01,1.29-.27,2.87,2.88,3.93,4.78,5.68,10.19,8.38,20.87,5.85,32.55-.38,1.76-.19,3.64-.26,5.46-4.62,8.68-9.39,17.23-19.83,20.21Z"/>
        <path class="cls-1" d="M707.78,402.59c2.13-.82,4.26-1.64,7.09-2.72-5.72-3-10.75-5.76-16.64-6.38-1.12-.12-2.55.17-3.09-1.13-.57-1.37.75-2.09,1.59-2.78,12.76-10.47,26.11-19.94,41.81-25.7,19.2-7.04,39.43.29,49.23,18.13,3.59,6.53,3.11,10.2-2.24,15.56-6.67,6.68-13.4,13.28-21.8,17.91-8.46,4.66-16.98,4.82-25.9,1.42-7.51-2.86-14.28-7.1-21.38-10.72-2.81-1.43-5.55-3-8.67-3.59Z"/>
        <path class="cls-44" d="M133.39,60.05c.64,4.6,2.7,4.14,6.27-.64.68-.91,1.24-1.91,2.35-3.65,2.81,5.67,3.67,11.2,4.78,16.55,3.09,14.98-1.3,26.7-11.82,32.74-6.1,3.5-12.36,2.09-15.7-3.92-6.82-12.27-6.38-24.39,6.36-33.2,2.85-1.98,5.65-4.04,7.76-7.87Z"/>
        <path class="cls-44" d="M539.5,262.09c2.91,11.83,6.72,23.21,3.66,35.32-2.24,8.86-11.77,15.88-20.82,15.44-2.67-.13-4.71-.92-5.63-3.87-1.09-3.47-2.84-6.74-3.89-10.22-2.38-7.88-1.52-15.04,5.24-20.72,3.55-2.98,6.91-6.18,10.35-9.28.36-.33.93-.98,1.08-.9,6.21,3.5,6.19-3.67,10.02-5.77Z"/>
        <path class="cls-32" d="M637.1,338.11c-.63,2.91.08,5.91-.18,8.84-.71,8.09-6.15,13.55-13.87,16.53-5.74,2.22-12.19.57-17.56,4.13-1.69,1.12-2.4-.59-2.26-2.03,1.03-10.65,1.26-21.64,9.38-30.01,5.27-5.44,11.65-7.25,19.11-5.01,3.9,1.17,6.19,3.12,5.37,7.54Z"/>
        <path class="cls-51" d="M502.86,311.39c2.43,1.09,4.86,2.18,7.79,3.5-2.95,2.62-5.93,1.23-8.71,1.67.54-1.77,2.88-.48,2.81-1.47-.07-1.01-1.47-1.92-2.28-2.87.13-.28.27-.56.4-.83Z"/>
      </g>
    </g>
  </g>
</svg>