<?xml version="1.0" encoding="UTF-8"?>
<svg id="Isolation_Mode" data-name="Isolation Mode" xmlns="http://www.w3.org/2000/svg" viewBox="0 0 61.47 230.17">
  <defs>
    <style>
      .cls-1 {
        fill: #c3d582;
      }

      .cls-1, .cls-2, .cls-3, .cls-4, .cls-5, .cls-6, .cls-7, .cls-8, .cls-9, .cls-10, .cls-11, .cls-12, .cls-13, .cls-14, .cls-15, .cls-16, .cls-17, .cls-18, .cls-19, .cls-20, .cls-21, .cls-22, .cls-23, .cls-24, .cls-25, .cls-26 {
        stroke-width: 0px;
      }

      .cls-2 {
        fill: #ced98d;
      }

      .cls-3 {
        fill: #a9c36c;
      }

      .cls-4 {
        fill: #b4ce7e;
      }

      .cls-5 {
        fill: #c5dd7d;
      }

      .cls-6 {
        fill: #aec46d;
      }

      .cls-7 {
        fill: #c9d88e;
      }

      .cls-8 {
        fill: #becd88;
      }

      .cls-9 {
        fill: #c7dd80;
      }

      .cls-10 {
        fill: #c6dd7d;
      }

      .cls-11 {
        fill: #b8d081;
      }

      .cls-12 {
        fill: #b6ce7f;
      }

      .cls-13 {
        fill: #aec375;
      }

      .cls-14 {
        fill: #cada86;
      }

      .cls-15 {
        fill: #b5ce7e;
      }

      .cls-16 {
        fill: #bdd676;
      }

      .cls-17 {
        fill: #c5d287;
      }

      .cls-18 {
        fill: #b6ce7e;
      }

      .cls-19 {
        fill: #c5d384;
      }

      .cls-20 {
        fill: #c4d381;
      }

      .cls-21 {
        fill: #c6dd7e;
      }

      .cls-22 {
        fill: #dbeda5;
      }

      .cls-23 {
        fill: #c0d288;
      }

      .cls-24 {
        fill: #b6cf7f;
      }

      .cls-25 {
        fill: #ddf2a6;
      }

      .cls-26 {
        fill: #bfcb8a;
      }
    </style>
  </defs>
  <path class="cls-11" d="M21.81,14.28c-1.15,9.84-1.27,19.69-.04,29.53.31,2.46-.42,4.53-2.02,6.36-1.35.78-2.59,1.23-2.92-1-4.27-2.81-4.28-6.72-3.48-11.28,1.38-7.93-.93-15.74-1.5-23.61h9.97Z"/>
  <path class="cls-9" d="M53.6,44.12c.01,1.06.02,2.11.03,3.17-.56,1.74-.21,4.08-2.9,4.42-4.98-1.46-7.92-5.78-11.98-8.54,2.09-2.42,1.88-5.43,1.93-8.28.12-6.87.06-13.74.07-20.61h7.97c1.94,1.91,2.06,4.39,1.94,6.83-.26,5.31,1.03,10.77-1.31,15.9-3.11,2.43-2.64,4.77,1.63,8.11.83-.43,1.48-1.37,2.61-1Z"/>
  <path class="cls-16" d="M44.68,158.52c-2.29,11.66.02,23.54-1.65,35.32-.39,2.78-.03,6.3-.29,9.48-2.13,3.48-1.42,7.36-1.49,11.11-.06,3.63.05,7.26-.08,10.89-.15,4.23-1.26,5.05-5.98,4.83-2.21-1.21-2.57-3-2.33-5.44.77-8.1.54-16.23.12-24.33.44-2.5-.25-5.42,2.47-7.13,2-1.26-.4-1-.59-1.4-.64-1.34-1.4-2.61-1.52-4.14-.07-7.79.14-15.56,1.19-23.28,1.03-1.85,2.37-3.12,4.58-2.57-1.12-.9-3.28-.84-3.6-2.99,3.51-3.73,5.73-3.81,9.16-.32Z"/>
  <path class="cls-20" d="M57.58,48.49h3.89c-5.58,5.2-11.69,7.62-19.2,4.37,1.61-6.49,7.07-9.98,11.27-14.43,2.31-1,2.55.09,2.21,2.06-.61,3.54-1.98,6.59-5.81,9.3,2.96-1.81,5.31-1.43,7.63-1.31Z"/>
  <path class="cls-3" d="M48.51,115.89c2.52-1.72,4.85-3.84,8.16-3.92-.05.34-.1.68-.15,1.02-.38,5.37-4.49,8-8.09,11.01-3.58,2.28-6.43,6.19-11.49,5.14.22-5.85,4.28-8.68,8.78-11.18.93-.69,1.86-1.38,2.79-2.07Z"/>
  <path class="cls-19" d="M41.18,48.48c5.17-1.39,9.05-.91,12.9-.76.84.03,1.74.42,1.79,1.34.02.42-.73,1.25-1.17,1.28-4.15.26-8.43,1.31-13.52-1.85Z"/>
  <path class="cls-12" d="M21.85,194.71c-.1.66-1.82,1.29-.58,1.8,2.69,1.11,2.74,3.27,2.39,5.35-1.58,9.19-.34,18.45-.94,27.66-1.32,0-2.65-.09-3.96.04-3.05.3-3.98-1.05-3.96-4.02.06-9.06-.18-18.13-.2-27.2-.02-7.19.11-14.37.17-21.56-.96-1.2-1.24-2.47-.36-3.84,4.2-1.27,4.52,1.55,4.03,4.29-.59,3.31-.09,6.5.02,9.75.1,3.11,1.03,5.69,3.39,7.73Z"/>
  <path class="cls-18" d="M21.89,96.01c0,7.12.07,14.23-.03,21.35-.02,1.74.89,4.75-2.35,4.24-2.27-.36-5.88.43-5.75-4.27.28-10.08.08-20.18.08-30.28,1.57-1.55,3.39-2.5,5.67-2.31,3.31.27,5.17,2.72,3.81,5.7-.85,1.85-.68,3.8-1.43,5.57Z"/>
  <path class="cls-24" d="M16.83,49.18c.74,1.02,1.84.99,2.92,1,1.89,1.23,2.11,3,2.07,5.13-.12,7.58-.01,15.17.01,22.76,1.45,1.77,1.78,3.84.13,5.39-2.24,2.09-4.99,3.18-8.11,1.57-.58-11,.94-22.04-.9-33.02-.5-3,1.76-3,3.87-2.82Z"/>
  <path class="cls-4" d="M18.79,158.84c-3.74.5-5.41-1.29-4.83-4.85,1.42-8.74.71-17.43-.05-26.16-.18-2.06-1.03-5.24,2.87-4.87,3.19.3,6.62,1.03,5.9,5.52-.82,5.1-.79,10.21-.83,15.33,1.48,4.2,2.65,8.43,1.09,12.89-.8,1.86-2.24,2.45-4.15,2.13Z"/>
  <path class="cls-23" d="M37.68,89.08c-2.9-.12-5.84.36-8.71-.79-.66,3.05,4.36,4.49,1.81,7.75-1.68-1.32-3.37-2.65-5.05-3.97-3.77-4.52-3.78-9.06-.02-13.04,1.68-3.69,3.37-7.37,7.61-10.08-.12,3.83-2.58,6.18-3.46,10.11,3.52-2.25,6.31-4.04,9.1-5.82,4.16,2.76,1.9,5.5-.02,8.24-2.1,2.41-5.32,2.13-8.6,3.51.03-.01.78.53.46-.06-.05-.1.09-.16.4-.28,3.17-1.2,6.03-.7,8.6,1.52.33.43.51.91.57,1.44-.28,1.61-1,2.42-2.69,1.47Z"/>
  <path class="cls-15" d="M21.85,194.71c-3.47.29-5.4-1.04-5.02-4.78.47-4.66-2.18-9.35.35-14.04,1.04-1.94-1.11-2.34-2.24-3.13-2.32-2.06-1.71-4.51-.94-6.98-.39-3.52,0-6.44,4.67-6.09,3.12.32,3.48,3.05,3.49,5.06.04,9.99.72,19.99-.33,29.96h.02Z"/>
  <path class="cls-14" d="M24.83,147.81c2.29,3.22,6.4,5.09,7.03,9.6-2.05,1.05-3.39-.3-4.57-1.61-2.47-2.73-4.33-3.02-5.43,1.04,0-4.34,0-8.68,0-13.01.99,1.33,1.98,2.66,2.98,3.99Z"/>
  <path class="cls-22" d="M25.71,79.02c-1.32,4.35-2.22,8.7.02,13.04-3.23-.58-2.53,2.67-3.85,3.95-.02-1.15-.13-2.31-.03-3.45.63-7.17.54-7.26-6.54-5.62-.48.11-.98.08-1.48.11,0-.68,0-1.35.02-2.03,6.65-.1,7.72-1.03,7.98-6.96,1.29.32,2.59.64,3.88.96Z"/>
  <path class="cls-8" d="M10.81,168.63c1.87.37,1.16,1.2.61,2.36-1.8,3.78-6.19,4.54-8.56,7.6-3.26.24-3.56-1.12-1.75-3.4,2.53-3.19,6.03-5.03,9.7-6.56Z"/>
  <path class="cls-12" d="M18.78,158.81c1.32.04,2.63.08,3.95.12,1.58,1.6,1.11,3.25.11,4.91,0,8.75,0,17.49-.03,26.24,0,1.61.46,3.34-.98,4.65,0-7.7-.2-15.41.05-23.11.15-4.4-.73-8.32-3.22-11.91.04-.29.08-.59.11-.88Z"/>
  <path class="cls-26" d="M4.94,184.81c2.92-3.98,3.89-9.23,8.49-13.22-.27,2.32-.44,3.73-.6,5.15-1.5,3.25-3.43,6.24-5.68,9.01-1.7,2.09-2.26,1.21-2.21-.94Z"/>
  <path class="cls-7" d="M31.76,141.89c1.19,3.89,2.41,7.77,2.38,12.29-4.1-2-2.82-6.8-5.31-9.36.27-1.77-1.07-4.15,1.87-4.9.35.66.71,1.32,1.06,1.97Z"/>
  <path class="cls-13" d="M47.51,118.69c-2.15,3.62-3.03,7.97-6.49,11.2-1.37-4.18,1.52-7.43,1.66-11.08,2-2.49,3.02-5.82,6.57-7.43-.62,2.61-1.18,4.96-1.74,7.3Z"/>
  <path class="cls-5" d="M49.73,53.08c-3.54,1.54-1.49,4.66-2,7.05,1.51,6.08,2.2,12.11-.96,17.94-.01.48-.04.97-.04,1.45q-.04,7.01-6.98,6.55c-2.33-1.03-2.42-2.94-1.99-5.05,1.8-2.38,2.98-4.85,1.21-7.79,1.55-8.98.42-18.03.75-27.04,4.42.71,7.46,3.44,10.01,6.88Z"/>
  <path class="cls-6" d="M47.77,126.96c-3.28-.09-6.61.31-9.74-1.11,2.56-3.52,6.42-2.59,9.91-2.92,1.57.1,3.9-.07,3.93,1.72.04,2.12-2.33,2.18-4.1,2.31Z"/>
  <path class="cls-21" d="M39.74,87.05c4.96.15,7.97,1.71,6.1,7.55-.53,1.65-.06,3.61-.05,5.43-.02,5.97,0,11.95-.09,17.92-.04,3.48-3.96,6.06-7.23,4.9-2-.71-1.44-2.16-1.37-3.67.44-10.03,2.14-20.05.56-30.11,1.22-.12,1.96-.74,2.06-2.02Z"/>
  <path class="cls-9" d="M43.74,159.81c-7.75-.56-9.19-2.26-7.53-9.57.64-2.82.47-5.59.53-8.4,0-4.15.35-8.33-.06-12.44-.45-4.43,2.42-5.1,5.42-5.27,4-.23,2.64,3.15,2.61,5.08-.19,10.2-.62,20.39-.96,30.58Z"/>
  <path class="cls-10" d="M35.72,165.8c.34-1.64-.83-4.01,1.47-4.71,2.67-.81,4.47,1.48,6.54,2.69-.11,3.04-.06,6.06.98,8.98-.37.64-.31,1.37-.41,2.06-.46,2.6.62,5.43-1.16,7.83-4.32.23-6.89-2.05-8.41-5.85,2.01-3.52.59-7.34.98-11Z"/>
  <path class="cls-1" d="M43.88,166.76c-.03-.66-.08-1.32-.09-1.97q-.09-7.01-6.89-6.03c-.32-.7-.63-1.39-.95-2.09,7.14-.08,8.68-1.46,8.86-7.89,3.88,1.06,5.8,4.52,8.45,7.04,1.26,1.2,1.01,1.47-2.42,1.85-.92-.69-1.84-1.38-2.77-2.06-1.01-.74-2.1-1.05-3.18-.22-.92.71-.69,1.66-.52,2.7.48,2.91,1.06,5.86-.49,8.67Z"/>
  <path class="cls-2" d="M22.84,163.83c-.04-1.64-.07-3.27-.11-4.91,2.63-.27,5.18-.03,7.7.89,1.58.57,2.1,1.41,1.31,2.94-2.97.3-6.09-.64-8.89,1.08Z"/>
  <path class="cls-25" d="M37.75,81.02c.66,1.68,1.33,3.37,1.99,5.05,0,.29,0,.58.01.87-2.95-.8-5.89-1.6-8.96-2.43,1.89-2.11,4.78-2.11,6.95-3.49Z"/>
  <path class="cls-17" d="M11.36,161.34c.21,2.4,2.02,4.45,1.57,7.91-4.57-4.87-6.59-10.1-7.55-15.87,2.1,2.57,4.65,4.81,5.99,7.96Z"/>
  <path class="cls-23" d="M32.17,126.97c-2.9-.12-5.84.36-8.71-.79-.66,3.05,4.36,4.49,1.81,7.75-1.68-1.32-3.37-2.65-5.05-3.97-3.77-4.52-3.78-9.06-.02-13.04,1.68-3.69,3.37-7.37,7.61-10.08-.12,3.83-2.58,6.18-3.46,10.11,3.52-2.25,6.31-4.04,9.1-5.82,4.16,2.76,1.9,5.5-.02,8.24-2.1,2.41-5.32,2.13-8.6,3.51.03-.01.78.53.46-.06-.05-.1.09-.16.4-.28,3.17-1.2,6.03-.7,8.6,1.52.33.43.51.91.57,1.44-.28,1.61-1,2.42-2.69,1.47Z"/>
  <path class="cls-8" d="M13.28,16.28c1.87.37,1.16,1.2.61,2.36-1.8,3.78-6.19,4.54-8.56,7.6-3.26.24-3.56-1.12-1.75-3.4,2.53-3.19,6.03-5.03,9.7-6.56Z"/>
  <path class="cls-26" d="M7.4,32.46c2.92-3.98,3.89-9.23,8.49-13.22-.27,2.32-.44,3.73-.6,5.15-1.5,3.25-3.43,6.24-5.68,9.01-1.7,2.09-2.26,1.21-2.21-.94Z"/>
  <path class="cls-17" d="M13.39,13.16c.21,2.4,2.02,4.45,1.57,7.91-4.57-4.87-6.59-10.1-7.55-15.87,2.1,2.57,4.65,4.81,5.99,7.96Z"/>
  <path class="cls-20" d="M29.52,15.43h3.89c-5.58,5.2-11.69,7.62-19.2,4.37,1.61-6.49,7.07-9.98,11.27-14.43,2.31-1,2.55.09,2.21,2.06-.61,3.54-1.98,6.59-5.81,9.3,2.96-1.81,5.31-1.43,7.63-1.31Z"/>
  <path class="cls-17" d="M41.93,11.33c.21,2.4,2.02,4.45,1.57,7.91-4.57-4.87-6.59-10.1-7.55-15.87,2.1,2.57,4.65,4.81,5.99,7.96Z"/>
  <path class="cls-20" d="M56.62,10.43h3.89c-5.58,5.2-11.69,7.62-19.2,4.37,1.61-6.49,7.07-9.98,11.27-14.43,2.31-1,2.55.09,2.21,2.06-.61,3.54-1.98,6.59-5.81,9.3,2.96-1.81,5.31-1.43,7.63-1.31Z"/>
</svg>