<?xml version="1.0" encoding="UTF-8"?>
<svg id="Layer_1" data-name="Layer 1" xmlns="http://www.w3.org/2000/svg" viewBox="0 0 283.46 323.15">
  <defs>
    <style>
      .cls-1 {
        fill: #cfdd26;
      }

      .cls-1, .cls-2, .cls-3, .cls-4, .cls-5, .cls-6, .cls-7, .cls-8, .cls-9, .cls-10, .cls-11, .cls-12, .cls-13, .cls-14, .cls-15, .cls-16, .cls-17, .cls-18, .cls-19 {
        stroke-width: 0px;
      }

      .cls-2 {
        fill: #afebee;
      }

      .cls-3 {
        fill: #1f6f4f;
      }

      .cls-4 {
        fill: #86e7e9;
      }

      .cls-5 {
        fill: #c7edf3;
      }

      .cls-6 {
        fill: #93e9eb;
      }

      .cls-7 {
        fill: #daf0f7;
      }

      .cls-8 {
        fill: #75e5e6;
      }

      .cls-9 {
        fill: #87e8e9;
      }

      .cls-10 {
        fill: #eaf7fa;
      }

      .cls-11 {
        fill: #53a22e;
      }

      .cls-12 {
        fill: #fefefe;
      }

      .cls-13 {
        fill: #51a12e;
      }

      .cls-14 {
        fill: #fdfefd;
      }

      .cls-15 {
        fill: #90bf2e;
      }

      .cls-16 {
        fill: #ecf7fa;
      }

      .cls-17 {
        fill: #9ce9ed;
      }

      .cls-18 {
        fill: #c6eff1;
      }

      .cls-19 {
        fill: #a9eef0;
      }
    </style>
  </defs>
  <g id="jDGZBF">
    <g>
      <path class="cls-8" d="M.09,55.8C.09,39.41.25,23.02,0,6.65-.08,1.09.6-.01,3.51,0c50.61.21,101.22.15,151.84.15C196.85.16,238.35.23,279.84,0c2.91-.02,3.59,1.09,3.5,6.65-.24,16.37-.09,32.76-.09,49.14-1.88,3.19-4.21,2.99-6.47,2.99-58.71.05-117.43.09-176.14,0-30.71-.05-61.42.17-92.12,0-2.88-.02-5.91,1.01-8.43-2.98Z"/>
      <path class="cls-2" d="M.09,180.06v-44.51c2.67-4.17,5.88-2.99,8.91-2.99,55.28-.07,110.56-.05,165.84-.05,33.33,0,66.66-.03,99.99.04,2.88,0,5.91-1,8.42,3v33.38c-.84,1.6-1.35,3.72-2.25,5.26-4.1,11.97-10.48,9.17-16.31,8.49-2.81-.33-5.4-1.21-7.98,1.64-1.28,1.42-2.84,1.82-4.27.98-5.73-3.37-11.62-2.24-17.45-2.24-75.33-.06-150.65-.03-225.98-.09-3.03,0-6.24,1.24-8.92-2.9Z"/>
      <path class="cls-5" d="M.09,204.17v-9.27c1.92-4.47,4.5-5.89,7.4-5.59,16.09,1.68,32.19.68,48.28.72,60.49.15,120.99.06,181.48.06,3.74,0,7.53-.56,11.16,1.37,3.39,1.81,5.24-4.34,8.1-4.95,2.66.87,1.48,3.98.73,5.95-2.8,7.34-4.96,15.06-5.14,24.36-.02,1.2-.26,3.08-.74,3.24-4.18,1.42-8.43,9.54-11.81,6.85-8.07-6.43-15.67-5.09-23.59-1.34-7.36,4.53-14.85,6.53-22.56,4.27-1.45-.42-2.92-.45-4.38-.45-27.14-.03-54.29-.38-81.43.11-22.4.4-44.79-.37-67.18-.57-4.67-3.32-9.14-4.04-13.96.39-3.46,3.17-7.63,1.54-11.48,1.94-1.94.2-3.37-2.53-4.14-5.6-2.35-9.47-6.03-16.38-10.75-21.49Z"/>
      <path class="cls-17" d="M283.26,135.55H.09v-25.97c2.2-3.58,4.88-2.89,7.44-2.91,14.61-.08,29.23.51,43.83-.19,14.73-.71,29.49-1.09,44.2-1.12,19.75-.05,39.52,1.25,59.28,1.28,5.03,0,10.05.1,15.06-1.38,2.56-.76,5.18-.91,7.69.84,2.16,1.86.56,4.09-.06,6.51,12.87-.09,25.53.09,38.38-.11-.47-5.81-2.41-8.05-3.52-11.3-.74-2.18-2.86-4.21-.63-7.42,2.35-.52,4.12,1.82,5.61,4.67,2.74,5.26,6.03,6.52,9.77,6.49,16.23-.13,32.45-.1,48.68-.02,2.56.01,5.24-.75,7.45,2.81v27.82Z"/>
      <path class="cls-4" d="M.09,55.8h283.17v16.69c-1.88,3.18-4.21,2.96-6.47,2.95-53.27-.16-106.54.57-159.81-.46-4.77-.09-9.72,3.12-14.34-1.76-3.26-2.01-6.41-4.83-9.89-5.42-1.8-.03-3.59-.15-5.03,2.49-2.42,4.41-5.44,5.05-8.61,4.96-23.85-.66-47.71.66-71.56.1-2.56-.06-5.25.72-7.46-2.86v-16.69Z"/>
      <path class="cls-12" d="M283.26,194.9v107.57c-2.02,3.24-4.3,2.15-6.52,1.26-23.55-9.48-47.33-16.06-71.3-20.28-9.7-1.7-19.46-1.8-29.13-4.08-1.29-.3-2.6-.41-3.8-1.47-1.61-6.18-.98-9.6,2.18-11.54,1.55-.95,3.21-.43,4.79-1.07,1.48-.44,2.74-1.71,3.95-3.38,1.89-2.61,4-2.81,5.97-.53,3.77,4.35,7.39,3.7,11.06-.38,4.12-4.57,8.31-6.87,12.9-1.89,2.28,2.47,4.56.83,6.29-2.27,4.65-8.32,10.06-7.09,15.02-2.98,3.65,3.02,5.14.96,7.15-4.15,6.04-15.31,13.82-23.18,24.14-18.29,2.91,1.38,3.26-2.38,3.71-6.08,1.37-11.19,4.06-20.74,9.27-27.18,1.31-1.62,2.41-4.38,4.3-3.26Z"/>
      <path class="cls-15" d="M283.26,311.75v3.71c-1.81,2.96-3.91,2.58-6.01,1.8-24.3-8.9-48.84-12.66-73.56-11.91-10.7.32-21.32,3.71-32.02,3.71-2.75,3.32-6.11-2.06-8.81,2.23-12.81,2.15-25.66,1.96-38.46.96-13.43-1.04-26.85-2.8-40.27-4.67-10.56-1.47-21.09,1-31.63,1.81-14.47,1.12-28.54,7.75-42.65,13.48h-1.95q-7.81,0-7.81-14.84c.75-1.2,1.57-2.34,2.54-2.57,9.79-2.36,19.28-7.99,29.16-9.36,8.61-.1,17.13-2.52,25.63-4.38,11.13-2.43,22.31-3.23,33.46-4.95,22.2-3.43,44.47-2.26,66.71-1.84,16.54.31,33.05,2.25,49.56,4.91,23.49,3.79,46.83,9.22,70.05,16.77,2.26.73,4.52,1.39,6.06,5.13Z"/>
      <path class="cls-18" d="M257.9,187.5c-4.5,10.09-10.32,5.69-15.9,5.67-76.06-.19-152.12-.14-228.19-.12-4.59,0-9.29-2.6-13.72,1.84v-14.84c81.32,0,162.65,0,243.97.04,2.86,0,5.88-1.27,8.41,2.87.42.68,1.59,1.07,1.81.59,4.49-9.57,10.03-2.61,14.96-2.96,5-.35,9.04-2.04,12.07-9.8.88,5.64-2.05,21.05-4.43,23.14-1.08.95-2.39,1.16-3.21-.37-4.36-8.1-9.51-7.65-14.87-5.48-.28.11-.61-.3-.9-.58Z"/>
      <path class="cls-14" d="M31.06,298.7c-8.72,2.82-17.44,5.66-26.17,8.42-1.58.5-3.2.62-4.8.92,0-19.78,0-39.57,0-59.35,2.68-3.93,5.41-1.92,7.7.77,2.81,3.31,5.28,3.29,8.22.99,3.15-2.46,6.63-3.44,9.98-3.58,7.32-.3,12.69,6.51,15.92,18.85,1.53,5.84,3.15,7.22,6.81,6.38,5.05-1.17,9.67-2.37,13.79-8.71,2.31-3.56,4.94,1.12,7.48,1,1.65.1,3.2-.63,4.72-1.73,3.03-2.2,5.87-1.1,8.93.66,5.94,3.42,11.93,7.14,18.36,4.44,2.74-1.15,5.5.19,8,2.44,1.89,1.7,3.89,3.96,2.14,9.08-7.02,4.29-14.37,3.97-21.57,5.23-17.7,3.1-35.29,7.59-52.87,12.49-2.22.62-4.53-.04-6.66,1.7Z"/>
      <path class="cls-6" d="M178.78,107.73c-59.56,2.79-119.13,1.17-178.69,1.85v-25.97c2.2-3.58,4.88-2.89,7.44-2.9,18.49-.07,36.98-.07,55.47,0,3.92.01,7.7-.53,11.4-3.57,3.35-2.75,6.96-2.5,10.5-.86,2.33,2.67.96,5.3-.53,5.13-6.17-.7-10.35,8.07-15.68,11.07-.43.59-1.46.06-1.3,1.48.1.89,1.14.6,1.77.87.5.13.96.36,1.43.63,8.14,1.66,16.14-.78,24.16-2.58,1.97-.72,3.94-.79,5.89.2,2.69,2.39,5.39,3.33,8.39,1.7,2.63-1.42,5.5-1.37,8.15-.53,5.47,1.75,10.82,1.2,16.2-.85,3.3,1.84,6.67,2.36,10.1,2.27,12.82-.32,25.64.5,38.45-.56,2.03.43,2.38,2.44,1.34,5.51-.95,2.81-2.15,5.2-3.73,6.79-.25.11-.51.21-.77.31Z"/>
      <path class="cls-6" d="M183.67,96.6c-3.43,2.38-7,1.85-10.54,1.85-11.16,0-22.33-.09-33.49.08-2.52.04-4.81-.51-6.74-3.78-2.34-1.6-4.85-1-7.25-1.93-4.17-1.15-7.22-5.25-9.05-12.49-.62-2.45-1-4.83,1.15-5.11,5.8,4.82,11.91,5.51,18.13,5.5,46.32-.08,92.64-.07,138.96,0,2.87,0,5.91-1.06,8.43,2.9v24.11c-19.01,0-38.03-.17-57.04.14-3.98.06-7.31-.95-9.83-7.41-1.28-3.28-3.16-5.27-5.38-5.71-5.1,1.78-9.65,8.58-15.22,6.13-2.3-2.86-4.7-4.95-7.55-3.15-.44.27-.89.44-1.34.59-1.2.27-2.35.16-3.23-1.72Z"/>
      <path class="cls-10" d="M257.9,187.5c5.84-5.04,11.36-6.31,16.09,4.27.84,1.88,2.72,1.77,2.9-.13.7-7.63,4.89-12.47,4.43-20.84.41-1.52,1.15-1.8,1.95-1.86v25.97c-6.88,8.72-12.11,19.47-12.82,36.17-.16,3.79-1.54,4.85-3.55,3.89-11.09-5.27-18.27-.32-24.59,17.47-2.22,6.27-3.57,8.8-7.93,3.82-3.5-3.99-8.75-6.79-12.93,1.21-3.01,5.77-6.38,7.91-10.37,2.5-3.22-4.37-6.41-.87-9.1,2.17-4.54,5.11-8.79,7.76-13.45.77-1.44-2.15-3.12-1.6-4.43.89-1.21,2.3-2.53,3.83-4.31,3.47-.18-.88-.35-2.14-.01-2.61,4.73-6.59,7.9-17.09,15.32-16.32,6.01.62,12.31-1.59,15.37-14.71,1.19-5.13,3.84-8.18,6.42-10.89,2.94,1.09,5.21-3.06,7.94-3.7,4.98-1.17,9.56,1.33,13.94,5.5,1.21,1.16,2.39,2.97,3.36.06,1.76-5.28,4.05-6.68,7.09-4.72,1.31.84,1.87-.88,1.78-2.93-.55-12.28,3.12-20.9,6.93-29.43Z"/>
      <path class="cls-1" d="M31.06,298.7c12.36-6.57,25.09-9.02,37.73-12.51,14.47-3.99,29.05-5.88,43.6-8.25,3.5-3.92,7.46-4.12,11.29-4.23,14.24-.42,28.48-.2,42.72-.13,1.94,0,3.91.04,5.53,2.63,25.91,2.89,51.77,6.77,77.39,14.95,11.33,3.62,22.63,7.53,33.94,11.31v9.27c-12.5-4.82-25.15-7.69-37.75-11.36-17.1-4.98-34.4-5.69-51.49-10.57-.48-.14-.97-.15-1.46-.19-29.2-2.54-58.43-3.41-87.61-1.42-19.32,1.31-38.7,3.54-57.96,8.27-5.23,1.29-10.56,3.48-15.95,2.23Z"/>
      <path class="cls-9" d="M283.26,83.62c-48.91,0-97.82,0-146.72,0-7,0-14.11,1.1-20.25-7.41-2.59,3.6-5.79,3.74-8.73,4.96-3.35,1.38-5.64-3.32-5.91-10.52,4.09,3.56,8.41,1.83,12.64,1.83,56.33.04,112.65.03,168.98.03v11.13Z"/>
      <path class="cls-3" d="M164.07,309.72c.11-2.07.23-4.14.4-7.28,1.95,2.6,2.5,9.53,5.53,5.44,3.47-.52,6.42,1.26,9.77,3.82,4.27,3.27,9.6,1.56,14.43.3,5.99-1.56,11.93-1.09,17.95-.12,10.49,1.7,21.06.47,31.57,2.58,6.6,1.33,13.27,1.69,19.83,3.72,1.59.49,3.79-.19,4.09,4.68H39.15c.58-5.73,3.33-5.45,5.34-6.17,10.38-3.72,20.86-6.38,31.39-7.62,17.2-2.02,34.31,1.98,51.47,3.17,12.21.84,24.58,3.26,36.71-2.53Z"/>
      <path class="cls-16" d="M69.43,267.21c-4.13-4.36-7.51-3.04-10.61,3.98-1.33,3.02-3.54,4.57-5.78,2.65-1.82-1.56-3.52-1.07-5.1.84-2.98,3.61-5.06,1.2-6.24-3.95-6.27-27.31-16.51-23.36-26.85-16.88-2.67,1.67-4.28,2.36-6.47-1.21-2.3-3.75-5.3-4.28-8.28-3.96v-44.51c6.05.28,8.68,8.5,10.84,17.35,1.47,6.03,3.17,8.14,7.02,7.16,4.44-1.13,8.83-.94,13.01-5.21,2.77-2.83,5.63.18,8.2,2.96,3,4.94,4.99,11.14,6.24,18.24,1.92,10.92,7.16,15.8,12.94,12.01,5.08-3.34,9.44.8,11.1,10.53Z"/>
      <path class="cls-13" d="M267.64,322.87c-6.4-4.84-13.28-3.53-19.92-5.13-8.14-1.96-16.44-1.69-24.67-2.33-7.74-.6-15.52-2.16-23.22-1.4-6.94.69-13.87,1.44-20.81,1.31-1.44-.03-4.96,3.02-3.1-5.42.52-2.38-1.68-2.18-2.39-1.16-1.48,2.11-2.52,1.8-3.54-.87,4.73-3.93,9.87-2.18,14.76-3.04,19.7-3.47,39.4-2.69,59.17.72,13.22,2.28,26.15,7.73,39.34,9.9.74,6.35-.53,8.2-3.91,7.58-3.87-.71-7.8-.16-11.71-.16Z"/>
      <path class="cls-11" d="M164.07,309.72c-2.14,3.7-4.57,5.74-7.56,5.88-21.54,1.01-42.94-3.69-64.41-5.17-9.61-.66-19.33,1.75-28.93,3.9-7.49,1.68-15.1,2.58-22.39,6.81-.58.34-1.08,1.14-1.62,1.73H9.86c8.07-7.61,16.89-9.99,25.61-12.6,15.82-4.73,31.87-7.11,47.79-5.43,23.28,2.46,46.51,5.78,69.84,5.14,3.65-.1,7.29-3.6,10.96-.28Z"/>
      <path class="cls-9" d="M86.01,78.04c-4.93.41-10.05-1.84-14.49,4.89-.93,1.41-2.82.66-4.27.67-22.38.03-44.77.02-67.15.02v-11.13c18.63,0,37.27.13,55.9-.06,7.21-.07,14.37-2.64,21.64-.15,3.56,1.22,7.36,1.24,10.18-5.5,1.41-3.38,3.99-1.32,6.04-1.68-1.7,6.31-5.04,9.06-7.85,12.94Z"/>
      <path class="cls-7" d="M69.43,267.21c-4.63-10.27-6.33-11.57-12.47-6.52-3.35,2.76-5.12-4.18-7.53-3.33-4.47,1.58-4.24-3.65-4.62-8.94-.61-8.47-4.38-14.09-5.66-21.99,15.45,0,30.9,0,46.35,0,34.4,0,68.79.01,103.19-.01,6.1,0,12.08,2.58,18.33.5,3.34-1.11,6.41-4.28,9.84-4.19-2.63,6.52-5.57,12.5-8.02,19.39-3.32,9.32-9.2,8.05-14.26,8.55-3.2.32-5.96-.13-7.83,6.21-1.5,5.08-5.83,3.99-6.98,10.37-.65,1.76-1.51,1.76-2.52,1.29-3.38-1.56-5.18,1.01-5.31,7.66-19.85.37-39.71-.73-59.54,1.74-1.88-9.63-7.27-9.44-10.13-7.6-6.53,4.19-12.01-1.57-17.68-3.72-4.02-1.52-7.43-4.78-11.33.13-.92,1.16-2.53.36-3.82.46Z"/>
      <path class="cls-2" d="M195.38,98.45c1.47,1.42,3.17,3.2,4.55.91,3.31-5.48,7.2-4.66,11.07-4.61,2.25,4.69,4.52,9.34,6.73,14.1,1.44,3.08,1.46,6.12-1.06,6.16-14.35.21-28.69.1-43.53.1,1.32-5.77,4.38-3.93,5.64-7.37,0,0,0,0,0,0,3.5-2.09,5.02-9.81,8.79-11.13h0c2.8-2.36,5.26.38,7.81,1.84Z"/>
      <path class="cls-19" d="M86.01,78.04c1.65-6.43,4.85-9.47,7.85-12.94,2.66,1.53,5.46,2.33,7.79,5.54,1.87,6.65,3.8,11.87,8.49,6.41,1.56-1.81,4.07-.65,6.15-.84,2.39,6.99,4.91,13.68,9.76,14.85.16,3.55-1.03,5.51-2.56,5.16-6.86-1.57-13.7.45-20.55-.14-.78-.07-1.59-.43-2.27-1.31-1.95,0-3.9,0-5.86,0-8.44,1.84-16.91,1.97-25.39,1.84-.33,0-.65,0-.98,0-1.05-1.4-2.1-2.79-.97-5.55,2.93-2.29,6.03-3.9,8.18-8.9,1.28-2.98,3.21-1.97,4.93-2.27,1.83-.32,3.87,1.4,5.43-1.84Z"/>
      <path class="cls-17" d="M100.67,94.76c6.79,0,13.57,0,20.36-.02,1.92,0,3.98.66,5.02-3.69,2.37.65,5.25-2.1,6.84,3.7-4.06,3.65-8.11,4.39-12.65,2.49-3.85-1.62-8-1.55-11.98.45-2.76,1.38-5.43,1.53-7.59-2.92Z"/>
      <path class="cls-17" d="M69.42,96.6c5.3-3.87,10.82-1.11,16.22-1.79,3.04-.38,6.11-.06,9.16-.06-8.42,2.74-16.82,6.26-25.39,1.84Z"/>
      <path class="cls-17" d="M187.57,96.61c-3.27,2.73-3.91,12.97-8.79,11.13,1.63-3.71,3.25-7.42,4.88-11.13,1.3,0,2.6,0,3.91,0Z"/>
      <path class="cls-17" d="M67.47,91.05c.32,1.85.65,3.7.97,5.55-1.28-.45-3.22,1.3-3.6-2.36-.37-3.68,1.46-2.91,2.62-3.19Z"/>
      <path class="cls-17" d="M195.38,98.45c-2.6-.61-5.21-1.23-7.81-1.84,2.88-3.65,5.43-2.26,7.81,1.84Z"/>
    </g>
  </g>
</svg>