<?xml version="1.0" encoding="UTF-8"?>
<svg id="Layer_1" data-name="Layer 1" xmlns="http://www.w3.org/2000/svg" viewBox="0 0 336.12 669.1">
  <defs>
    <style>
      .cls-1 {
        fill: #42454d;
      }

      .cls-1, .cls-2, .cls-3, .cls-4, .cls-5, .cls-6, .cls-7, .cls-8, .cls-9, .cls-10, .cls-11, .cls-12, .cls-13, .cls-14, .cls-15, .cls-16, .cls-17, .cls-18, .cls-19, .cls-20, .cls-21, .cls-22, .cls-23, .cls-24, .cls-25, .cls-26, .cls-27, .cls-28, .cls-29, .cls-30, .cls-31, .cls-32, .cls-33, .cls-34, .cls-35, .cls-36 {
        stroke-width: 0px;
      }

      .cls-2 {
        fill: #ca964c;
      }

      .cls-3 {
        fill: #5c6163;
      }

      .cls-4 {
        fill: #2c2a2b;
      }

      .cls-5 {
        fill: #eed8d1;
      }

      .cls-6 {
        fill: #3c211a;
      }

      .cls-7 {
        fill: #5e606c;
      }

      .cls-8 {
        fill: #f7ebe1;
      }

      .cls-9 {
        fill: #5d5e61;
      }

      .cls-10 {
        fill: #292929;
      }

      .cls-11 {
        fill: #8daedb;
      }

      .cls-12 {
        fill: #484748;
      }

      .cls-13 {
        fill: #4e72a5;
      }

      .cls-14 {
        fill: #eb9e6c;
      }

      .cls-15 {
        fill: #de9b76;
      }

      .cls-16 {
        fill: #8a8b97;
      }

      .cls-17 {
        fill: #492619;
      }

      .cls-18 {
        fill: #6590c4;
      }

      .cls-19 {
        fill: #373636;
      }

      .cls-20 {
        fill: #2e3031;
      }

      .cls-21 {
        fill: #b9babc;
      }

      .cls-22 {
        fill: #3d4046;
      }

      .cls-23 {
        fill: #e2e4ea;
      }

      .cls-24 {
        fill: #6f737e;
      }

      .cls-25 {
        fill: #9a9daa;
      }

      .cls-26 {
        fill: #eb9e6d;
      }

      .cls-27 {
        fill: #e48d5c;
      }

      .cls-28 {
        fill: #8d8d99;
      }

      .cls-29 {
        fill: #5d3830;
      }

      .cls-30 {
        fill: #779ecf;
      }

      .cls-31 {
        fill: #3c3832;
      }

      .cls-32 {
        fill: #636571;
      }

      .cls-33 {
        fill: #636669;
      }

      .cls-34 {
        fill: #5c85bb;
      }

      .cls-35 {
        fill: #353534;
      }

      .cls-36 {
        fill: #3c3c3f;
      }
    </style>
  </defs>
  <g id="ureSjX">
    <g>
      <path class="cls-22" d="M73.34,316.1c.2-1.28.4-2.56.61-3.85,2.43-2.24,5.27-1.35,7.98-.94,2.43.37,4.38-.01,6.33-1.74,4.32-3.82,12.79-3.53,17.53.31-4.52,1.88-5.68,5.65-5.91,10.12-.14,2.77-.55,5.56-1.7,8.14-.27.62-.68,1.13-1.28,1.46-.99.54-1.72,2.03-2.93,1.54-1.57-.64-.75-2.3-.85-3.54-.04-.49-.02-.99-.76-1.65-1.2.73-3.18,2.13-2.17,3.2,1.15,1.21,3.17,4.09,5.75,1.26.66-.72,1.66-1.1,2.2-1.99,3.2-2.23,5.98-2.31,7.98,1.55,3.51,3.3,4.77,7.37,4.49,12.12-.21,3.48,0,6.98-.07,10.47-.03,1.62-.45,3.11-2.39,3.16-1.93.05-2.46-1.38-2.52-3.03-.09-2.66-.03-5.32-.05-7.98.04,3.07-.11,6.15.09,9.22.09,1.37.91,2.09,2.27,2.14,1.3.04,2.5-.44,2.48-1.85-.1-6.6,1.13-13.26-.9-19.77-.52-1.69-2-2.62-2.94-3.97.74-3.91,3.88-1.8,5.92-2.24,1.96-.42,3.52.63,4.24,2.67.62,1.74,1.1,3.53,1.12,5.36.06,4.77,1.83,8.24,6.76,9.5.51,2.87-1.74,3.15-3.58,3.73-1.83.57-3.76,1.18-3.26,3.56.54,2.59,2.89,1.79,4.56,1.73,4.74-.17,7.37-3.16,7.91-8.55.33-3.26-.68-6.7,1.25-9.76.31-.36.67-.66,1.08-.9.75-.35,1.56-.52,2.38-.57,3.03-.21,4.74-1.33,3.5-4.73-.33-.91-.52-1.95.53-2.66,1.96-.69,3.6-.52,4.46,1.68,1.06,12.41,2.17,24.82,3.15,37.24.18,2.25,1.55,3.56,2.88,5.03,28.7,31.67,57.18,63.53,86.21,94.89,8.73,9.44,12.67,20.89,16.75,32.34,13.23,37.14,23.95,75.06,34.82,112.93,1.25,4.37-2.82,4.14-3.85,6.39-6.57,5.26-14.18,8.48-22.1,10.97-1.95.61-3.9,2.08-6.19,1.15-1.8-.03-3.37.06-4.47-2.1-17.67-34.87-35.57-69.63-46.45-107.43-.87-3.02-1.97-6.14-1.95-9.21.04-6.09-3.42-9.16-7.94-12.45-21.08-15.35-41.9-31.06-62.86-46.68-1.58.83-.74,2.34-.75,3.49-.12,18.3.26,36.61-1.06,54.9-.57,7.94-2.3,15.13-7.06,21.82-21.56,30.34-43.67,60.27-65.75,90.22-1.85,2.51-4.55,1.57-6.22,3.34-4.86-.11-8.83-2.67-12.62-5.18-5.05-3.35-10.23-6.58-14.69-10.76-2.35-1.28-3.17-2.76-1.77-5.54,13.07-25.91,26.36-51.7,42.95-75.61,5.02-7.24,10.29-14.34,17.15-19.99,1.68-1.38,1.97-2.73,1.67-4.72-4.91-33.38-8.37-66.89-9.67-100.62-.07-1.93-.75-3.48-1.58-5.12-4.01-7.94-6.48-16.3-6.6-25.26-.78-3.26-.17-6.57-.35-9.85-.04-.82-.17-1.93.6-2.27,3.6-1.61,4.84-5.31,7.3-7.91,1.44-1.53,2.77-2.11,4.57-.3,2.68,2.7,3.64.48,4.28-1.81.65-2.32-.47-4.56-.53-6.86-.06-2.16.18-4.31,1.27-6.18,1.57-2.69-1.99-5.91.99-8.37-2.57.13-3.39-1.66-4.03-3.66-.1-3.29-.63-6.2-4.62-7.01-1.46-.3-2.16-1.43-1.6-3.02Z"/>
      <path class="cls-18" d="M105.76,310.1c-4.09-1.42-8.35-1.69-12.61-1.99-1.46-.1-2.89.3-3.39,1.55-1.75,4.38-4.98,3.7-8.44,2.87-2.42-.58-4.89-.82-7.37-.29-2.47-37.23-8.78-73.77-18.58-109.79-4.15-15.25-6.7-30.87-2.86-46.77,1.9-7.85,5.47-14.58,11.96-19.58,7.68-.49,15.34-2.38,23.07-.63,4.21.96,8.46,1.65,12.73,2.29,4.21-.51,8.17.96,12.23,1.6,9.2.87,18.17,3.11,27.25,4.69,1.56.27,2.28,1.12,2.83,2.39.93.95.92,2.1.51,3.21-3.13,8.61-5.19,17.62-9.59,25.77-.49.65-1.1,1.11-1.96,1.13-16.53-3.59-33.17-6.79-48.71-13.86-6.02-2.74-12.21-5.1-17.75-8.86-4.08-2.77-5.07-2.11-5.16,2.67-.29,14.99,13.46,29.26,28.4,30.53,8.17.69,16.47,1.29,24.45,3.67,2.52,2.17,2.62,5.25,3.02,8.19.25,1.81.03,3.66.19,5.48.3,3.55,1.32,6.7,5.52,7.12,4.98.5,8.87-2.32,9.54-6.8.69-4.6-.99-8.88-2.05-13.22-.52-2.1-.94-3.94,1.59-4.98,2.25-.57,4.44-.89,5.93,1.51,9.91,27.88,10.48,56.65,8.37,85.72-.74,10.12-.97,20.27-1.44,30.41-.35,2.76-.62,5.45-4.4,5.74-1.41.11-2.36,1.64-3.71,2.23-8.08,2.14-16.38,2.27-24.63,2.48-2.56.06-4.86-1.25-4.91-4.48Z"/>
      <path class="cls-14" d="M132.6,175.14c3.67-9.44,7.34-18.89,9.97-28.69,12.84,1.72,25.45,4.66,38.12,7.26,5.82,1.2,11.55.22,17.34-.5,17.04-2.13,34.18-2.08,51.31-1.78,4.38.07,6.6-.5,6.54-5.74-.08-6.62,3.4-9.28,9.98-9.58,6.77-.31,13.53-.95,20.3-1.44,1.36,3.18-1.52,2.47-2.78,2.75-5.02,1.14-10.21,1.1-15.27,2.01-2.33.42-5.75-.19-5.82,3.2-.06,3.07,2.1,5.5,5.12,6.73,1.83.74,3.99.4,5.69,1.64,3.04,4.8,2.42,9.97.77,14.84-1.45,4.28-5.96,5.87-9.5,4.52-13.33-5.09-24.55,2.79-36.57,5.27-6.8,1.4-13.63,2.91-20.29,5.07-4.32,1.4-8.9,1.14-13.39.71-17.05-1.62-34.01-4.03-51.08-5.36-1.85-.14-3.66-.29-5.43.31-1.96.66-3.59.18-5.01-1.24Z"/>
      <path class="cls-4" d="M48.48,67.29c-2.27-8.44-9.9-10.59-16.44-14.04-4.76-2.52-4.8-3.6-.6-6.83,13.56-10.42,29.59-17.39,42.45-28.47,13.56-11.68,29.75-13.3,45.79-16.64.65-.13,1.34-.1,1.97-.28,2.22-.63,4.9-1.91,6.58-.12,1.8,1.93-.28,4.32-.98,6.46-6.23,3.61-5.77,9.6-5.52,15.52-.1.45-.19.9-.29,1.35-.15,1.67-1.06,2.69-2.64,3.22-7.87,2.63-14.83,7.31-22.61,10.16-2.09.76-3.74,2.11-2.7,4.43,1.09,2.41,3.23,1.19,4.71.35,9.58-5.49,20.47-6.36,30.89-8.84,1.89-.45,4.28-1.46,5.41,1.46-4.89,1.09-10.03,1.82-10.92,8.22-3.58-.76-7.04-.3-10.61.46-14.95,3.18-29.24,7.93-42.68,15.39-5.6,3.11-11.78,5.21-17.61,7.97-1.33.63-2.75,1.32-4.2.2Z"/>
      <path class="cls-6" d="M48.48,67.29c8.83-3.98,17.68-7.91,26.47-11.97,8.75-4.05,17.33-8.44,27-10.14,4.67-.82,9.4-1.92,13.82-3.43,3.47-1.18,5.51-.62,7.81,1.51-.07,1.81-1.63,2.7-2.5,4.02-3.94,4.7-9.38,4.34-14.67,4.23-7.06-.15-7.14-.26-9.22,6.68-2.28,7.57-2.52,15.37-2.22,23.2.09,2.32,1.26,4.04,2.81,5.65,3.21,3.34,7.33,5.09,11.49,6.8,3.53,1.45,6.36.99,8.55-2.53,1.82-2.92,4.75-4.61,8.01-5.61,1.95-.59,3.95-.94,5.41,1.1.1,1.22.2,2.44.3,3.66-1.39,2.24-3.98,2-6.01,2.92-1.61.73-3.73,1.04-3.74,3.32-.02,1.99,1.64,3.07,3.1,4.15,1.45,1.06,3.52.93,4.71,2.48,4.84,5.71,5.39,12.59,4.94,19.56-.18,2.73-2.84,3.8-5.31,4.42-8.5,2.13-16.65.61-24.65-2.44-5.2-.43-7.66-4.54-9.97-8.2-4.94-7.86-7.6-16.5-7.71-25.95-.06-5.72-3.25-10.35-6.97-14.5-1.03-1.15-2.52-1.71-4.09-.94-1.56.77-1.82,2.27-1.82,3.82,0,2.03.67,3.93,1.26,5.83,1.77,5.71.99,11.2-1.49,16.5-.91,1.94-1.86,4.13-4.78,3.19-9.47-9.06-15.2-20.36-19.41-32.55-.53-1.54-.76-3.18-1.12-4.77Z"/>
      <path class="cls-10" d="M255.11,630.25c2.44-2.27,5.86-1.91,8.67-3.21,6.51-3.02,13.08-5.94,19.62-8.9,2.66,5.14,5.35,10.27,7.96,15.44,1.57,3.11,3.93,4.5,7.49,4.77,7.6.58,15.35-.44,22.82,1.64,13.7,3.81,15.73,12.61,13.83,23.9-.36,2.15-1.92,2.42-3.69,2.5-12.45.58-24.9,1.16-37.35,1.77-1.41.07-2.5-.51-3.69-1.2-6.91-4.02-10.06-3.78-16.39,1.02-1.4,1.06-14.77,1.57-16.05.64-.96-.7-.76-1.77-.97-2.71-1.67-7.31-2.64-14.64-2.02-22.2.37-4.45-.14-8.97-.25-13.45Z"/>
      <path class="cls-10" d="M23.3,610.2c7.49,2.77,12.81,9.01,19.92,12.49,2.44,1.19,5.65.84,7.38,3.46-.35,2.79-.73,5.57-1.04,8.36-.42,3.77,1.32,5.43,5.1,5.67,5.29.34,10.57.93,15.6,2.85,10.06,3.84,13.57,11.26,10.03,21.28-.88,2.49-2.37,3.7-5.17,3.66-11.8-.17-23.6.23-35.4-.49-2.28-.14-4.15-.86-5.84-2.35-3.61-3.19-7.22-6.38-10.92-9.46-2.9-2.43-5.16-4.62-10.17-4.14-4.71.45-8.35-5.21-11.77-9.03-2.49-2.77.23-4.9,1.04-7.19,2.15-6.1,7.08-9.95,11.93-13.69,4.05-3.12,7.11-6.88,9.31-11.43Z"/>
      <path class="cls-27" d="M132.6,175.14c8.53-1.15,16.94.06,25.39,1.04,11.64,1.35,23.31,2.44,34.96,3.69,6.85.74,13.45.29,20.03-2.2,5.7-2.16,11.92-2.55,17.79-4.39,6.89-2.17,13.98-3.71,20.63-6.67,1.7-.75,3.53-.62,5.29.32,1.45.78,2.96,1.73,4.53,1.95,7.14.99,13.13.81,12.35-9.55-.21-2.79.45-5.68-1.03-8.32,2.66-3.26,5.87-2.59,9.17-1.28,1.38,1.91,1.06,4.2,1.4,6.35.12,1.15-.39,2.19-.6,3.29-1.26,6.35-4.47,11.17-10.69,13.62-5.32,1.18-10.44.78-15.3-1.85-14,4.19-27.41,10.1-41.63,13.67-9.97,2.51-20.05,2.72-30.21,2.62-14.99-.15-29.97-.17-44.96-.22-1.11,0-2.37-.36-3.22.79-2.09-.89-4.19-1.31-6.3-.07-1.9-.36-2.72-1.56-2.72-3.43.49-3.21,2.13-5.85,4.1-8.33.34-.35.67-.69,1.01-1.04Z"/>
      <path class="cls-26" d="M131.23,86.8c-5.41-.84-10.79,1.44-13.15,6.52-1.44,3.11-3.44,3.32-5.94,2.74-6.07-1.41-11.5-4.14-16.08-8.43-1.22-1.15-2.37-2.43-2.45-4.19-.46-10.48-.07-20.85,4.02-30.74.97-2.35,2.1-3.81,5.21-3.03,6.31,1.6,12.47.73,18.24-2.39,1.88,3.13,3.64,6.31,4.76,9.8.55,1.72,1.26,3.48-.34,5.07-4.94-6.26-11.3-2.68-17.15-2.64,2.44,1.91,5.28,1.09,7.97,1.33,3.08.28,6.35-.78,9.15,1.34-.46,3.94,2.13,6.34,4.44,8.92,5.79,6.48,5.76,6.49,1.67,13.78-.3.54-.25,1.27-.36,1.92Z"/>
      <path class="cls-14" d="M69.02,104.61c4.01-1.97,6.8-8.7,5.93-15.04-.36-2.6-1.49-5.08-2-7.67-.56-2.87-1.68-6.2,1.86-7.95,3.84-1.91,6.7.4,8.18,3.52,2.38,5.04,4.92,9.64,5.33,15.96.79,12.26,4.65,24.19,16.27,31.43-.36.56-.73,1.12-1.09,1.67-.46.32-.96.49-1.51.52-7.9-1.96-15.69-4.31-23.64-6.12-2.38-.54-4.94-1.15-6.1-3.8-.94-4.21-1.23-8.58-3.22-12.52Z"/>
      <path class="cls-19" d="M281.51,150.34c-3.08-.99-6.02-.05-8.98.67-4.89.23-9-.27-11.05-6-1.62-4.54-.83-6.55,4.37-7.09,6.24-.64,12.48-1.35,18.71-2.05.74-.08,1.76.12,1.6-1.2,7.11-.88,14.39-.09,21.35-2.86,1.93-.77,5.09.13,5.14,3.75.02,1.49.18,3,.46,4.46.51,2.69-.45,3.93-3.21,4.42-6.54,1.16-13.01,2.7-19.55,3.89-3.06.56-4.72,1.55-3.95,5.14.64,2.97.25,5.83-3.91,5.9-.92-.75-.85-1.54-.08-2.36,1.06-2.41.97-4.66-.91-6.67Z"/>
      <path class="cls-11" d="M72.23,117.13c7.42,3.84,15.81,4.42,23.66,6.8,2.39.73,4.55,1.78,6.82,2.67.75,4.47.91,8.83-2.21,12.62-4.21-.7-8.49-1.09-12.59-2.18-3.46-.92-7.01-1.34-10.28-.64-4.52.96-8.79.43-13.16-.28,1.73-5.25,3.45-10.49,5.18-15.74.46-1.39.84-2.86,2.58-3.26Z"/>
      <path class="cls-12" d="M134.5,35.04c-2.43-1.9-4.82-.23-7.1.28-10.09,2.27-20.58,3.21-29.68,8.83-1.56.96-3.37,1.76-5.09.36-1.5-1.22-1.19-3.05-.94-4.65.34-2.22,2.06-2.85,4.04-3.71,8.66-3.76,17.15-7.9,25.71-11.9,3.29,8.12,3.29,8.15,12.4,7.26,3.52-.35,7.03-.87,10.64-.81-2.87,2.73-6.51,3.32-9.98,4.33Z"/>
      <path class="cls-25" d="M73.34,316.1c.22.88.03,2.02,1.51,2.04,5.53.09,6.45,3.46,5.65,8.02,1.57,2.77-3.76-3.1-1.47,1.23,2.52,4.76,1.13,9.73-.89,14.36-.77,1.76-2.35,3-4.14.68-.63-2.07.62-3.81,1-5.7.57-2.8.28-5.23-2.54-6.73-4.77-3.99-6.55-3.64-9.16,2.13-1.24,2.73-1.79,5.68-1.58,8.72.11-1.31-.58-3.28,1.22-3.51,1.69-.21,1.59,1.76,1.79,2.99.24,1.48.24,2.99,1.25,4.23.33.28.66.55,1.01.8.58.31,1.2.54,1.83.75,3.04.89,1.98,3.31,2,5.33-.36,4.31-3.01,6.76-6.76,8.32-2.79.1-4.65-1.49-6.3-3.46-2.8-2.57-3.11-5.46-1.48-8.86,1.67-3.46,2.03-7.19,2.4-11.03.7-7.27,3.31-13.62,11.57-15.26,3.13-.62,1.45-3.76,3.09-5.06Z"/>
      <path class="cls-32" d="M63.57,359.32c2.61-2.25,6.14-3.8,6.09-8.06.59-1.9,1.49-3.62,3.03-4.93.99-.85,2-2.01,3.39-.82,1.28,1.1.54,2.23-.15,3.4,2.25-2.24,2.14-6.02,4.93-7.84,2.01.37.59,2.45,1.75,3.14-.07,2.6,1.67,5.08.51,7.77-.75,1.75-.82,3.88-3.51,4.19-2.79.32-3.06-1.74-3.49-3.96-2.87,2.17-3.81,5.96-5.82,6.96-6.77,3.38-3.74,9.33-4.85,14.16-1.95-3.82.69-8.33-1.83-12.06-.56-.64-.62-1.3-.06-1.97Z"/>
      <path class="cls-21" d="M135.56,311.22c.63-1.41,1.69-2.91,3.13-2.77,3.43.33,3.77-2.22,4.74-4.31.27,6.01.84,11.99,2,17.9.55,2.77-.2,5.15-1.98,7.27-1.29-1.76-3.25-.82-4.88-1.22-.91-.17-1.48-.73-1.85-1.54-1.21-5.04-2.54-10.08-1.17-15.33Z"/>
      <path class="cls-31" d="M256.51,171.15c1.18-.9,2.31-.92,3.55-.02,3.59,2.6,7.97.35,11.75,1.87-.09,6-4.85,5.6-8.62,5.85-5.21.35-5.75-3.99-6.68-7.7Z"/>
      <path class="cls-15" d="M129.59,103.31c-2.76.62-4.76-.82-6.66-2.49-4.3-3.77-4.08-5.95,1.07-8.16,2.39-1.02,5.02-1.5,7.54-2.22.62,5.69-3.68,4.6-7.21,4.95.45,1.98,1.88,2.45,3.38,2.96,2.55.87,3.26,2.54,1.88,4.95Z"/>
      <path class="cls-13" d="M100.51,139.22c.74-4.21,1.48-8.42,2.21-12.62.24-.14.5-.17.77-.08,2.45,4.67,4.73,9.46,9.01,12.86-4.02,1.61-7.98-1.18-11.99-.16Z"/>
      <path class="cls-2" d="M121.72,22.91c-3.51-5.71-.15-15.16,5.52-15.53-1.52,5.29-2.99,10.6-5.52,15.53Z"/>
      <path class="cls-7" d="M63.57,359.32l.06,1.97c-.44,1.13-.72,2.36-1.86,3.07-3.11,1.16-3.98-1.22-5.1-3.22-.63-1.83.6-3.25,1.08-4.83,2.34.24,3.8,2.15,5.82,3.02Z"/>
      <path class="cls-28" d="M56.67,361.13c1.77.97,2.8,3.1,5.1,3.22-1.11,1.25-1.58,3.83-4.06,2.47-2.46-1.35-1.88-3.57-1.04-5.69Z"/>
      <path class="cls-20" d="M135.56,311.22c.7,5.3,1.39,10.59,2.09,15.89-2.64,3.38-6.55,3.37-10.07-.34-.81,6.66-.82,13.21-3.1,19.36-5.8,1.02-7.23-2.66-7.78-7.25-.08-.66-.07-1.32-.12-1.99-.57-7.97-1.63-8.68-10.01-6.74-.33.41-.66.44-.99.01-2.3-3.25-5.14-2.19-7.99-.98h0c-.1-5.73,1.33-11.27,2.14-16.88.55-3.77,4.04-1.36,6.04-2.2,2.01,2.72,4.53,3.78,8.03,3.33,7.23-.93,14.51-1.5,21.77-2.21Z"/>
      <path class="cls-9" d="M124.48,346.12c-.83-6.54,2.56-12.83,1.17-19.42-.22-1.02.59-1.93,1.61-2.24,1.08-.33,2.01.34,2.6,1.09,2.51,3.18,3.04,3.32,7.79,1.56.31.33.62.66.93.98,3.3,6.81,2.36,8.07-6.03,8.1-.32-2.46,2.49-2.27,3.33-3.81-4.27-.5-7.16,1.65-7.87,5.84-.25,1.48-.24,3-.13,4.49.35,4.75-1.4,8.12-6.93,9.7,4.8-.33,6.37-1.43,7.19-4.95.64-2.75.98-5.57,1.32-8.38.19-1.66.23-3.97,3.14-2.92-1.83,3.11-.82,6.51-.97,9.78-.33,6.83-3.97,10.28-10.75,10.31-2.35,0-4.33-.09-4.74-3.01-.42-2.99,1.59-4.19,3.85-4.88,1.67-.51,3.79.13,4.5-2.24Z"/>
      <path class="cls-16" d="M82.61,344.22c-1,1.22-.46-4.7-2.55-.44-1.37,2.8-1.51,7.65-6.84,6.84.18-1.89,2.92-2.19,2.69-4.77-3.07.87-4.39,3.48-6.25,5.41-.6-1.43,1.91-4.48-2.14-4.13,1.32-3.09,4.17-4.06,7.01-5.04,2.44,1.69,2.53-.24,3.05-1.86,1.72-5.38,2.05-10.64-.86-15.75-.29-.52-.35-1.17-.56-1.91,3.4-.8,1.53,4.1,4.33,3.59.5.85.9,2.35,1.5,2.44,3.04.43,1.03,2.46,1.49,3.66,1.63,4.23-1.1,7.96-.88,11.97Z"/>
      <path class="cls-3" d="M105.57,330.16c.33.02.66.01.99-.01,3.71,2.14,4.98,5.57,5.01,9.62.04,4.48,0,8.96.02,13.44,0,2.28-.69,3.89-3.34,3.95-2.5.05-3.67-1.16-3.67-3.61,0-4.83,0-9.66,0-14.49.67.01,1.33.02,2,.03,0,4.31-.02,8.62.02,12.92.01,1.09-.31,2.67,1.29,2.79,2.07.16,1.67-1.67,1.68-2.87.06-4.48.06-8.96-.03-13.44-.07-3.34-2.03-5.84-3.97-8.33Z"/>
      <path class="cls-33" d="M97.58,329.18c-2.93,6.68-6.71.85-10.18.71-.19-1.88,1.99-1.87,2.53-3.26.53-1.36.97-3.77,3.19-2.93,2.12.81,1.56,3,1.2,4.79-.12.6-.38,1.18-.68,2.08,1.56-.55,2.75-.97,3.93-1.39,0,0,0,0,0,0Z"/>
      <path class="cls-34" d="M131.58,176.18c.4,3.43-2.45,5.5-3.48,8.33-.81,7.47-7.1,10.19-15.5,6.72-9.31-1.05-19-.83-27.82-3.49-9.65-2.91-19.75-6.38-23.13-18.63-1.45-5.28-3.35-10.23-3.1-15.81.15-3.26,1.09-4.49,4.14-2.39,9.16,6.29,19.43,10.3,29.72,14.18,8.79,3.31,17.89,5.54,27.14,7.35,4.03.79,8.62.66,12.03,3.75Z"/>
      <path class="cls-30" d="M112.6,191.23c2.48,0,4.97-.06,7.45,0,4.67.1,6.53-3.09,8.06-6.72.4,1.33.82,2.65,2.1,3.43-.54,3.48,1.11,6.59,1.81,9.83.5,2.32.65,4.59.51,6.87-.33,5.4-4.57,8.53-11.28,8.56-3.8.01-6.68-3.66-6.63-8.88.04-4.5-.22-8.89-2.02-13.08Z"/>
      <path class="cls-8" d="M281.51,150.34c3.84,1.58,4.16,3.91.91,6.67-1.09-2.12-.8-4.42-.91-6.67Z"/>
      <path class="cls-17" d="M125.48,62.19c-5.61,0-11.22,0-16.84-.01-1.65,0-3.39.25-3.16-2.45.21-2.43,1.75-2.38,3.47-2.38,3.8,0,7.63.3,11.38-.15,4.14-.49,5.38,1.3,5.17,4.96,0,0-.03.04-.03.04Z"/>
      <path class="cls-29" d="M112.21,72.08c1.33-3.88,5.05-3.6,8.47-5.01-.36,2.61,1.06,5.25-2.31,6.4-1.98-.78-4-1.41-6.17-1.4Z"/>
      <path class="cls-5" d="M112.21,72.08c2.67-2.25,4.71-1.69,6.17,1.4-2.1,1.45-4.33,1.21-6.47.26-1.38-.62-.31-1.19.3-1.65Z"/>
      <path class="cls-1" d="M74.54,342.09c-1.79,2.45-4.43,3.7-7.01,5.04-.39-.37-.79-.73-1.18-1.09-1.08-5.29,1.28-10.01,2.44-14.94.87-1.5,1.77-2.96,3.91-2.14,4.53.9,4.37,4.22,3.71,7.57-.37,1.9-1.23,3.71-1.87,5.56Z"/>
      <path class="cls-24" d="M72.7,328.96c-1.64-.06-2.15,1.5-3.22,2.25-2.75,4.59-2.91,9.8-3.53,14.9-3.45-1.76-1.7-5.32-2.74-8.26-1.31,1.79-.07,3.65-.77,5.2-3.66-5.44-.22-16.53,5.86-18.16,2.89-.77,2.17,3.49,4.39,4.08Z"/>
      <path class="cls-23" d="M65.95,346.11c-.97-5.47-1.06-10.74,3.53-14.9-1.04,4.94-2.09,9.89-3.13,14.83,0,0-.4.07-.4.07Z"/>
      <path class="cls-35" d="M142.95,322.15c.03,1.52.3,3.38-1.68,3.57-2.44.22-1.53-2.03-1.71-3.28-.44-3.1-.73-6.23-1.03-9.35-.1-1.06.13-1.97,1.48-2.08,1.35-.11,1.64.74,1.77,1.81.38,3.12.78,6.23,1.17,9.35Z"/>
      <path class="cls-36" d="M132.59,336.16c-4.02,2.92-1.79,7.52-2.87,11.25-1.34,4.61-5.37,7.96-9.78,6.75-.83-.23-1.72-.54-1.69-1.47.02-.47.77-1.28,1.23-1.31,7.94-.5,7.14-6.18,7.08-11.59-.06-5.71,3.95-9.88,8.92-9.57,1.3.08,2.8-.16,2.98,1.77.18,1.9-1.19,2.02-2.56,2.28-1.31.25-2.54.77-3.35,1.94,0,0,.04-.03.04-.03Z"/>
    </g>
  </g>
</svg>