<?xml version="1.0" encoding="UTF-8"?>
<svg id="Layer_1" data-name="Layer 1" xmlns="http://www.w3.org/2000/svg" viewBox="0 0 176.42 148.25">
  <defs>
    <style>
      .cls-1 {
        fill: #95a6bd;
      }

      .cls-1, .cls-2, .cls-3, .cls-4, .cls-5, .cls-6, .cls-7, .cls-8, .cls-9, .cls-10, .cls-11, .cls-12, .cls-13, .cls-14, .cls-15, .cls-16, .cls-17, .cls-18, .cls-19, .cls-20, .cls-21, .cls-22, .cls-23, .cls-24, .cls-25, .cls-26, .cls-27, .cls-28, .cls-29, .cls-30, .cls-31, .cls-32, .cls-33, .cls-34, .cls-35, .cls-36, .cls-37, .cls-38, .cls-39, .cls-40, .cls-41, .cls-42, .cls-43, .cls-44, .cls-45, .cls-46, .cls-47, .cls-48, .cls-49, .cls-50, .cls-51, .cls-52, .cls-53, .cls-54, .cls-55, .cls-56, .cls-57, .cls-58, .cls-59, .cls-60, .cls-61, .cls-62, .cls-63, .cls-64, .cls-65, .cls-66, .cls-67, .cls-68, .cls-69, .cls-70, .cls-71, .cls-72, .cls-73, .cls-74, .cls-75, .cls-76, .cls-77, .cls-78, .cls-79, .cls-80, .cls-81, .cls-82, .cls-83, .cls-84, .cls-85, .cls-86, .cls-87, .cls-88, .cls-89, .cls-90, .cls-91, .cls-92, .cls-93, .cls-94, .cls-95, .cls-96, .cls-97, .cls-98, .cls-99, .cls-100, .cls-101, .cls-102, .cls-103, .cls-104, .cls-105, .cls-106, .cls-107, .cls-108, .cls-109, .cls-110 {
        stroke-width: 0px;
      }

      .cls-2 {
        fill: #343e4b;
      }

      .cls-3 {
        fill: #c6c6d8;
      }

      .cls-4 {
        fill: #383c54;
      }

      .cls-5 {
        fill: #e7edf6;
      }

      .cls-6 {
        fill: #4c3366;
      }

      .cls-7 {
        fill: #2a4069;
      }

      .cls-8 {
        fill: #353949;
      }

      .cls-9 {
        fill: #daecf3;
      }

      .cls-10 {
        fill: #c67ea6;
      }

      .cls-11 {
        fill: #3c324d;
      }

      .cls-12 {
        fill: #3d4a6b;
      }

      .cls-13 {
        fill: #afb0c2;
      }

      .cls-14 {
        fill: #385079;
      }

      .cls-15 {
        fill: #b6dbed;
      }

      .cls-16 {
        fill: #ef7e82;
      }

      .cls-17 {
        fill: #ebf6f9;
      }

      .cls-18 {
        fill: #523c4a;
      }

      .cls-19 {
        fill: #94b0c0;
      }

      .cls-20 {
        fill: #e6dee5;
      }

      .cls-21 {
        fill: #4a3540;
      }

      .cls-22 {
        fill: #ef689f;
      }

      .cls-23 {
        fill: #272b3b;
      }

      .cls-24 {
        fill: #768599;
      }

      .cls-25 {
        fill: #3a4156;
      }

      .cls-26 {
        fill: #f0678f;
      }

      .cls-27 {
        fill: #96afc0;
      }

      .cls-28 {
        fill: #99b3c3;
      }

      .cls-29 {
        fill: #483c51;
      }

      .cls-30 {
        fill: #ea7f88;
      }

      .cls-31 {
        fill: #48353e;
      }

      .cls-32 {
        fill: #2d3b57;
      }

      .cls-33 {
        fill: #b8ccdf;
      }

      .cls-34 {
        fill: #d4567d;
      }

      .cls-35 {
        fill: #ed536f;
      }

      .cls-36 {
        fill: #343b58;
      }

      .cls-37 {
        fill: #374b5b;
      }

      .cls-38 {
        fill: #433f59;
      }

      .cls-39 {
        fill: #e19ea6;
      }

      .cls-40 {
        fill: #b8cdde;
      }

      .cls-41 {
        fill: #e15679;
      }

      .cls-42 {
        fill: #95abbf;
      }

      .cls-43 {
        fill: #d9e5eb;
      }

      .cls-44 {
        fill: #95b3c4;
      }

      .cls-45 {
        fill: #4b3f43;
      }

      .cls-46 {
        fill: #2c456b;
      }

      .cls-47 {
        fill: #483542;
      }

      .cls-48 {
        fill: #524c5e;
      }

      .cls-49 {
        fill: #b9cddd;
      }

      .cls-50 {
        fill: #b7cddf;
      }

      .cls-51 {
        fill: #f2f3fa;
      }

      .cls-52 {
        fill: #899ab3;
      }

      .cls-53 {
        fill: #774754;
      }

      .cls-54 {
        fill: #ec546e;
      }

      .cls-55 {
        fill: #e5e4e5;
      }

      .cls-56 {
        fill: #4ba1d5;
      }

      .cls-57 {
        fill: #b8ccdd;
      }

      .cls-58 {
        fill: #9ea6bb;
      }

      .cls-59 {
        fill: #b7cbdf;
      }

      .cls-60 {
        fill: #2c3f65;
      }

      .cls-61 {
        fill: #35577d;
      }

      .cls-62 {
        fill: #e5f0f1;
      }

      .cls-63 {
        fill: #89c6e1;
      }

      .cls-64 {
        fill: #93afc1;
      }

      .cls-65 {
        fill: #b0afc0;
      }

      .cls-66 {
        fill: #f4f9fc;
      }

      .cls-67 {
        fill: #90d6ea;
      }

      .cls-68 {
        fill: #f7fbfd;
      }

      .cls-69 {
        fill: #55c4ea;
      }

      .cls-70 {
        fill: #2a4269;
      }

      .cls-71 {
        fill: #a9adc1;
      }

      .cls-72 {
        fill: #2f3543;
      }

      .cls-73 {
        fill: #343c43;
      }

      .cls-74 {
        fill: #69405f;
      }

      .cls-75 {
        fill: #fdfdfd;
      }

      .cls-76 {
        fill: #b7ccd9;
      }

      .cls-77 {
        fill: #5e3755;
      }

      .cls-78 {
        fill: #b8cddf;
      }

      .cls-79 {
        fill: #abacc3;
      }

      .cls-80 {
        fill: #2b3f63;
      }

      .cls-81 {
        fill: #9096a9;
      }

      .cls-82 {
        fill: #392b40;
      }

      .cls-83 {
        fill: #2d3f67;
      }

      .cls-84 {
        fill: #f39496;
      }

      .cls-85 {
        fill: #cfd6df;
      }

      .cls-86 {
        fill: #2f435e;
      }

      .cls-87 {
        fill: #fbfafa;
      }

      .cls-88 {
        fill: #233750;
      }

      .cls-89 {
        fill: #593351;
      }

      .cls-90 {
        fill: #2b4460;
      }

      .cls-91 {
        fill: #3e485a;
      }

      .cls-92 {
        fill: #c9618d;
      }

      .cls-93 {
        fill: #c55d7b;
      }

      .cls-94 {
        fill: #757c92;
      }

      .cls-95 {
        fill: #293e62;
      }

      .cls-96 {
        fill: #4f3753;
      }

      .cls-97 {
        fill: #94adc0;
      }

      .cls-98 {
        fill: #9db3c7;
      }

      .cls-99 {
        fill: #4e3c47;
      }

      .cls-100 {
        fill: #ea6c9e;
      }

      .cls-101 {
        fill: #39485b;
      }

      .cls-102 {
        fill: #293d60;
      }

      .cls-103 {
        fill: #fff;
      }

      .cls-104 {
        fill: #b7cddd;
      }

      .cls-105 {
        fill: #f069a0;
      }

      .cls-106 {
        fill: #dcdee2;
      }

      .cls-107 {
        fill: #8fa4b5;
      }

      .cls-108 {
        fill: #f19397;
      }

      .cls-109 {
        fill: #e8ced7;
      }

      .cls-110 {
        fill: #5e6875;
      }
    </style>
  </defs>
  <g id="wk58Ru">
    <g>
      <path class="cls-104" d="M75.88,4.09c.4-.93.79-1.86,1.19-2.78,9.31-2,16.45,1.69,22.38,8.54-.32,2.61-.47,5.31-3.19,6.79-2.17-.02-3.51-1.72-5.18-2.7-4.84-2.82-9.86-3.38-14.53-.27-4.79,3.19-7.61,7.75-6.35,13.94.27,1.31.22,2.63-.07,3.95-1.19,2.78-3.38,4.12-6.32,4.38-2.23-.77-2.8-2.8-3.1-4.72-1.29-8.11.79-18.01,9.35-22.75,1.39-2.18,5.14-1.24,5.82-4.38Z"/>
      <path class="cls-49" d="M34.14,55.52c-.1-.56-.2-1.12-.3-1.68-1.7-2.99-2.26-6.03-.34-9.16,1.96-.46,3.67-.04,5.07,1.46.6.79.86,1.74,1.12,2.68.39,1.43.69,3.21,2.7,2.68,2.07-.54,2.01-2.26,1.45-3.98-.15-.46-.23-.95-.26-1.39.38-.26.31-.4-.18-.28-.65.15.31.24-.38.26-1.05.5-2.08.52-3.14.13-.87-.43-1.43-1.08-1.49-2.04-.21-.12.5-.51-.2-.54-1.5.61-2.84.74-3.78-.86.5-3.13,2.5-4.67,5.48-5.18,5.83-.54,8.76,1.06,10.98,6.74,2.27,5.81,4.56,11.56,8.4,16.55.69,2.46.92,4.74-2.29,5.61-1.22.15-2.45.15-3.67.03-2.56-.83-5.12-1.49-7.66.09-1.27.5-2.61.6-3.95.69-3.93.06-4.47-3.2-5.64-5.8-.87-1.92-1.92-3.8-1.92-6.01Z"/>
      <path class="cls-80" d="M118.76,11.23c2.92,6.16,9.41,7.46,14.52,10.61,1.96,1.21,2.98-.74,4.28-1.58,7.2-4.63,14.79-7.58,23.46-4.96,2.64.8,5.62,1.82,4.72,5.74-.43,1.88,1.37,2.07,2.24,2.86,8.13,7.41,10.66,17.91,6.4,28.04-1.66,3.94-4.03,6.43-9.26,6.68-3.94.19-7.84,3.11-12.18,3.41-1.28-1.59-.11-2.65,1.08-3.04,3.29-1.09,6.18-3.14,9.55-3.98,7.46-1.86,9.05-3.82,9.37-11.78.02-7.07-2.36-13.01-8.11-17.39-1.06-.81-2.37-1.64-2.57-2.96-.75-4.86-4.23-4.8-7.88-4.72-5.89.14-11.06,2.37-15.7,5.73-3.18,2.3-5.9,2.44-9.02.04-2.5-1.93-5.68-2.81-8.2-4.73-2.51-1.91-5.15-3.9-3.97-7.77.37-.41.8-.47,1.28-.22Z"/>
      <path class="cls-97" d="M174.64,43.2c.28,3.63-.9,6.97-2.74,9.91-1.36,2.17-2.8,5.38-6.58,3.23-1.07-.61-2.03.12-2.65.83-2.59,2.99-7.3,1.68-9.74,4.89-.56.04-1.12.08-1.68.11-1.5-.05-.77,3.65-3.27,1.95-2.97-2.66-4.94-5.6-2.8-9.72.59-.67,1.43-1.05,2.21-.74,6.04,2.4,10.92.18,15.45-3.68.36-.31.91-.36,1.4-.43,3.13,1.2,4.88-.7,6.6-2.86,1.07-1.34,1.42-3.53,3.78-3.48Z"/>
      <path class="cls-83" d="M70.84,8.25c-6.98,5.04-10.34,11.82-9.84,20.47.15,2.54.62,4.92,2.68,6.68,2.81.2,5.92-.33,7.52,2.97,2,3.2.52,6.51.29,9.78.08,1.79,1.42,3.11,1.83,4.78.13,1.34-.57,2.06-1.81,2.35-.22,0-.44,0-.66,0-3.1-3.74-3.69-8.12-2.57-12.59.68-2.75.28-4.25-2.65-4.37-2.59-.1-3.75-1.81-4.73-3.77-4.17-8.35.07-21.62,8.42-26.39.53-.33,1.04-.29,1.53.1Z"/>
      <path class="cls-36" d="M148.82,112.11c-.29.48-.58.95-.87,1.43-1.3-.54-1.71-1.79-2.3-2.89-.72-2.23-.53-4.56-.82-6.85-1.15-8.92-6.07-13.1-14.72-12.53-.51-.06-.99-.23-1.44-.49-.66-.48-1.07-1.11-1.17-1.93,2.68-4.08,7.09-4.58,11.32-5.44.52.16.91.48,1.17.96-.24,1.2-3.31,1.72-.65,3.66,8.2,5.99,9.86,14.65,9.47,24.07Z"/>
      <path class="cls-60" d="M118.76,11.23c-.4.04-.8.09-1.21.13-6.47,5.64-11.18,6.04-18.29,1.56-.48-.9-.85-1.82-.65-2.87-5.65-6.69-12.92-9.39-21.55-8.74,5.84-2.95,14.01-.83,20.82,5.5,2.87,2.67,5.25,5.66,9.94,5.6,2.18-.03,3.44-.18,4.99-1.74,1.89-1.91,4.33-3.4,5.94.56Z"/>
      <path class="cls-86" d="M34.14,55.52c.97,2.24,2.08,4.43,2.89,6.72.9,2.56,2.58,3.85,5.24,3.96.13.75-.13,1.37-.59,1.93-3.67,2.54-7.53,4.89-9.68,9.07-1.55,1.56-1.59,4.33-4.09,5.12-1.29.3-2.54.3-3.68-.52-1.55-2.21.98-2.59,1.67-3.82,1.19-2.14,2.51-4.2,3.76-6.31,2.01-1.73,1.71-3.84,1-6.02.36-.72.87-1.04,1.64-.57,1.58.61,3.16,1.22,4.89,1.89-.55-4.16-4.82-6.99-3.04-11.45Z"/>
      <path class="cls-12" d="M66.91,66.45c1.81.99,3.61,1.98,6.55,3.58-3.15-5.3-2.53-10.07-2.62-14.76,0,0,.3-.29.3-.29,1.57.05,3.11.17,4.37,1.28.51.49.83,1.08.86,1.81-.07.7-.33,1.33-.69,1.92-1.53,2.4-.61,4.71.27,7.01.63,1.65,1.83,3.15,1.3,5.1-1.81,1.82-4.25,1.37-6.45,1.8-.97-.17-1.72-.65-2.15-1.57,1.1-2.49-2.89-2.46-2.33-4.68.05-.48.24-.88.59-1.21Z"/>
      <path class="cls-46" d="M58.76,61.45c-3.68-4.77-6.22-10.11-8.07-15.83-1.66-5.14-4.97-8.19-10.77-7.54-.64-.36-.68-.77-.1-1.22,4.89-1.26,8.9.71,10.72,4.88,2.88,6.62,5.66,13.24,9.39,19.44-.09.14-.19.28-.28.42-.33.17-.63.12-.89-.14Z"/>
      <path class="cls-32" d="M12.98,131.07c-1.47-1.37-2.93-2.74-4.4-4.11-5.53-7.75-7.94-16.28-6.46-25.78.93-.16,1.47.36,1.94,1.05,1.27,2.62.75,5.55,1.48,8.26-.22,4.51,1.73,8.18,4.3,11.72,1.7,2.34,4.32,4.16,4.59,7.4-.16.82-.66,1.29-1.46,1.46Z"/>
      <path class="cls-14" d="M32.3,65.08l-1.27.91c-.95,1.24-2.36,1.24-3.65,1.12-6.67-.6-11,2.79-14.3,8.11-.95,1.53-1.83,3.24-3.95,3.49-.53-.04-.95-.28-1.25-.71,4.76-12.66,13.27-17.16,24.41-12.91Z"/>
      <path class="cls-70" d="M140,84.38c-.38-.06-.75-.12-1.13-.17-.78-2.1,1.04-2.93,2.08-4.08,1.89-2.11,3.74-4.24,4.43-7.09,1.02-3,.38-6.67,3.53-8.81,1.25-.72-.11-2.9,1.8-3.18.13-.02.37.74.55,1.13-1.44,6.29-2.23,12.82-6.39,18.14-1.32,1.68-2.62,3.46-4.87,4.07Z"/>
      <path class="cls-7" d="M39.82,36.86c.03.41.06.81.1,1.22-2.52.87-4.66,2.14-5.32,4.99.31.91.04,1.59-.81,2.05-2.07,2.92-.09,5.81.05,8.72-5.01-4.75-1.56-14.55,5.98-16.98Z"/>
      <path class="cls-6" d="M3.26,102.44c-.38-.42-.76-.84-1.14-1.26-.53-3.9,3.79-6.73,2.38-10.82.42-.79,1.13-1.08,1.97-1.15.53.03,1.03.19,1.48.47,1.81,2.33.21,4.35-.57,6.45-.99,1.64-1.82,3.35-2.36,5.2-.42.63-.98,1.05-1.76,1.11Z"/>
      <path class="cls-61" d="M6.84,90.17c-.78.06-1.57.13-2.35.19-3.4-2.23-5.98-4.78-3.51-9.24.76.04,1.33.41,1.8.98,1.08,1.96,1.87,4.12,3.76,5.54.54.79,1.07,1.58.31,2.53Z"/>
      <path class="cls-102" d="M1.85,82.11c-.29-.33-.58-.66-.87-.99,1.41-3.01,4.13-3.13,6.91-3.14.41.05.82.1,1.24.15.32.36.47.77.46,1.25-.1.46-.33.84-.66,1.16-2.29.79-4.57,1.69-7.07,1.56Z"/>
      <path class="cls-95" d="M66.91,66.45c-.03.35-.07.71-.1,1.06-4.51-.11-6.41-1.87-6.84-6.37,0,0-.03.04-.03.04,3.05.81,4.59,3.6,6.98,5.28Z"/>
      <path class="cls-88" d="M70.84,8.25c-.51-.03-1.02-.07-1.53-.1,2.19-1.35,4.37-2.7,6.56-4.05.8.56,1.94,1.29.46,2.08-1.71.91-3.65,1.41-5.49,2.08Z"/>
      <path class="cls-21" d="M12.98,131.07c.32-.32.65-.64.97-.96,3.58-1.34,5.26,2.59,8.23,2.95,13.27,6.85,27.73,9.22,42.27,11.31,2.84-.25,5.82-.98,7.68,2.2-1.68,2.27-4.26.27-6.2,1.29-14.26-.98-28.17-3.58-41.31-9.43-4.21-1.88-8.38-3.92-11.63-7.36Z"/>
      <path class="cls-31" d="M147.04,110.21c.31,1.11.61,2.21.92,3.32-1.34,10.51-7.39,17.68-16.17,22.96-4.25,2.55-8.65,4.71-13.54,5.7-.89.55-1.33.06-1.66-.71.4-2.66,2.7-3.15,4.64-3.94,4.32-1.76,8.47-3.8,12.28-6.51,2.45-1,3.6-3.4,5.43-5.07,2.48-3.52,5.03-7,5.55-11.47.51-1.63.73-3.44,2.56-4.28Z"/>
      <path class="cls-38" d="M101.28,146.26c-5.06,1.28-10.19,1.92-15.42,1.7-1.11-1.19-3.53.95-4.1-1.62.77-1.48,2.18-2.13,3.66-2.13,4.1,0,8.16-.84,12.27-.46,1.32.65,2.88.98,3.59,2.51Z"/>
      <path class="cls-18" d="M101.28,146.26c-1.15-.33-2.29-.65-3.44-.98.13-.56.41-1.03.82-1.42,3.72-2.51,8-1.78,12.11-2.11,1.09.37,2.21.73,2.09,2.23-3.77,1.22-7.57,2.32-11.59,2.28Z"/>
      <path class="cls-23" d="M81.61,146.91c1.42.35,2.84.7,4.26,1.06-6.65.44-13.3.36-19.94-.1,1.88-1.26,4.09-.37,6.08-.93,3.2-2.66,6.4-2.63,9.61-.03Z"/>
      <path class="cls-89" d="M112.86,143.98c-.75-.33-1.5-.67-2.25-1,1.39-3.25,3.59-3.59,6.38-1.76.41.32.83.64,1.24.96-1.57,1.27-3.55,1.3-5.38,1.79Z"/>
      <path class="cls-47" d="M68.98,31.23c-.99-4.79-1.2-9.5,1.49-13.89,6.32-10.33,19.87-9.23,25.42-1.11.3.9-.24,1.28-.97,1.53-2.07.07-3.46-1.37-5.08-2.3-5.41-3.35-8.71-3.37-13.09-.06-4.6,3.48-6.06,8.12-4.35,13.89.7,2.61,3.31,2.3,5.06,3.3.61.51.88,1.13.64,1.93-1.49,2.15-3.53,2.96-6.09,2.46-2.65-1.05-2.89-3.37-3.04-5.75Z"/>
      <path class="cls-101" d="M94.95,17.12c.31-.3.63-.59.94-.89,2.35-1.43.34-4.78,2.73-6.18.42.65.85,1.3,1.27,1.95,0,1.63.92,2.73,1.98,3.84,1.03,1.08,2.05,2.38,1.32,3.98-.75,1.64-2.41,1.49-3.9,1.48-1.16,0-2.32.06-3.43-.41-.72-.36-1.24-.9-1.54-1.65-.17-.81-.01-1.53.62-2.11Z"/>
      <path class="cls-1" d="M68.98,31.23c.99,1.66,1.97,3.32,2.96,4.98,0,1.32-.37,2.31-1.98,2.14-.98-3.34-5.13.04-6.28-2.96,1.79-1.36,4.08-2.09,5.3-4.17Z"/>
      <path class="cls-68" d="M68.89,72.14c.66.28,1.32.56,1.98.84,6.17-.77,9.74,1.27,13.24,7.58,1.18,2.96,5.1,5.84.26,8.98-5.16,2.67-10.57,2.59-15.89.9-5.51-1.75-10.91-3.68-16.76-4.16-2.42-.2-4.8-1.21-6.72-2.93-1.26-1.93-3.38-3.04-4.67-4.96-2.78-4.12-2.65-7.08.63-10.92.44-.43.87-.86,1.31-1.28.9-.02,1.8-.05,2.69-.07,1.93-1.51,4.18-.78,6.3-.91,6,.61,11.86,1.64,16.7,5.67.34.4.64.82.92,1.26Z"/>
      <path class="cls-66" d="M43.92,45.18c1.52,1.82,4.06,3.36,2.1,6.27-1.26,1.87-2.93,3.24-5.42,2.42-3.52-1.16-2.57-4.1-2.55-6.65.29-.99.9-1.65,1.94-1.85,1.32-.05,2.65-.1,3.97-.14l-.04-.04Z"/>
      <path class="cls-52" d="M68.89,72.14l-.47.1-.46-.13c-3.04-3.41-8.03-3.6-11.2-6.78,2.36-.42.97-2.78,2.01-3.88.4-.11.8-.21,1.21-.32,1.34,3.14,4.07,4.78,6.84,6.37,0,1.85,5.04,1.45,2.08,4.64Z"/>
      <path class="cls-2" d="M56.76,65.34c3.2,1.47,6.39,2.94,9.59,4.42,1,.46,2.25.78,1.61,2.36-5.13-2.52-10.13-5.4-15.95-6.1-.16-.95.09-1.46,1.16-1.09l3.59.4Z"/>
      <path class="cls-43" d="M39.98,45.36c-.65.62-1.29,1.24-1.94,1.85-1.41-.7-2.83-1.4-4.24-2.1.27-.68.54-1.37.81-2.05,1.45.05,2.92-.65,4.36.12h-.01c.34.72.69,1.45,1.03,2.17Z"/>
      <path class="cls-110" d="M53.17,64.93c-.39.36-.78.73-1.16,1.09-2.35.04-4.69.07-7.04.11,2.24-3.82,5.31-1.87,8.21-1.19Z"/>
      <path class="cls-62" d="M38.96,43.19c.25-1.55.7-2.99,2.71-2.66,1,.16,1.25,1.07.92,1.9-.8,2.03-2.25,1.37-3.64.75,0,0,.01,0,.01,0Z"/>
      <path class="cls-17" d="M43.95,45.22c.17-1.35-.37-3.17,1.88-3.18.45,0,1.28.82,1.27,1.25-.03,2.21-1.84,1.72-3.19,1.89,0,0,.04.04.04.04Z"/>
      <path class="cls-78" d="M95.84,20.06c2.16-.94,4.35-1.06,7.79.84-2.52-3.53-6.55-5.12-3.74-8.91,3.29,2.19,7.48.99,10.91,2.97,1.49.86,1.44-1.27,2.12-2.04,1.21-1.35,2.17-3.79,4.63-1.56,1.15,5.32,5.99,6.57,9.75,9.19,4.75,3.31,8.55,4,13.55-.04,4.7-3.79,10.88-5.16,17-4.15,2.48.41,8.02-.77,5.31,5.48-.55,1.27,1.4,1.63,2.26,2.22,6.82,4.61,9.7,11.06,9.23,19.15-1.35,2.75-2.35,5.73-5,7.64-1.9,1.36-3.75,2.49-4.86-.81-1.04-2.02-.03-3.87.48-5.76,1.67-6.27-.2-11.55-5.07-15.49-5.15-4.17-10.96-4.03-17.15-.28-3.83,2.32-4.43,4.91-1.88,9.21,2.55,4.3,4.81,8.69,5.49,13.73.14,1.05.07,1.97-.74,2.73-1.27,4.03,2.24,6.63,3.01,10.05-.1,3.43-1.26,6.61-2.36,9.81-2.71,1.94-4.13,5.07-6.79,7.12-7.97,6.14-17.22,6.03-26.52,5.62-1.88-.08-3.47-1.08-4.24-2.99-.16-.5-.21-1.02-.17-1.54.45-2.31,2.13-3.39,4.15-4.12,2.7-.48,4.51-1.74,4.5-4.81,0-1.18.52-2.21,1.52-2.95,1.46-.93,3.13-.98,4.78-1.18,6.43-.77,10.8-5.22,11.52-11.72.62-5.61-3.36-11.57-9.25-13.14-4.03-1.07-8.38-.36-11.11,2.64-5.31,5.83-10.97,2.41-16.55,1.5-2-.33-2.7-2.11-3-4.1-.79-5.2-3.66-8.76-8.76-10.37-1.8-.57-3.51-1.17-3.72-3.44,2.49-5.73,6.31-9.84,12.94-10.49Z"/>
      <path class="cls-99" d="M145.9,54.17c-1.61-6.28-3.72-12.31-7.37-17.79-2.29-3.43-.64-6.27,2.41-8.49,6.34-4.62,14.45-4.91,19.96-.68,6.2,4.76,8.17,12.53,5.09,20.11-.37.92-.81,1.81-1.21,2.72-6.59,6.92-12.03,8.11-18.88,4.13Z"/>
      <path class="cls-4" d="M83.67,30.26c-.03,1.72,1.36,1.56,2.43,1.86,6.23,1.72,10,5.8,10.92,12.15.35,2.39,1.08,3.25,3.43,2.69,3.4-.8,6.23,3.02,8.41,2.44,2.48-.66,4.02-4.54,6.98-5.95,5.28-2.49,12.13-1.61,16.37,2.16,4.52,4.01,6.14,10.65,3.99,16.41-2.14,5.74-7.02,9.23-13.36,9.47-1.32.05-2.65-.08-3.98-.12-.37.24-.78.38-1.22.43-1.55-.17-2.99-.69-4.39-1.34-.4-.18-.76-.42-1.11-.68-.67-.52-1.18-1.19-1.64-1.89-.44-.54-.89-1.01-1.54-.25-.27.74-.21,1.51-.4,2.25-.16.45-.41.83-.73,1.17-1.46,1.15-3.01,1.61-4.75.66-.37-.3-.63-.69-.79-1.13-3.12-3.15-7.86-3.75-12.34-1.54-.39.29-.82.47-1.29.57-1.05-.04-1.83-.5-2.33-1.44-.79-2.02,1.01-3.33,1.46-5.26-4.39-.99-10.13,2.26-12.88-3.85.4-.35.8-.7,1.19-1.05,4.46-5.32,10.83-8.23,16.67-13.11-6.53,4.1-11.3,9.32-17.68,12.23-1.77.11-2.84-1.1-3.97-2.16.58-.52,1.16-1.04,1.74-1.56-.03-2.53,1.82-3.76,3.57-4.99,3.37-2.37,6.67-4.85,9.94-7.35,1.06-.81,3.24-1.61,2.1-3.24-1.4-2.01-3.24-.68-4.64.59-3.05,2.77-5.84,5.81-8.8,8.68-1.33,1.29-2.44,3.35-4.92,2.29-.53-3.68,1.17-7.39-.18-11.06.66-.71,1.32-1.43,1.98-2.14,1.99-.67,3.99-1.35,5.98-2.02,1.97-1.24,3.06-3.77,5.77-3.93Z"/>
      <path class="cls-65" d="M70.13,49.41c3.89-3.79,7.77-7.59,11.66-11.38,5.29-5.15,5.78-5.13,10.87.69-6.6,4.91-13.2,9.8-19.79,14.7-2.46-.28-2.5-2.21-2.75-4.01Z"/>
      <path class="cls-75" d="M147.04,110.21c-.59,1.61.12,3.52-1.18,4.96-1.99,2.41-2.57,6.17-6.49,6.72-.48-.07-.92-.22-1.34-.46-4.18-5.67-9.16-10.4-15.51-13.64-1.47-.75-2.71-1.91-3.34-3.55-.73-2.96,2.48-3.83,3.18-6.04,1.91-3.27,4.54-5.86,7.62-8.02,8.39-2.98,15.65,2.88,16.78,13.64.22,2.12.2,4.26.28,6.39Z"/>
      <path class="cls-98" d="M109.92,82.98c.49,1.15,1.29,2.02,2.58,2.05,10.3.21,20.64.64,28.8-7.51,1.09-1.09,1.95-2.22,2.65-3.53.89-1.67,1.74-1.02,2.59.04-1.3,4.34-4.39,7.33-7.68,10.18-3.48,2.29-7.51,3.27-11.34,4.72-1.94,2.67-4.8,1.51-7.3,1.68-2.46.16-4.95.09-7.42-.03-.82-.06-1.58-.34-2.37-.54-6.03-1.52-6.25-2.24-2.13-7.02.53-.29,1.07-.3,1.62-.03Z"/>
      <path class="cls-109" d="M129.97,90.19c-1.25,3.42-4.32,5.55-6.09,8.62-2.4,2.55-4.41,2.84-5.74-.97-.11-.5-.11-1.01,0-1.52,1.87-3.91,5.82-4.8,9.31-6.35.45-.2.9-.22,1.35-.02.39.08.78.16,1.17.24Z"/>
      <path class="cls-82" d="M119.19,95.98c-.08.4-.16.8-.24,1.2-.4.25-.83.32-1.3.2-1.53-.77-2.02-2.38-2.94-3.64-.39-2.33-3.56-1.78-4.11-3.95.19-.77.55-1.25,1.42-.8,5.17-.03,10.34-.05,15.51-.08.42.34.85.68,1.27,1.02-.36.15-.71.3-1.07.45-2.84,1.87-7.73.62-8.55,5.58Z"/>
      <path class="cls-104" d="M9.13,79.14c0-.33,0-.67,0-1,.94-1.69,1.83-3.41,2.82-5.07,4.21-7.05,10.16-9.25,19.09-7.09,6.86,2.25,1.48,4.14-.18,6.15-3.77,4.31-7.53,8.65-13.34,10.35-3.43.47-6.6.31-8.38-3.33Z"/>
      <path class="cls-76" d="M40.96,67.48c-3.14,6.55,1.25,10.51,5.04,14.68-1.27,1.94-3.25,2.38-5.37,2.53-2.46-.61-4.99,1.31-7.45-.16-3.21-2.21-3.04-5.37-2.41-8.66,2.14-4.32,5.55-7.11,10.19-8.39Z"/>
      <path class="cls-96" d="M6.84,90.17c-.28-.61-.56-1.21-.85-1.82.37-1.87,1.74-2.86,3.26-3.72,2.81-2.7,6.88-2.16,10.05-3.94,1.44-.37,2.89-1.05,4.24.22,1.5.1,3.01.2,4.51.31,2.63,1.91,1.38,5.03,2.32,7.47.03.8.02,1.61-.03,2.41-.37,1.64-1.17,2.94-2.81,3.58-.49.08-.98.02-1.44-.17-1.97-2.03.88-4.5-.61-6.58-.35-2.91-1.82-3.91-4.72-3.05-2.54.76-4.84,1.93-7.06,3.34-1.62,1.03-3.09,2.52-5.29,2.16-.52-.07-1.05-.15-1.57-.22Z"/>
      <path class="cls-42" d="M29.09,88.56c-1.19-2.33-.92-4.86-1.03-7.34,1.27-1.59,1-3.96,2.7-5.34.6,2.95,1.85,5.65,3.2,8.32-1.17,3.49-2.36,4.56-4.87,4.36Z"/>
      <path class="cls-28" d="M23.55,80.91c-1.5.1-3,.2-4.49.29-.53.5-.96.43-1.3-.21,5.13-1.83,8.37-6.45,13.1-8.87-2.66,2.74-1.91,8.32-7.31,8.78Z"/>
      <path class="cls-57" d="M74.92,59.08c4.97,3.24,10.07,2.52,15.55.19,0,1.96.63,4.1-.17,5.22-.9,1.25-3.37,1.3-3.32,3.68-.11.47-.26.93-.45,1.38-.55,1.19-1.21,2.32-1.75,3.51-.75,1.64-1.4,3.77-3.58,3.41-2.21-.36-4.3-1.5-4.3-4.36-2.46-3.34-4.3-6.91-4.39-11.19-.03-1.73.22-3.04,2.41-1.85Z"/>
      <path class="cls-71" d="M75.1,57.14c6.28-5.3,12.55-10.59,18.95-15.99,1.63,2.67,2.03,4.44-.75,6.09-5.81,3.45-11.46,7.17-17.18,10.78-.34-.29-.67-.59-1.01-.88Z"/>
      <path class="cls-37" d="M76.89,72.12c1.41,1.32,2.83,2.64,4.51,4.22,1.83-2.67,2.07-5.95,4.33-8.05,1.79,1.33,1.17,2.98.61,4.62-1.07,2.27-1.18,4.79-1.88,7.17-.36.62-.87,1.06-1.6,1.19-2.78-4.53-6.26-8.04-12-8.27,1.84-1.46,3.91-1.35,6.03-.87Z"/>
      <path class="cls-87" d="M3.26,102.44c.29-.44.58-.88.87-1.31.86-2.38,2.78-3.82,4.68-5.3,3.67-1.51,7.04-3.91,11.25-3.85,2.2.47,3.53,2.25,5.22,3.49,2.54,4.22-.18,8.77.81,13.1-.14.46-.24,1.05-.62,1.3-4.3,2.85-4.07,6.56-2.1,10.63.28,2.82-.23,5.32-2.79,7-5.23.39-10.92-3.65-13.81-10.03-.95-2.09-1.85-4.22-2.75-6.34-1.35-2.8-.62-5.78-.76-8.69Z"/>
      <path class="cls-106" d="M4.02,111.13c2.61,1.73,3.25,4.88,5.11,7.15,3.03,3.7,6,7.48,10.89,8.91,1.01.57,1.29,1.56,1.48,2.6.39,1.55.63,3.08-.79,4.3-2.78-.44-4.4-2.83-6.76-3.98-4.99-5.45-9.59-11.09-9.93-18.98Z"/>
      <path class="cls-100" d="M20.09,92.84c-3.67,1.53-7.34,3.07-11.01,4.6-1.5.27-3.23,1.06-3.37-1.57.06-2.24,1.97-3.58,2.71-5.49,3.28-3.38,7-6.03,11.64-7.19,6.46-1.61,6.64-1.46,6.87,5.01-.39,2.5-2.59,2.87-4.38,3.73-.79.38-1.68.49-2.46.9Z"/>
      <path class="cls-10" d="M5.71,95.88c.86,1.09,2.13,1.29,3.37,1.57-1.65,1.23-3.3,2.46-4.95,3.68-.09-1.94.34-3.72,1.58-5.25Z"/>
      <path class="cls-59" d="M9.91,85.89c-1.34.76-2.19,2.3-3.91,2.46-4.88.25-3.54-3.64-4.15-6.23,1.78-2.65,4.06-3.53,7.03-1.99,4.5,1.18,2.25,3.56,1.03,5.76Z"/>
      <path class="cls-64" d="M9.91,85.89c-.51-1.89,1.69-4.26-1.02-5.76.08-.33.17-.65.25-.98,2.73,1.31,5.44,2.68,8.62,1.85.43.07.87.14,1.3.21-3.05,1.56-6.1,3.12-9.15,4.68Z"/>
      <path class="cls-35" d="M20.71,134.09c-.15-1.36-1-2.64-.46-4.08.27-1.18.35-2.51,2.05-2.54,3.56.17,6.26,3.02,9.85,3.14,8.18,2.5,16.74,3.25,24.96,5.52,2.22.61,4.47,1.05,6.35,2.51,1.48,2.31,2.88,4.63.19,7.05-15.06-1.12-29.72-3.73-42.95-11.61Z"/>
      <path class="cls-55" d="M63.65,145.7c.72-2.33-.32-4.46-.75-6.65-.61-.84-.53-1.58.29-2.24,9.02.33,18.05.21,27.08.26,2.81.01,5.57-.29,8.35-.65.59.04,1.12.24,1.61.58,2.33,2.95.63,5.34-1.07,7.74-.44.19-.88.37-1.33.56-5.41.54-10.82,1.08-16.23,1.62-3.2,0-6.41.02-9.61.03-2.78-.41-5.56-.82-8.34-1.23Z"/>
      <path class="cls-54" d="M99.17,144.72c-.39-2.65.65-5.12.94-7.68,2.67-2.77,6.45-2.54,9.74-3.12,7.82-1.37,14.4-5.94,21.97-7.84,4.89,1.16,5.24,1.81,2.96,5.56-4.69,5.49-11.73,6.63-17.78,9.6-2.13.59-4.25,1.17-6.38,1.76-3.82.58-7.63,1.16-11.45,1.74Z"/>
      <path class="cls-41" d="M134.78,131.63c1.09-2.22.53-3.75-1.89-4.5-.16-3.76,2.16-5.3,5.4-6.03.18,0,.36.02.54.05,1.9,1.6,2.04,3.61,1.34,5.81-1.68,1.7-2.74,4.11-5.4,4.67Z"/>
      <path class="cls-20" d="M140.17,126.97c-.45-1.94-.89-3.87-1.34-5.81,3.11-1.1,4.06-4.72,7.03-5.99-.62,4.55-2.73,8.38-5.68,11.8Z"/>
      <path class="cls-108" d="M76.8,33.11c-3.19,1.41-5.42.94-5.85-3.01-1.52-8.6,1.48-14.23,8.92-17.4,3.26-1.39,5.99-.93,8.65,1.15,1.1,3.4.09,6.65-2.57,8.39-3.53,2.3-4.51,5.4-4.95,9.09-.8,2-2.67,1.51-4.2,1.79Z"/>
      <path class="cls-30" d="M80.1,31.33c-.06-1.96-.16-3.93-.16-5.89,0-1.14-.02-2.78,1.32-2.84,5.58-.27,5.18-5.03,6.64-8.41,1.04-.73,2.1-.59,3.16-.05,1.3.99,2.59,1.99,3.89,2.98-.15.69-.3,1.38-.45,2.07-4.62,3.84-9.35,7.58-13.06,12.39-.24.32-.93.04-1.34-.26Z"/>
      <path class="cls-39" d="M91.06,14.14c-1.05.02-2.11.03-3.16.05-7.13-3.51-16.1,2.03-16.91,10.49-.17,1.79-.03,3.61-.04,5.42-2.09-6.66-.64-11.75,4.54-15.91,4.6-3.69,9.54-3.71,15.56-.04Z"/>
      <path class="cls-45" d="M80.1,31.33c4.78-4.07,8.03-9.96,14.41-12.13.44.29.89.58,1.33.87-4.82,2.49-8.83,5.94-12.16,10.2-1.42,2.05-2.44,4.68-5.77,3.93-.37-.36-.74-.72-1.11-1.08,1.1-.59,2.2-1.19,3.3-1.78Z"/>
      <path class="cls-40" d="M27.45,94.24c.55-.92,1.09-1.84,1.64-2.76,2.17-4.86,6.02-7.48,11.18-8.33,1.91-.33,3.82-.66,5.73-.99,9.41,2.52,18.76,5.26,28.24,7.44,3.11.72,6.5-.29,9.62-1.39,1.49,1.39,1.13,2.94.39,4.53-.48.98-1.11,1.85-1.99,2.52-7.14,6.7-15.81,7.47-24.93,6.3-2.62-.34-5.22-.74-7.84-.21-1.52,1.25-.9,3.02-1.11,4.58-2.02,6.95-6.53,9.44-13.47,7.18-1.72-.56-3.36-1.24-5.19-1.22-.92-.1-1.76-.4-2.53-.9-3-4.58-2.88-12.09.26-16.75Z"/>
      <path class="cls-90" d="M83.04,92.19c.27-1.32.55-2.65.82-3.97,1.4-.95,2.93-1.81.81-3.62-1-.85-1.76-1.93-1.81-3.34.29-.35.58-.71.86-1.06.24.05.48.11.73.16.69.3,1.27.75,1.79,1.3,1.73,2.81,4.45,1.26,6.75,1.51,2.12.24,4.23.53,6.37.5,2.17.91,4.28,1.08,6.42-.22,1.06-.64,2.27-1.31,3.56-.33.01,1.99-2.22,2.63-2.74,4.46,1.86.49,3.64.95,5.42,1.42-.38.35-.76.69-1.14,1.04,0,.79-.34,1.4-.98,1.85-2.48.81-4.5-.61-6.65-1.39-3.44-1.25-6.91-2.16-10.63-2.39-3.98-.25-4.9,4.35-8.34,4.71-.48-.08-.89-.3-1.23-.64Z"/>
      <path class="cls-25" d="M113.1,69.15c1.79-.02,3.37.58,4.79,1.66-.13,3.42.88,7.37-3.96,8.63-1.36.84-3.48.52-4.03,2.61-3.41-.37-2.02-3.14-2.49-4.97-.03-1.89-.95-3.91.74-5.58,1.71-.64,2.95-2.3,4.95-2.35Z"/>
      <path class="cls-63" d="M109.04,77.05c1.66,1.43-1.23,3.65.86,5,.04.31.05.62.02.94-.2.03-.39.08-.59.14-2.95,1.62-5.38,5.34-9.48,2.38-.38-1.47-.07-2.86.46-4.24.33-2.89,2.4-4.2,4.75-5.27,1.59-.65,2.92-.32,3.98,1.05Z"/>
      <path class="cls-5" d="M113.93,79.44c2.68-1.59,3.52-3.96,2.94-6.93-.17-.88-.78-2,1.02-1.71.33.19.65.38.98.58.04,3.72.61,7.76-4.94,8.06Z"/>
      <path class="cls-84" d="M145.9,27.46c8.63-3.16,15.49-.39,18.83,7.6,2.9,6.94.01,15.16-6.68,18.22-3.47,1.59-7.2,2.68-10.39-.85-.18-.32-.28-.7-.07-.91,5.58-5.43,5.82-7.89,1.57-14.48-1.88-2.9-3.15-6.06-3.26-9.59Z"/>
      <path class="cls-16" d="M145.9,27.46c1.56.84,3.26,1.36,2.69,3.92-.4,1.82.73,3.83,2.07,4.8,3.37,2.43,3.2,5.71,3.25,9.2.06,4.4-1.38,7.16-6.25,7.04-2.38-6.05-4.91-12.01-7.76-17.89-2.19-4.52,2.77-5.68,6-7.08Z"/>
      <path class="cls-13" d="M112.42,63.72c-.88.14-1.21-.33-1.57-.95-.59-1.05-1.26-2.05-.18-3.14,4.8-4.85,9.35-9.98,14.52-14.39,2.6-2.22,4.97.91,6.57,2.67,1.85,2.03-1,2.5-2.05,3.28-4.91,3.7-9.93,7.25-14.91,10.86-.81.58-1.63,1.15-2.38,1.68Z"/>
      <path class="cls-79" d="M115.15,67.07c5.59-4.58,11.17-9.18,16.8-13.71.73-.59,1.74-2.1,2.73-.44.65,1.09,1.12,2.81-.16,3.66-6.09,4.05-12.3,7.92-18.46,11.85l-.91-1.36Z"/>
      <path class="cls-9" d="M84.82,73.23c0-1.7,2.12-3.02.91-4.94.42-.04.83-.08,1.24-.12.64.31,1.28.62,1.92.92,2.72-1.35,5.4.59,8.11.1,2.01.06,4.13-.49,5.91.98-.03.31-.02.62.05.93,2.52,2.4,1.11,3.92-1.17,5.25-5.26.17-10.35-1.69-15.64-1.37-.77.05-1.43-.75-1.33-1.75Z"/>
      <path class="cls-85" d="M102.92,70.18c-1.88,1.12-3.94,1.12-6.03.96-2.3-1.91-5.78-.74-7.94-3.01-.21-1.26.44-1.79,1.6-1.85,5.19-.28,10.33-.21,15.21,2.16-.54,1.52-1.85,1.37-2.84,1.75Z"/>
      <path class="cls-81" d="M100.51,54.25c-.71,2.15-.54,5.05-3.86,4.88-1.74-.09-1.88-1.74-1.72-3.06.3-2.42,1.3-4.68,4.03-4.82,1.77-.09,1.57,1.73,1.54,3Z"/>
      <path class="cls-15" d="M101.85,75.23c1.41-1.1,1.78-2.47,1.11-4.13,1.65-.15,3.3-.29,4.94-.44.84.2,1.33.64,1.08,1.59-1.01,1.61.37,3.2.05,4.8-1.07-.39-2.12-.52-3.15.13-1.53.66-3.03,1.08-4.34-.45-.17-.55-.07-1.05.3-1.5Z"/>
      <path class="cls-94" d="M108.99,72.25c-.36-.53-.72-1.06-1.08-1.59.05-.55.11-1.1.16-1.65,1.57-1.54,3.09-.9,4.59.13l.23-.2s.22.2.22.2c-1.39,1.01-1.32,3.96-4.12,3.1Z"/>
      <path class="cls-8" d="M88.95,68.12c2.44,1.56,6.16-.28,7.94,3.01-2.73-.44-5.51-.63-7.99-2.04,0-.32.02-.65.05-.97Z"/>
      <path class="cls-58" d="M107.68,67.08c-.02-1.14.08-2.88.97-2.98,1.9-.22,2.04,2.05,3.07,3.13-1.39,1.12-2.74,1.05-4.04-.15Z"/>
      <path class="cls-51" d="M107.68,67.08c1.35.05,2.7.1,4.04.15.62.49,1.22.98.93,1.91-1.53-.04-3.06-.09-4.59-.13-.13-.64-.26-1.29-.38-1.93Z"/>
      <path class="cls-105" d="M138.29,121.11c-1.8,2.01-3.6,4.02-5.4,6.03-7.98,3.49-15.75,7.48-24.43,9.14-2.79.53-5.52,1.05-8.36.77,0,0-.45.11-.45.11-1.12-.87-1.65-2.11-1.65-3.44.03-7.15-1.65-13.95-3.93-20.65-.37-1.09-.37-2.26-.02-3.4.55-1.42,1.72-2.04,3.09-2.41,3.22-.11,6.4.04,9.25,1.84,6.25,4.11,9.6,3.39,12.08-2.63.3-.95.64-1.85,1.88-1.82,4.66,2.75,9.67,4.95,13.48,8.97,2.06,2.17,4,4.39,4.46,7.5Z"/>
      <path class="cls-73" d="M120.35,104.64c-.18.83-.35,1.66-.53,2.49-.57.31-1.07.23-1.53-.22-1.82-3.2-2.23-6.42-.18-9.69.28-.03.55-.03.83-.03.74,3.32,2.69,2.93,4.94,1.62.02,2.67-4.43,2.63-3.54,5.83Z"/>
      <path class="cls-93" d="M119.19,95.98c-2.81-5.52-2.81-5.49,3.19-5.37,1.79.04,3.58-.14,5.37-.21-2.85,1.86-5.7,3.72-8.55,5.58Z"/>
      <path class="cls-50" d="M118.11,97.21c.91,3.18.87,6.42.66,9.68,0,.94-.4,1.65-1.19,2.15-3.19,1.22-6.61.98-9.06-.95-5.42-4.26-11.86-3.38-17.91-4.4-1.79-.3-3.65-.17-5.24-1.26-4.09-5.13-4.17-5.84-1.03-10.02,2.85-.44.85-3.84,3.1-4.9,3.03-1.42,6.04-1.39,9.19-.97,4.99.67,9.27,3.27,13.85,5.04,2.14-.65,3.59,1.16,5.45,1.53.73,1.36,1.46,2.73,2.18,4.09Z"/>
      <path class="cls-107" d="M115.92,93.12c-2.94,3.49-3.64-.98-5.45-1.53.13-.52.27-1.03.4-1.55,2.16.24,4.75-.22,5.04,3.08Z"/>
      <path class="cls-91" d="M40.27,83.16c-4.3,2-8.38,4.31-11.18,8.33,0-.97,0-1.95,0-2.93,1.62-1.45,3.25-2.91,4.87-4.36,2.11-.26,3.89-2.59,6.3-1.04Z"/>
      <path class="cls-34" d="M21.8,91.31c.5-3.03,3.97-1.16,5.13-3.1,2.11,2.3-.47,3.98-.79,5.96.12.97-.4,1.31-1.28,1.3-1.72-.87-3.89-1.41-3.06-4.15Z"/>
      <path class="cls-72" d="M24.97,94.97c.39-.27.78-.53,1.17-.8.44.02.87.05,1.31.07-.76,3.65-1.72,7.24-1.57,11.04.08,2,.39,3.66,2.09,4.85-.96.93-2,.94-3.1.28-.43-.49-.46-1-.08-1.53-1.51-4.2,1.34-8.7-.86-12.85-.18-.88.12-1.28,1.05-1.06Z"/>
      <path class="cls-67" d="M101.85,75.23c0,.33,0,.67,0,1-1.52,2.49-4.09,2.96-6.56,2.77-3.85-.3-7.53.28-11.23,1.13,0,0-.34.07-.34.07-.49-2.46-.4-4.82,1.09-6.97,5.8-.37,11.39,1.05,17.03,2Z"/>
      <path class="cls-22" d="M63.16,137.14c-.08.63-.17,1.27-.25,1.9-10.75-1.87-21.51-3.72-31.98-6.9-2.74-1.92-5.07-4.74-8.99-3.98-.56.62-1.12,1.24-1.68,1.85-.08-.94-.16-1.88-.24-2.82.85-2.25,1.71-4.51,2.56-6.77,2.41-1.2,4.6.59,6.92.53,5.26,1.76,10.03-.25,14.81-1.98,1.97-.72,2.43-2.52,2.6-4.42,1.74-9.99,1.73-9.96,11.85-8.17,2.73.48,5.58.45,7.77,2.55,1.86,3.04.47,6.07-.05,9.1-.78,4.54-1.68,9.06-1.52,13.7.07,1.99-.06,3.99-1.81,5.41Z"/>
      <path class="cls-48" d="M28.67,122.27c-2.25.1-4.21-.78-6.1-1.85-3.96-5.48-3.64-7.12,2.21-11.54.08.58.15,1.17.23,1.75.84,2.31-2.49,5.74,1.91,7.1,1.87,2.29,6.02.64,7.17,4.16-1.73,1.27-3.58.75-5.42.39Z"/>
      <path class="cls-53" d="M24.97,94.97c-.35.35-.7.71-1.05,1.06-1.28-1.06-2.55-2.12-3.83-3.19.04-.71.08-1.41.12-2.12.53.2,1.06.39,1.59.59.28,1.89,2.14,2.42,3.16,3.66Z"/>
      <path class="cls-26" d="M21.93,128.16c5.36-4.02,6.83.77,8.99,3.98-3.28-.69-6.16-2.27-8.99-3.98Z"/>
      <path class="cls-103" d="M63.16,137.14c-1.26-9.46,1-18.58,2.77-27.74,1.53-2.65,4.28-2.15,6.26-1.61,6.23,1.69,12.2-.05,18.27-.65,1.88-.01,3.54.38,4.29,2.39,3.9,8.8,5.99,17.93,4.9,27.62-1.68,1.55-3.65,2.01-5.92,1.99-8.44-.08-16.88-.05-25.32,0-2.05.01-3.99-.03-5.26-1.99Z"/>
      <path class="cls-44" d="M47.03,99.24c2.66-2.01,5.52-.3,7.99.12,9.71,1.64,18.65.59,26.77-5.29,1.11.83.52,2.15.91,3.21,2.56,7,2.43,7.22-4.86,9.1-9.87,2.55-19.5,1.71-28.92-2.04-1.51-1.37-.43-3.7-1.88-5.09Z"/>
      <path class="cls-29" d="M49.04,102.95c10.68,5.35,21.49,4.18,32.35.65,2.04-.66,3.51-1.72,1.62-3.86-1.54-1.74-1.02-3.74-1.22-5.67.42-.63.84-1.25,1.26-1.88.43.07.86.15,1.29.22-2.63,3.45.54,5.94,1.45,8.8.86,1.19,2.07,1.96,3.3,2.7.64.58,1.23,1.2,1.76,1.87.48.79.79,1.6.27,2.49-5.79,2.36-11.84,1.38-17.81,1.33-2.46-.02-4.92-.13-7.37-.2-4.21-.75-8.45-1.34-12.61-2.29-3.3-.76-4.53.16-4.18,3.58.18,1.76-.23,3.59-.38,5.38-.62.25-1.15.12-1.58-.4-2.8-3.51.7-6.86.26-10.31.13-1.07-.33-2.54,1.6-2.42Z"/>
      <path class="cls-19" d="M47.72,105.24c.06,3.54.12,7.07.18,10.61-2.17,4.51-8.3,6.89-14.07,5.46-2.9-.23-6,.04-7.82-3.01-.36-3.46,1.62-3.11,3.66-2.08,2.17,1.1,4.23,1.89,6.82.23-2.24-2.24-6.64-2.16-6.69-6.35,1.86-.2,3.44.5,5.13,1.22,5.88,2.51,10.38.12,12.17-6.27.21.06.41.12.62.18Z"/>
      <path class="cls-33" d="M29.8,110.11c2.28,1.74,4.11,4.38,7.63,3.5,1.11-.28,1.92.41,2.23,1.48.3,1.06-.22,1.91-.93,2.68-2.32,2.53-7.91,2.45-10.41-.31-1.7-1.88-1.82-.21-2.31.83-.19,1.8-1.32,1.39-1.74.42-.76-1.74-3.63-2.81-2.03-5.31.69-1.08,1.83-1.86,2.76-2.78.98-.16,1.97-.33,2.95-.5.61,0,1.22-.02,1.84-.03Z"/>
      <path class="cls-24" d="M47.72,105.24c-.21-.06-.41-.12-.62-.18-.03-1.94-.05-3.88-.08-5.82,2.32.34,1.76,2.24,2.01,3.7-1.24.3-1.02,1.45-1.32,2.29Z"/>
      <path class="cls-69" d="M84.08,80.13c.78-2.05,1.58-3.5,4.48-3.11,4.42.58,8.91.18,13.31-.79,1.17,1.08,2.65.8,4.04.94-1.98,1.22-4.46,2.04-4.1,5.13-5.63,1.72-11.25.97-16.87-.11-1-.39-.84-1.26-.85-2.06Z"/>
      <path class="cls-56" d="M84.92,82.19c5.63-1.79,11.25-1.02,16.87.11-.65,1.07-1.29,2.13-1.94,3.2-3.37-.72-6.81-.77-10.19-.39-2.58.29-4.04-.53-4.75-2.92Z"/>
      <path class="cls-11" d="M90.09,106.25c-.96-.16-1.7-.61-2.07-1.54,6.24-2.36,15.22-.32,18.15,4.12.12.59,0,1.12-.39,1.59-2.46-1.68-5.47-1.17-8.14-2.02-2.46-.91-5.34-.34-7.54-2.15Z"/>
      <path class="cls-77" d="M117.67,108.13c.36-.41.73-.82,1.09-1.23.35.07.7.15,1.06.23-2.55,7.08-7.53,8.24-14.05,3.29.04-.25.14-.47.32-.65,2.06-1.26,4.1-.03,6.14.04,2,.07,3.85-.42,5.44-1.68Z"/>
      <path class="cls-3" d="M90.09,106.25c2.78-.5,5.26.69,7.83,1.38.05.01.07.29.02.4-.06.14-.2.24-.31.37-.96.38-1.91.76-2.87,1.14-1.21-.42-2.43-.84-3.64-1.26-.34-.67-.69-1.35-1.03-2.02Z"/>
      <path class="cls-27" d="M117.67,108.13c-3.09,6.02-7.46,2.99-11.59,1.64-3.52-5.12-9.3-3.58-14.15-4.75-1.26-.3-2.61-.22-3.92-.31-.98-1.02-2.45-1.72-2.23-3.49,2.77,1.48,5.87,1.01,8.79,1.21,6.14.43,11.89,1.78,17.26,4.86,1.74,1,3.83.96,5.84.85Z"/>
      <path class="cls-74" d="M33.83,121.3c5.26-.35,10.47-.82,14.07-5.45.28.09.56.17.85.23-.89,4.36-4.63,5.32-8.04,6.07-3.93.87-8.02,1.81-12.04.12,1.71-.4,3.61.25,5.16-.97Z"/>
      <path class="cls-92" d="M75.47,106.98c2.45-.78,4.93-1.47,7.34-2.37,1.43-.53,2.14-.21,2.51,1.22.49,1.93-1.03,1.62-2.03,1.86-2.59.62-5.19.21-7.82-.71Z"/>
    </g>
  </g>
</svg>