<?xml version="1.0" encoding="UTF-8"?>
<svg id="Isolation_Mode" data-name="Isolation Mode" xmlns="http://www.w3.org/2000/svg" viewBox="0 0 68.42 45.27">
  <defs>
    <style>
      .cls-1 {
        fill: #a7aeb4;
        stroke: #231f20;
        stroke-miterlimit: 10;
        stroke-width: 4px;
      }
    </style>
  </defs>
  <path class="cls-1" d="M66.4,27.97c-.32,1.45-.66,3.4-1.17,5.31-1.01,3.82-3.24,6.55-7.35,7.11-3.74.51-6.23-1.71-8.37-4.37-1.08-1.35-1.45-3.59-3.85-3.26-2.46.34-2.18,2.69-2.68,4.27-1.62,5.06-5.79,6.37-10.18,6.22-4.39-.15-9.13-.83-10.37-6.54-.34-1.56-.6-3.48-2.69-3.68-1.79-.17-2.52,1.5-3.26,2.7-2.49,4.01-6.08,4.16-9.94,2.83-4.01-1.38-4.8-4.88-4.48-8.47C3.53,13.57,16.14,2.23,32.96,2.01c8.39-.11,16.5.51,23.61,5.78,6.68,4.95,9.19,11.81,9.83,20.18Z"/>
</svg>